<?xml version='1.0'?>
<svg xmlns="http://www.w3.org/2000/svg" xmlns:xlink="http://www.w3.org/1999/xlink" width="1528.478261" height="111.000000">
<defs>
  <filter id="ds" x="0" y="0">
    <feOffset in="SourceAlpha" dx="2" dy="2" />
    <feComponentTransfer><feFuncA type="linear" slope="0.2"/></feComponentTransfer>
    <feGaussianBlur result="blurOut" stdDeviation="1" />
    <feBlend in="SourceGraphic" in2="blurOut" mode="normal" />
  </filter>
  <pattern id="disordered-hatch" patternUnits="userSpaceOnUse" width="4" height="4">
    <path d="M-1,1 l2,-2 M0,4 l4,-4 M3,5 l2,-2" stroke="#000000" opacity="0.3" />
  </pattern>
</defs>
<line x1="343.869565" x2="343.869565" y1="34.000000" y2="62.000000" stroke="#BABDB6" stroke-width="2"/><a xlink:title="p.L248_K274del"><circle cx="343.869565" cy="34.000000" r="4.000000" fill="#0000ff" /></a><g transform="translate(343.869565,34.000000) rotate(-30)"><text style="font-size:10px;fill:#555;" text-anchor="middle" x="0" y="-6.000000">p.L248_K274del</text></g><a xlink:title="ABL1_HUMAN, Tyrosine-protein kinase ABL1 EC=2.7.10.2 (1130aa)"><rect fill="#BABDB6" x="15.000000" y="62.000000" width="1498.478261" height="14.000000"/></a><g transform="translate(103.847826,57.000000)"><a xlink:href="http://pfam.xfam.org/family/PF00018" xlink:title="SH3 domain"><rect fill="#2dcf00" x="0" y="0" width="61.000000" height="24.000000" filter="url(#ds)"/><text style="font-size:12px;fill:#ffffff;" text-anchor="middle" x="30.500000" y="16.000000">SH3_1</text></a></g>
<g transform="translate(183.413043,57.000000)"><a xlink:href="http://pfam.xfam.org/family/PF00017" xlink:title="SH2 domain"><rect fill="#ff5353" x="0" y="0" width="99.456522" height="24.000000" filter="url(#ds)"/><text style="font-size:12px;fill:#ffffff;" text-anchor="middle" x="49.728261" y="16.000000">SH2</text></a></g>
<g transform="translate(335.913043,57.000000)"><a xlink:href="http://pfam.xfam.org/family/PF07714" xlink:title="Protein tyrosine kinase"><rect fill="#5b5bff" x="0" y="0" width="332.847826" height="24.000000" filter="url(#ds)"/><text style="font-size:12px;fill:#ffffff;" text-anchor="middle" x="166.423913" y="16.000000">Protein tyrosine kinase</text></a></g>
<g transform="translate(1374.239130,57.000000)"><a xlink:href="http://pfam.xfam.org/family/PF08919" xlink:title="F-actin binding"><rect fill="#ebd61d" x="0" y="0" width="139.239130" height="24.000000" filter="url(#ds)"/><text style="font-size:12px;fill:#ffffff;" text-anchor="middle" x="69.619565" y="16.000000">F_actin_bind</text></a></g>
<g class="axis">
<line x1="15.000000" x2="1513.478261" y1="91.000000" y2="91.000000" stroke="#AAAAAA" /><line x1="15.000000" x2="15.000000" y1="91.000000" y2="96.000000" stroke="#AAAAAA" /><line x1="15.000000" x2="15.000000" y1="91.000000" y2="96.000000" stroke="#AAAAAA" /><text style="font-size:10px;fill:#000000;" text-anchor="middle" x="15.000000" y="106.000000">0</text><line x1="103.847826" x2="103.847826" y1="91.000000" y2="96.000000" stroke="#AAAAAA" /><text style="font-size:10px;fill:#000000;" text-anchor="middle" x="103.847826" y="106.000000">67</text><line x1="164.847826" x2="164.847826" y1="91.000000" y2="96.000000" stroke="#AAAAAA" /><text style="font-size:10px;fill:#000000;" text-anchor="middle" x="164.847826" y="106.000000">113</text><line x1="282.869565" x2="282.869565" y1="91.000000" y2="96.000000" stroke="#AAAAAA" /><text style="font-size:10px;fill:#000000;" text-anchor="middle" x="282.869565" y="106.000000">202</text><line x1="343.869565" x2="343.869565" y1="91.000000" y2="96.000000" stroke="#AAAAAA" /><text style="font-size:10px;fill:#000000;" text-anchor="middle" x="343.869565" y="106.000000">248</text><line x1="668.760870" x2="668.760870" y1="91.000000" y2="96.000000" stroke="#AAAAAA" /><text style="font-size:10px;fill:#000000;" text-anchor="middle" x="668.760870" y="106.000000">493</text><line x1="1374.239130" x2="1374.239130" y1="91.000000" y2="96.000000" stroke="#AAAAAA" /><text style="font-size:10px;fill:#000000;" text-anchor="middle" x="1374.239130" y="106.000000">1025</text><line x1="1513.478261" x2="1513.478261" y1="91.000000" y2="96.000000" stroke="#AAAAAA" /><text style="font-size:10px;fill:#000000;" text-anchor="middle" x="1513.478261" y="106.000000">1130</text></g>
</svg>
