<?xml version='1.0'?>
<svg xmlns="http://www.w3.org/2000/svg" xmlns:xlink="http://www.w3.org/1999/xlink" width="18509.500000" height="111.000000">
<defs>
  <filter id="ds" x="0" y="0">
    <feOffset in="SourceAlpha" dx="2" dy="2" />
    <feComponentTransfer><feFuncA type="linear" slope="0.2"/></feComponentTransfer>
    <feGaussianBlur result="blurOut" stdDeviation="1" />
    <feBlend in="SourceGraphic" in2="blurOut" mode="normal" />
  </filter>
  <pattern id="disordered-hatch" patternUnits="userSpaceOnUse" width="4" height="4">
    <path d="M-1,1 l2,-2 M0,4 l4,-4 M3,5 l2,-2" stroke="#000000" opacity="0.3" />
  </pattern>
</defs>
<line x1="944.500000" x2="944.500000" y1="34.000000" y2="62.000000" stroke="#BABDB6" stroke-width="2"/><a xlink:title="p.L143Afs"><circle cx="944.500000" cy="34.000000" r="4.000000" fill="#ff0000" /></a><g transform="translate(944.500000,34.000000) rotate(-30)"><text style="font-size:10px;fill:#555;" text-anchor="middle" x="0" y="-6.000000">p.L143Afs</text></g><a xlink:title="APC_HUMAN, Adenomatous polyposis coli protein (2843aa)"><rect fill="#BABDB6" x="15.000000" y="62.000000" width="18479.500000" height="14.000000"/></a><g transform="translate(41.000000,57.000000)"><a xlink:href="http://pfam.xfam.org/family/PF16689" xlink:title="Coiled-coil N-terminus of APC, dimerisation domain"><rect fill="#2dcf00" x="0" y="0" width="331.500000" height="24.000000" filter="url(#ds)"/><text style="font-size:12px;fill:#ffffff;" text-anchor="middle" x="165.750000" y="16.000000">APC_N_CC</text></a></g>
<g transform="translate(840.500000,57.000000)"><a xlink:href="http://pfam.xfam.org/family/PF11414" xlink:title="Adenomatous polyposis coli tumour suppressor protein"><rect fill="#ff5353" x="0" y="0" width="520.000000" height="24.000000" filter="url(#ds)"/><text style="font-size:12px;fill:#ffffff;" text-anchor="middle" x="260.000000" y="16.000000">Suppressor_APC</text></a></g>
<g transform="translate(3343.000000,57.000000)"><a xlink:href="http://pfam.xfam.org/family/PF00514" xlink:title="Armadillo/beta-catenin-like repeat"><rect fill="#5b5bff" x="0" y="0" width="266.500000" height="24.000000" filter="url(#ds)"/><text style="font-size:12px;fill:#ffffff;" text-anchor="middle" x="133.250000" y="16.000000">Arm</text></a></g>
<g transform="translate(4233.500000,57.000000)"><a xlink:href="http://pfam.xfam.org/family/PF00514" xlink:title="Armadillo/beta-catenin-like repeat"><rect fill="#5b5bff" x="0" y="0" width="260.000000" height="24.000000" filter="url(#ds)"/><text style="font-size:12px;fill:#ffffff;" text-anchor="middle" x="130.000000" y="16.000000">Arm</text></a></g>
<g transform="translate(4773.000000,57.000000)"><a xlink:href="http://pfam.xfam.org/family/PF16629" xlink:title="Armadillo-associated region on APC"><rect fill="#ebd61d" x="0" y="0" width="1865.500000" height="24.000000" filter="url(#ds)"/><text style="font-size:12px;fill:#ffffff;" text-anchor="middle" x="932.750000" y="16.000000">Armadillo-associated region on APC</text></a></g>
<g transform="translate(6645.000000,57.000000)"><a xlink:href="http://pfam.xfam.org/family/PF05972" xlink:title="APC 15 residue motif"><rect fill="#ba21e0" x="0" y="0" width="91.000000" height="24.000000" filter="url(#ds)"/><text style="font-size:12px;fill:#ffffff;" text-anchor="middle" x="45.500000" y="16.000000">APC_15aa</text></a></g>
<g transform="translate(6749.000000,57.000000)"><a xlink:href="http://pfam.xfam.org/family/PF16630" xlink:title="Unstructured region on APC between 1st and 2nd catenin-bdg motifs"><rect fill="#ff9c42" x="0" y="0" width="643.500000" height="24.000000" filter="url(#ds)"/><text style="font-size:12px;fill:#ffffff;" text-anchor="middle" x="321.750000" y="16.000000">APC_u5</text></a></g>
<g transform="translate(7399.000000,57.000000)"><a xlink:href="http://pfam.xfam.org/family/PF05972" xlink:title="APC 15 residue motif"><rect fill="#ba21e0" x="0" y="0" width="91.000000" height="24.000000" filter="url(#ds)"/><text style="font-size:12px;fill:#ffffff;" text-anchor="middle" x="45.500000" y="16.000000">APC_15aa</text></a></g>
<g transform="translate(7522.500000,57.000000)"><a xlink:href="http://pfam.xfam.org/family/PF05972" xlink:title="APC 15 residue motif"><rect fill="#ba21e0" x="0" y="0" width="91.000000" height="24.000000" filter="url(#ds)"/><text style="font-size:12px;fill:#ffffff;" text-anchor="middle" x="45.500000" y="16.000000">APC_15aa</text></a></g>
<g transform="translate(7633.000000,57.000000)"><a xlink:href="http://pfam.xfam.org/family/PF05972" xlink:title="APC 15 residue motif"><rect fill="#ba21e0" x="0" y="0" width="91.000000" height="24.000000" filter="url(#ds)"/><text style="font-size:12px;fill:#ffffff;" text-anchor="middle" x="45.500000" y="16.000000">APC_15aa</text></a></g>
<g transform="translate(8185.500000,57.000000)"><a xlink:href="http://pfam.xfam.org/family/PF05923" xlink:title="APC repeat"><rect fill="#ff7dff" x="0" y="0" width="149.500000" height="24.000000" filter="url(#ds)"/><text style="font-size:12px;fill:#ffffff;" text-anchor="middle" x="74.750000" y="16.000000">APC repeat</text></a></g>
<g transform="translate(8348.000000,57.000000)"><a xlink:href="http://pfam.xfam.org/family/PF16633" xlink:title="Unstructured region on APC between 1st two creatine-rich regions"><rect fill="#b9264f" x="0" y="0" width="559.000000" height="24.000000" filter="url(#ds)"/><text style="font-size:12px;fill:#ffffff;" text-anchor="middle" x="279.500000" y="16.000000">APC_u9</text></a></g>
<g transform="translate(8926.500000,57.000000)"><a xlink:href="http://pfam.xfam.org/family/PF05923" xlink:title="APC repeat"><rect fill="#ff7dff" x="0" y="0" width="143.000000" height="24.000000" filter="url(#ds)"/><text style="font-size:12px;fill:#ffffff;" text-anchor="middle" x="71.500000" y="16.000000">APC repeat</text></a></g>
<g transform="translate(9674.000000,57.000000)"><a xlink:href="http://pfam.xfam.org/family/PF05923" xlink:title="APC repeat"><rect fill="#ff7dff" x="0" y="0" width="149.500000" height="24.000000" filter="url(#ds)"/><text style="font-size:12px;fill:#ffffff;" text-anchor="middle" x="74.750000" y="16.000000">APC repeat</text></a></g>
<g transform="translate(10200.500000,57.000000)"><a xlink:href="http://pfam.xfam.org/family/PF05924" xlink:title="SAMP Motif"><rect fill="#baba21" x="0" y="0" width="136.500000" height="24.000000" filter="url(#ds)"/><text style="font-size:12px;fill:#ffffff;" text-anchor="middle" x="68.250000" y="16.000000">SAMP Motif</text></a></g>
<g transform="translate(10655.500000,57.000000)"><a xlink:href="http://pfam.xfam.org/family/PF05923" xlink:title="APC repeat"><rect fill="#ff7dff" x="0" y="0" width="149.500000" height="24.000000" filter="url(#ds)"/><text style="font-size:12px;fill:#ffffff;" text-anchor="middle" x="74.750000" y="16.000000">APC repeat</text></a></g>
<g transform="translate(10818.000000,57.000000)"><a xlink:href="http://pfam.xfam.org/family/PF16634" xlink:title="Unstructured region on APC between APC_crr and SAMP"><rect fill="#c48484" x="0" y="0" width="344.500000" height="24.000000" filter="url(#ds)"/><text style="font-size:12px;fill:#ffffff;" text-anchor="middle" x="172.250000" y="16.000000">APC_u13</text></a></g>
<g transform="translate(11169.000000,57.000000)"><a xlink:href="http://pfam.xfam.org/family/PF05924" xlink:title="SAMP Motif"><rect fill="#baba21" x="0" y="0" width="136.500000" height="24.000000" filter="url(#ds)"/><text style="font-size:12px;fill:#ffffff;" text-anchor="middle" x="68.250000" y="16.000000">SAMP Motif</text></a></g>
<g transform="translate(11364.000000,57.000000)"><a xlink:href="http://pfam.xfam.org/family/PF16635" xlink:title="Unstructured region on APC between SAMP and APC_crr"><rect fill="#1f88a7" x="0" y="0" width="604.500000" height="24.000000" filter="url(#ds)"/><text style="font-size:12px;fill:#ffffff;" text-anchor="middle" x="302.250000" y="16.000000">Unstructured region on APC between SAMP and APC_crr</text></a></g>
<g transform="translate(11981.500000,57.000000)"><a xlink:href="http://pfam.xfam.org/family/PF05923" xlink:title="APC repeat"><rect fill="#ff7dff" x="0" y="0" width="156.000000" height="24.000000" filter="url(#ds)"/><text style="font-size:12px;fill:#ffffff;" text-anchor="middle" x="78.000000" y="16.000000">APC repeat</text></a></g>
<g transform="translate(12150.500000,57.000000)"><a xlink:href="http://pfam.xfam.org/family/PF16636" xlink:title="Unstructured region on APC between APC_crr regions 5 and 6"><rect fill="#cafeb8" x="0" y="0" width="520.000000" height="24.000000" filter="url(#ds)"/><text style="font-size:12px;fill:#ffffff;" text-anchor="middle" x="260.000000" y="16.000000">APC_u15</text></a></g>
<g transform="translate(12683.500000,57.000000)"><a xlink:href="http://pfam.xfam.org/family/PF05923" xlink:title="APC repeat"><rect fill="#ff7dff" x="0" y="0" width="149.500000" height="24.000000" filter="url(#ds)"/><text style="font-size:12px;fill:#ffffff;" text-anchor="middle" x="74.750000" y="16.000000">APC repeat</text></a></g>
<g transform="translate(13067.000000,57.000000)"><a xlink:href="http://pfam.xfam.org/family/PF05923" xlink:title="APC repeat"><rect fill="#ff7dff" x="0" y="0" width="143.000000" height="24.000000" filter="url(#ds)"/><text style="font-size:12px;fill:#ffffff;" text-anchor="middle" x="71.500000" y="16.000000">APC repeat</text></a></g>
<g transform="translate(13216.500000,57.000000)"><a xlink:href="http://pfam.xfam.org/family/PF05924" xlink:title="SAMP Motif"><rect fill="#baba21" x="0" y="0" width="136.500000" height="24.000000" filter="url(#ds)"/><text style="font-size:12px;fill:#ffffff;" text-anchor="middle" x="68.250000" y="16.000000">SAMP Motif</text></a></g>
<g transform="translate(14464.500000,57.000000)"><a xlink:href="http://pfam.xfam.org/family/PF05956" xlink:title="APC basic domain"><rect fill="#4a9586" x="0" y="0" width="2288.000000" height="24.000000" filter="url(#ds)"/><text style="font-size:12px;fill:#ffffff;" text-anchor="middle" x="1144.000000" y="16.000000">APC basic domain</text></a></g>
<g transform="translate(17370.000000,57.000000)"><a xlink:href="http://pfam.xfam.org/family/PF05937" xlink:title="EB-1 Binding Domain"><rect fill="#ceb86c" x="0" y="0" width="1124.500000" height="24.000000" filter="url(#ds)"/><text style="font-size:12px;fill:#ffffff;" text-anchor="middle" x="562.250000" y="16.000000">EB-1 Binding Domain</text></a></g>
<g class="axis">
<line x1="15.000000" x2="18494.500000" y1="91.000000" y2="91.000000" stroke="#AAAAAA" /><line x1="15.000000" x2="15.000000" y1="91.000000" y2="96.000000" stroke="#AAAAAA" /><line x1="15.000000" x2="15.000000" y1="91.000000" y2="96.000000" stroke="#AAAAAA" /><text style="font-size:10px;fill:#000000;" text-anchor="middle" x="15.000000" y="106.000000">0</text><line x1="41.000000" x2="41.000000" y1="91.000000" y2="96.000000" stroke="#AAAAAA" /><text style="font-size:10px;fill:#000000;" text-anchor="middle" x="41.000000" y="106.000000">4</text><line x1="372.500000" x2="372.500000" y1="91.000000" y2="96.000000" stroke="#AAAAAA" /><text style="font-size:10px;fill:#000000;" text-anchor="middle" x="372.500000" y="106.000000">55</text><line x1="840.500000" x2="840.500000" y1="91.000000" y2="96.000000" stroke="#AAAAAA" /><text style="font-size:10px;fill:#000000;" text-anchor="middle" x="840.500000" y="106.000000">127</text><line x1="944.500000" x2="944.500000" y1="91.000000" y2="96.000000" stroke="#AAAAAA" /><text style="font-size:10px;fill:#000000;" text-anchor="middle" x="944.500000" y="106.000000">143</text><line x1="1360.500000" x2="1360.500000" y1="91.000000" y2="96.000000" stroke="#AAAAAA" /><text style="font-size:10px;fill:#000000;" text-anchor="middle" x="1360.500000" y="106.000000">207</text><line x1="3343.000000" x2="3343.000000" y1="91.000000" y2="96.000000" stroke="#AAAAAA" /><text style="font-size:10px;fill:#000000;" text-anchor="middle" x="3343.000000" y="106.000000">512</text><line x1="3609.500000" x2="3609.500000" y1="91.000000" y2="96.000000" stroke="#AAAAAA" /><text style="font-size:10px;fill:#000000;" text-anchor="middle" x="3609.500000" y="106.000000">553</text><line x1="4233.500000" x2="4233.500000" y1="91.000000" y2="96.000000" stroke="#AAAAAA" /><text style="font-size:10px;fill:#000000;" text-anchor="middle" x="4233.500000" y="106.000000">649</text><line x1="4493.500000" x2="4493.500000" y1="91.000000" y2="96.000000" stroke="#AAAAAA" /><text style="font-size:10px;fill:#000000;" text-anchor="middle" x="4493.500000" y="106.000000">689</text><line x1="4773.000000" x2="4773.000000" y1="91.000000" y2="96.000000" stroke="#AAAAAA" /><text style="font-size:10px;fill:#000000;" text-anchor="middle" x="4773.000000" y="106.000000">732</text><line x1="6638.500000" x2="6638.500000" y1="91.000000" y2="96.000000" stroke="#AAAAAA" /><text style="font-size:10px;fill:#000000;" text-anchor="middle" x="6638.500000" y="106.000000">1019</text><line x1="6736.000000" x2="6736.000000" y1="91.000000" y2="96.000000" stroke="#AAAAAA" /><text style="font-size:10px;fill:#000000;" text-anchor="middle" x="6736.000000" y="106.000000">1034</text><line x1="7392.500000" x2="7392.500000" y1="91.000000" y2="96.000000" stroke="#AAAAAA" /><text style="font-size:10px;fill:#000000;" text-anchor="middle" x="7392.500000" y="106.000000">1135</text><line x1="7490.000000" x2="7490.000000" y1="91.000000" y2="96.000000" stroke="#AAAAAA" /><text style="font-size:10px;fill:#000000;" text-anchor="middle" x="7490.000000" y="106.000000">1150</text><line x1="7522.500000" x2="7522.500000" y1="91.000000" y2="96.000000" stroke="#AAAAAA" /><text style="font-size:10px;fill:#000000;" text-anchor="middle" x="7522.500000" y="106.000000">1155</text><line x1="7613.500000" x2="7613.500000" y1="91.000000" y2="96.000000" stroke="#AAAAAA" /><text style="font-size:10px;fill:#000000;" text-anchor="middle" x="7613.500000" y="106.000000">1169</text><line x1="7633.000000" x2="7633.000000" y1="91.000000" y2="96.000000" stroke="#AAAAAA" /><text style="font-size:10px;fill:#000000;" text-anchor="middle" x="7633.000000" y="106.000000">1172</text><line x1="7724.000000" x2="7724.000000" y1="91.000000" y2="96.000000" stroke="#AAAAAA" /><text style="font-size:10px;fill:#000000;" text-anchor="middle" x="7724.000000" y="106.000000">1186</text><line x1="8185.500000" x2="8185.500000" y1="91.000000" y2="96.000000" stroke="#AAAAAA" /><text style="font-size:10px;fill:#000000;" text-anchor="middle" x="8185.500000" y="106.000000">1257</text><line x1="8335.000000" x2="8335.000000" y1="91.000000" y2="96.000000" stroke="#AAAAAA" /><text style="font-size:10px;fill:#000000;" text-anchor="middle" x="8335.000000" y="106.000000">1280</text><line x1="8907.000000" x2="8907.000000" y1="91.000000" y2="96.000000" stroke="#AAAAAA" /><text style="font-size:10px;fill:#000000;" text-anchor="middle" x="8907.000000" y="106.000000">1368</text><line x1="8926.500000" x2="8926.500000" y1="91.000000" y2="96.000000" stroke="#AAAAAA" /><text style="font-size:10px;fill:#000000;" text-anchor="middle" x="8926.500000" y="106.000000">1371</text><line x1="9069.500000" x2="9069.500000" y1="91.000000" y2="96.000000" stroke="#AAAAAA" /><text style="font-size:10px;fill:#000000;" text-anchor="middle" x="9069.500000" y="106.000000">1393</text><line x1="9674.000000" x2="9674.000000" y1="91.000000" y2="96.000000" stroke="#AAAAAA" /><text style="font-size:10px;fill:#000000;" text-anchor="middle" x="9674.000000" y="106.000000">1486</text><line x1="9823.500000" x2="9823.500000" y1="91.000000" y2="96.000000" stroke="#AAAAAA" /><text style="font-size:10px;fill:#000000;" text-anchor="middle" x="9823.500000" y="106.000000">1509</text><line x1="10200.500000" x2="10200.500000" y1="91.000000" y2="96.000000" stroke="#AAAAAA" /><text style="font-size:10px;fill:#000000;" text-anchor="middle" x="10200.500000" y="106.000000">1567</text><line x1="10337.000000" x2="10337.000000" y1="91.000000" y2="96.000000" stroke="#AAAAAA" /><text style="font-size:10px;fill:#000000;" text-anchor="middle" x="10337.000000" y="106.000000">1588</text><line x1="10655.500000" x2="10655.500000" y1="91.000000" y2="96.000000" stroke="#AAAAAA" /><text style="font-size:10px;fill:#000000;" text-anchor="middle" x="10655.500000" y="106.000000">1637</text><line x1="10805.000000" x2="10805.000000" y1="91.000000" y2="96.000000" stroke="#AAAAAA" /><text style="font-size:10px;fill:#000000;" text-anchor="middle" x="10805.000000" y="106.000000">1660</text><line x1="11162.500000" x2="11162.500000" y1="91.000000" y2="96.000000" stroke="#AAAAAA" /><text style="font-size:10px;fill:#000000;" text-anchor="middle" x="11162.500000" y="106.000000">1715</text><line x1="11305.500000" x2="11305.500000" y1="91.000000" y2="96.000000" stroke="#AAAAAA" /><text style="font-size:10px;fill:#000000;" text-anchor="middle" x="11305.500000" y="106.000000">1737</text><line x1="11364.000000" x2="11364.000000" y1="91.000000" y2="96.000000" stroke="#AAAAAA" /><text style="font-size:10px;fill:#000000;" text-anchor="middle" x="11364.000000" y="106.000000">1746</text><line x1="11968.500000" x2="11968.500000" y1="91.000000" y2="96.000000" stroke="#AAAAAA" /><text style="font-size:10px;fill:#000000;" text-anchor="middle" x="11968.500000" y="106.000000">1839</text><line x1="12137.500000" x2="12137.500000" y1="91.000000" y2="96.000000" stroke="#AAAAAA" /><text style="font-size:10px;fill:#000000;" text-anchor="middle" x="12137.500000" y="106.000000">1865</text><line x1="12670.500000" x2="12670.500000" y1="91.000000" y2="96.000000" stroke="#AAAAAA" /><text style="font-size:10px;fill:#000000;" text-anchor="middle" x="12670.500000" y="106.000000">1947</text><line x1="12833.000000" x2="12833.000000" y1="91.000000" y2="96.000000" stroke="#AAAAAA" /><text style="font-size:10px;fill:#000000;" text-anchor="middle" x="12833.000000" y="106.000000">1972</text><line x1="13067.000000" x2="13067.000000" y1="91.000000" y2="96.000000" stroke="#AAAAAA" /><text style="font-size:10px;fill:#000000;" text-anchor="middle" x="13067.000000" y="106.000000">2008</text><line x1="13210.000000" x2="13210.000000" y1="91.000000" y2="96.000000" stroke="#AAAAAA" /><text style="font-size:10px;fill:#000000;" text-anchor="middle" x="13210.000000" y="106.000000">2030</text><line x1="13353.000000" x2="13353.000000" y1="91.000000" y2="96.000000" stroke="#AAAAAA" /><text style="font-size:10px;fill:#000000;" text-anchor="middle" x="13353.000000" y="106.000000">2052</text><line x1="14464.500000" x2="14464.500000" y1="91.000000" y2="96.000000" stroke="#AAAAAA" /><text style="font-size:10px;fill:#000000;" text-anchor="middle" x="14464.500000" y="106.000000">2223</text><line x1="16752.500000" x2="16752.500000" y1="91.000000" y2="96.000000" stroke="#AAAAAA" /><text style="font-size:10px;fill:#000000;" text-anchor="middle" x="16752.500000" y="106.000000">2575</text><line x1="17370.000000" x2="17370.000000" y1="91.000000" y2="96.000000" stroke="#AAAAAA" /><text style="font-size:10px;fill:#000000;" text-anchor="middle" x="17370.000000" y="106.000000">2670</text><line x1="18494.500000" x2="18494.500000" y1="91.000000" y2="96.000000" stroke="#AAAAAA" /><text style="font-size:10px;fill:#000000;" text-anchor="middle" x="18494.500000" y="106.000000">2843</text></g>
</svg>
