<?xml version='1.0'?>
<svg xmlns="http://www.w3.org/2000/svg" xmlns:xlink="http://www.w3.org/1999/xlink" width="5057.612903" height="111.000000">
<defs>
  <filter id="ds" x="0" y="0">
    <feOffset in="SourceAlpha" dx="2" dy="2" />
    <feComponentTransfer><feFuncA type="linear" slope="0.2"/></feComponentTransfer>
    <feGaussianBlur result="blurOut" stdDeviation="1" />
    <feBlend in="SourceGraphic" in2="blurOut" mode="normal" />
  </filter>
  <pattern id="disordered-hatch" patternUnits="userSpaceOnUse" width="4" height="4">
    <path d="M-1,1 l2,-2 M0,4 l4,-4 M3,5 l2,-2" stroke="#000000" opacity="0.3" />
  </pattern>
</defs>
<line x1="3779.129032" x2="3779.129032" y1="34.000000" y2="62.000000" stroke="#BABDB6" stroke-width="2"/><a xlink:title="p.V2288fs*1"><circle cx="3779.129032" cy="34.000000" r="4.000000" fill="#ff0000" /></a><g transform="translate(3779.129032,34.000000) rotate(-30)"><text style="font-size:10px;fill:#555;" text-anchor="middle" x="0" y="-6.000000">p.V2288fs*1</text></g><a xlink:title="ATM_HUMAN, Serine-protein kinase ATM EC=2.7.11.1 (3056aa)"><rect fill="#BABDB6" x="15.000000" y="62.000000" width="5027.612903" height="14.000000"/></a><g transform="translate(28.161290,57.000000)"><a xlink:href="http://pfam.xfam.org/family/PF11640" xlink:title="Telomere-length maintenance and DNA damage repair"><rect fill="#2dcf00" x="0" y="0" width="258.290323" height="24.000000" filter="url(#ds)"/><text style="font-size:12px;fill:#ffffff;" text-anchor="middle" x="129.145161" y="16.000000">TAN</text></a></g>
<g transform="translate(3463.258065,57.000000)"><a xlink:href="http://pfam.xfam.org/family/PF02259" xlink:title="FAT domain"><rect fill="#ff5353" x="0" y="0" width="646.548387" height="24.000000" filter="url(#ds)"/><text style="font-size:12px;fill:#ffffff;" text-anchor="middle" x="323.274194" y="16.000000">FAT domain</text></a></g>
<g transform="translate(4478.322581,57.000000)"><a xlink:href="http://pfam.xfam.org/family/PF00454" xlink:title="Phosphatidylinositol 3- and 4-kinase"><rect fill="#5b5bff" x="0" y="0" width="409.645161" height="24.000000" filter="url(#ds)"/><text style="font-size:12px;fill:#ffffff;" text-anchor="middle" x="204.822581" y="16.000000">Phosphatidylinositol 3- and 4-kinase</text></a></g>
<g transform="translate(4991.612903,57.000000)"><a xlink:href="http://pfam.xfam.org/family/PF02260" xlink:title="FATC domain"><rect fill="#ebd61d" x="0" y="0" width="51.000000" height="24.000000" filter="url(#ds)"/><text style="font-size:12px;fill:#ffffff;" text-anchor="middle" x="25.500000" y="16.000000">FATC</text></a></g>
<g class="axis">
<line x1="15.000000" x2="5042.612903" y1="91.000000" y2="91.000000" stroke="#AAAAAA" /><line x1="15.000000" x2="15.000000" y1="91.000000" y2="96.000000" stroke="#AAAAAA" /><line x1="28.161290" x2="28.161290" y1="91.000000" y2="96.000000" stroke="#AAAAAA" /><text style="font-size:10px;fill:#000000;" text-anchor="middle" x="28.161290" y="106.000000">8</text><line x1="286.451613" x2="286.451613" y1="91.000000" y2="96.000000" stroke="#AAAAAA" /><text style="font-size:10px;fill:#000000;" text-anchor="middle" x="286.451613" y="106.000000">165</text><line x1="3463.258065" x2="3463.258065" y1="91.000000" y2="96.000000" stroke="#AAAAAA" /><text style="font-size:10px;fill:#000000;" text-anchor="middle" x="3463.258065" y="106.000000">2096</text><line x1="3779.129032" x2="3779.129032" y1="91.000000" y2="96.000000" stroke="#AAAAAA" /><text style="font-size:10px;fill:#000000;" text-anchor="middle" x="3779.129032" y="106.000000">2288</text><line x1="4109.806452" x2="4109.806452" y1="91.000000" y2="96.000000" stroke="#AAAAAA" /><text style="font-size:10px;fill:#000000;" text-anchor="middle" x="4109.806452" y="106.000000">2489</text><line x1="4478.322581" x2="4478.322581" y1="91.000000" y2="96.000000" stroke="#AAAAAA" /><text style="font-size:10px;fill:#000000;" text-anchor="middle" x="4478.322581" y="106.000000">2713</text><line x1="4887.967742" x2="4887.967742" y1="91.000000" y2="96.000000" stroke="#AAAAAA" /><text style="font-size:10px;fill:#000000;" text-anchor="middle" x="4887.967742" y="106.000000">2962</text><line x1="4991.612903" x2="4991.612903" y1="91.000000" y2="96.000000" stroke="#AAAAAA" /><text style="font-size:10px;fill:#000000;" text-anchor="middle" x="4991.612903" y="106.000000">3025</text><line x1="5042.612903" x2="5042.612903" y1="91.000000" y2="96.000000" stroke="#AAAAAA" /><text style="font-size:10px;fill:#000000;" text-anchor="middle" x="5042.612903" y="106.000000">3056</text></g>
</svg>
