<?xml version='1.0'?>
<svg xmlns="http://www.w3.org/2000/svg" xmlns:xlink="http://www.w3.org/1999/xlink" width="3510.076923" height="111.000000">
<defs>
  <filter id="ds" x="0" y="0">
    <feOffset in="SourceAlpha" dx="2" dy="2" />
    <feComponentTransfer><feFuncA type="linear" slope="0.2"/></feComponentTransfer>
    <feGaussianBlur result="blurOut" stdDeviation="1" />
    <feBlend in="SourceGraphic" in2="blurOut" mode="normal" />
  </filter>
  <pattern id="disordered-hatch" patternUnits="userSpaceOnUse" width="4" height="4">
    <path d="M-1,1 l2,-2 M0,4 l4,-4 M3,5 l2,-2" stroke="#000000" opacity="0.3" />
  </pattern>
</defs>
<line x1="365.897436" x2="365.897436" y1="34.000000" y2="62.000000" stroke="#BABDB6" stroke-width="2"/><a xlink:title="p.L85Yfs*24"><circle cx="365.897436" cy="34.000000" r="4.000000" fill="#ff0000" /></a><g transform="translate(365.897436,34.000000) rotate(-30)"><text style="font-size:10px;fill:#555;" text-anchor="middle" x="0" y="-6.000000">p.L85Yfs*24</text></g><a xlink:title="AXIN2_HUMAN, Axin-2 (843aa)"><rect fill="#BABDB6" x="15.000000" y="62.000000" width="3480.076923" height="14.000000"/></a><g transform="translate(52.153846,57.000000)"><a xlink:href="http://pfam.xfam.org/family/PF16646" xlink:title="Axin-1 tankyrase binding domain"><rect fill="#2dcf00" x="0" y="0" width="264.205128" height="24.000000" filter="url(#ds)"/><text style="font-size:12px;fill:#ffffff;" text-anchor="middle" x="132.102564" y="16.000000">AXIN1_TNKS_BD</text></a></g>
<g transform="translate(349.384615,57.000000)"><a xlink:href="http://pfam.xfam.org/family/PF00615" xlink:title="Regulator of G protein signaling domain"><rect fill="#ff5353" x="0" y="0" width="487.128205" height="24.000000" filter="url(#ds)"/><text style="font-size:12px;fill:#ffffff;" text-anchor="middle" x="243.564103" y="16.000000">Regulator of G protein signaling domain</text></a></g>
<g transform="translate(1798.384615,57.000000)"><a xlink:href="http://pfam.xfam.org/family/PF08833" xlink:title="Axin beta-catenin binding domain"><rect fill="#5b5bff" x="0" y="0" width="161.000000" height="24.000000" filter="url(#ds)"/><text style="font-size:12px;fill:#ffffff;" text-anchor="middle" x="80.500000" y="16.000000">Axin_b-cat_bind</text></a></g>
<g transform="translate(3160.692308,57.000000)"><a xlink:href="http://pfam.xfam.org/family/PF00778" xlink:title="DIX domain"><rect fill="#ebd61d" x="0" y="0" width="326.128205" height="24.000000" filter="url(#ds)"/><text style="font-size:12px;fill:#ffffff;" text-anchor="middle" x="163.064103" y="16.000000">DIX domain</text></a></g>
<g class="axis">
<line x1="15.000000" x2="3495.076923" y1="91.000000" y2="91.000000" stroke="#AAAAAA" /><line x1="15.000000" x2="15.000000" y1="91.000000" y2="96.000000" stroke="#AAAAAA" /><line x1="15.000000" x2="15.000000" y1="91.000000" y2="96.000000" stroke="#AAAAAA" /><text style="font-size:10px;fill:#000000;" text-anchor="middle" x="15.000000" y="106.000000">0</text><line x1="52.153846" x2="52.153846" y1="91.000000" y2="96.000000" stroke="#AAAAAA" /><text style="font-size:10px;fill:#000000;" text-anchor="middle" x="52.153846" y="106.000000">9</text><line x1="316.358974" x2="316.358974" y1="91.000000" y2="96.000000" stroke="#AAAAAA" /><text style="font-size:10px;fill:#000000;" text-anchor="middle" x="316.358974" y="106.000000">73</text><line x1="365.897436" x2="365.897436" y1="91.000000" y2="96.000000" stroke="#AAAAAA" /><text style="font-size:10px;fill:#000000;" text-anchor="middle" x="365.897436" y="106.000000">85</text><line x1="836.512821" x2="836.512821" y1="91.000000" y2="96.000000" stroke="#AAAAAA" /><text style="font-size:10px;fill:#000000;" text-anchor="middle" x="836.512821" y="106.000000">199</text><line x1="1798.384615" x2="1798.384615" y1="91.000000" y2="96.000000" stroke="#AAAAAA" /><text style="font-size:10px;fill:#000000;" text-anchor="middle" x="1798.384615" y="106.000000">432</text><line x1="1959.384615" x2="1959.384615" y1="91.000000" y2="96.000000" stroke="#AAAAAA" /><text style="font-size:10px;fill:#000000;" text-anchor="middle" x="1959.384615" y="106.000000">471</text><line x1="3160.692308" x2="3160.692308" y1="91.000000" y2="96.000000" stroke="#AAAAAA" /><text style="font-size:10px;fill:#000000;" text-anchor="middle" x="3160.692308" y="106.000000">762</text><line x1="3495.076923" x2="3495.076923" y1="91.000000" y2="96.000000" stroke="#AAAAAA" /><text style="font-size:10px;fill:#000000;" text-anchor="middle" x="3495.076923" y="106.000000">843</text></g>
</svg>
