<?xml version='1.0'?>
<svg xmlns="http://www.w3.org/2000/svg" xmlns:xlink="http://www.w3.org/1999/xlink" width="2870.959459" height="111.000000">
<defs>
  <filter id="ds" x="0" y="0">
    <feOffset in="SourceAlpha" dx="2" dy="2" />
    <feComponentTransfer><feFuncA type="linear" slope="0.2"/></feComponentTransfer>
    <feGaussianBlur result="blurOut" stdDeviation="1" />
    <feBlend in="SourceGraphic" in2="blurOut" mode="normal" />
  </filter>
  <pattern id="disordered-hatch" patternUnits="userSpaceOnUse" width="4" height="4">
    <path d="M-1,1 l2,-2 M0,4 l4,-4 M3,5 l2,-2" stroke="#000000" opacity="0.3" />
  </pattern>
</defs>
<line x1="1106.797297" x2="1106.797297" y1="34.000000" y2="62.000000" stroke="#BABDB6" stroke-width="2"/><a xlink:title="p.L573Wfs"><circle cx="1106.797297" cy="34.000000" r="4.000000" fill="#ff0000" /></a><g transform="translate(1106.797297,34.000000) rotate(-30)"><text style="font-size:10px;fill:#555;" text-anchor="middle" x="0" y="-6.000000">p.L573Wfs</text></g><a xlink:title="MAGI1_HUMAN, Membrane-associated guanylate kinase, WW and PDZ domain-containing protein 1 (1491aa)"><rect fill="#BABDB6" x="15.000000" y="62.000000" width="2840.959459" height="14.000000"/></a><g transform="translate(255.081081,57.000000)"><a xlink:href="http://pfam.xfam.org/family/PF00625" xlink:title="Guanylate kinase"><rect fill="#2dcf00" x="0" y="0" width="141.000000" height="24.000000" filter="url(#ds)"/><text style="font-size:12px;fill:#ffffff;" text-anchor="middle" x="70.500000" y="16.000000">Guanylate_kin</text></a></g>
<g transform="translate(399.891892,57.000000)"><a xlink:href="http://pfam.xfam.org/family/PF16663" xlink:title="Unstructured region on MAGI "><rect fill="#ff5353" x="0" y="0" width="112.418919" height="24.000000" filter="url(#ds)"/><text style="font-size:12px;fill:#ffffff;" text-anchor="middle" x="56.209459" y="16.000000">MAGI_u1</text></a></g>
<g transform="translate(590.432432,57.000000)"><a xlink:href="http://pfam.xfam.org/family/PF00397" xlink:title="WW domain"><rect fill="#5b5bff" x="0" y="0" width="55.256757" height="24.000000" filter="url(#ds)"/><text style="font-size:12px;fill:#ffffff;" text-anchor="middle" x="27.628378" y="16.000000">WW</text></a></g>
<g transform="translate(702.851351,57.000000)"><a xlink:href="http://pfam.xfam.org/family/PF00397" xlink:title="WW domain"><rect fill="#5b5bff" x="0" y="0" width="55.256757" height="24.000000" filter="url(#ds)"/><text style="font-size:12px;fill:#ffffff;" text-anchor="middle" x="27.628378" y="16.000000">WW</text></a></g>
<g transform="translate(914.351351,57.000000)"><a xlink:href="http://pfam.xfam.org/family/PF00595" xlink:title="PDZ domain (Also known as DHR or GLGF)"><rect fill="#ebd61d" x="0" y="0" width="152.432432" height="24.000000" filter="url(#ds)"/><text style="font-size:12px;fill:#ffffff;" text-anchor="middle" x="76.216216" y="16.000000">PDZ</text></a></g>
<g transform="translate(1238.270270,57.000000)"><a xlink:href="http://pfam.xfam.org/family/PF00595" xlink:title="PDZ domain (Also known as DHR or GLGF)"><rect fill="#ebd61d" x="0" y="0" width="148.621622" height="24.000000" filter="url(#ds)"/><text style="font-size:12px;fill:#ffffff;" text-anchor="middle" x="74.310811" y="16.000000">PDZ</text></a></g>
<g transform="translate(1390.702703,57.000000)"><a xlink:href="http://pfam.xfam.org/family/PF16666" xlink:title="Unstructured region on MAGI"><rect fill="#ba21e0" x="0" y="0" width="224.837838" height="24.000000" filter="url(#ds)"/><text style="font-size:12px;fill:#ffffff;" text-anchor="middle" x="112.418919" y="16.000000">MAGI_u5</text></a></g>
<g transform="translate(1617.445946,57.000000)"><a xlink:href="http://pfam.xfam.org/family/PF00595" xlink:title="PDZ domain (Also known as DHR or GLGF)"><rect fill="#ebd61d" x="0" y="0" width="154.337838" height="24.000000" filter="url(#ds)"/><text style="font-size:12px;fill:#ffffff;" text-anchor="middle" x="77.168919" y="16.000000">PDZ</text></a></g>
<g transform="translate(1916.594595,57.000000)"><a xlink:href="http://pfam.xfam.org/family/PF00595" xlink:title="PDZ domain (Also known as DHR or GLGF)"><rect fill="#ebd61d" x="0" y="0" width="177.202703" height="24.000000" filter="url(#ds)"/><text style="font-size:12px;fill:#ffffff;" text-anchor="middle" x="88.601351" y="16.000000">PDZ</text></a></g>
<g transform="translate(2210.027027,57.000000)"><a xlink:href="http://pfam.xfam.org/family/PF00595" xlink:title="PDZ domain (Also known as DHR or GLGF)"><rect fill="#ebd61d" x="0" y="0" width="150.527027" height="24.000000" filter="url(#ds)"/><text style="font-size:12px;fill:#ffffff;" text-anchor="middle" x="75.263514" y="16.000000">PDZ</text></a></g>
<g class="axis">
<line x1="15.000000" x2="2855.959459" y1="91.000000" y2="91.000000" stroke="#AAAAAA" /><line x1="15.000000" x2="15.000000" y1="91.000000" y2="96.000000" stroke="#AAAAAA" /><line x1="15.000000" x2="15.000000" y1="91.000000" y2="96.000000" stroke="#AAAAAA" /><text style="font-size:10px;fill:#000000;" text-anchor="middle" x="15.000000" y="106.000000">0</text><line x1="255.081081" x2="255.081081" y1="91.000000" y2="96.000000" stroke="#AAAAAA" /><text style="font-size:10px;fill:#000000;" text-anchor="middle" x="255.081081" y="106.000000">126</text><line x1="396.081081" x2="396.081081" y1="91.000000" y2="96.000000" stroke="#AAAAAA" /><text style="font-size:10px;fill:#000000;" text-anchor="middle" x="396.081081" y="106.000000">200</text><line x1="512.310811" x2="512.310811" y1="91.000000" y2="96.000000" stroke="#AAAAAA" /><text style="font-size:10px;fill:#000000;" text-anchor="middle" x="512.310811" y="106.000000">261</text><line x1="590.432432" x2="590.432432" y1="91.000000" y2="96.000000" stroke="#AAAAAA" /><text style="font-size:10px;fill:#000000;" text-anchor="middle" x="590.432432" y="106.000000">302</text><line x1="645.689189" x2="645.689189" y1="91.000000" y2="96.000000" stroke="#AAAAAA" /><text style="font-size:10px;fill:#000000;" text-anchor="middle" x="645.689189" y="106.000000">331</text><line x1="702.851351" x2="702.851351" y1="91.000000" y2="96.000000" stroke="#AAAAAA" /><text style="font-size:10px;fill:#000000;" text-anchor="middle" x="702.851351" y="106.000000">361</text><line x1="758.108108" x2="758.108108" y1="91.000000" y2="96.000000" stroke="#AAAAAA" /><text style="font-size:10px;fill:#000000;" text-anchor="middle" x="758.108108" y="106.000000">390</text><line x1="914.351351" x2="914.351351" y1="91.000000" y2="96.000000" stroke="#AAAAAA" /><text style="font-size:10px;fill:#000000;" text-anchor="middle" x="914.351351" y="106.000000">472</text><line x1="1066.783784" x2="1066.783784" y1="91.000000" y2="96.000000" stroke="#AAAAAA" /><text style="font-size:10px;fill:#000000;" text-anchor="middle" x="1066.783784" y="106.000000">552</text><line x1="1106.797297" x2="1106.797297" y1="91.000000" y2="96.000000" stroke="#AAAAAA" /><text style="font-size:10px;fill:#000000;" text-anchor="middle" x="1106.797297" y="106.000000">573</text><line x1="1238.270270" x2="1238.270270" y1="91.000000" y2="96.000000" stroke="#AAAAAA" /><text style="font-size:10px;fill:#000000;" text-anchor="middle" x="1238.270270" y="106.000000">642</text><line x1="1386.891892" x2="1386.891892" y1="91.000000" y2="96.000000" stroke="#AAAAAA" /><text style="font-size:10px;fill:#000000;" text-anchor="middle" x="1386.891892" y="106.000000">720</text><line x1="1615.540541" x2="1615.540541" y1="91.000000" y2="96.000000" stroke="#AAAAAA" /><text style="font-size:10px;fill:#000000;" text-anchor="middle" x="1615.540541" y="106.000000">840</text><line x1="1771.783784" x2="1771.783784" y1="91.000000" y2="96.000000" stroke="#AAAAAA" /><text style="font-size:10px;fill:#000000;" text-anchor="middle" x="1771.783784" y="106.000000">922</text><line x1="1916.594595" x2="1916.594595" y1="91.000000" y2="96.000000" stroke="#AAAAAA" /><text style="font-size:10px;fill:#000000;" text-anchor="middle" x="1916.594595" y="106.000000">998</text><line x1="2093.797297" x2="2093.797297" y1="91.000000" y2="96.000000" stroke="#AAAAAA" /><text style="font-size:10px;fill:#000000;" text-anchor="middle" x="2093.797297" y="106.000000">1091</text><line x1="2210.027027" x2="2210.027027" y1="91.000000" y2="96.000000" stroke="#AAAAAA" /><text style="font-size:10px;fill:#000000;" text-anchor="middle" x="2210.027027" y="106.000000">1152</text><line x1="2360.554054" x2="2360.554054" y1="91.000000" y2="96.000000" stroke="#AAAAAA" /><text style="font-size:10px;fill:#000000;" text-anchor="middle" x="2360.554054" y="106.000000">1231</text><line x1="2855.959459" x2="2855.959459" y1="91.000000" y2="96.000000" stroke="#AAAAAA" /><text style="font-size:10px;fill:#000000;" text-anchor="middle" x="2855.959459" y="106.000000">1491</text></g>
</svg>
