<?xml version='1.0'?>
<svg xmlns="http://www.w3.org/2000/svg" xmlns:xlink="http://www.w3.org/1999/xlink" width="861.191489" height="111.000000">
<defs>
  <filter id="ds" x="0" y="0">
    <feOffset in="SourceAlpha" dx="2" dy="2" />
    <feComponentTransfer><feFuncA type="linear" slope="0.2"/></feComponentTransfer>
    <feGaussianBlur result="blurOut" stdDeviation="1" />
    <feBlend in="SourceGraphic" in2="blurOut" mode="normal" />
  </filter>
  <pattern id="disordered-hatch" patternUnits="userSpaceOnUse" width="4" height="4">
    <path d="M-1,1 l2,-2 M0,4 l4,-4 M3,5 l2,-2" stroke="#000000" opacity="0.3" />
  </pattern>
</defs>
<line x1="670.404255" x2="670.404255" y1="34.000000" y2="62.000000" stroke="#BABDB6" stroke-width="2"/><a xlink:title="p.W604del"><circle cx="670.404255" cy="34.000000" r="4.000000" fill="#ff0000" /></a><g transform="translate(670.404255,34.000000) rotate(-30)"><text style="font-size:10px;fill:#555;" text-anchor="middle" x="0" y="-6.000000">p.W604del</text></g><a xlink:title="BRAF_HUMAN, Serine/threonine-protein kinase B-raf EC=2.7.11.1 (766aa)"><rect fill="#BABDB6" x="15.000000" y="62.000000" width="831.191489" height="14.000000"/></a><g transform="translate(184.276596,57.000000)"><a xlink:href="http://pfam.xfam.org/family/PF02196" xlink:title="Raf-like Ras-binding domain"><rect fill="#2dcf00" x="0" y="0" width="74.872340" height="24.000000" filter="url(#ds)"/><text style="font-size:12px;fill:#ffffff;" text-anchor="middle" x="37.436170" y="16.000000">RBD</text></a></g>
<g transform="translate(270.000000,57.000000)"><a xlink:href="http://pfam.xfam.org/family/PF00130" xlink:title="Phorbol esters/diacylglycerol binding domain (C1 domain)"><rect fill="#ff5353" x="0" y="0" width="51.000000" height="24.000000" filter="url(#ds)"/><text style="font-size:12px;fill:#ffffff;" text-anchor="middle" x="25.500000" y="16.000000">C1_1</text></a></g>
<g transform="translate(510.893617,57.000000)"><a xlink:href="http://pfam.xfam.org/family/PF07714" xlink:title="Protein tyrosine kinase"><rect fill="#5b5bff" x="0" y="0" width="278.872340" height="24.000000" filter="url(#ds)"/><text style="font-size:12px;fill:#ffffff;" text-anchor="middle" x="139.436170" y="16.000000">Protein tyrosine kinase</text></a></g>
<g class="axis">
<line x1="15.000000" x2="846.191489" y1="91.000000" y2="91.000000" stroke="#AAAAAA" /><line x1="15.000000" x2="15.000000" y1="91.000000" y2="96.000000" stroke="#AAAAAA" /><line x1="15.000000" x2="15.000000" y1="91.000000" y2="96.000000" stroke="#AAAAAA" /><text style="font-size:10px;fill:#000000;" text-anchor="middle" x="15.000000" y="106.000000">0</text><line x1="184.276596" x2="184.276596" y1="91.000000" y2="96.000000" stroke="#AAAAAA" /><text style="font-size:10px;fill:#000000;" text-anchor="middle" x="184.276596" y="106.000000">156</text><line x1="259.148936" x2="259.148936" y1="91.000000" y2="96.000000" stroke="#AAAAAA" /><text style="font-size:10px;fill:#000000;" text-anchor="middle" x="259.148936" y="106.000000">225</text><line x1="321.000000" x2="321.000000" y1="91.000000" y2="96.000000" stroke="#AAAAAA" /><text style="font-size:10px;fill:#000000;" text-anchor="middle" x="321.000000" y="106.000000">282</text><line x1="510.893617" x2="510.893617" y1="91.000000" y2="96.000000" stroke="#AAAAAA" /><text style="font-size:10px;fill:#000000;" text-anchor="middle" x="510.893617" y="106.000000">457</text><line x1="670.404255" x2="670.404255" y1="91.000000" y2="96.000000" stroke="#AAAAAA" /><text style="font-size:10px;fill:#000000;" text-anchor="middle" x="670.404255" y="106.000000">604</text><line x1="789.765957" x2="789.765957" y1="91.000000" y2="96.000000" stroke="#AAAAAA" /><text style="font-size:10px;fill:#000000;" text-anchor="middle" x="789.765957" y="106.000000">714</text><line x1="846.191489" x2="846.191489" y1="91.000000" y2="96.000000" stroke="#AAAAAA" /><text style="font-size:10px;fill:#000000;" text-anchor="middle" x="846.191489" y="106.000000">766</text></g>
</svg>
