<?xml version='1.0'?>
<svg xmlns="http://www.w3.org/2000/svg" xmlns:xlink="http://www.w3.org/1999/xlink" width="6755.741935" height="111.000000">
<defs>
  <filter id="ds" x="0" y="0">
    <feOffset in="SourceAlpha" dx="2" dy="2" />
    <feComponentTransfer><feFuncA type="linear" slope="0.2"/></feComponentTransfer>
    <feGaussianBlur result="blurOut" stdDeviation="1" />
    <feBlend in="SourceGraphic" in2="blurOut" mode="normal" />
  </filter>
  <pattern id="disordered-hatch" patternUnits="userSpaceOnUse" width="4" height="4">
    <path d="M-1,1 l2,-2 M0,4 l4,-4 M3,5 l2,-2" stroke="#000000" opacity="0.3" />
  </pattern>
</defs>
<line x1="5884.774194" x2="5884.774194" y1="34.000000" y2="62.000000" stroke="#BABDB6" stroke-width="2"/><a xlink:title="p.D2983Ffs*34"><circle cx="5884.774194" cy="34.000000" r="4.000000" fill="#ff0000" /></a><g transform="translate(5884.774194,34.000000) rotate(-30)"><text style="font-size:10px;fill:#555;" text-anchor="middle" x="0" y="-6.000000">p.D2983Ffs*34</text></g><a xlink:title="BRCA2_HUMAN, Breast cancer type 2 susceptibility protein (3418aa)"><rect fill="#BABDB6" x="15.000000" y="62.000000" width="6725.741935" height="14.000000"/></a><g transform="translate(1988.645161,57.000000)"><a xlink:href="http://pfam.xfam.org/family/PF00634" xlink:title="BRCA2 repeat"><rect fill="#2dcf00" x="0" y="0" width="62.967742" height="24.000000" filter="url(#ds)"/><text style="font-size:12px;fill:#ffffff;" text-anchor="middle" x="31.483871" y="16.000000">BRCA2</text></a></g>
<g transform="translate(2401.870968,57.000000)"><a xlink:href="http://pfam.xfam.org/family/PF00634" xlink:title="BRCA2 repeat"><rect fill="#2dcf00" x="0" y="0" width="62.967742" height="24.000000" filter="url(#ds)"/><text style="font-size:12px;fill:#ffffff;" text-anchor="middle" x="31.483871" y="16.000000">BRCA2</text></a></g>
<g transform="translate(2813.129032,57.000000)"><a xlink:href="http://pfam.xfam.org/family/PF00634" xlink:title="BRCA2 repeat"><rect fill="#2dcf00" x="0" y="0" width="62.967742" height="24.000000" filter="url(#ds)"/><text style="font-size:12px;fill:#ffffff;" text-anchor="middle" x="31.483871" y="16.000000">BRCA2</text></a></g>
<g transform="translate(3002.032258,57.000000)"><a xlink:href="http://pfam.xfam.org/family/PF00634" xlink:title="BRCA2 repeat"><rect fill="#2dcf00" x="0" y="0" width="62.967742" height="24.000000" filter="url(#ds)"/><text style="font-size:12px;fill:#ffffff;" text-anchor="middle" x="31.483871" y="16.000000">BRCA2</text></a></g>
<g transform="translate(3291.290323,57.000000)"><a xlink:href="http://pfam.xfam.org/family/PF00634" xlink:title="BRCA2 repeat"><rect fill="#2dcf00" x="0" y="0" width="61.000000" height="24.000000" filter="url(#ds)"/><text style="font-size:12px;fill:#ffffff;" text-anchor="middle" x="30.500000" y="16.000000">BRCA2</text></a></g>
<g transform="translate(3631.709677,57.000000)"><a xlink:href="http://pfam.xfam.org/family/PF00634" xlink:title="BRCA2 repeat"><rect fill="#2dcf00" x="0" y="0" width="61.000000" height="24.000000" filter="url(#ds)"/><text style="font-size:12px;fill:#ffffff;" text-anchor="middle" x="30.500000" y="16.000000">BRCA2</text></a></g>
<g transform="translate(3897.354839,57.000000)"><a xlink:href="http://pfam.xfam.org/family/PF00634" xlink:title="BRCA2 repeat"><rect fill="#2dcf00" x="0" y="0" width="61.000000" height="24.000000" filter="url(#ds)"/><text style="font-size:12px;fill:#ffffff;" text-anchor="middle" x="30.500000" y="16.000000">BRCA2</text></a></g>
<g transform="translate(4052.806452,57.000000)"><a xlink:href="http://pfam.xfam.org/family/PF00634" xlink:title="BRCA2 repeat"><rect fill="#2dcf00" x="0" y="0" width="62.967742" height="24.000000" filter="url(#ds)"/><text style="font-size:12px;fill:#ffffff;" text-anchor="middle" x="31.483871" y="16.000000">BRCA2</text></a></g>
<g transform="translate(4896.967742,57.000000)"><a xlink:href="http://pfam.xfam.org/family/PF09169" xlink:title="BRCA2, helical"><rect fill="#ff5353" x="0" y="0" width="366.000000" height="24.000000" filter="url(#ds)"/><text style="font-size:12px;fill:#ffffff;" text-anchor="middle" x="183.000000" y="16.000000">BRCA2, helical</text></a></g>
<g transform="translate(5268.870968,57.000000)"><a xlink:href="http://pfam.xfam.org/family/PF09103" xlink:title="BRCA2, oligonucleotide/oligosaccharide-binding, domain 1"><rect fill="#5b5bff" x="0" y="0" width="247.935484" height="24.000000" filter="url(#ds)"/><text style="font-size:12px;fill:#ffffff;" text-anchor="middle" x="123.967742" y="16.000000">BRCA-2_OB1</text></a></g>
<g transform="translate(5585.677419,57.000000)"><a xlink:href="http://pfam.xfam.org/family/PF09121" xlink:title="Tower"><rect fill="#ebd61d" x="0" y="0" width="80.677419" height="24.000000" filter="url(#ds)"/><text style="font-size:12px;fill:#ffffff;" text-anchor="middle" x="40.338710" y="16.000000">Tower</text></a></g>
<g transform="translate(6020.548387,57.000000)"><a xlink:href="http://pfam.xfam.org/family/PF09104" xlink:title="BRCA2, oligonucleotide/oligosaccharide-binding, domain 3"><rect fill="#ba21e0" x="0" y="0" width="263.677419" height="24.000000" filter="url(#ds)"/><text style="font-size:12px;fill:#ffffff;" text-anchor="middle" x="131.838710" y="16.000000">BRCA-2_OB3</text></a></g>
<g class="axis">
<line x1="15.000000" x2="6740.741935" y1="91.000000" y2="91.000000" stroke="#AAAAAA" /><line x1="15.000000" x2="15.000000" y1="91.000000" y2="96.000000" stroke="#AAAAAA" /><line x1="15.000000" x2="15.000000" y1="91.000000" y2="96.000000" stroke="#AAAAAA" /><text style="font-size:10px;fill:#000000;" text-anchor="middle" x="15.000000" y="106.000000">0</text><line x1="1988.645161" x2="1988.645161" y1="91.000000" y2="96.000000" stroke="#AAAAAA" /><text style="font-size:10px;fill:#000000;" text-anchor="middle" x="1988.645161" y="106.000000">1003</text><line x1="2051.612903" x2="2051.612903" y1="91.000000" y2="96.000000" stroke="#AAAAAA" /><text style="font-size:10px;fill:#000000;" text-anchor="middle" x="2051.612903" y="106.000000">1035</text><line x1="2401.870968" x2="2401.870968" y1="91.000000" y2="96.000000" stroke="#AAAAAA" /><text style="font-size:10px;fill:#000000;" text-anchor="middle" x="2401.870968" y="106.000000">1213</text><line x1="2464.838710" x2="2464.838710" y1="91.000000" y2="96.000000" stroke="#AAAAAA" /><text style="font-size:10px;fill:#000000;" text-anchor="middle" x="2464.838710" y="106.000000">1245</text><line x1="2813.129032" x2="2813.129032" y1="91.000000" y2="96.000000" stroke="#AAAAAA" /><text style="font-size:10px;fill:#000000;" text-anchor="middle" x="2813.129032" y="106.000000">1422</text><line x1="2876.096774" x2="2876.096774" y1="91.000000" y2="96.000000" stroke="#AAAAAA" /><text style="font-size:10px;fill:#000000;" text-anchor="middle" x="2876.096774" y="106.000000">1454</text><line x1="3002.032258" x2="3002.032258" y1="91.000000" y2="96.000000" stroke="#AAAAAA" /><text style="font-size:10px;fill:#000000;" text-anchor="middle" x="3002.032258" y="106.000000">1518</text><line x1="3065.000000" x2="3065.000000" y1="91.000000" y2="96.000000" stroke="#AAAAAA" /><text style="font-size:10px;fill:#000000;" text-anchor="middle" x="3065.000000" y="106.000000">1550</text><line x1="3291.290323" x2="3291.290323" y1="91.000000" y2="96.000000" stroke="#AAAAAA" /><text style="font-size:10px;fill:#000000;" text-anchor="middle" x="3291.290323" y="106.000000">1665</text><line x1="3352.290323" x2="3352.290323" y1="91.000000" y2="96.000000" stroke="#AAAAAA" /><text style="font-size:10px;fill:#000000;" text-anchor="middle" x="3352.290323" y="106.000000">1696</text><line x1="3631.709677" x2="3631.709677" y1="91.000000" y2="96.000000" stroke="#AAAAAA" /><text style="font-size:10px;fill:#000000;" text-anchor="middle" x="3631.709677" y="106.000000">1838</text><line x1="3692.709677" x2="3692.709677" y1="91.000000" y2="96.000000" stroke="#AAAAAA" /><text style="font-size:10px;fill:#000000;" text-anchor="middle" x="3692.709677" y="106.000000">1869</text><line x1="3897.354839" x2="3897.354839" y1="91.000000" y2="96.000000" stroke="#AAAAAA" /><text style="font-size:10px;fill:#000000;" text-anchor="middle" x="3897.354839" y="106.000000">1973</text><line x1="3958.354839" x2="3958.354839" y1="91.000000" y2="96.000000" stroke="#AAAAAA" /><text style="font-size:10px;fill:#000000;" text-anchor="middle" x="3958.354839" y="106.000000">2004</text><line x1="4052.806452" x2="4052.806452" y1="91.000000" y2="96.000000" stroke="#AAAAAA" /><text style="font-size:10px;fill:#000000;" text-anchor="middle" x="4052.806452" y="106.000000">2052</text><line x1="4115.774194" x2="4115.774194" y1="91.000000" y2="96.000000" stroke="#AAAAAA" /><text style="font-size:10px;fill:#000000;" text-anchor="middle" x="4115.774194" y="106.000000">2084</text><line x1="4896.967742" x2="4896.967742" y1="91.000000" y2="96.000000" stroke="#AAAAAA" /><text style="font-size:10px;fill:#000000;" text-anchor="middle" x="4896.967742" y="106.000000">2481</text><line x1="5262.967742" x2="5262.967742" y1="91.000000" y2="96.000000" stroke="#AAAAAA" /><text style="font-size:10px;fill:#000000;" text-anchor="middle" x="5262.967742" y="106.000000">2667</text><line x1="5516.806452" x2="5516.806452" y1="91.000000" y2="96.000000" stroke="#AAAAAA" /><text style="font-size:10px;fill:#000000;" text-anchor="middle" x="5516.806452" y="106.000000">2796</text><line x1="5585.677419" x2="5585.677419" y1="91.000000" y2="96.000000" stroke="#AAAAAA" /><text style="font-size:10px;fill:#000000;" text-anchor="middle" x="5585.677419" y="106.000000">2831</text><line x1="5666.354839" x2="5666.354839" y1="91.000000" y2="96.000000" stroke="#AAAAAA" /><text style="font-size:10px;fill:#000000;" text-anchor="middle" x="5666.354839" y="106.000000">2872</text><line x1="5884.774194" x2="5884.774194" y1="91.000000" y2="96.000000" stroke="#AAAAAA" /><text style="font-size:10px;fill:#000000;" text-anchor="middle" x="5884.774194" y="106.000000">2983</text><line x1="6020.548387" x2="6020.548387" y1="91.000000" y2="96.000000" stroke="#AAAAAA" /><text style="font-size:10px;fill:#000000;" text-anchor="middle" x="6020.548387" y="106.000000">3052</text><line x1="6284.225806" x2="6284.225806" y1="91.000000" y2="96.000000" stroke="#AAAAAA" /><text style="font-size:10px;fill:#000000;" text-anchor="middle" x="6284.225806" y="106.000000">3186</text><line x1="6740.741935" x2="6740.741935" y1="91.000000" y2="96.000000" stroke="#AAAAAA" /><text style="font-size:10px;fill:#000000;" text-anchor="middle" x="6740.741935" y="106.000000">3418</text></g>
</svg>
