<?xml version='1.0'?>
<svg xmlns="http://www.w3.org/2000/svg" xmlns:xlink="http://www.w3.org/1999/xlink" width="4268.325000" height="111.000000">
<defs>
  <filter id="ds" x="0" y="0">
    <feOffset in="SourceAlpha" dx="2" dy="2" />
    <feComponentTransfer><feFuncA type="linear" slope="0.2"/></feComponentTransfer>
    <feGaussianBlur result="blurOut" stdDeviation="1" />
    <feBlend in="SourceGraphic" in2="blurOut" mode="normal" />
  </filter>
  <pattern id="disordered-hatch" patternUnits="userSpaceOnUse" width="4" height="4">
    <path d="M-1,1 l2,-2 M0,4 l4,-4 M3,5 l2,-2" stroke="#000000" opacity="0.3" />
  </pattern>
</defs>
<line x1="1234.400000" x2="1234.400000" y1="34.000000" y2="62.000000" stroke="#BABDB6" stroke-width="2"/><a xlink:title="p.T536fs"><circle cx="1234.400000" cy="34.000000" r="4.000000" fill="#ff0000" /></a><g transform="translate(1234.400000,34.000000) rotate(-30)"><text style="font-size:10px;fill:#555;" text-anchor="middle" x="0" y="-6.000000">p.T536fs</text></g><a xlink:title="BRCA1_HUMAN, Breast cancer type 1 susceptibility protein (1863aa)"><rect fill="#BABDB6" x="15.000000" y="62.000000" width="4238.325000" height="14.000000"/></a><g transform="translate(69.600000,57.000000)"><a xlink:href="http://pfam.xfam.org/family/PF00097" xlink:title="Zinc finger, C3HC4 type (RING finger)"><rect fill="#2dcf00" x="0" y="0" width="91.000000" height="24.000000" filter="url(#ds)"/><text style="font-size:12px;fill:#ffffff;" text-anchor="middle" x="45.500000" y="16.000000">zf-C3HC4</text></a></g>
<g transform="translate(799.875000,57.000000)"><a xlink:href="http://pfam.xfam.org/family/PF12820" xlink:title="Serine-rich domain associated with BRCT"><rect fill="#ff5353" x="0" y="0" width="370.825000" height="24.000000" filter="url(#ds)"/><text style="font-size:12px;fill:#ffffff;" text-anchor="middle" x="185.412500" y="16.000000">BRCT_assoc</text></a></g>
<g transform="translate(3752.825000,57.000000)"><a xlink:href="http://pfam.xfam.org/family/PF00533" xlink:title="BRCA1 C Terminus (BRCT) domain"><rect fill="#5b5bff" x="0" y="0" width="182.000000" height="24.000000" filter="url(#ds)"/><text style="font-size:12px;fill:#ffffff;" text-anchor="middle" x="91.000000" y="16.000000">BRCT</text></a></g>
<g transform="translate(4009.900000,57.000000)"><a xlink:href="http://pfam.xfam.org/family/PF00533" xlink:title="BRCA1 C Terminus (BRCT) domain"><rect fill="#5b5bff" x="0" y="0" width="195.650000" height="24.000000" filter="url(#ds)"/><text style="font-size:12px;fill:#ffffff;" text-anchor="middle" x="97.825000" y="16.000000">BRCT</text></a></g>
<g class="axis">
<line x1="15.000000" x2="4253.325000" y1="91.000000" y2="91.000000" stroke="#AAAAAA" /><line x1="15.000000" x2="15.000000" y1="91.000000" y2="96.000000" stroke="#AAAAAA" /><line x1="15.000000" x2="15.000000" y1="91.000000" y2="96.000000" stroke="#AAAAAA" /><text style="font-size:10px;fill:#000000;" text-anchor="middle" x="15.000000" y="106.000000">0</text><line x1="69.600000" x2="69.600000" y1="91.000000" y2="96.000000" stroke="#AAAAAA" /><text style="font-size:10px;fill:#000000;" text-anchor="middle" x="69.600000" y="106.000000">24</text><line x1="160.600000" x2="160.600000" y1="91.000000" y2="96.000000" stroke="#AAAAAA" /><text style="font-size:10px;fill:#000000;" text-anchor="middle" x="160.600000" y="106.000000">64</text><line x1="799.875000" x2="799.875000" y1="91.000000" y2="96.000000" stroke="#AAAAAA" /><text style="font-size:10px;fill:#000000;" text-anchor="middle" x="799.875000" y="106.000000">345</text><line x1="1170.700000" x2="1170.700000" y1="91.000000" y2="96.000000" stroke="#AAAAAA" /><text style="font-size:10px;fill:#000000;" text-anchor="middle" x="1170.700000" y="106.000000">508</text><line x1="1234.400000" x2="1234.400000" y1="91.000000" y2="96.000000" stroke="#AAAAAA" /><text style="font-size:10px;fill:#000000;" text-anchor="middle" x="1234.400000" y="106.000000">536</text><line x1="3752.825000" x2="3752.825000" y1="91.000000" y2="96.000000" stroke="#AAAAAA" /><text style="font-size:10px;fill:#000000;" text-anchor="middle" x="3752.825000" y="106.000000">1643</text><line x1="3934.825000" x2="3934.825000" y1="91.000000" y2="96.000000" stroke="#AAAAAA" /><text style="font-size:10px;fill:#000000;" text-anchor="middle" x="3934.825000" y="106.000000">1723</text><line x1="4009.900000" x2="4009.900000" y1="91.000000" y2="96.000000" stroke="#AAAAAA" /><text style="font-size:10px;fill:#000000;" text-anchor="middle" x="4009.900000" y="106.000000">1756</text><line x1="4205.550000" x2="4205.550000" y1="91.000000" y2="96.000000" stroke="#AAAAAA" /><text style="font-size:10px;fill:#000000;" text-anchor="middle" x="4205.550000" y="106.000000">1842</text><line x1="4253.325000" x2="4253.325000" y1="91.000000" y2="96.000000" stroke="#AAAAAA" /><text style="font-size:10px;fill:#000000;" text-anchor="middle" x="4253.325000" y="106.000000">1863</text></g>
</svg>
