<?xml version='1.0'?>
<svg xmlns="http://www.w3.org/2000/svg" xmlns:xlink="http://www.w3.org/1999/xlink" width="2313.875000" height="111.000000">
<defs>
  <filter id="ds" x="0" y="0">
    <feOffset in="SourceAlpha" dx="2" dy="2" />
    <feComponentTransfer><feFuncA type="linear" slope="0.2"/></feComponentTransfer>
    <feGaussianBlur result="blurOut" stdDeviation="1" />
    <feBlend in="SourceGraphic" in2="blurOut" mode="normal" />
  </filter>
  <pattern id="disordered-hatch" patternUnits="userSpaceOnUse" width="4" height="4">
    <path d="M-1,1 l2,-2 M0,4 l4,-4 M3,5 l2,-2" stroke="#000000" opacity="0.3" />
  </pattern>
</defs>
<line x1="935.104167" x2="935.104167" y1="34.000000" y2="62.000000" stroke="#BABDB6" stroke-width="2"/><a xlink:title="p.Q365_E366insSK"><circle cx="935.104167" cy="34.000000" r="4.000000" fill="#0000ff" /></a><g transform="translate(935.104167,34.000000) rotate(-30)"><text style="font-size:10px;fill:#555;" text-anchor="middle" x="0" y="-6.000000">p.Q365_E366insSK</text></g><a xlink:title="CBL_HUMAN, E3 ubiquitin-protein ligase CBL EC=6.3.2.- (906aa)"><rect fill="#BABDB6" x="15.000000" y="62.000000" width="2283.875000" height="14.000000"/></a><g transform="translate(143.562500,57.000000)"><a xlink:href="http://pfam.xfam.org/family/PF02262" xlink:title="CBL proto-oncogene N-terminal domain 1"><rect fill="#2dcf00" x="0" y="0" width="312.583333" height="24.000000" filter="url(#ds)"/><text style="font-size:12px;fill:#ffffff;" text-anchor="middle" x="156.291667" y="16.000000">Cbl_N</text></a></g>
<g transform="translate(466.229167,57.000000)"><a xlink:href="http://pfam.xfam.org/family/PF02761" xlink:title="CBL proto-oncogene N-terminus, EF hand-like domain"><rect fill="#ff5353" x="0" y="0" width="209.229167" height="24.000000" filter="url(#ds)"/><text style="font-size:12px;fill:#ffffff;" text-anchor="middle" x="104.614583" y="16.000000">Cbl_N2</text></a></g>
<g transform="translate(680.500000,57.000000)"><a xlink:href="http://pfam.xfam.org/family/PF02762" xlink:title="CBL proto-oncogene N-terminus, SH2-like domain"><rect fill="#5b5bff" x="0" y="0" width="214.270833" height="24.000000" filter="url(#ds)"/><text style="font-size:12px;fill:#ffffff;" text-anchor="middle" x="107.135417" y="16.000000">Cbl_N3</text></a></g>
<g transform="translate(975.437500,57.000000)"><a xlink:href="http://pfam.xfam.org/family/PF14447" xlink:title="Prokaryotic RING finger family 4"><rect fill="#ebd61d" x="0" y="0" width="121.000000" height="24.000000" filter="url(#ds)"/><text style="font-size:12px;fill:#ffffff;" text-anchor="middle" x="60.500000" y="16.000000">Prok-RING_4</text></a></g>
<g transform="translate(2172.833333,57.000000)"><a xlink:href="http://pfam.xfam.org/family/PF00627" xlink:title="UBA/TS-N domain"><rect fill="#ba21e0" x="0" y="0" width="90.750000" height="24.000000" filter="url(#ds)"/><text style="font-size:12px;fill:#ffffff;" text-anchor="middle" x="45.375000" y="16.000000">UBA</text></a></g>
<g class="axis">
<line x1="15.000000" x2="2298.875000" y1="91.000000" y2="91.000000" stroke="#AAAAAA" /><line x1="15.000000" x2="15.000000" y1="91.000000" y2="96.000000" stroke="#AAAAAA" /><line x1="15.000000" x2="15.000000" y1="91.000000" y2="96.000000" stroke="#AAAAAA" /><text style="font-size:10px;fill:#000000;" text-anchor="middle" x="15.000000" y="106.000000">0</text><line x1="143.562500" x2="143.562500" y1="91.000000" y2="96.000000" stroke="#AAAAAA" /><text style="font-size:10px;fill:#000000;" text-anchor="middle" x="143.562500" y="106.000000">51</text><line x1="456.145833" x2="456.145833" y1="91.000000" y2="96.000000" stroke="#AAAAAA" /><text style="font-size:10px;fill:#000000;" text-anchor="middle" x="456.145833" y="106.000000">175</text><line x1="675.458333" x2="675.458333" y1="91.000000" y2="96.000000" stroke="#AAAAAA" /><text style="font-size:10px;fill:#000000;" text-anchor="middle" x="675.458333" y="106.000000">262</text><line x1="894.770833" x2="894.770833" y1="91.000000" y2="96.000000" stroke="#AAAAAA" /><text style="font-size:10px;fill:#000000;" text-anchor="middle" x="894.770833" y="106.000000">349</text><line x1="935.104167" x2="935.104167" y1="91.000000" y2="96.000000" stroke="#AAAAAA" /><text style="font-size:10px;fill:#000000;" text-anchor="middle" x="935.104167" y="106.000000">365</text><line x1="975.437500" x2="975.437500" y1="91.000000" y2="96.000000" stroke="#AAAAAA" /><text style="font-size:10px;fill:#000000;" text-anchor="middle" x="975.437500" y="106.000000">381</text><line x1="1096.437500" x2="1096.437500" y1="91.000000" y2="96.000000" stroke="#AAAAAA" /><text style="font-size:10px;fill:#000000;" text-anchor="middle" x="1096.437500" y="106.000000">429</text><line x1="2172.833333" x2="2172.833333" y1="91.000000" y2="96.000000" stroke="#AAAAAA" /><text style="font-size:10px;fill:#000000;" text-anchor="middle" x="2172.833333" y="106.000000">856</text><line x1="2263.583333" x2="2263.583333" y1="91.000000" y2="96.000000" stroke="#AAAAAA" /><text style="font-size:10px;fill:#000000;" text-anchor="middle" x="2263.583333" y="106.000000">892</text><line x1="2298.875000" x2="2298.875000" y1="91.000000" y2="96.000000" stroke="#AAAAAA" /><text style="font-size:10px;fill:#000000;" text-anchor="middle" x="2298.875000" y="106.000000">906</text></g>
</svg>
