<?xml version='1.0'?>
<svg xmlns="http://www.w3.org/2000/svg" xmlns:xlink="http://www.w3.org/1999/xlink" width="430.000000" height="111.000000">
<defs>
  <filter id="ds" x="0" y="0">
    <feOffset in="SourceAlpha" dx="2" dy="2" />
    <feComponentTransfer><feFuncA type="linear" slope="0.2"/></feComponentTransfer>
    <feGaussianBlur result="blurOut" stdDeviation="1" />
    <feBlend in="SourceGraphic" in2="blurOut" mode="normal" />
  </filter>
  <pattern id="disordered-hatch" patternUnits="userSpaceOnUse" width="4" height="4">
    <path d="M-1,1 l2,-2 M0,4 l4,-4 M3,5 l2,-2" stroke="#000000" opacity="0.3" />
  </pattern>
</defs>
<line x1="28.559322" x2="28.559322" y1="34.000000" y2="62.000000" stroke="#BABDB6" stroke-width="2"/><a xlink:title="p.I18Mfs"><circle cx="28.559322" cy="34.000000" r="4.000000" fill="#ff0000" /></a><g transform="translate(28.559322,34.000000) rotate(-30)"><text style="font-size:10px;fill:#555;" text-anchor="middle" x="0" y="-6.000000">p.I18Mfs</text></g><a xlink:title="CDC73_HUMAN, Parafibromin (531aa)"><rect fill="#BABDB6" x="15.000000" y="62.000000" width="400.000000" height="14.000000"/></a><g transform="translate(15.753296,57.000000)"><a xlink:href="http://pfam.xfam.org/family/PF16050" xlink:title="Paf1 complex subunit CDC73 N-terminal"><rect fill="#2dcf00" x="0" y="0" width="222.975518" height="24.000000" filter="url(#ds)"/><text style="font-size:12px;fill:#ffffff;" text-anchor="middle" x="111.487759" y="16.000000">CDC73_N</text></a></g>
<g transform="translate(283.173258,57.000000)"><a xlink:href="http://pfam.xfam.org/family/PF05179" xlink:title="RNA pol II accessory factor, Cdc73 family, C-terminal"><rect fill="#ff5353" x="0" y="0" width="124.293785" height="24.000000" filter="url(#ds)"/><text style="font-size:12px;fill:#ffffff;" text-anchor="middle" x="62.146893" y="16.000000">CDC73_C</text></a></g>
<g class="axis">
<line x1="15.000000" x2="415.000000" y1="91.000000" y2="91.000000" stroke="#AAAAAA" /><line x1="15.000000" x2="15.000000" y1="91.000000" y2="96.000000" stroke="#AAAAAA" /><line x1="28.559322" x2="28.559322" y1="91.000000" y2="96.000000" stroke="#AAAAAA" /><text style="font-size:10px;fill:#000000;" text-anchor="middle" x="28.559322" y="106.000000">18</text><line x1="238.728814" x2="238.728814" y1="91.000000" y2="96.000000" stroke="#AAAAAA" /><text style="font-size:10px;fill:#000000;" text-anchor="middle" x="238.728814" y="106.000000">297</text><line x1="283.173258" x2="283.173258" y1="91.000000" y2="96.000000" stroke="#AAAAAA" /><text style="font-size:10px;fill:#000000;" text-anchor="middle" x="283.173258" y="106.000000">356</text><line x1="415.000000" x2="415.000000" y1="91.000000" y2="96.000000" stroke="#AAAAAA" /><text style="font-size:10px;fill:#000000;" text-anchor="middle" x="415.000000" y="106.000000">531</text></g>
</svg>
