<?xml version='1.0'?>
<svg xmlns="http://www.w3.org/2000/svg" xmlns:xlink="http://www.w3.org/1999/xlink" width="1328.224719" height="111.000000">
<defs>
  <filter id="ds" x="0" y="0">
    <feOffset in="SourceAlpha" dx="2" dy="2" />
    <feComponentTransfer><feFuncA type="linear" slope="0.2"/></feComponentTransfer>
    <feGaussianBlur result="blurOut" stdDeviation="1" />
    <feBlend in="SourceGraphic" in2="blurOut" mode="normal" />
  </filter>
  <pattern id="disordered-hatch" patternUnits="userSpaceOnUse" width="4" height="4">
    <path d="M-1,1 l2,-2 M0,4 l4,-4 M3,5 l2,-2" stroke="#000000" opacity="0.3" />
  </pattern>
</defs>
<line x1="614.067416" x2="614.067416" y1="34.000000" y2="62.000000" stroke="#BABDB6" stroke-width="2"/><a xlink:title="p.P407Qfs"><circle cx="614.067416" cy="34.000000" r="4.000000" fill="#ff0000" /></a><g transform="translate(614.067416,34.000000) rotate(-30)"><text style="font-size:10px;fill:#555;" text-anchor="middle" x="0" y="-6.000000">p.P407Qfs</text></g><a xlink:title="CADH1_HUMAN, Cadherin-1 (882aa)"><rect fill="#BABDB6" x="15.000000" y="62.000000" width="1298.224719" height="14.000000"/></a><g transform="translate(54.741573,57.000000)"><a xlink:href="http://pfam.xfam.org/family/PF08758" xlink:title="Cadherin prodomain like"><rect fill="#2dcf00" x="0" y="0" width="131.000000" height="24.000000" filter="url(#ds)"/><text style="font-size:12px;fill:#ffffff;" text-anchor="middle" x="65.500000" y="16.000000">Cadherin_pro</text></a></g>
<g transform="translate(249.033708,57.000000)"><a xlink:href="http://pfam.xfam.org/family/PF00028" xlink:title="Cadherin domain"><rect fill="#ff5353" x="0" y="0" width="138.359551" height="24.000000" filter="url(#ds)"/><text style="font-size:12px;fill:#ffffff;" text-anchor="middle" x="69.179775" y="16.000000">Cadherin</text></a></g>
<g transform="translate(408.000000,57.000000)"><a xlink:href="http://pfam.xfam.org/family/PF00028" xlink:title="Cadherin domain"><rect fill="#ff5353" x="0" y="0" width="145.719101" height="24.000000" filter="url(#ds)"/><text style="font-size:12px;fill:#ffffff;" text-anchor="middle" x="72.859551" y="16.000000">Cadherin</text></a></g>
<g transform="translate(574.325843,57.000000)"><a xlink:href="http://pfam.xfam.org/family/PF00028" xlink:title="Cadherin domain"><rect fill="#ff5353" x="0" y="0" width="144.247191" height="24.000000" filter="url(#ds)"/><text style="font-size:12px;fill:#ffffff;" text-anchor="middle" x="72.123596" y="16.000000">Cadherin</text></a></g>
<g transform="translate(737.707865,57.000000)"><a xlink:href="http://pfam.xfam.org/family/PF00028" xlink:title="Cadherin domain"><rect fill="#ff5353" x="0" y="0" width="138.359551" height="24.000000" filter="url(#ds)"/><text style="font-size:12px;fill:#ffffff;" text-anchor="middle" x="69.179775" y="16.000000">Cadherin</text></a></g>
<g transform="translate(895.202247,57.000000)"><a xlink:href="http://pfam.xfam.org/family/PF00028" xlink:title="Cadherin domain"><rect fill="#ff5353" x="0" y="0" width="129.528090" height="24.000000" filter="url(#ds)"/><text style="font-size:12px;fill:#ffffff;" text-anchor="middle" x="64.764045" y="16.000000">Cadherin</text></a></g>
<g transform="translate(1093.910112,57.000000)"><a xlink:href="http://pfam.xfam.org/family/PF01049" xlink:title="Cadherin cytoplasmic region"><rect fill="#5b5bff" x="0" y="0" width="214.898876" height="24.000000" filter="url(#ds)"/><text style="font-size:12px;fill:#ffffff;" text-anchor="middle" x="107.449438" y="16.000000">Cadherin_C</text></a></g>
<g class="axis">
<line x1="15.000000" x2="1313.224719" y1="91.000000" y2="91.000000" stroke="#AAAAAA" /><line x1="15.000000" x2="15.000000" y1="91.000000" y2="96.000000" stroke="#AAAAAA" /><line x1="15.000000" x2="15.000000" y1="91.000000" y2="96.000000" stroke="#AAAAAA" /><text style="font-size:10px;fill:#000000;" text-anchor="middle" x="15.000000" y="106.000000">0</text><line x1="54.741573" x2="54.741573" y1="91.000000" y2="96.000000" stroke="#AAAAAA" /><text style="font-size:10px;fill:#000000;" text-anchor="middle" x="54.741573" y="106.000000">27</text><line x1="185.741573" x2="185.741573" y1="91.000000" y2="96.000000" stroke="#AAAAAA" /><text style="font-size:10px;fill:#000000;" text-anchor="middle" x="185.741573" y="106.000000">116</text><line x1="249.033708" x2="249.033708" y1="91.000000" y2="96.000000" stroke="#AAAAAA" /><text style="font-size:10px;fill:#000000;" text-anchor="middle" x="249.033708" y="106.000000">159</text><line x1="387.393258" x2="387.393258" y1="91.000000" y2="96.000000" stroke="#AAAAAA" /><text style="font-size:10px;fill:#000000;" text-anchor="middle" x="387.393258" y="106.000000">253</text><line x1="408.000000" x2="408.000000" y1="91.000000" y2="96.000000" stroke="#AAAAAA" /><text style="font-size:10px;fill:#000000;" text-anchor="middle" x="408.000000" y="106.000000">267</text><line x1="553.719101" x2="553.719101" y1="91.000000" y2="96.000000" stroke="#AAAAAA" /><text style="font-size:10px;fill:#000000;" text-anchor="middle" x="553.719101" y="106.000000">366</text><line x1="574.325843" x2="574.325843" y1="91.000000" y2="96.000000" stroke="#AAAAAA" /><text style="font-size:10px;fill:#000000;" text-anchor="middle" x="574.325843" y="106.000000">380</text><line x1="614.067416" x2="614.067416" y1="91.000000" y2="96.000000" stroke="#AAAAAA" /><text style="font-size:10px;fill:#000000;" text-anchor="middle" x="614.067416" y="106.000000">407</text><line x1="718.573034" x2="718.573034" y1="91.000000" y2="96.000000" stroke="#AAAAAA" /><text style="font-size:10px;fill:#000000;" text-anchor="middle" x="718.573034" y="106.000000">478</text><line x1="737.707865" x2="737.707865" y1="91.000000" y2="96.000000" stroke="#AAAAAA" /><text style="font-size:10px;fill:#000000;" text-anchor="middle" x="737.707865" y="106.000000">491</text><line x1="876.067416" x2="876.067416" y1="91.000000" y2="96.000000" stroke="#AAAAAA" /><text style="font-size:10px;fill:#000000;" text-anchor="middle" x="876.067416" y="106.000000">585</text><line x1="895.202247" x2="895.202247" y1="91.000000" y2="96.000000" stroke="#AAAAAA" /><text style="font-size:10px;fill:#000000;" text-anchor="middle" x="895.202247" y="106.000000">598</text><line x1="1024.730337" x2="1024.730337" y1="91.000000" y2="96.000000" stroke="#AAAAAA" /><text style="font-size:10px;fill:#000000;" text-anchor="middle" x="1024.730337" y="106.000000">686</text><line x1="1093.910112" x2="1093.910112" y1="91.000000" y2="96.000000" stroke="#AAAAAA" /><text style="font-size:10px;fill:#000000;" text-anchor="middle" x="1093.910112" y="106.000000">733</text><line x1="1313.224719" x2="1313.224719" y1="91.000000" y2="96.000000" stroke="#AAAAAA" /><text style="font-size:10px;fill:#000000;" text-anchor="middle" x="1313.224719" y="106.000000">882</text></g>
</svg>
