<?xml version='1.0'?>
<svg xmlns="http://www.w3.org/2000/svg" xmlns:xlink="http://www.w3.org/1999/xlink" width="2643.056180" height="111.000000">
<defs>
  <filter id="ds" x="0" y="0">
    <feOffset in="SourceAlpha" dx="2" dy="2" />
    <feComponentTransfer><feFuncA type="linear" slope="0.2"/></feComponentTransfer>
    <feGaussianBlur result="blurOut" stdDeviation="1" />
    <feBlend in="SourceGraphic" in2="blurOut" mode="normal" />
  </filter>
  <pattern id="disordered-hatch" patternUnits="userSpaceOnUse" width="4" height="4">
    <path d="M-1,1 l2,-2 M0,4 l4,-4 M3,5 l2,-2" stroke="#000000" opacity="0.3" />
  </pattern>
</defs>
<line x1="2014.898876" x2="2014.898876" y1="34.000000" y2="62.000000" stroke="#BABDB6" stroke-width="2"/><a xlink:title="p.P1471Ffs*5"><circle cx="2014.898876" cy="34.000000" r="4.000000" fill="#ff0000" /></a><g transform="translate(2014.898876,34.000000) rotate(-30)"><text style="font-size:10px;fill:#555;" text-anchor="middle" x="0" y="-6.000000">p.P1471Ffs*5</text></g><a xlink:title="DICER_HUMAN, Endoribonuclease Dicer EC=3.1.26.3 (1922aa)"><rect fill="#BABDB6" x="15.000000" y="62.000000" width="2613.056180" height="14.000000"/></a><g transform="translate(54.426966,57.000000)"><a xlink:href="http://pfam.xfam.org/family/PF04851" xlink:title="Type III restriction enzyme, res subunit"><rect fill="#2dcf00" x="0" y="0" width="246.078652" height="24.000000" filter="url(#ds)"/><text style="font-size:12px;fill:#ffffff;" text-anchor="middle" x="123.039326" y="16.000000">ResIII</text></a></g>
<g transform="translate(606.404494,57.000000)"><a xlink:href="http://pfam.xfam.org/family/PF00271" xlink:title="Helicase conserved C-terminal domain"><rect fill="#ff5353" x="0" y="0" width="164.505618" height="24.000000" filter="url(#ds)"/><text style="font-size:12px;fill:#ffffff;" text-anchor="middle" x="82.252809" y="16.000000">Helicase_C</text></a></g>
<g transform="translate(871.516854,57.000000)"><a xlink:href="http://pfam.xfam.org/family/PF03368" xlink:title="Dicer dimerisation domain"><rect fill="#5b5bff" x="0" y="0" width="121.000000" height="24.000000" filter="url(#ds)"/><text style="font-size:12px;fill:#ffffff;" text-anchor="middle" x="60.500000" y="16.000000">Dicer_dimer</text></a></g>
<g transform="translate(1230.438202,57.000000)"><a xlink:href="http://pfam.xfam.org/family/PF02170" xlink:title="PAZ domain"><rect fill="#ebd61d" x="0" y="0" width="231.123596" height="24.000000" filter="url(#ds)"/><text style="font-size:12px;fill:#ffffff;" text-anchor="middle" x="115.561798" y="16.000000">PAZ domain</text></a></g>
<g transform="translate(1800.089888,57.000000)"><a xlink:href="http://pfam.xfam.org/family/PF00636" xlink:title="Ribonuclease III domain"><rect fill="#ba21e0" x="0" y="0" width="356.202247" height="24.000000" filter="url(#ds)"/><text style="font-size:12px;fill:#ffffff;" text-anchor="middle" x="178.101124" y="16.000000">Ribonuclease III domain</text></a></g>
<g transform="translate(2328.955056,57.000000)"><a xlink:href="http://pfam.xfam.org/family/PF00636" xlink:title="Ribonuclease III domain"><rect fill="#ba21e0" x="0" y="0" width="165.865169" height="24.000000" filter="url(#ds)"/><text style="font-size:12px;fill:#ffffff;" text-anchor="middle" x="82.932584" y="16.000000">Ribonuclease_3</text></a></g>
<g class="axis">
<line x1="15.000000" x2="2628.056180" y1="91.000000" y2="91.000000" stroke="#AAAAAA" /><line x1="15.000000" x2="15.000000" y1="91.000000" y2="96.000000" stroke="#AAAAAA" /><line x1="15.000000" x2="15.000000" y1="91.000000" y2="96.000000" stroke="#AAAAAA" /><text style="font-size:10px;fill:#000000;" text-anchor="middle" x="15.000000" y="106.000000">0</text><line x1="54.426966" x2="54.426966" y1="91.000000" y2="96.000000" stroke="#AAAAAA" /><text style="font-size:10px;fill:#000000;" text-anchor="middle" x="54.426966" y="106.000000">29</text><line x1="300.505618" x2="300.505618" y1="91.000000" y2="96.000000" stroke="#AAAAAA" /><text style="font-size:10px;fill:#000000;" text-anchor="middle" x="300.505618" y="106.000000">210</text><line x1="606.404494" x2="606.404494" y1="91.000000" y2="96.000000" stroke="#AAAAAA" /><text style="font-size:10px;fill:#000000;" text-anchor="middle" x="606.404494" y="106.000000">435</text><line x1="770.910112" x2="770.910112" y1="91.000000" y2="96.000000" stroke="#AAAAAA" /><text style="font-size:10px;fill:#000000;" text-anchor="middle" x="770.910112" y="106.000000">556</text><line x1="871.516854" x2="871.516854" y1="91.000000" y2="96.000000" stroke="#AAAAAA" /><text style="font-size:10px;fill:#000000;" text-anchor="middle" x="871.516854" y="106.000000">630</text><line x1="992.516854" x2="992.516854" y1="91.000000" y2="96.000000" stroke="#AAAAAA" /><text style="font-size:10px;fill:#000000;" text-anchor="middle" x="992.516854" y="106.000000">719</text><line x1="1230.438202" x2="1230.438202" y1="91.000000" y2="96.000000" stroke="#AAAAAA" /><text style="font-size:10px;fill:#000000;" text-anchor="middle" x="1230.438202" y="106.000000">894</text><line x1="1461.561798" x2="1461.561798" y1="91.000000" y2="96.000000" stroke="#AAAAAA" /><text style="font-size:10px;fill:#000000;" text-anchor="middle" x="1461.561798" y="106.000000">1064</text><line x1="1800.089888" x2="1800.089888" y1="91.000000" y2="96.000000" stroke="#AAAAAA" /><text style="font-size:10px;fill:#000000;" text-anchor="middle" x="1800.089888" y="106.000000">1313</text><line x1="2014.898876" x2="2014.898876" y1="91.000000" y2="96.000000" stroke="#AAAAAA" /><text style="font-size:10px;fill:#000000;" text-anchor="middle" x="2014.898876" y="106.000000">1471</text><line x1="2156.292135" x2="2156.292135" y1="91.000000" y2="96.000000" stroke="#AAAAAA" /><text style="font-size:10px;fill:#000000;" text-anchor="middle" x="2156.292135" y="106.000000">1575</text><line x1="2328.955056" x2="2328.955056" y1="91.000000" y2="96.000000" stroke="#AAAAAA" /><text style="font-size:10px;fill:#000000;" text-anchor="middle" x="2328.955056" y="106.000000">1702</text><line x1="2494.820225" x2="2494.820225" y1="91.000000" y2="96.000000" stroke="#AAAAAA" /><text style="font-size:10px;fill:#000000;" text-anchor="middle" x="2494.820225" y="106.000000">1824</text><line x1="2628.056180" x2="2628.056180" y1="91.000000" y2="96.000000" stroke="#AAAAAA" /><text style="font-size:10px;fill:#000000;" text-anchor="middle" x="2628.056180" y="106.000000">1922</text></g>
</svg>
