<?xml version='1.0'?>
<svg xmlns="http://www.w3.org/2000/svg" xmlns:xlink="http://www.w3.org/1999/xlink" width="1609.208333" height="111.000000">
<defs>
  <filter id="ds" x="0" y="0">
    <feOffset in="SourceAlpha" dx="2" dy="2" />
    <feComponentTransfer><feFuncA type="linear" slope="0.2"/></feComponentTransfer>
    <feGaussianBlur result="blurOut" stdDeviation="1" />
    <feBlend in="SourceGraphic" in2="blurOut" mode="normal" />
  </filter>
  <pattern id="disordered-hatch" patternUnits="userSpaceOnUse" width="4" height="4">
    <path d="M-1,1 l2,-2 M0,4 l4,-4 M3,5 l2,-2" stroke="#000000" opacity="0.3" />
  </pattern>
</defs>
<line x1="965.041667" x2="965.041667" y1="34.000000" y2="62.000000" stroke="#BABDB6" stroke-width="2"/><a xlink:title="p.L755_T759del"><circle cx="965.041667" cy="34.000000" r="4.000000" fill="#0000ff" /></a><g transform="translate(965.041667,34.000000) rotate(-30)"><text style="font-size:10px;fill:#555;" text-anchor="middle" x="0" y="-6.000000">p.L755_T759del</text></g><a xlink:title="ERBB2_HUMAN, Receptor tyrosine-protein kinase erbB-2 EC=2.7.10.1 (1255aa)"><rect fill="#BABDB6" x="15.000000" y="62.000000" width="1579.208333" height="14.000000"/></a><g transform="translate(80.433333,57.000000)"><a xlink:href="http://pfam.xfam.org/family/PF01030" xlink:title="Receptor L domain"><rect fill="#2dcf00" x="0" y="0" width="152.258333" height="24.000000" filter="url(#ds)"/><text style="font-size:12px;fill:#ffffff;" text-anchor="middle" x="76.129167" y="16.000000">Recep_L_domain</text></a></g>
<g transform="translate(245.275000,57.000000)"><a xlink:href="http://pfam.xfam.org/family/PF00757" xlink:title="Furin-like cysteine rich region"><rect fill="#ff5353" x="0" y="0" width="201.333333" height="24.000000" filter="url(#ds)"/><text style="font-size:12px;fill:#ffffff;" text-anchor="middle" x="100.666667" y="16.000000">Furin-like</text></a></g>
<g transform="translate(475.550000,57.000000)"><a xlink:href="http://pfam.xfam.org/family/PF01030" xlink:title="Receptor L domain"><rect fill="#2dcf00" x="0" y="0" width="151.000000" height="24.000000" filter="url(#ds)"/><text style="font-size:12px;fill:#ffffff;" text-anchor="middle" x="75.500000" y="16.000000">Recep_L_domain</text></a></g>
<g transform="translate(656.750000,57.000000)"><a xlink:href="http://pfam.xfam.org/family/PF14843" xlink:title="Growth factor receptor domain IV"><rect fill="#5b5bff" x="0" y="0" width="167.358333" height="24.000000" filter="url(#ds)"/><text style="font-size:12px;fill:#ffffff;" text-anchor="middle" x="83.679167" y="16.000000">GF_recep_IV</text></a></g>
<g transform="translate(921.000000,57.000000)"><a xlink:href="http://pfam.xfam.org/family/PF07714" xlink:title="Protein tyrosine kinase"><rect fill="#ebd61d" x="0" y="0" width="322.133333" height="24.000000" filter="url(#ds)"/><text style="font-size:12px;fill:#ffffff;" text-anchor="middle" x="161.066667" y="16.000000">Protein tyrosine kinase</text></a></g>
<g class="axis">
<line x1="15.000000" x2="1594.208333" y1="91.000000" y2="91.000000" stroke="#AAAAAA" /><line x1="15.000000" x2="15.000000" y1="91.000000" y2="96.000000" stroke="#AAAAAA" /><line x1="15.000000" x2="15.000000" y1="91.000000" y2="96.000000" stroke="#AAAAAA" /><text style="font-size:10px;fill:#000000;" text-anchor="middle" x="15.000000" y="106.000000">0</text><line x1="80.433333" x2="80.433333" y1="91.000000" y2="96.000000" stroke="#AAAAAA" /><text style="font-size:10px;fill:#000000;" text-anchor="middle" x="80.433333" y="106.000000">52</text><line x1="232.691667" x2="232.691667" y1="91.000000" y2="96.000000" stroke="#AAAAAA" /><text style="font-size:10px;fill:#000000;" text-anchor="middle" x="232.691667" y="106.000000">173</text><line x1="446.608333" x2="446.608333" y1="91.000000" y2="96.000000" stroke="#AAAAAA" /><text style="font-size:10px;fill:#000000;" text-anchor="middle" x="446.608333" y="106.000000">343</text><line x1="475.550000" x2="475.550000" y1="91.000000" y2="96.000000" stroke="#AAAAAA" /><text style="font-size:10px;fill:#000000;" text-anchor="middle" x="475.550000" y="106.000000">366</text><line x1="626.550000" x2="626.550000" y1="91.000000" y2="96.000000" stroke="#AAAAAA" /><text style="font-size:10px;fill:#000000;" text-anchor="middle" x="626.550000" y="106.000000">486</text><line x1="656.750000" x2="656.750000" y1="91.000000" y2="96.000000" stroke="#AAAAAA" /><text style="font-size:10px;fill:#000000;" text-anchor="middle" x="656.750000" y="106.000000">510</text><line x1="824.108333" x2="824.108333" y1="91.000000" y2="96.000000" stroke="#AAAAAA" /><text style="font-size:10px;fill:#000000;" text-anchor="middle" x="824.108333" y="106.000000">643</text><line x1="921.000000" x2="921.000000" y1="91.000000" y2="96.000000" stroke="#AAAAAA" /><text style="font-size:10px;fill:#000000;" text-anchor="middle" x="921.000000" y="106.000000">720</text><line x1="965.041667" x2="965.041667" y1="91.000000" y2="96.000000" stroke="#AAAAAA" /><text style="font-size:10px;fill:#000000;" text-anchor="middle" x="965.041667" y="106.000000">755</text><line x1="1243.133333" x2="1243.133333" y1="91.000000" y2="96.000000" stroke="#AAAAAA" /><text style="font-size:10px;fill:#000000;" text-anchor="middle" x="1243.133333" y="106.000000">976</text><line x1="1594.208333" x2="1594.208333" y1="91.000000" y2="96.000000" stroke="#AAAAAA" /><text style="font-size:10px;fill:#000000;" text-anchor="middle" x="1594.208333" y="106.000000">1255</text></g>
</svg>
