<?xml version='1.0'?>
<svg xmlns="http://www.w3.org/2000/svg" xmlns:xlink="http://www.w3.org/1999/xlink" width="455.720930" height="111.000000">
<defs>
  <filter id="ds" x="0" y="0">
    <feOffset in="SourceAlpha" dx="2" dy="2" />
    <feComponentTransfer><feFuncA type="linear" slope="0.2"/></feComponentTransfer>
    <feGaussianBlur result="blurOut" stdDeviation="1" />
    <feBlend in="SourceGraphic" in2="blurOut" mode="normal" />
  </filter>
  <pattern id="disordered-hatch" patternUnits="userSpaceOnUse" width="4" height="4">
    <path d="M-1,1 l2,-2 M0,4 l4,-4 M3,5 l2,-2" stroke="#000000" opacity="0.3" />
  </pattern>
</defs>
<line x1="425.651163" x2="425.651163" y1="34.000000" y2="62.000000" stroke="#BABDB6" stroke-width="2"/><a xlink:title="p.H436delinsQG"><circle cx="425.651163" cy="34.000000" r="4.000000" fill="#ff0000" /></a><g transform="translate(425.651163,34.000000) rotate(-30)"><text style="font-size:10px;fill:#555;" text-anchor="middle" x="0" y="-6.000000">p.H436delinsQG</text></g><a xlink:title="ETV6_HUMAN, Transcription factor ETV6 (452aa)"><rect fill="#BABDB6" x="15.000000" y="62.000000" width="425.720930" height="14.000000"/></a><g transform="translate(50.790698,57.000000)"><a xlink:href="http://pfam.xfam.org/family/PF02198" xlink:title="Sterile alpha motif (SAM)/Pointed domain"><rect fill="#2dcf00" x="0" y="0" width="81.000000" height="24.000000" filter="url(#ds)"/><text style="font-size:12px;fill:#ffffff;" text-anchor="middle" x="40.500000" y="16.000000">SAM_PNT</text></a></g>
<g transform="translate(335.232558,57.000000)"><a xlink:href="http://pfam.xfam.org/family/PF00178" xlink:title="Ets-domain"><rect fill="#ff5353" x="0" y="0" width="75.348837" height="24.000000" filter="url(#ds)"/><text style="font-size:12px;fill:#ffffff;" text-anchor="middle" x="37.674419" y="16.000000">Ets</text></a></g>
<g class="axis">
<line x1="15.000000" x2="440.720930" y1="91.000000" y2="91.000000" stroke="#AAAAAA" /><line x1="15.000000" x2="15.000000" y1="91.000000" y2="96.000000" stroke="#AAAAAA" /><line x1="15.000000" x2="15.000000" y1="91.000000" y2="96.000000" stroke="#AAAAAA" /><text style="font-size:10px;fill:#000000;" text-anchor="middle" x="15.000000" y="106.000000">0</text><line x1="50.790698" x2="50.790698" y1="91.000000" y2="96.000000" stroke="#AAAAAA" /><text style="font-size:10px;fill:#000000;" text-anchor="middle" x="50.790698" y="106.000000">38</text><line x1="131.790698" x2="131.790698" y1="91.000000" y2="96.000000" stroke="#AAAAAA" /><text style="font-size:10px;fill:#000000;" text-anchor="middle" x="131.790698" y="106.000000">124</text><line x1="335.232558" x2="335.232558" y1="91.000000" y2="96.000000" stroke="#AAAAAA" /><text style="font-size:10px;fill:#000000;" text-anchor="middle" x="335.232558" y="106.000000">340</text><line x1="440.720930" x2="440.720930" y1="91.000000" y2="96.000000" stroke="#AAAAAA" /><text style="font-size:10px;fill:#000000;" text-anchor="middle" x="440.720930" y="106.000000">452</text></g>
</svg>
