<?xml version='1.0'?>
<svg xmlns="http://www.w3.org/2000/svg" xmlns:xlink="http://www.w3.org/1999/xlink" width="1736.021739" height="111.000000">
<defs>
  <filter id="ds" x="0" y="0">
    <feOffset in="SourceAlpha" dx="2" dy="2" />
    <feComponentTransfer><feFuncA type="linear" slope="0.2"/></feComponentTransfer>
    <feGaussianBlur result="blurOut" stdDeviation="1" />
    <feBlend in="SourceGraphic" in2="blurOut" mode="normal" />
  </filter>
  <pattern id="disordered-hatch" patternUnits="userSpaceOnUse" width="4" height="4">
    <path d="M-1,1 l2,-2 M0,4 l4,-4 M3,5 l2,-2" stroke="#000000" opacity="0.3" />
  </pattern>
</defs>
<line x1="51.195652" x2="51.195652" y1="34.000000" y2="62.000000" stroke="#BABDB6" stroke-width="2"/><a xlink:title="p.T15_G16insP"><circle cx="51.195652" cy="34.000000" r="4.000000" fill="#0000ff" /></a><g transform="translate(51.195652,34.000000) rotate(-30)"><text style="font-size:10px;fill:#555;" text-anchor="middle" x="0" y="-6.000000">p.T15_G16insP</text></g><a xlink:title="FBXW7_HUMAN, F-box/WD repeat-containing protein 7 {ECO:0000305} (707aa)"><rect fill="#BABDB6" x="15.000000" y="62.000000" width="1706.021739" height="14.000000"/></a><g transform="translate(693.065217,57.000000)"><a xlink:href="http://pfam.xfam.org/family/PF12937" xlink:title="F-box-like"><rect fill="#2dcf00" x="0" y="0" width="111.000000" height="24.000000" filter="url(#ds)"/><text style="font-size:12px;fill:#ffffff;" text-anchor="middle" x="55.500000" y="16.000000">F-box-like</text></a></g>
<g transform="translate(907.826087,57.000000)"><a xlink:href="http://pfam.xfam.org/family/PF00400" xlink:title="WD domain, G-beta repeat"><rect fill="#ff5353" x="0" y="0" width="89.282609" height="24.000000" filter="url(#ds)"/><text style="font-size:12px;fill:#ffffff;" text-anchor="middle" x="44.641304" y="16.000000">WD40</text></a></g>
<g transform="translate(1006.760870,57.000000)"><a xlink:href="http://pfam.xfam.org/family/PF00400" xlink:title="WD domain, G-beta repeat"><rect fill="#ff5353" x="0" y="0" width="86.869565" height="24.000000" filter="url(#ds)"/><text style="font-size:12px;fill:#ffffff;" text-anchor="middle" x="43.434783" y="16.000000">WD40</text></a></g>
<g transform="translate(1103.282609,57.000000)"><a xlink:href="http://pfam.xfam.org/family/PF00400" xlink:title="WD domain, G-beta repeat"><rect fill="#ff5353" x="0" y="0" width="86.869565" height="24.000000" filter="url(#ds)"/><text style="font-size:12px;fill:#ffffff;" text-anchor="middle" x="43.434783" y="16.000000">WD40</text></a></g>
<g transform="translate(1199.804348,57.000000)"><a xlink:href="http://pfam.xfam.org/family/PF00400" xlink:title="WD domain, G-beta repeat"><rect fill="#ff5353" x="0" y="0" width="86.869565" height="24.000000" filter="url(#ds)"/><text style="font-size:12px;fill:#ffffff;" text-anchor="middle" x="43.434783" y="16.000000">WD40</text></a></g>
<g transform="translate(1296.326087,57.000000)"><a xlink:href="http://pfam.xfam.org/family/PF00400" xlink:title="WD domain, G-beta repeat"><rect fill="#ff5353" x="0" y="0" width="86.869565" height="24.000000" filter="url(#ds)"/><text style="font-size:12px;fill:#ffffff;" text-anchor="middle" x="43.434783" y="16.000000">WD40</text></a></g>
<g transform="translate(1392.847826,57.000000)"><a xlink:href="http://pfam.xfam.org/family/PF00400" xlink:title="WD domain, G-beta repeat"><rect fill="#ff5353" x="0" y="0" width="86.869565" height="24.000000" filter="url(#ds)"/><text style="font-size:12px;fill:#ffffff;" text-anchor="middle" x="43.434783" y="16.000000">WD40</text></a></g>
<g transform="translate(1489.369565,57.000000)"><a xlink:href="http://pfam.xfam.org/family/PF00400" xlink:title="WD domain, G-beta repeat"><rect fill="#ff5353" x="0" y="0" width="94.108696" height="24.000000" filter="url(#ds)"/><text style="font-size:12px;fill:#ffffff;" text-anchor="middle" x="47.054348" y="16.000000">WD40</text></a></g>
<g class="axis">
<line x1="15.000000" x2="1721.021739" y1="91.000000" y2="91.000000" stroke="#AAAAAA" /><line x1="15.000000" x2="15.000000" y1="91.000000" y2="96.000000" stroke="#AAAAAA" /><line x1="15.000000" x2="15.000000" y1="91.000000" y2="96.000000" stroke="#AAAAAA" /><text style="font-size:10px;fill:#000000;" text-anchor="middle" x="15.000000" y="106.000000">0</text><line x1="51.195652" x2="51.195652" y1="91.000000" y2="96.000000" stroke="#AAAAAA" /><text style="font-size:10px;fill:#000000;" text-anchor="middle" x="51.195652" y="106.000000">15</text><line x1="693.065217" x2="693.065217" y1="91.000000" y2="96.000000" stroke="#AAAAAA" /><text style="font-size:10px;fill:#000000;" text-anchor="middle" x="693.065217" y="106.000000">281</text><line x1="804.065217" x2="804.065217" y1="91.000000" y2="96.000000" stroke="#AAAAAA" /><text style="font-size:10px;fill:#000000;" text-anchor="middle" x="804.065217" y="106.000000">327</text><line x1="907.826087" x2="907.826087" y1="91.000000" y2="96.000000" stroke="#AAAAAA" /><text style="font-size:10px;fill:#000000;" text-anchor="middle" x="907.826087" y="106.000000">370</text><line x1="997.108696" x2="997.108696" y1="91.000000" y2="96.000000" stroke="#AAAAAA" /><text style="font-size:10px;fill:#000000;" text-anchor="middle" x="997.108696" y="106.000000">407</text><line x1="1093.630435" x2="1093.630435" y1="91.000000" y2="96.000000" stroke="#AAAAAA" /><text style="font-size:10px;fill:#000000;" text-anchor="middle" x="1093.630435" y="106.000000">447</text><line x1="1190.152174" x2="1190.152174" y1="91.000000" y2="96.000000" stroke="#AAAAAA" /><text style="font-size:10px;fill:#000000;" text-anchor="middle" x="1190.152174" y="106.000000">487</text><line x1="1286.673913" x2="1286.673913" y1="91.000000" y2="96.000000" stroke="#AAAAAA" /><text style="font-size:10px;fill:#000000;" text-anchor="middle" x="1286.673913" y="106.000000">527</text><line x1="1383.195652" x2="1383.195652" y1="91.000000" y2="96.000000" stroke="#AAAAAA" /><text style="font-size:10px;fill:#000000;" text-anchor="middle" x="1383.195652" y="106.000000">567</text><line x1="1479.717391" x2="1479.717391" y1="91.000000" y2="96.000000" stroke="#AAAAAA" /><text style="font-size:10px;fill:#000000;" text-anchor="middle" x="1479.717391" y="106.000000">607</text><line x1="1583.478261" x2="1583.478261" y1="91.000000" y2="96.000000" stroke="#AAAAAA" /><text style="font-size:10px;fill:#000000;" text-anchor="middle" x="1583.478261" y="106.000000">650</text><line x1="1721.021739" x2="1721.021739" y1="91.000000" y2="96.000000" stroke="#AAAAAA" /><text style="font-size:10px;fill:#000000;" text-anchor="middle" x="1721.021739" y="106.000000">707</text></g>
</svg>
