<?xml version='1.0'?>
<svg xmlns="http://www.w3.org/2000/svg" xmlns:xlink="http://www.w3.org/1999/xlink" width="649.500000" height="111.000000">
<defs>
  <filter id="ds" x="0" y="0">
    <feOffset in="SourceAlpha" dx="2" dy="2" />
    <feComponentTransfer><feFuncA type="linear" slope="0.2"/></feComponentTransfer>
    <feGaussianBlur result="blurOut" stdDeviation="1" />
    <feBlend in="SourceGraphic" in2="blurOut" mode="normal" />
  </filter>
  <pattern id="disordered-hatch" patternUnits="userSpaceOnUse" width="4" height="4">
    <path d="M-1,1 l2,-2 M0,4 l4,-4 M3,5 l2,-2" stroke="#000000" opacity="0.3" />
  </pattern>
</defs>
<line x1="103.500000" x2="103.500000" y1="34.000000" y2="62.000000" stroke="#BABDB6" stroke-width="2"/><a xlink:title="p.A59Qfs"><circle cx="103.500000" cy="34.000000" r="4.000000" fill="#ff0000" /></a><g transform="translate(103.500000,34.000000) rotate(-30)"><text style="font-size:10px;fill:#555;" text-anchor="middle" x="0" y="-6.000000">p.A59Qfs</text></g><a xlink:title="GATA1_HUMAN, Erythroid transcription factor (413aa)"><rect fill="#BABDB6" x="15.000000" y="62.000000" width="619.500000" height="14.000000"/></a><g transform="translate(321.000000,57.000000)"><a xlink:href="http://pfam.xfam.org/family/PF00320" xlink:title="GATA zinc finger"><rect fill="#2dcf00" x="0" y="0" width="51.000000" height="24.000000" filter="url(#ds)"/><text style="font-size:12px;fill:#ffffff;" text-anchor="middle" x="25.500000" y="16.000000">GATA</text></a></g>
<g transform="translate(402.000000,57.000000)"><a xlink:href="http://pfam.xfam.org/family/PF00320" xlink:title="GATA zinc finger"><rect fill="#2dcf00" x="0" y="0" width="51.000000" height="24.000000" filter="url(#ds)"/><text style="font-size:12px;fill:#ffffff;" text-anchor="middle" x="25.500000" y="16.000000">GATA</text></a></g>
<g class="axis">
<line x1="15.000000" x2="634.500000" y1="91.000000" y2="91.000000" stroke="#AAAAAA" /><line x1="15.000000" x2="15.000000" y1="91.000000" y2="96.000000" stroke="#AAAAAA" /><line x1="15.000000" x2="15.000000" y1="91.000000" y2="96.000000" stroke="#AAAAAA" /><text style="font-size:10px;fill:#000000;" text-anchor="middle" x="15.000000" y="106.000000">0</text><line x1="103.500000" x2="103.500000" y1="91.000000" y2="96.000000" stroke="#AAAAAA" /><text style="font-size:10px;fill:#000000;" text-anchor="middle" x="103.500000" y="106.000000">59</text><line x1="321.000000" x2="321.000000" y1="91.000000" y2="96.000000" stroke="#AAAAAA" /><text style="font-size:10px;fill:#000000;" text-anchor="middle" x="321.000000" y="106.000000">204</text><line x1="372.000000" x2="372.000000" y1="91.000000" y2="96.000000" stroke="#AAAAAA" /><text style="font-size:10px;fill:#000000;" text-anchor="middle" x="372.000000" y="106.000000">238</text><line x1="402.000000" x2="402.000000" y1="91.000000" y2="96.000000" stroke="#AAAAAA" /><text style="font-size:10px;fill:#000000;" text-anchor="middle" x="402.000000" y="106.000000">258</text><line x1="453.000000" x2="453.000000" y1="91.000000" y2="96.000000" stroke="#AAAAAA" /><text style="font-size:10px;fill:#000000;" text-anchor="middle" x="453.000000" y="106.000000">292</text><line x1="634.500000" x2="634.500000" y1="91.000000" y2="96.000000" stroke="#AAAAAA" /><text style="font-size:10px;fill:#000000;" text-anchor="middle" x="634.500000" y="106.000000">413</text></g>
</svg>
