<?xml version='1.0'?>
<svg xmlns="http://www.w3.org/2000/svg" xmlns:xlink="http://www.w3.org/1999/xlink" width="602.987654" height="111.000000">
<defs>
  <filter id="ds" x="0" y="0">
    <feOffset in="SourceAlpha" dx="2" dy="2" />
    <feComponentTransfer><feFuncA type="linear" slope="0.2"/></feComponentTransfer>
    <feGaussianBlur result="blurOut" stdDeviation="1" />
    <feBlend in="SourceGraphic" in2="blurOut" mode="normal" />
  </filter>
  <pattern id="disordered-hatch" patternUnits="userSpaceOnUse" width="4" height="4">
    <path d="M-1,1 l2,-2 M0,4 l4,-4 M3,5 l2,-2" stroke="#000000" opacity="0.3" />
  </pattern>
</defs>
<line x1="286.814815" x2="286.814815" y1="34.000000" y2="62.000000" stroke="#BABDB6" stroke-width="2"/><a xlink:title="p.F537_K539delinsL"><circle cx="286.814815" cy="34.000000" r="4.000000" fill="#0000ff" /></a><g transform="translate(286.814815,34.000000) rotate(-30)"><text style="font-size:10px;fill:#555;" text-anchor="middle" x="0" y="-6.000000">p.F537_K539delinsL</text></g><a xlink:title="JAK2_HUMAN, Tyrosine-protein kinase JAK2 (1132aa)"><rect fill="#BABDB6" x="15.000000" y="62.000000" width="572.987654" height="14.000000"/></a><g transform="translate(217.469136,57.000000)"><a xlink:href="http://pfam.xfam.org/family/PF00017" xlink:title="SH2 domain"><rect fill="#2dcf00" x="0" y="0" width="41.000000" height="24.000000" filter="url(#ds)"/><text style="font-size:12px;fill:#ffffff;" text-anchor="middle" x="20.500000" y="16.000000">SH2</text></a></g>
<g transform="translate(290.864198,57.000000)"><a xlink:href="http://pfam.xfam.org/family/PF07714" xlink:title="Protein tyrosine kinase"><rect fill="#ff5353" x="0" y="0" width="131.604938" height="24.000000" filter="url(#ds)"/><text style="font-size:12px;fill:#ffffff;" text-anchor="middle" x="65.802469" y="16.000000">Pkinase_Tyr</text></a></g>
<g transform="translate(444.740741,57.000000)"><a xlink:href="http://pfam.xfam.org/family/PF07714" xlink:title="Protein tyrosine kinase"><rect fill="#ff5353" x="0" y="0" width="138.691358" height="24.000000" filter="url(#ds)"/><text style="font-size:12px;fill:#ffffff;" text-anchor="middle" x="69.345679" y="16.000000">Pkinase_Tyr</text></a></g>
<g class="axis">
<line x1="15.000000" x2="587.987654" y1="91.000000" y2="91.000000" stroke="#AAAAAA" /><line x1="15.000000" x2="15.000000" y1="91.000000" y2="96.000000" stroke="#AAAAAA" /><line x1="15.000000" x2="15.000000" y1="91.000000" y2="96.000000" stroke="#AAAAAA" /><text style="font-size:10px;fill:#000000;" text-anchor="middle" x="15.000000" y="106.000000">0</text><line x1="217.469136" x2="217.469136" y1="91.000000" y2="96.000000" stroke="#AAAAAA" /><text style="font-size:10px;fill:#000000;" text-anchor="middle" x="217.469136" y="106.000000">400</text><line x1="258.469136" x2="258.469136" y1="91.000000" y2="96.000000" stroke="#AAAAAA" /><text style="font-size:10px;fill:#000000;" text-anchor="middle" x="258.469136" y="106.000000">481</text><line x1="286.814815" x2="286.814815" y1="91.000000" y2="96.000000" stroke="#AAAAAA" /><text style="font-size:10px;fill:#000000;" text-anchor="middle" x="286.814815" y="106.000000">537</text><line x1="422.469136" x2="422.469136" y1="91.000000" y2="96.000000" stroke="#AAAAAA" /><text style="font-size:10px;fill:#000000;" text-anchor="middle" x="422.469136" y="106.000000">805</text><line x1="444.740741" x2="444.740741" y1="91.000000" y2="96.000000" stroke="#AAAAAA" /><text style="font-size:10px;fill:#000000;" text-anchor="middle" x="444.740741" y="106.000000">849</text><line x1="587.987654" x2="587.987654" y1="91.000000" y2="96.000000" stroke="#AAAAAA" /><text style="font-size:10px;fill:#000000;" text-anchor="middle" x="587.987654" y="106.000000">1132</text></g>
</svg>
