<?xml version='1.0'?>
<svg xmlns="http://www.w3.org/2000/svg" xmlns:xlink="http://www.w3.org/1999/xlink" width="430.000000" height="111.000000">
<defs>
  <filter id="ds" x="0" y="0">
    <feOffset in="SourceAlpha" dx="2" dy="2" />
    <feComponentTransfer><feFuncA type="linear" slope="0.2"/></feComponentTransfer>
    <feGaussianBlur result="blurOut" stdDeviation="1" />
    <feBlend in="SourceGraphic" in2="blurOut" mode="normal" />
  </filter>
  <pattern id="disordered-hatch" patternUnits="userSpaceOnUse" width="4" height="4">
    <path d="M-1,1 l2,-2 M0,4 l4,-4 M3,5 l2,-2" stroke="#000000" opacity="0.3" />
  </pattern>
</defs>
<line x1="186.721311" x2="186.721311" y1="34.000000" y2="62.000000" stroke="#BABDB6" stroke-width="2"/><a xlink:title="p.D419del"><circle cx="186.721311" cy="34.000000" r="4.000000" fill="#ff0000" /></a><g transform="translate(186.721311,34.000000) rotate(-30)"><text style="font-size:10px;fill:#555;" text-anchor="middle" x="0" y="-6.000000">p.D419del</text></g><a xlink:title="KIT_HUMAN, Mast/stem cell growth factor receptor Kit EC=2.7.10.1 (976aa)"><rect fill="#BABDB6" x="15.000000" y="62.000000" width="400.000000" height="14.000000"/></a><g transform="translate(103.524590,57.000000)"><a xlink:href="http://pfam.xfam.org/family/PF00047" xlink:title="Immunoglobulin domain"><rect fill="#2dcf00" x="0" y="0" width="36.475410" height="24.000000" filter="url(#ds)"/><text style="font-size:12px;fill:#ffffff;" text-anchor="middle" x="18.237705" y="16.000000">ig</text></a></g>
<g transform="translate(256.393443,57.000000)"><a xlink:href="http://pfam.xfam.org/family/PF07714" xlink:title="Protein tyrosine kinase"><rect fill="#ff5353" x="0" y="0" width="137.295082" height="24.000000" filter="url(#ds)"/><text style="font-size:12px;fill:#ffffff;" text-anchor="middle" x="68.647541" y="16.000000">Pkinase_Tyr</text></a></g>
<g class="axis">
<line x1="15.000000" x2="415.000000" y1="91.000000" y2="91.000000" stroke="#AAAAAA" /><line x1="15.000000" x2="15.000000" y1="91.000000" y2="96.000000" stroke="#AAAAAA" /><line x1="15.000000" x2="15.000000" y1="91.000000" y2="96.000000" stroke="#AAAAAA" /><text style="font-size:10px;fill:#000000;" text-anchor="middle" x="15.000000" y="106.000000">0</text><line x1="103.524590" x2="103.524590" y1="91.000000" y2="96.000000" stroke="#AAAAAA" /><text style="font-size:10px;fill:#000000;" text-anchor="middle" x="103.524590" y="106.000000">216</text><line x1="140.000000" x2="140.000000" y1="91.000000" y2="96.000000" stroke="#AAAAAA" /><text style="font-size:10px;fill:#000000;" text-anchor="middle" x="140.000000" y="106.000000">305</text><line x1="186.721311" x2="186.721311" y1="91.000000" y2="96.000000" stroke="#AAAAAA" /><text style="font-size:10px;fill:#000000;" text-anchor="middle" x="186.721311" y="106.000000">419</text><line x1="256.393443" x2="256.393443" y1="91.000000" y2="96.000000" stroke="#AAAAAA" /><text style="font-size:10px;fill:#000000;" text-anchor="middle" x="256.393443" y="106.000000">589</text><line x1="393.688525" x2="393.688525" y1="91.000000" y2="96.000000" stroke="#AAAAAA" /><text style="font-size:10px;fill:#000000;" text-anchor="middle" x="393.688525" y="106.000000">924</text><line x1="415.000000" x2="415.000000" y1="91.000000" y2="96.000000" stroke="#AAAAAA" /><text style="font-size:10px;fill:#000000;" text-anchor="middle" x="415.000000" y="106.000000">976</text></g>
</svg>
