<?xml version='1.0'?>
<svg xmlns="http://www.w3.org/2000/svg" xmlns:xlink="http://www.w3.org/1999/xlink" width="461.206897" height="111.000000">
<defs>
  <filter id="ds" x="0" y="0">
    <feOffset in="SourceAlpha" dx="2" dy="2" />
    <feComponentTransfer><feFuncA type="linear" slope="0.2"/></feComponentTransfer>
    <feGaussianBlur result="blurOut" stdDeviation="1" />
    <feBlend in="SourceGraphic" in2="blurOut" mode="normal" />
  </filter>
  <pattern id="disordered-hatch" patternUnits="userSpaceOnUse" width="4" height="4">
    <path d="M-1,1 l2,-2 M0,4 l4,-4 M3,5 l2,-2" stroke="#000000" opacity="0.3" />
  </pattern>
</defs>
<line x1="430.080460" x2="430.080460" y1="34.000000" y2="62.000000" stroke="#BABDB6" stroke-width="2"/><a xlink:title="p.M592*fs1"><circle cx="430.080460" cy="34.000000" r="4.000000" fill="#0000ff" /></a><g transform="translate(430.080460,34.000000) rotate(-30)"><text style="font-size:10px;fill:#555;" text-anchor="middle" x="0" y="-6.000000">p.M592*fs1</text></g><a xlink:title="MEN1_HUMAN, Menin (615aa)"><rect fill="#BABDB6" x="15.000000" y="62.000000" width="431.206897" height="14.000000"/></a><g transform="translate(15.701149,57.000000)"><a xlink:href="http://pfam.xfam.org/family/PF05053" xlink:title="Menin"><rect fill="#2dcf00" x="0" y="0" width="361.091954" height="24.000000" filter="url(#ds)"/><text style="font-size:12px;fill:#ffffff;" text-anchor="middle" x="180.545977" y="16.000000">Menin</text></a></g>
<g transform="translate(383.804598,57.000000)"><a xlink:href="http://pfam.xfam.org/family/PF05053" xlink:title="Menin"><rect fill="#2dcf00" x="0" y="0" width="61.000000" height="24.000000" filter="url(#ds)"/><text style="font-size:12px;fill:#ffffff;" text-anchor="middle" x="30.500000" y="16.000000">Menin</text></a></g>
<g class="axis">
<line x1="15.000000" x2="446.206897" y1="91.000000" y2="91.000000" stroke="#AAAAAA" /><line x1="15.000000" x2="15.000000" y1="91.000000" y2="96.000000" stroke="#AAAAAA" /><line x1="15.701149" x2="15.701149" y1="91.000000" y2="96.000000" stroke="#AAAAAA" /><text style="font-size:10px;fill:#000000;" text-anchor="middle" x="15.701149" y="106.000000">1</text><line x1="376.793103" x2="376.793103" y1="91.000000" y2="96.000000" stroke="#AAAAAA" /><text style="font-size:10px;fill:#000000;" text-anchor="middle" x="376.793103" y="106.000000">516</text><line x1="446.206897" x2="446.206897" y1="91.000000" y2="96.000000" stroke="#AAAAAA" /><text style="font-size:10px;fill:#000000;" text-anchor="middle" x="446.206897" y="106.000000">615</text></g>
</svg>
