<?xml version='1.0'?>
<svg xmlns="http://www.w3.org/2000/svg" xmlns:xlink="http://www.w3.org/1999/xlink" width="989.294118" height="111.000000">
<defs>
  <filter id="ds" x="0" y="0">
    <feOffset in="SourceAlpha" dx="2" dy="2" />
    <feComponentTransfer><feFuncA type="linear" slope="0.2"/></feComponentTransfer>
    <feGaussianBlur result="blurOut" stdDeviation="1" />
    <feBlend in="SourceGraphic" in2="blurOut" mode="normal" />
  </filter>
  <pattern id="disordered-hatch" patternUnits="userSpaceOnUse" width="4" height="4">
    <path d="M-1,1 l2,-2 M0,4 l4,-4 M3,5 l2,-2" stroke="#000000" opacity="0.3" />
  </pattern>
</defs>
<line x1="103.823529" x2="103.823529" y1="34.000000" y2="62.000000" stroke="#BABDB6" stroke-width="2"/><a xlink:title="p.K70_E102del"><circle cx="103.823529" cy="34.000000" r="4.000000" fill="#0000ff" /></a><g transform="translate(103.823529,34.000000) rotate(-30)"><text style="font-size:10px;fill:#555;" text-anchor="middle" x="0" y="-6.000000">p.K70_E102del</text></g><a xlink:title="MLH1_HUMAN, DNA mismatch repair protein Mlh1 (756aa)"><rect fill="#BABDB6" x="15.000000" y="62.000000" width="959.294118" height="14.000000"/></a><g transform="translate(46.722689,57.000000)"><a xlink:href="http://pfam.xfam.org/family/PF13589" xlink:title="Histidine kinase-, DNA gyrase B-, and HSP90-like ATPase"><rect fill="#2dcf00" x="0" y="0" width="143.386555" height="24.000000" filter="url(#ds)"/><text style="font-size:12px;fill:#ffffff;" text-anchor="middle" x="71.693277" y="16.000000">HATPase_c_3</text></a></g>
<g transform="translate(289.084034,57.000000)"><a xlink:href="http://pfam.xfam.org/family/PF01119" xlink:title="DNA mismatch repair protein, C-terminal domain"><rect fill="#ff5353" x="0" y="0" width="151.000000" height="24.000000" filter="url(#ds)"/><text style="font-size:12px;fill:#ffffff;" text-anchor="middle" x="75.500000" y="16.000000">DNA_mis_repair</text></a></g>
<g transform="translate(651.991597,57.000000)"><a xlink:href="http://pfam.xfam.org/family/PF16413" xlink:title="DNA mismatch repair protein Mlh1 C-terminus"><rect fill="#5b5bff" x="0" y="0" width="322.302521" height="24.000000" filter="url(#ds)"/><text style="font-size:12px;fill:#ffffff;" text-anchor="middle" x="161.151261" y="16.000000">Mlh1_C</text></a></g>
<g class="axis">
<line x1="15.000000" x2="974.294118" y1="91.000000" y2="91.000000" stroke="#AAAAAA" /><line x1="15.000000" x2="15.000000" y1="91.000000" y2="96.000000" stroke="#AAAAAA" /><line x1="15.000000" x2="15.000000" y1="91.000000" y2="96.000000" stroke="#AAAAAA" /><text style="font-size:10px;fill:#000000;" text-anchor="middle" x="15.000000" y="106.000000">0</text><line x1="46.722689" x2="46.722689" y1="91.000000" y2="96.000000" stroke="#AAAAAA" /><text style="font-size:10px;fill:#000000;" text-anchor="middle" x="46.722689" y="106.000000">25</text><line x1="103.823529" x2="103.823529" y1="91.000000" y2="96.000000" stroke="#AAAAAA" /><text style="font-size:10px;fill:#000000;" text-anchor="middle" x="103.823529" y="106.000000">70</text><line x1="190.109244" x2="190.109244" y1="91.000000" y2="96.000000" stroke="#AAAAAA" /><text style="font-size:10px;fill:#000000;" text-anchor="middle" x="190.109244" y="106.000000">138</text><line x1="289.084034" x2="289.084034" y1="91.000000" y2="96.000000" stroke="#AAAAAA" /><text style="font-size:10px;fill:#000000;" text-anchor="middle" x="289.084034" y="106.000000">216</text><line x1="440.084034" x2="440.084034" y1="91.000000" y2="96.000000" stroke="#AAAAAA" /><text style="font-size:10px;fill:#000000;" text-anchor="middle" x="440.084034" y="106.000000">335</text><line x1="651.991597" x2="651.991597" y1="91.000000" y2="96.000000" stroke="#AAAAAA" /><text style="font-size:10px;fill:#000000;" text-anchor="middle" x="651.991597" y="106.000000">502</text><line x1="974.294118" x2="974.294118" y1="91.000000" y2="96.000000" stroke="#AAAAAA" /><text style="font-size:10px;fill:#000000;" text-anchor="middle" x="974.294118" y="106.000000">756</text></g>
</svg>
