<?xml version='1.0'?>
<svg xmlns="http://www.w3.org/2000/svg" xmlns:xlink="http://www.w3.org/1999/xlink" width="2209.333333" height="111.000000">
<defs>
  <filter id="ds" x="0" y="0">
    <feOffset in="SourceAlpha" dx="2" dy="2" />
    <feComponentTransfer><feFuncA type="linear" slope="0.2"/></feComponentTransfer>
    <feGaussianBlur result="blurOut" stdDeviation="1" />
    <feBlend in="SourceGraphic" in2="blurOut" mode="normal" />
  </filter>
  <pattern id="disordered-hatch" patternUnits="userSpaceOnUse" width="4" height="4">
    <path d="M-1,1 l2,-2 M0,4 l4,-4 M3,5 l2,-2" stroke="#000000" opacity="0.3" />
  </pattern>
</defs>
<line x1="1405.666667" x2="1405.666667" y1="34.000000" y2="62.000000" stroke="#BABDB6" stroke-width="2"/><a xlink:title="p.N596del"><circle cx="1405.666667" cy="34.000000" r="4.000000" fill="#ff0000" /></a><g transform="translate(1405.666667,34.000000) rotate(-30)"><text style="font-size:10px;fill:#555;" text-anchor="middle" x="0" y="-6.000000">p.N596del</text></g><a xlink:title="MSH2_HUMAN, DNA mismatch repair protein Msh2 (934aa)"><rect fill="#BABDB6" x="15.000000" y="62.000000" width="2179.333333" height="14.000000"/></a><g transform="translate(54.666667,57.000000)"><a xlink:href="http://pfam.xfam.org/family/PF01624" xlink:title="MutS domain I"><rect fill="#2dcf00" x="0" y="0" width="268.333333" height="24.000000" filter="url(#ds)"/><text style="font-size:12px;fill:#ffffff;" text-anchor="middle" x="134.166667" y="16.000000">MutS domain I</text></a></g>
<g transform="translate(353.333333,57.000000)"><a xlink:href="http://pfam.xfam.org/family/PF05188" xlink:title="MutS domain II"><rect fill="#ff5353" x="0" y="0" width="338.333333" height="24.000000" filter="url(#ds)"/><text style="font-size:12px;fill:#ffffff;" text-anchor="middle" x="169.166667" y="16.000000">MutS domain II</text></a></g>
<g transform="translate(726.666667,57.000000)"><a xlink:href="http://pfam.xfam.org/family/PF05192" xlink:title="MutS domain III"><rect fill="#5b5bff" x="0" y="0" width="389.666667" height="24.000000" filter="url(#ds)"/><text style="font-size:12px;fill:#ffffff;" text-anchor="middle" x="194.833333" y="16.000000">MutS domain III</text></a></g>
<g transform="translate(1345.000000,57.000000)"><a xlink:href="http://pfam.xfam.org/family/PF05192" xlink:title="MutS domain III"><rect fill="#5b5bff" x="0" y="0" width="91.000000" height="24.000000" filter="url(#ds)"/><text style="font-size:12px;fill:#ffffff;" text-anchor="middle" x="45.500000" y="16.000000">MutS_III</text></a></g>
<g transform="translate(1118.666667,57.000000)"><a xlink:href="http://pfam.xfam.org/family/PF05190" xlink:title="MutS family domain IV"><rect fill="#ebd61d" x="0" y="0" width="224.000000" height="24.000000" filter="url(#ds)"/><text style="font-size:12px;fill:#ffffff;" text-anchor="middle" x="112.000000" y="16.000000">MutS family domain IV</text></a></g>
<g transform="translate(1566.666667,57.000000)"><a xlink:href="http://pfam.xfam.org/family/PF00488" xlink:title="MutS domain V"><rect fill="#ba21e0" x="0" y="0" width="436.333333" height="24.000000" filter="url(#ds)"/><text style="font-size:12px;fill:#ffffff;" text-anchor="middle" x="218.166667" y="16.000000">MutS domain V</text></a></g>
<g class="axis">
<line x1="15.000000" x2="2194.333333" y1="91.000000" y2="91.000000" stroke="#AAAAAA" /><line x1="15.000000" x2="15.000000" y1="91.000000" y2="96.000000" stroke="#AAAAAA" /><line x1="15.000000" x2="15.000000" y1="91.000000" y2="96.000000" stroke="#AAAAAA" /><text style="font-size:10px;fill:#000000;" text-anchor="middle" x="15.000000" y="106.000000">0</text><line x1="54.666667" x2="54.666667" y1="91.000000" y2="96.000000" stroke="#AAAAAA" /><text style="font-size:10px;fill:#000000;" text-anchor="middle" x="54.666667" y="106.000000">17</text><line x1="323.000000" x2="323.000000" y1="91.000000" y2="96.000000" stroke="#AAAAAA" /><text style="font-size:10px;fill:#000000;" text-anchor="middle" x="323.000000" y="106.000000">132</text><line x1="353.333333" x2="353.333333" y1="91.000000" y2="96.000000" stroke="#AAAAAA" /><text style="font-size:10px;fill:#000000;" text-anchor="middle" x="353.333333" y="106.000000">145</text><line x1="691.666667" x2="691.666667" y1="91.000000" y2="96.000000" stroke="#AAAAAA" /><text style="font-size:10px;fill:#000000;" text-anchor="middle" x="691.666667" y="106.000000">290</text><line x1="726.666667" x2="726.666667" y1="91.000000" y2="96.000000" stroke="#AAAAAA" /><text style="font-size:10px;fill:#000000;" text-anchor="middle" x="726.666667" y="106.000000">305</text><line x1="1116.333333" x2="1116.333333" y1="91.000000" y2="96.000000" stroke="#AAAAAA" /><text style="font-size:10px;fill:#000000;" text-anchor="middle" x="1116.333333" y="106.000000">472</text><line x1="1342.666667" x2="1342.666667" y1="91.000000" y2="96.000000" stroke="#AAAAAA" /><text style="font-size:10px;fill:#000000;" text-anchor="middle" x="1342.666667" y="106.000000">569</text><line x1="1405.666667" x2="1405.666667" y1="91.000000" y2="96.000000" stroke="#AAAAAA" /><text style="font-size:10px;fill:#000000;" text-anchor="middle" x="1405.666667" y="106.000000">596</text><line x1="1436.000000" x2="1436.000000" y1="91.000000" y2="96.000000" stroke="#AAAAAA" /><text style="font-size:10px;fill:#000000;" text-anchor="middle" x="1436.000000" y="106.000000">609</text><line x1="1566.666667" x2="1566.666667" y1="91.000000" y2="96.000000" stroke="#AAAAAA" /><text style="font-size:10px;fill:#000000;" text-anchor="middle" x="1566.666667" y="106.000000">665</text><line x1="2003.000000" x2="2003.000000" y1="91.000000" y2="96.000000" stroke="#AAAAAA" /><text style="font-size:10px;fill:#000000;" text-anchor="middle" x="2003.000000" y="106.000000">852</text><line x1="2194.333333" x2="2194.333333" y1="91.000000" y2="96.000000" stroke="#AAAAAA" /><text style="font-size:10px;fill:#000000;" text-anchor="middle" x="2194.333333" y="106.000000">934</text></g>
</svg>
