<?xml version='1.0'?>
<svg xmlns="http://www.w3.org/2000/svg" xmlns:xlink="http://www.w3.org/1999/xlink" width="722.540984" height="111.000000">
<defs>
  <filter id="ds" x="0" y="0">
    <feOffset in="SourceAlpha" dx="2" dy="2" />
    <feComponentTransfer><feFuncA type="linear" slope="0.2"/></feComponentTransfer>
    <feGaussianBlur result="blurOut" stdDeviation="1" />
    <feBlend in="SourceGraphic" in2="blurOut" mode="normal" />
  </filter>
  <pattern id="disordered-hatch" patternUnits="userSpaceOnUse" width="4" height="4">
    <path d="M-1,1 l2,-2 M0,4 l4,-4 M3,5 l2,-2" stroke="#000000" opacity="0.3" />
  </pattern>
</defs>
<line x1="200.065574" x2="200.065574" y1="34.000000" y2="62.000000" stroke="#BABDB6" stroke-width="2"/><a xlink:title="p.K159fs*16"><circle cx="200.065574" cy="34.000000" r="4.000000" fill="#ff0000" /></a><g transform="translate(200.065574,34.000000) rotate(-30)"><text style="font-size:10px;fill:#555;" text-anchor="middle" x="0" y="-6.000000">p.K159fs*16</text></g><a xlink:title="MERL_HUMAN, Merlin (595aa)"><rect fill="#BABDB6" x="15.000000" y="62.000000" width="692.540984" height="14.000000"/></a><g transform="translate(45.262295,57.000000)"><a xlink:href="http://pfam.xfam.org/family/PF09379" xlink:title="FERM N-terminal domain "><rect fill="#2dcf00" x="0" y="0" width="71.000000" height="24.000000" filter="url(#ds)"/><text style="font-size:12px;fill:#ffffff;" text-anchor="middle" x="35.500000" y="16.000000">FERM_N</text></a></g>
<g transform="translate(137.213115,57.000000)"><a xlink:href="http://pfam.xfam.org/family/PF00373" xlink:title="FERM central domain"><rect fill="#ff5353" x="0" y="0" width="136.180328" height="24.000000" filter="url(#ds)"/><text style="font-size:12px;fill:#ffffff;" text-anchor="middle" x="68.090164" y="16.000000">FERM_M</text></a></g>
<g transform="translate(278.049180,57.000000)"><a xlink:href="http://pfam.xfam.org/family/PF09380" xlink:title="FERM C-terminal PH-like domain"><rect fill="#5b5bff" x="0" y="0" width="103.590164" height="24.000000" filter="url(#ds)"/><text style="font-size:12px;fill:#ffffff;" text-anchor="middle" x="51.795082" y="16.000000">FERM_C</text></a></g>
<g transform="translate(418.885246,57.000000)"><a xlink:href="http://pfam.xfam.org/family/PF00769" xlink:title="Ezrin/radixin/moesin family"><rect fill="#ebd61d" x="0" y="0" width="288.655738" height="24.000000" filter="url(#ds)"/><text style="font-size:12px;fill:#ffffff;" text-anchor="middle" x="144.327869" y="16.000000">Ezrin/radixin/moesin family</text></a></g>
<g class="axis">
<line x1="15.000000" x2="707.540984" y1="91.000000" y2="91.000000" stroke="#AAAAAA" /><line x1="15.000000" x2="15.000000" y1="91.000000" y2="96.000000" stroke="#AAAAAA" /><line x1="15.000000" x2="15.000000" y1="91.000000" y2="96.000000" stroke="#AAAAAA" /><text style="font-size:10px;fill:#000000;" text-anchor="middle" x="15.000000" y="106.000000">0</text><line x1="45.262295" x2="45.262295" y1="91.000000" y2="96.000000" stroke="#AAAAAA" /><text style="font-size:10px;fill:#000000;" text-anchor="middle" x="45.262295" y="106.000000">26</text><line x1="116.262295" x2="116.262295" y1="91.000000" y2="96.000000" stroke="#AAAAAA" /><text style="font-size:10px;fill:#000000;" text-anchor="middle" x="116.262295" y="106.000000">87</text><line x1="137.213115" x2="137.213115" y1="91.000000" y2="96.000000" stroke="#AAAAAA" /><text style="font-size:10px;fill:#000000;" text-anchor="middle" x="137.213115" y="106.000000">105</text><line x1="200.065574" x2="200.065574" y1="91.000000" y2="96.000000" stroke="#AAAAAA" /><text style="font-size:10px;fill:#000000;" text-anchor="middle" x="200.065574" y="106.000000">159</text><line x1="273.393443" x2="273.393443" y1="91.000000" y2="96.000000" stroke="#AAAAAA" /><text style="font-size:10px;fill:#000000;" text-anchor="middle" x="273.393443" y="106.000000">222</text><line x1="381.639344" x2="381.639344" y1="91.000000" y2="96.000000" stroke="#AAAAAA" /><text style="font-size:10px;fill:#000000;" text-anchor="middle" x="381.639344" y="106.000000">315</text><line x1="418.885246" x2="418.885246" y1="91.000000" y2="96.000000" stroke="#AAAAAA" /><text style="font-size:10px;fill:#000000;" text-anchor="middle" x="418.885246" y="106.000000">347</text><line x1="707.540984" x2="707.540984" y1="91.000000" y2="96.000000" stroke="#AAAAAA" /><text style="font-size:10px;fill:#000000;" text-anchor="middle" x="707.540984" y="106.000000">595</text></g>
</svg>
