<?xml version='1.0'?>
<svg xmlns="http://www.w3.org/2000/svg" xmlns:xlink="http://www.w3.org/1999/xlink" width="7269.166667" height="111.000000">
<defs>
  <filter id="ds" x="0" y="0">
    <feOffset in="SourceAlpha" dx="2" dy="2" />
    <feComponentTransfer><feFuncA type="linear" slope="0.2"/></feComponentTransfer>
    <feGaussianBlur result="blurOut" stdDeviation="1" />
    <feBlend in="SourceGraphic" in2="blurOut" mode="normal" />
  </filter>
  <pattern id="disordered-hatch" patternUnits="userSpaceOnUse" width="4" height="4">
    <path d="M-1,1 l2,-2 M0,4 l4,-4 M3,5 l2,-2" stroke="#000000" opacity="0.3" />
  </pattern>
</defs>
<line x1="6458.000000" x2="6458.000000" y1="34.000000" y2="62.000000" stroke="#BABDB6" stroke-width="2"/><a xlink:title="p.S2274Sfs"><circle cx="6458.000000" cy="34.000000" r="4.000000" fill="#ff0000" /></a><g transform="translate(6458.000000,34.000000) rotate(-30)"><text style="font-size:10px;fill:#555;" text-anchor="middle" x="0" y="-6.000000">p.S2274Sfs</text></g><a xlink:title="NOTC1_HUMAN, Neurogenic locus notch homolog protein 1 (2555aa)"><rect fill="#BABDB6" x="15.000000" y="62.000000" width="7239.166667" height="14.000000"/></a><g transform="translate(193.500000,57.000000)"><a xlink:href="http://pfam.xfam.org/family/PF00008" xlink:title="EGF-like domain"><rect fill="#2dcf00" x="0" y="0" width="96.333333" height="24.000000" filter="url(#ds)"/><text style="font-size:12px;fill:#ffffff;" text-anchor="middle" x="48.166667" y="16.000000">EGF</text></a></g>
<g transform="translate(315.333333,57.000000)"><a xlink:href="http://pfam.xfam.org/family/PF00008" xlink:title="EGF-like domain"><rect fill="#2dcf00" x="0" y="0" width="87.833333" height="24.000000" filter="url(#ds)"/><text style="font-size:12px;fill:#ffffff;" text-anchor="middle" x="43.916667" y="16.000000">EGF</text></a></g>
<g transform="translate(423.000000,57.000000)"><a xlink:href="http://pfam.xfam.org/family/PF00008" xlink:title="EGF-like domain"><rect fill="#2dcf00" x="0" y="0" width="85.000000" height="24.000000" filter="url(#ds)"/><text style="font-size:12px;fill:#ffffff;" text-anchor="middle" x="42.500000" y="16.000000">EGF</text></a></g>
<g transform="translate(519.333333,57.000000)"><a xlink:href="http://pfam.xfam.org/family/PF07645" xlink:title="Calcium-binding EGF domain"><rect fill="#ff5353" x="0" y="0" width="116.166667" height="24.000000" filter="url(#ds)"/><text style="font-size:12px;fill:#ffffff;" text-anchor="middle" x="58.083333" y="16.000000">EGF_CA</text></a></g>
<g transform="translate(644.000000,57.000000)"><a xlink:href="http://pfam.xfam.org/family/PF00008" xlink:title="EGF-like domain"><rect fill="#2dcf00" x="0" y="0" width="87.833333" height="24.000000" filter="url(#ds)"/><text style="font-size:12px;fill:#ffffff;" text-anchor="middle" x="43.916667" y="16.000000">EGF</text></a></g>
<g transform="translate(754.500000,57.000000)"><a xlink:href="http://pfam.xfam.org/family/PF00008" xlink:title="EGF-like domain"><rect fill="#2dcf00" x="0" y="0" width="85.000000" height="24.000000" filter="url(#ds)"/><text style="font-size:12px;fill:#ffffff;" text-anchor="middle" x="42.500000" y="16.000000">EGF</text></a></g>
<g transform="translate(850.833333,57.000000)"><a xlink:href="http://pfam.xfam.org/family/PF07645" xlink:title="Calcium-binding EGF domain"><rect fill="#ff5353" x="0" y="0" width="113.333333" height="24.000000" filter="url(#ds)"/><text style="font-size:12px;fill:#ffffff;" text-anchor="middle" x="56.666667" y="16.000000">EGF_CA</text></a></g>
<g transform="translate(975.500000,57.000000)"><a xlink:href="http://pfam.xfam.org/family/PF00008" xlink:title="EGF-like domain"><rect fill="#2dcf00" x="0" y="0" width="85.000000" height="24.000000" filter="url(#ds)"/><text style="font-size:12px;fill:#ffffff;" text-anchor="middle" x="42.500000" y="16.000000">EGF</text></a></g>
<g transform="translate(1182.333333,57.000000)"><a xlink:href="http://pfam.xfam.org/family/PF07645" xlink:title="Calcium-binding EGF domain"><rect fill="#ff5353" x="0" y="0" width="107.666667" height="24.000000" filter="url(#ds)"/><text style="font-size:12px;fill:#ffffff;" text-anchor="middle" x="53.833333" y="16.000000">EGF_CA</text></a></g>
<g transform="translate(1307.000000,57.000000)"><a xlink:href="http://pfam.xfam.org/family/PF00008" xlink:title="EGF-like domain"><rect fill="#2dcf00" x="0" y="0" width="85.000000" height="24.000000" filter="url(#ds)"/><text style="font-size:12px;fill:#ffffff;" text-anchor="middle" x="42.500000" y="16.000000">EGF</text></a></g>
<g transform="translate(1414.666667,57.000000)"><a xlink:href="http://pfam.xfam.org/family/PF00008" xlink:title="EGF-like domain"><rect fill="#2dcf00" x="0" y="0" width="85.000000" height="24.000000" filter="url(#ds)"/><text style="font-size:12px;fill:#ffffff;" text-anchor="middle" x="42.500000" y="16.000000">EGF</text></a></g>
<g transform="translate(1522.333333,57.000000)"><a xlink:href="http://pfam.xfam.org/family/PF00008" xlink:title="EGF-like domain"><rect fill="#2dcf00" x="0" y="0" width="85.000000" height="24.000000" filter="url(#ds)"/><text style="font-size:12px;fill:#ffffff;" text-anchor="middle" x="42.500000" y="16.000000">EGF</text></a></g>
<g transform="translate(1630.000000,57.000000)"><a xlink:href="http://pfam.xfam.org/family/PF00008" xlink:title="EGF-like domain"><rect fill="#2dcf00" x="0" y="0" width="82.166667" height="24.000000" filter="url(#ds)"/><text style="font-size:12px;fill:#ffffff;" text-anchor="middle" x="41.083333" y="16.000000">EGF</text></a></g>
<g transform="translate(1734.833333,57.000000)"><a xlink:href="http://pfam.xfam.org/family/PF00008" xlink:title="EGF-like domain"><rect fill="#2dcf00" x="0" y="0" width="85.000000" height="24.000000" filter="url(#ds)"/><text style="font-size:12px;fill:#ffffff;" text-anchor="middle" x="42.500000" y="16.000000">EGF</text></a></g>
<g transform="translate(1842.500000,57.000000)"><a xlink:href="http://pfam.xfam.org/family/PF00008" xlink:title="EGF-like domain"><rect fill="#2dcf00" x="0" y="0" width="79.333333" height="24.000000" filter="url(#ds)"/><text style="font-size:12px;fill:#ffffff;" text-anchor="middle" x="39.666667" y="16.000000">EGF</text></a></g>
<g transform="translate(1947.333333,57.000000)"><a xlink:href="http://pfam.xfam.org/family/PF00008" xlink:title="EGF-like domain"><rect fill="#2dcf00" x="0" y="0" width="85.000000" height="24.000000" filter="url(#ds)"/><text style="font-size:12px;fill:#ffffff;" text-anchor="middle" x="42.500000" y="16.000000">EGF</text></a></g>
<g transform="translate(2055.000000,57.000000)"><a xlink:href="http://pfam.xfam.org/family/PF00008" xlink:title="EGF-like domain"><rect fill="#2dcf00" x="0" y="0" width="82.166667" height="24.000000" filter="url(#ds)"/><text style="font-size:12px;fill:#ffffff;" text-anchor="middle" x="41.083333" y="16.000000">EGF</text></a></g>
<g transform="translate(2159.833333,57.000000)"><a xlink:href="http://pfam.xfam.org/family/PF00008" xlink:title="EGF-like domain"><rect fill="#2dcf00" x="0" y="0" width="85.000000" height="24.000000" filter="url(#ds)"/><text style="font-size:12px;fill:#ffffff;" text-anchor="middle" x="42.500000" y="16.000000">EGF</text></a></g>
<g transform="translate(2267.500000,57.000000)"><a xlink:href="http://pfam.xfam.org/family/PF00008" xlink:title="EGF-like domain"><rect fill="#2dcf00" x="0" y="0" width="85.000000" height="24.000000" filter="url(#ds)"/><text style="font-size:12px;fill:#ffffff;" text-anchor="middle" x="42.500000" y="16.000000">EGF</text></a></g>
<g transform="translate(2375.166667,57.000000)"><a xlink:href="http://pfam.xfam.org/family/PF00008" xlink:title="EGF-like domain"><rect fill="#2dcf00" x="0" y="0" width="90.666667" height="24.000000" filter="url(#ds)"/><text style="font-size:12px;fill:#ffffff;" text-anchor="middle" x="45.333333" y="16.000000">EGF</text></a></g>
<g transform="translate(2477.166667,57.000000)"><a xlink:href="http://pfam.xfam.org/family/PF07645" xlink:title="Calcium-binding EGF domain"><rect fill="#ff5353" x="0" y="0" width="104.833333" height="24.000000" filter="url(#ds)"/><text style="font-size:12px;fill:#ffffff;" text-anchor="middle" x="52.416667" y="16.000000">EGF_CA</text></a></g>
<g transform="translate(2596.166667,57.000000)"><a xlink:href="http://pfam.xfam.org/family/PF00008" xlink:title="EGF-like domain"><rect fill="#2dcf00" x="0" y="0" width="85.000000" height="24.000000" filter="url(#ds)"/><text style="font-size:12px;fill:#ffffff;" text-anchor="middle" x="42.500000" y="16.000000">EGF</text></a></g>
<g transform="translate(2825.666667,57.000000)"><a xlink:href="http://pfam.xfam.org/family/PF12661" xlink:title="Human growth factor-like EGF"><rect fill="#5b5bff" x="0" y="0" width="59.500000" height="24.000000" filter="url(#ds)"/><text style="font-size:12px;fill:#ffffff;" text-anchor="middle" x="29.750000" y="16.000000">hEGF</text></a></g>
<g transform="translate(2919.166667,57.000000)"><a xlink:href="http://pfam.xfam.org/family/PF00008" xlink:title="EGF-like domain"><rect fill="#2dcf00" x="0" y="0" width="85.000000" height="24.000000" filter="url(#ds)"/><text style="font-size:12px;fill:#ffffff;" text-anchor="middle" x="42.500000" y="16.000000">EGF</text></a></g>
<g transform="translate(3026.833333,57.000000)"><a xlink:href="http://pfam.xfam.org/family/PF00008" xlink:title="EGF-like domain"><rect fill="#2dcf00" x="0" y="0" width="85.000000" height="24.000000" filter="url(#ds)"/><text style="font-size:12px;fill:#ffffff;" text-anchor="middle" x="42.500000" y="16.000000">EGF</text></a></g>
<g transform="translate(3162.833333,57.000000)"><a xlink:href="http://pfam.xfam.org/family/PF00008" xlink:title="EGF-like domain"><rect fill="#2dcf00" x="0" y="0" width="85.000000" height="24.000000" filter="url(#ds)"/><text style="font-size:12px;fill:#ffffff;" text-anchor="middle" x="42.500000" y="16.000000">EGF</text></a></g>
<g transform="translate(3270.500000,57.000000)"><a xlink:href="http://pfam.xfam.org/family/PF00008" xlink:title="EGF-like domain"><rect fill="#2dcf00" x="0" y="0" width="85.000000" height="24.000000" filter="url(#ds)"/><text style="font-size:12px;fill:#ffffff;" text-anchor="middle" x="42.500000" y="16.000000">EGF</text></a></g>
<g transform="translate(3378.166667,57.000000)"><a xlink:href="http://pfam.xfam.org/family/PF00008" xlink:title="EGF-like domain"><rect fill="#2dcf00" x="0" y="0" width="85.000000" height="24.000000" filter="url(#ds)"/><text style="font-size:12px;fill:#ffffff;" text-anchor="middle" x="42.500000" y="16.000000">EGF</text></a></g>
<g transform="translate(3485.833333,57.000000)"><a xlink:href="http://pfam.xfam.org/family/PF00008" xlink:title="EGF-like domain"><rect fill="#2dcf00" x="0" y="0" width="107.666667" height="24.000000" filter="url(#ds)"/><text style="font-size:12px;fill:#ffffff;" text-anchor="middle" x="53.833333" y="16.000000">EGF</text></a></g>
<g transform="translate(3729.500000,57.000000)"><a xlink:href="http://pfam.xfam.org/family/PF00008" xlink:title="EGF-like domain"><rect fill="#2dcf00" x="0" y="0" width="93.500000" height="24.000000" filter="url(#ds)"/><text style="font-size:12px;fill:#ffffff;" text-anchor="middle" x="46.750000" y="16.000000">EGF</text></a></g>
<g transform="translate(3859.833333,57.000000)"><a xlink:href="http://pfam.xfam.org/family/PF12661" xlink:title="Human growth factor-like EGF"><rect fill="#5b5bff" x="0" y="0" width="51.000000" height="24.000000" filter="url(#ds)"/><text style="font-size:12px;fill:#ffffff;" text-anchor="middle" x="25.500000" y="16.000000">hEGF</text></a></g>
<g transform="translate(4112.000000,57.000000)"><a xlink:href="http://pfam.xfam.org/family/PF00066" xlink:title="LNR domain"><rect fill="#ebd61d" x="0" y="0" width="96.333333" height="24.000000" filter="url(#ds)"/><text style="font-size:12px;fill:#ffffff;" text-anchor="middle" x="48.166667" y="16.000000">Notch</text></a></g>
<g transform="translate(4228.166667,57.000000)"><a xlink:href="http://pfam.xfam.org/family/PF00066" xlink:title="LNR domain"><rect fill="#ebd61d" x="0" y="0" width="99.166667" height="24.000000" filter="url(#ds)"/><text style="font-size:12px;fill:#ffffff;" text-anchor="middle" x="49.583333" y="16.000000">Notch</text></a></g>
<g transform="translate(4335.833333,57.000000)"><a xlink:href="http://pfam.xfam.org/family/PF00066" xlink:title="LNR domain"><rect fill="#ebd61d" x="0" y="0" width="104.833333" height="24.000000" filter="url(#ds)"/><text style="font-size:12px;fill:#ffffff;" text-anchor="middle" x="52.416667" y="16.000000">Notch</text></a></g>
<g transform="translate(4452.000000,57.000000)"><a xlink:href="http://pfam.xfam.org/family/PF06816" xlink:title="NOTCH protein"><rect fill="#ba21e0" x="0" y="0" width="155.833333" height="24.000000" filter="url(#ds)"/><text style="font-size:12px;fill:#ffffff;" text-anchor="middle" x="77.916667" y="16.000000">NOTCH protein</text></a></g>
<g transform="translate(4749.500000,57.000000)"><a xlink:href="http://pfam.xfam.org/family/PF07684" xlink:title="NOTCH protein"><rect fill="#ff9c42" x="0" y="0" width="164.333333" height="24.000000" filter="url(#ds)"/><text style="font-size:12px;fill:#ffffff;" text-anchor="middle" x="82.166667" y="16.000000">NOTCH protein</text></a></g>
<g transform="translate(5341.666667,57.000000)"><a xlink:href="http://pfam.xfam.org/family/PF00023" xlink:title="Ankyrin repeat"><rect fill="#ff7dff" x="0" y="0" width="130.333333" height="24.000000" filter="url(#ds)"/><text style="font-size:12px;fill:#ffffff;" text-anchor="middle" x="65.166667" y="16.000000">Ank</text></a></g>
<g transform="translate(5477.666667,57.000000)"><a xlink:href="http://pfam.xfam.org/family/PF13637" xlink:title="Ankyrin repeats (many copies)"><rect fill="#b9264f" x="0" y="0" width="150.166667" height="24.000000" filter="url(#ds)"/><text style="font-size:12px;fill:#ffffff;" text-anchor="middle" x="75.083333" y="16.000000">Ank_4</text></a></g>
<g transform="translate(5602.333333,57.000000)"><a xlink:href="http://pfam.xfam.org/family/PF12796" xlink:title="Ankyrin repeats (3 copies)"><rect fill="#baba21" x="0" y="0" width="243.666667" height="24.000000" filter="url(#ds)"/><text style="font-size:12px;fill:#ffffff;" text-anchor="middle" x="121.833333" y="16.000000">Ank_2</text></a></g>
<g transform="translate(5848.833333,57.000000)"><a xlink:href="http://pfam.xfam.org/family/PF12796" xlink:title="Ankyrin repeats (3 copies)"><rect fill="#baba21" x="0" y="0" width="96.333333" height="24.000000" filter="url(#ds)"/><text style="font-size:12px;fill:#ffffff;" text-anchor="middle" x="48.166667" y="16.000000">Ank_2</text></a></g>
<g transform="translate(7038.833333,57.000000)"><a xlink:href="http://pfam.xfam.org/family/PF11936" xlink:title="Domain of unknown function (DUF3454)"><rect fill="#c48484" x="0" y="0" width="172.833333" height="24.000000" filter="url(#ds)"/><text style="font-size:12px;fill:#ffffff;" text-anchor="middle" x="86.416667" y="16.000000">DUF3454</text></a></g>
<g class="axis">
<line x1="15.000000" x2="7254.166667" y1="91.000000" y2="91.000000" stroke="#AAAAAA" /><line x1="15.000000" x2="15.000000" y1="91.000000" y2="96.000000" stroke="#AAAAAA" /><line x1="15.000000" x2="15.000000" y1="91.000000" y2="96.000000" stroke="#AAAAAA" /><text style="font-size:10px;fill:#000000;" text-anchor="middle" x="15.000000" y="106.000000">0</text><line x1="193.500000" x2="193.500000" y1="91.000000" y2="96.000000" stroke="#AAAAAA" /><text style="font-size:10px;fill:#000000;" text-anchor="middle" x="193.500000" y="106.000000">63</text><line x1="289.833333" x2="289.833333" y1="91.000000" y2="96.000000" stroke="#AAAAAA" /><text style="font-size:10px;fill:#000000;" text-anchor="middle" x="289.833333" y="106.000000">97</text><line x1="315.333333" x2="315.333333" y1="91.000000" y2="96.000000" stroke="#AAAAAA" /><text style="font-size:10px;fill:#000000;" text-anchor="middle" x="315.333333" y="106.000000">106</text><line x1="403.166667" x2="403.166667" y1="91.000000" y2="96.000000" stroke="#AAAAAA" /><text style="font-size:10px;fill:#000000;" text-anchor="middle" x="403.166667" y="106.000000">137</text><line x1="423.000000" x2="423.000000" y1="91.000000" y2="96.000000" stroke="#AAAAAA" /><text style="font-size:10px;fill:#000000;" text-anchor="middle" x="423.000000" y="106.000000">144</text><line x1="508.000000" x2="508.000000" y1="91.000000" y2="96.000000" stroke="#AAAAAA" /><text style="font-size:10px;fill:#000000;" text-anchor="middle" x="508.000000" y="106.000000">174</text><line x1="635.500000" x2="635.500000" y1="91.000000" y2="96.000000" stroke="#AAAAAA" /><text style="font-size:10px;fill:#000000;" text-anchor="middle" x="635.500000" y="106.000000">219</text><line x1="731.833333" x2="731.833333" y1="91.000000" y2="96.000000" stroke="#AAAAAA" /><text style="font-size:10px;fill:#000000;" text-anchor="middle" x="731.833333" y="106.000000">253</text><line x1="754.500000" x2="754.500000" y1="91.000000" y2="96.000000" stroke="#AAAAAA" /><text style="font-size:10px;fill:#000000;" text-anchor="middle" x="754.500000" y="106.000000">261</text><line x1="839.500000" x2="839.500000" y1="91.000000" y2="96.000000" stroke="#AAAAAA" /><text style="font-size:10px;fill:#000000;" text-anchor="middle" x="839.500000" y="106.000000">291</text><line x1="964.166667" x2="964.166667" y1="91.000000" y2="96.000000" stroke="#AAAAAA" /><text style="font-size:10px;fill:#000000;" text-anchor="middle" x="964.166667" y="106.000000">335</text><line x1="1060.500000" x2="1060.500000" y1="91.000000" y2="96.000000" stroke="#AAAAAA" /><text style="font-size:10px;fill:#000000;" text-anchor="middle" x="1060.500000" y="106.000000">369</text><line x1="1182.333333" x2="1182.333333" y1="91.000000" y2="96.000000" stroke="#AAAAAA" /><text style="font-size:10px;fill:#000000;" text-anchor="middle" x="1182.333333" y="106.000000">412</text><line x1="1290.000000" x2="1290.000000" y1="91.000000" y2="96.000000" stroke="#AAAAAA" /><text style="font-size:10px;fill:#000000;" text-anchor="middle" x="1290.000000" y="106.000000">450</text><line x1="1392.000000" x2="1392.000000" y1="91.000000" y2="96.000000" stroke="#AAAAAA" /><text style="font-size:10px;fill:#000000;" text-anchor="middle" x="1392.000000" y="106.000000">486</text><line x1="1414.666667" x2="1414.666667" y1="91.000000" y2="96.000000" stroke="#AAAAAA" /><text style="font-size:10px;fill:#000000;" text-anchor="middle" x="1414.666667" y="106.000000">494</text><line x1="1499.666667" x2="1499.666667" y1="91.000000" y2="96.000000" stroke="#AAAAAA" /><text style="font-size:10px;fill:#000000;" text-anchor="middle" x="1499.666667" y="106.000000">524</text><line x1="1522.333333" x2="1522.333333" y1="91.000000" y2="96.000000" stroke="#AAAAAA" /><text style="font-size:10px;fill:#000000;" text-anchor="middle" x="1522.333333" y="106.000000">532</text><line x1="1607.333333" x2="1607.333333" y1="91.000000" y2="96.000000" stroke="#AAAAAA" /><text style="font-size:10px;fill:#000000;" text-anchor="middle" x="1607.333333" y="106.000000">562</text><line x1="1630.000000" x2="1630.000000" y1="91.000000" y2="96.000000" stroke="#AAAAAA" /><text style="font-size:10px;fill:#000000;" text-anchor="middle" x="1630.000000" y="106.000000">570</text><line x1="1712.166667" x2="1712.166667" y1="91.000000" y2="96.000000" stroke="#AAAAAA" /><text style="font-size:10px;fill:#000000;" text-anchor="middle" x="1712.166667" y="106.000000">599</text><line x1="1734.833333" x2="1734.833333" y1="91.000000" y2="96.000000" stroke="#AAAAAA" /><text style="font-size:10px;fill:#000000;" text-anchor="middle" x="1734.833333" y="106.000000">607</text><line x1="1819.833333" x2="1819.833333" y1="91.000000" y2="96.000000" stroke="#AAAAAA" /><text style="font-size:10px;fill:#000000;" text-anchor="middle" x="1819.833333" y="106.000000">637</text><line x1="1842.500000" x2="1842.500000" y1="91.000000" y2="96.000000" stroke="#AAAAAA" /><text style="font-size:10px;fill:#000000;" text-anchor="middle" x="1842.500000" y="106.000000">645</text><line x1="1921.833333" x2="1921.833333" y1="91.000000" y2="96.000000" stroke="#AAAAAA" /><text style="font-size:10px;fill:#000000;" text-anchor="middle" x="1921.833333" y="106.000000">673</text><line x1="1947.333333" x2="1947.333333" y1="91.000000" y2="96.000000" stroke="#AAAAAA" /><text style="font-size:10px;fill:#000000;" text-anchor="middle" x="1947.333333" y="106.000000">682</text><line x1="2032.333333" x2="2032.333333" y1="91.000000" y2="96.000000" stroke="#AAAAAA" /><text style="font-size:10px;fill:#000000;" text-anchor="middle" x="2032.333333" y="106.000000">712</text><line x1="2055.000000" x2="2055.000000" y1="91.000000" y2="96.000000" stroke="#AAAAAA" /><text style="font-size:10px;fill:#000000;" text-anchor="middle" x="2055.000000" y="106.000000">720</text><line x1="2137.166667" x2="2137.166667" y1="91.000000" y2="96.000000" stroke="#AAAAAA" /><text style="font-size:10px;fill:#000000;" text-anchor="middle" x="2137.166667" y="106.000000">749</text><line x1="2159.833333" x2="2159.833333" y1="91.000000" y2="96.000000" stroke="#AAAAAA" /><text style="font-size:10px;fill:#000000;" text-anchor="middle" x="2159.833333" y="106.000000">757</text><line x1="2244.833333" x2="2244.833333" y1="91.000000" y2="96.000000" stroke="#AAAAAA" /><text style="font-size:10px;fill:#000000;" text-anchor="middle" x="2244.833333" y="106.000000">787</text><line x1="2267.500000" x2="2267.500000" y1="91.000000" y2="96.000000" stroke="#AAAAAA" /><text style="font-size:10px;fill:#000000;" text-anchor="middle" x="2267.500000" y="106.000000">795</text><line x1="2352.500000" x2="2352.500000" y1="91.000000" y2="96.000000" stroke="#AAAAAA" /><text style="font-size:10px;fill:#000000;" text-anchor="middle" x="2352.500000" y="106.000000">825</text><line x1="2375.166667" x2="2375.166667" y1="91.000000" y2="96.000000" stroke="#AAAAAA" /><text style="font-size:10px;fill:#000000;" text-anchor="middle" x="2375.166667" y="106.000000">833</text><line x1="2465.833333" x2="2465.833333" y1="91.000000" y2="96.000000" stroke="#AAAAAA" /><text style="font-size:10px;fill:#000000;" text-anchor="middle" x="2465.833333" y="106.000000">865</text><line x1="2582.000000" x2="2582.000000" y1="91.000000" y2="96.000000" stroke="#AAAAAA" /><text style="font-size:10px;fill:#000000;" text-anchor="middle" x="2582.000000" y="106.000000">906</text><line x1="2681.166667" x2="2681.166667" y1="91.000000" y2="96.000000" stroke="#AAAAAA" /><text style="font-size:10px;fill:#000000;" text-anchor="middle" x="2681.166667" y="106.000000">941</text><line x1="2825.666667" x2="2825.666667" y1="91.000000" y2="96.000000" stroke="#AAAAAA" /><text style="font-size:10px;fill:#000000;" text-anchor="middle" x="2825.666667" y="106.000000">992</text><line x1="2885.166667" x2="2885.166667" y1="91.000000" y2="96.000000" stroke="#AAAAAA" /><text style="font-size:10px;fill:#000000;" text-anchor="middle" x="2885.166667" y="106.000000">1013</text><line x1="2919.166667" x2="2919.166667" y1="91.000000" y2="96.000000" stroke="#AAAAAA" /><text style="font-size:10px;fill:#000000;" text-anchor="middle" x="2919.166667" y="106.000000">1025</text><line x1="3004.166667" x2="3004.166667" y1="91.000000" y2="96.000000" stroke="#AAAAAA" /><text style="font-size:10px;fill:#000000;" text-anchor="middle" x="3004.166667" y="106.000000">1055</text><line x1="3026.833333" x2="3026.833333" y1="91.000000" y2="96.000000" stroke="#AAAAAA" /><text style="font-size:10px;fill:#000000;" text-anchor="middle" x="3026.833333" y="106.000000">1063</text><line x1="3111.833333" x2="3111.833333" y1="91.000000" y2="96.000000" stroke="#AAAAAA" /><text style="font-size:10px;fill:#000000;" text-anchor="middle" x="3111.833333" y="106.000000">1093</text><line x1="3162.833333" x2="3162.833333" y1="91.000000" y2="96.000000" stroke="#AAAAAA" /><text style="font-size:10px;fill:#000000;" text-anchor="middle" x="3162.833333" y="106.000000">1111</text><line x1="3247.833333" x2="3247.833333" y1="91.000000" y2="96.000000" stroke="#AAAAAA" /><text style="font-size:10px;fill:#000000;" text-anchor="middle" x="3247.833333" y="106.000000">1141</text><line x1="3270.500000" x2="3270.500000" y1="91.000000" y2="96.000000" stroke="#AAAAAA" /><text style="font-size:10px;fill:#000000;" text-anchor="middle" x="3270.500000" y="106.000000">1149</text><line x1="3355.500000" x2="3355.500000" y1="91.000000" y2="96.000000" stroke="#AAAAAA" /><text style="font-size:10px;fill:#000000;" text-anchor="middle" x="3355.500000" y="106.000000">1179</text><line x1="3378.166667" x2="3378.166667" y1="91.000000" y2="96.000000" stroke="#AAAAAA" /><text style="font-size:10px;fill:#000000;" text-anchor="middle" x="3378.166667" y="106.000000">1187</text><line x1="3463.166667" x2="3463.166667" y1="91.000000" y2="96.000000" stroke="#AAAAAA" /><text style="font-size:10px;fill:#000000;" text-anchor="middle" x="3463.166667" y="106.000000">1217</text><line x1="3485.833333" x2="3485.833333" y1="91.000000" y2="96.000000" stroke="#AAAAAA" /><text style="font-size:10px;fill:#000000;" text-anchor="middle" x="3485.833333" y="106.000000">1225</text><line x1="3593.500000" x2="3593.500000" y1="91.000000" y2="96.000000" stroke="#AAAAAA" /><text style="font-size:10px;fill:#000000;" text-anchor="middle" x="3593.500000" y="106.000000">1263</text><line x1="3729.500000" x2="3729.500000" y1="91.000000" y2="96.000000" stroke="#AAAAAA" /><text style="font-size:10px;fill:#000000;" text-anchor="middle" x="3729.500000" y="106.000000">1311</text><line x1="3823.000000" x2="3823.000000" y1="91.000000" y2="96.000000" stroke="#AAAAAA" /><text style="font-size:10px;fill:#000000;" text-anchor="middle" x="3823.000000" y="106.000000">1344</text><line x1="3859.833333" x2="3859.833333" y1="91.000000" y2="96.000000" stroke="#AAAAAA" /><text style="font-size:10px;fill:#000000;" text-anchor="middle" x="3859.833333" y="106.000000">1357</text><line x1="3910.833333" x2="3910.833333" y1="91.000000" y2="96.000000" stroke="#AAAAAA" /><text style="font-size:10px;fill:#000000;" text-anchor="middle" x="3910.833333" y="106.000000">1375</text><line x1="4112.000000" x2="4112.000000" y1="91.000000" y2="96.000000" stroke="#AAAAAA" /><text style="font-size:10px;fill:#000000;" text-anchor="middle" x="4112.000000" y="106.000000">1446</text><line x1="4208.333333" x2="4208.333333" y1="91.000000" y2="96.000000" stroke="#AAAAAA" /><text style="font-size:10px;fill:#000000;" text-anchor="middle" x="4208.333333" y="106.000000">1480</text><line x1="4228.166667" x2="4228.166667" y1="91.000000" y2="96.000000" stroke="#AAAAAA" /><text style="font-size:10px;fill:#000000;" text-anchor="middle" x="4228.166667" y="106.000000">1487</text><line x1="4327.333333" x2="4327.333333" y1="91.000000" y2="96.000000" stroke="#AAAAAA" /><text style="font-size:10px;fill:#000000;" text-anchor="middle" x="4327.333333" y="106.000000">1522</text><line x1="4440.666667" x2="4440.666667" y1="91.000000" y2="96.000000" stroke="#AAAAAA" /><text style="font-size:10px;fill:#000000;" text-anchor="middle" x="4440.666667" y="106.000000">1562</text><line x1="4607.833333" x2="4607.833333" y1="91.000000" y2="96.000000" stroke="#AAAAAA" /><text style="font-size:10px;fill:#000000;" text-anchor="middle" x="4607.833333" y="106.000000">1621</text><line x1="4749.500000" x2="4749.500000" y1="91.000000" y2="96.000000" stroke="#AAAAAA" /><text style="font-size:10px;fill:#000000;" text-anchor="middle" x="4749.500000" y="106.000000">1671</text><line x1="4913.833333" x2="4913.833333" y1="91.000000" y2="96.000000" stroke="#AAAAAA" /><text style="font-size:10px;fill:#000000;" text-anchor="middle" x="4913.833333" y="106.000000">1729</text><line x1="5341.666667" x2="5341.666667" y1="91.000000" y2="96.000000" stroke="#AAAAAA" /><text style="font-size:10px;fill:#000000;" text-anchor="middle" x="5341.666667" y="106.000000">1880</text><line x1="5472.000000" x2="5472.000000" y1="91.000000" y2="96.000000" stroke="#AAAAAA" /><text style="font-size:10px;fill:#000000;" text-anchor="middle" x="5472.000000" y="106.000000">1926</text><line x1="5602.333333" x2="5602.333333" y1="91.000000" y2="96.000000" stroke="#AAAAAA" /><text style="font-size:10px;fill:#000000;" text-anchor="middle" x="5602.333333" y="106.000000">1972</text><line x1="5627.833333" x2="5627.833333" y1="91.000000" y2="96.000000" stroke="#AAAAAA" /><text style="font-size:10px;fill:#000000;" text-anchor="middle" x="5627.833333" y="106.000000">1981</text><line x1="5846.000000" x2="5846.000000" y1="91.000000" y2="96.000000" stroke="#AAAAAA" /><text style="font-size:10px;fill:#000000;" text-anchor="middle" x="5846.000000" y="106.000000">2058</text><line x1="5945.166667" x2="5945.166667" y1="91.000000" y2="96.000000" stroke="#AAAAAA" /><text style="font-size:10px;fill:#000000;" text-anchor="middle" x="5945.166667" y="106.000000">2093</text><line x1="6458.000000" x2="6458.000000" y1="91.000000" y2="96.000000" stroke="#AAAAAA" /><text style="font-size:10px;fill:#000000;" text-anchor="middle" x="6458.000000" y="106.000000">2274</text><line x1="7038.833333" x2="7038.833333" y1="91.000000" y2="96.000000" stroke="#AAAAAA" /><text style="font-size:10px;fill:#000000;" text-anchor="middle" x="7038.833333" y="106.000000">2479</text><line x1="7211.666667" x2="7211.666667" y1="91.000000" y2="96.000000" stroke="#AAAAAA" /><text style="font-size:10px;fill:#000000;" text-anchor="middle" x="7211.666667" y="106.000000">2540</text><line x1="7254.166667" x2="7254.166667" y1="91.000000" y2="96.000000" stroke="#AAAAAA" /><text style="font-size:10px;fill:#000000;" text-anchor="middle" x="7254.166667" y="106.000000">2555</text></g>
</svg>
