<?xml version='1.0'?>
<svg xmlns="http://www.w3.org/2000/svg" xmlns:xlink="http://www.w3.org/1999/xlink" width="759.989011" height="111.000000">
<defs>
  <filter id="ds" x="0" y="0">
    <feOffset in="SourceAlpha" dx="2" dy="2" />
    <feComponentTransfer><feFuncA type="linear" slope="0.2"/></feComponentTransfer>
    <feGaussianBlur result="blurOut" stdDeviation="1" />
    <feBlend in="SourceGraphic" in2="blurOut" mode="normal" />
  </filter>
  <pattern id="disordered-hatch" patternUnits="userSpaceOnUse" width="4" height="4">
    <path d="M-1,1 l2,-2 M0,4 l4,-4 M3,5 l2,-2" stroke="#000000" opacity="0.3" />
  </pattern>
</defs>
<line x1="320.670330" x2="320.670330" y1="34.000000" y2="62.000000" stroke="#BABDB6" stroke-width="2"/><a xlink:title="p.C456_R481del"><circle cx="320.670330" cy="34.000000" r="4.000000" fill="#0000ff" /></a><g transform="translate(320.670330,34.000000) rotate(-30)"><text style="font-size:10px;fill:#555;" text-anchor="middle" x="0" y="-6.000000">p.C456_R481del</text></g><a xlink:title="PGFRA_HUMAN, Platelet-derived growth factor receptor alpha EC=2.7.10.1 (1089aa)"><rect fill="#BABDB6" x="15.000000" y="62.000000" width="729.989011" height="14.000000"/></a><g transform="translate(159.791209,57.000000)"><a xlink:href="http://pfam.xfam.org/family/PF07679" xlink:title="Immunoglobulin I-set domain"><rect fill="#2dcf00" x="0" y="0" width="61.000000" height="24.000000" filter="url(#ds)"/><text style="font-size:12px;fill:#ffffff;" text-anchor="middle" x="30.500000" y="16.000000">I-set</text></a></g>
<g transform="translate(228.835165,57.000000)"><a xlink:href="http://pfam.xfam.org/family/PF07679" xlink:title="Immunoglobulin I-set domain"><rect fill="#2dcf00" x="0" y="0" width="61.670330" height="24.000000" filter="url(#ds)"/><text style="font-size:12px;fill:#ffffff;" text-anchor="middle" x="30.835165" y="16.000000">I-set</text></a></g>
<g transform="translate(412.505495,57.000000)"><a xlink:href="http://pfam.xfam.org/family/PF07714" xlink:title="Protein tyrosine kinase"><rect fill="#ff5353" x="0" y="0" width="239.307692" height="24.000000" filter="url(#ds)"/><text style="font-size:12px;fill:#ffffff;" text-anchor="middle" x="119.653846" y="16.000000">Protein tyrosine kinase</text></a></g>
<g class="axis">
<line x1="15.000000" x2="744.989011" y1="91.000000" y2="91.000000" stroke="#AAAAAA" /><line x1="15.000000" x2="15.000000" y1="91.000000" y2="96.000000" stroke="#AAAAAA" /><line x1="15.000000" x2="15.000000" y1="91.000000" y2="96.000000" stroke="#AAAAAA" /><text style="font-size:10px;fill:#000000;" text-anchor="middle" x="15.000000" y="106.000000">0</text><line x1="159.791209" x2="159.791209" y1="91.000000" y2="96.000000" stroke="#AAAAAA" /><text style="font-size:10px;fill:#000000;" text-anchor="middle" x="159.791209" y="106.000000">216</text><line x1="220.791209" x2="220.791209" y1="91.000000" y2="96.000000" stroke="#AAAAAA" /><text style="font-size:10px;fill:#000000;" text-anchor="middle" x="220.791209" y="106.000000">307</text><line x1="290.505495" x2="290.505495" y1="91.000000" y2="96.000000" stroke="#AAAAAA" /><text style="font-size:10px;fill:#000000;" text-anchor="middle" x="290.505495" y="106.000000">411</text><line x1="320.670330" x2="320.670330" y1="91.000000" y2="96.000000" stroke="#AAAAAA" /><text style="font-size:10px;fill:#000000;" text-anchor="middle" x="320.670330" y="106.000000">456</text><line x1="412.505495" x2="412.505495" y1="91.000000" y2="96.000000" stroke="#AAAAAA" /><text style="font-size:10px;fill:#000000;" text-anchor="middle" x="412.505495" y="106.000000">593</text><line x1="651.813187" x2="651.813187" y1="91.000000" y2="96.000000" stroke="#AAAAAA" /><text style="font-size:10px;fill:#000000;" text-anchor="middle" x="651.813187" y="106.000000">950</text><line x1="744.989011" x2="744.989011" y1="91.000000" y2="96.000000" stroke="#AAAAAA" /><text style="font-size:10px;fill:#000000;" text-anchor="middle" x="744.989011" y="106.000000">1089</text></g>
</svg>
