<?xml version='1.0'?>
<svg xmlns="http://www.w3.org/2000/svg" xmlns:xlink="http://www.w3.org/1999/xlink" width="637.642857" height="111.000000">
<defs>
  <filter id="ds" x="0" y="0">
    <feOffset in="SourceAlpha" dx="2" dy="2" />
    <feComponentTransfer><feFuncA type="linear" slope="0.2"/></feComponentTransfer>
    <feGaussianBlur result="blurOut" stdDeviation="1" />
    <feBlend in="SourceGraphic" in2="blurOut" mode="normal" />
  </filter>
  <pattern id="disordered-hatch" patternUnits="userSpaceOnUse" width="4" height="4">
    <path d="M-1,1 l2,-2 M0,4 l4,-4 M3,5 l2,-2" stroke="#000000" opacity="0.3" />
  </pattern>
</defs>
<line x1="485.000000" x2="485.000000" y1="34.000000" y2="62.000000" stroke="#BABDB6" stroke-width="2"/><a xlink:title="p.D560_S565del"><circle cx="485.000000" cy="34.000000" r="4.000000" fill="#0000ff" /></a><g transform="translate(485.000000,34.000000) rotate(-30)"><text style="font-size:10px;fill:#555;" text-anchor="middle" x="0" y="-6.000000">p.D560_S565del</text></g><a xlink:title="P85A_HUMAN, Phosphatidylinositol 3-kinase regulatory subunit alpha (724aa)"><rect fill="#BABDB6" x="15.000000" y="62.000000" width="607.642857" height="14.000000"/></a><g transform="translate(123.267857,57.000000)"><a xlink:href="http://pfam.xfam.org/family/PF00620" xlink:title="RhoGAP domain"><rect fill="#2dcf00" x="0" y="0" width="128.410714" height="24.000000" filter="url(#ds)"/><text style="font-size:12px;fill:#ffffff;" text-anchor="middle" x="64.205357" y="16.000000">RhoGAP</text></a></g>
<g transform="translate(294.482143,57.000000)"><a xlink:href="http://pfam.xfam.org/family/PF00017" xlink:title="SH2 domain"><rect fill="#ff5353" x="0" y="0" width="62.946429" height="24.000000" filter="url(#ds)"/><text style="font-size:12px;fill:#ffffff;" text-anchor="middle" x="31.473214" y="16.000000">SH2</text></a></g>
<g transform="translate(376.732143,57.000000)"><a xlink:href="http://pfam.xfam.org/family/PF16454" xlink:title="Phosphatidylinositol 3-kinase regulatory subunit P85 inter-SH2 domain"><rect fill="#5b5bff" x="0" y="0" width="141.000000" height="24.000000" filter="url(#ds)"/><text style="font-size:12px;fill:#ffffff;" text-anchor="middle" x="70.500000" y="16.000000">PI3K_P85_iSH2</text></a></g>
<g transform="translate(538.714286,57.000000)"><a xlink:href="http://pfam.xfam.org/family/PF00017" xlink:title="SH2 domain"><rect fill="#ff5353" x="0" y="0" width="62.107143" height="24.000000" filter="url(#ds)"/><text style="font-size:12px;fill:#ffffff;" text-anchor="middle" x="31.053571" y="16.000000">SH2</text></a></g>
<g class="axis">
<line x1="15.000000" x2="622.642857" y1="91.000000" y2="91.000000" stroke="#AAAAAA" /><line x1="15.000000" x2="15.000000" y1="91.000000" y2="96.000000" stroke="#AAAAAA" /><line x1="15.000000" x2="15.000000" y1="91.000000" y2="96.000000" stroke="#AAAAAA" /><text style="font-size:10px;fill:#000000;" text-anchor="middle" x="15.000000" y="106.000000">0</text><line x1="123.267857" x2="123.267857" y1="91.000000" y2="96.000000" stroke="#AAAAAA" /><text style="font-size:10px;fill:#000000;" text-anchor="middle" x="123.267857" y="106.000000">129</text><line x1="251.678571" x2="251.678571" y1="91.000000" y2="96.000000" stroke="#AAAAAA" /><text style="font-size:10px;fill:#000000;" text-anchor="middle" x="251.678571" y="106.000000">282</text><line x1="294.482143" x2="294.482143" y1="91.000000" y2="96.000000" stroke="#AAAAAA" /><text style="font-size:10px;fill:#000000;" text-anchor="middle" x="294.482143" y="106.000000">333</text><line x1="357.428571" x2="357.428571" y1="91.000000" y2="96.000000" stroke="#AAAAAA" /><text style="font-size:10px;fill:#000000;" text-anchor="middle" x="357.428571" y="106.000000">408</text><line x1="376.732143" x2="376.732143" y1="91.000000" y2="96.000000" stroke="#AAAAAA" /><text style="font-size:10px;fill:#000000;" text-anchor="middle" x="376.732143" y="106.000000">431</text><line x1="485.000000" x2="485.000000" y1="91.000000" y2="96.000000" stroke="#AAAAAA" /><text style="font-size:10px;fill:#000000;" text-anchor="middle" x="485.000000" y="106.000000">560</text><line x1="517.732143" x2="517.732143" y1="91.000000" y2="96.000000" stroke="#AAAAAA" /><text style="font-size:10px;fill:#000000;" text-anchor="middle" x="517.732143" y="106.000000">599</text><line x1="538.714286" x2="538.714286" y1="91.000000" y2="96.000000" stroke="#AAAAAA" /><text style="font-size:10px;fill:#000000;" text-anchor="middle" x="538.714286" y="106.000000">624</text><line x1="600.821429" x2="600.821429" y1="91.000000" y2="96.000000" stroke="#AAAAAA" /><text style="font-size:10px;fill:#000000;" text-anchor="middle" x="600.821429" y="106.000000">698</text><line x1="622.642857" x2="622.642857" y1="91.000000" y2="96.000000" stroke="#AAAAAA" /><text style="font-size:10px;fill:#000000;" text-anchor="middle" x="622.642857" y="106.000000">724</text></g>
</svg>
