<?xml version='1.0'?>
<svg xmlns="http://www.w3.org/2000/svg" xmlns:xlink="http://www.w3.org/1999/xlink" width="1468.240000" height="111.000000">
<defs>
  <filter id="ds" x="0" y="0">
    <feOffset in="SourceAlpha" dx="2" dy="2" />
    <feComponentTransfer><feFuncA type="linear" slope="0.2"/></feComponentTransfer>
    <feGaussianBlur result="blurOut" stdDeviation="1" />
    <feBlend in="SourceGraphic" in2="blurOut" mode="normal" />
  </filter>
  <pattern id="disordered-hatch" patternUnits="userSpaceOnUse" width="4" height="4">
    <path d="M-1,1 l2,-2 M0,4 l4,-4 M3,5 l2,-2" stroke="#000000" opacity="0.3" />
  </pattern>
</defs>
<line x1="1453.240000" x2="1453.240000" y1="34.000000" y2="62.000000" stroke="#BABDB6" stroke-width="2"/><a xlink:title="p.N1068Kfs"><circle cx="1453.240000" cy="34.000000" r="4.000000" fill="#ff0000" /></a><g transform="translate(1453.240000,34.000000) rotate(-30)"><text style="font-size:10px;fill:#555;" text-anchor="middle" x="0" y="-6.000000">p.N1068Kfs</text></g><a xlink:title="PK3CA_HUMAN, Phosphatidylinositol 4,5-bisphosphate 3-kinase catalytic subunit alpha isoform (1068aa)"><rect fill="#BABDB6" x="15.000000" y="62.000000" width="1438.240000" height="14.000000"/></a><g transform="translate(58.093333,57.000000)"><a xlink:href="http://pfam.xfam.org/family/PF02192" xlink:title="PI3-kinase family, p85-binding domain"><rect fill="#2dcf00" x="0" y="0" width="101.000000" height="24.000000" filter="url(#ds)"/><text style="font-size:12px;fill:#ffffff;" text-anchor="middle" x="50.500000" y="16.000000">PI3K_p85B</text></a></g>
<g transform="translate(247.973333,57.000000)"><a xlink:href="http://pfam.xfam.org/family/PF00794" xlink:title="PI3-kinase family, ras-binding domain"><rect fill="#ff5353" x="0" y="0" width="160.253333" height="24.000000" filter="url(#ds)"/><text style="font-size:12px;fill:#ffffff;" text-anchor="middle" x="80.126667" y="16.000000">PI3K_rbd</text></a></g>
<g transform="translate(486.333333,57.000000)"><a xlink:href="http://pfam.xfam.org/family/PF00792" xlink:title="Phosphoinositide 3-kinase C2"><rect fill="#5b5bff" x="0" y="0" width="181.800000" height="24.000000" filter="url(#ds)"/><text style="font-size:12px;fill:#ffffff;" text-anchor="middle" x="90.900000" y="16.000000">PI3K_C2</text></a></g>
<g transform="translate(713.920000,57.000000)"><a xlink:href="http://pfam.xfam.org/family/PF00613" xlink:title="Phosphoinositide 3-kinase family, accessory domain (PIK domain)"><rect fill="#ebd61d" x="0" y="0" width="249.133333" height="24.000000" filter="url(#ds)"/><text style="font-size:12px;fill:#ffffff;" text-anchor="middle" x="124.566667" y="16.000000">PI3Ka</text></a></g>
<g transform="translate(1086.946667,57.000000)"><a xlink:href="http://pfam.xfam.org/family/PF00454" xlink:title="Phosphatidylinositol 3- and 4-kinase"><rect fill="#ba21e0" x="0" y="0" width="294.920000" height="24.000000" filter="url(#ds)"/><text style="font-size:12px;fill:#ffffff;" text-anchor="middle" x="147.460000" y="16.000000">PI3_PI4_kinase</text></a></g>
<g class="axis">
<line x1="15.000000" x2="1453.240000" y1="91.000000" y2="91.000000" stroke="#AAAAAA" /><line x1="15.000000" x2="15.000000" y1="91.000000" y2="96.000000" stroke="#AAAAAA" /><line x1="15.000000" x2="15.000000" y1="91.000000" y2="96.000000" stroke="#AAAAAA" /><text style="font-size:10px;fill:#000000;" text-anchor="middle" x="15.000000" y="106.000000">0</text><line x1="58.093333" x2="58.093333" y1="91.000000" y2="96.000000" stroke="#AAAAAA" /><text style="font-size:10px;fill:#000000;" text-anchor="middle" x="58.093333" y="106.000000">32</text><line x1="159.093333" x2="159.093333" y1="91.000000" y2="96.000000" stroke="#AAAAAA" /><text style="font-size:10px;fill:#000000;" text-anchor="middle" x="159.093333" y="106.000000">107</text><line x1="247.973333" x2="247.973333" y1="91.000000" y2="96.000000" stroke="#AAAAAA" /><text style="font-size:10px;fill:#000000;" text-anchor="middle" x="247.973333" y="106.000000">173</text><line x1="408.226667" x2="408.226667" y1="91.000000" y2="96.000000" stroke="#AAAAAA" /><text style="font-size:10px;fill:#000000;" text-anchor="middle" x="408.226667" y="106.000000">292</text><line x1="486.333333" x2="486.333333" y1="91.000000" y2="96.000000" stroke="#AAAAAA" /><text style="font-size:10px;fill:#000000;" text-anchor="middle" x="486.333333" y="106.000000">350</text><line x1="668.133333" x2="668.133333" y1="91.000000" y2="96.000000" stroke="#AAAAAA" /><text style="font-size:10px;fill:#000000;" text-anchor="middle" x="668.133333" y="106.000000">485</text><line x1="713.920000" x2="713.920000" y1="91.000000" y2="96.000000" stroke="#AAAAAA" /><text style="font-size:10px;fill:#000000;" text-anchor="middle" x="713.920000" y="106.000000">519</text><line x1="963.053333" x2="963.053333" y1="91.000000" y2="96.000000" stroke="#AAAAAA" /><text style="font-size:10px;fill:#000000;" text-anchor="middle" x="963.053333" y="106.000000">704</text><line x1="1086.946667" x2="1086.946667" y1="91.000000" y2="96.000000" stroke="#AAAAAA" /><text style="font-size:10px;fill:#000000;" text-anchor="middle" x="1086.946667" y="106.000000">796</text><line x1="1381.866667" x2="1381.866667" y1="91.000000" y2="96.000000" stroke="#AAAAAA" /><text style="font-size:10px;fill:#000000;" text-anchor="middle" x="1381.866667" y="106.000000">1015</text><line x1="1453.240000" x2="1453.240000" y1="91.000000" y2="96.000000" stroke="#AAAAAA" /><text style="font-size:10px;fill:#000000;" text-anchor="middle" x="1453.240000" y="106.000000">1068</text></g>
</svg>
