<?xml version='1.0'?>
<svg xmlns="http://www.w3.org/2000/svg" xmlns:xlink="http://www.w3.org/1999/xlink" width="1161.843478" height="111.000000">
<defs>
  <filter id="ds" x="0" y="0">
    <feOffset in="SourceAlpha" dx="2" dy="2" />
    <feComponentTransfer><feFuncA type="linear" slope="0.2"/></feComponentTransfer>
    <feGaussianBlur result="blurOut" stdDeviation="1" />
    <feBlend in="SourceGraphic" in2="blurOut" mode="normal" />
  </filter>
  <pattern id="disordered-hatch" patternUnits="userSpaceOnUse" width="4" height="4">
    <path d="M-1,1 l2,-2 M0,4 l4,-4 M3,5 l2,-2" stroke="#000000" opacity="0.3" />
  </pattern>
</defs>
<line x1="391.843478" x2="391.843478" y1="34.000000" y2="62.000000" stroke="#BABDB6" stroke-width="2"/><a xlink:title="p.R287Sfs*19"><circle cx="391.843478" cy="34.000000" r="4.000000" fill="#ff0000" /></a><g transform="translate(391.843478,34.000000) rotate(-30)"><text style="font-size:10px;fill:#555;" text-anchor="middle" x="0" y="-6.000000">p.R287Sfs*19</text></g><a xlink:title="PMS2_HUMAN, Mismatch repair endonuclease PMS2 {ECO:0000305} EC=3.1.-.- (862aa)"><rect fill="#BABDB6" x="15.000000" y="62.000000" width="1131.843478" height="14.000000"/></a><g transform="translate(58.330435,57.000000)"><a xlink:href="http://pfam.xfam.org/family/PF13589" xlink:title="Histidine kinase-, DNA gyrase B-, and HSP90-like ATPase"><rect fill="#2dcf00" x="0" y="0" width="168.069565" height="24.000000" filter="url(#ds)"/><text style="font-size:12px;fill:#ffffff;" text-anchor="middle" x="84.034783" y="16.000000">HATPase_c_3</text></a></g>
<g transform="translate(340.634783,57.000000)"><a xlink:href="http://pfam.xfam.org/family/PF01119" xlink:title="DNA mismatch repair protein, C-terminal domain"><rect fill="#ff5353" x="0" y="0" width="151.000000" height="24.000000" filter="url(#ds)"/><text style="font-size:12px;fill:#ffffff;" text-anchor="middle" x="75.500000" y="16.000000">DNA_mis_repair</text></a></g>
<g transform="translate(902.617391,57.000000)"><a xlink:href="http://pfam.xfam.org/family/PF08676" xlink:title="MutL C terminal dimerisation domain"><rect fill="#5b5bff" x="0" y="0" width="191.704348" height="24.000000" filter="url(#ds)"/><text style="font-size:12px;fill:#ffffff;" text-anchor="middle" x="95.852174" y="16.000000">MutL_C</text></a></g>
<g class="axis">
<line x1="15.000000" x2="1146.843478" y1="91.000000" y2="91.000000" stroke="#AAAAAA" /><line x1="15.000000" x2="15.000000" y1="91.000000" y2="96.000000" stroke="#AAAAAA" /><line x1="15.000000" x2="15.000000" y1="91.000000" y2="96.000000" stroke="#AAAAAA" /><text style="font-size:10px;fill:#000000;" text-anchor="middle" x="15.000000" y="106.000000">0</text><line x1="58.330435" x2="58.330435" y1="91.000000" y2="96.000000" stroke="#AAAAAA" /><text style="font-size:10px;fill:#000000;" text-anchor="middle" x="58.330435" y="106.000000">33</text><line x1="226.400000" x2="226.400000" y1="91.000000" y2="96.000000" stroke="#AAAAAA" /><text style="font-size:10px;fill:#000000;" text-anchor="middle" x="226.400000" y="106.000000">161</text><line x1="340.634783" x2="340.634783" y1="91.000000" y2="96.000000" stroke="#AAAAAA" /><text style="font-size:10px;fill:#000000;" text-anchor="middle" x="340.634783" y="106.000000">248</text><line x1="391.843478" x2="391.843478" y1="91.000000" y2="96.000000" stroke="#AAAAAA" /><text style="font-size:10px;fill:#000000;" text-anchor="middle" x="391.843478" y="106.000000">287</text><line x1="491.634783" x2="491.634783" y1="91.000000" y2="96.000000" stroke="#AAAAAA" /><text style="font-size:10px;fill:#000000;" text-anchor="middle" x="491.634783" y="106.000000">363</text><line x1="902.617391" x2="902.617391" y1="91.000000" y2="96.000000" stroke="#AAAAAA" /><text style="font-size:10px;fill:#000000;" text-anchor="middle" x="902.617391" y="106.000000">676</text><line x1="1094.321739" x2="1094.321739" y1="91.000000" y2="96.000000" stroke="#AAAAAA" /><text style="font-size:10px;fill:#000000;" text-anchor="middle" x="1094.321739" y="106.000000">822</text><line x1="1146.843478" x2="1146.843478" y1="91.000000" y2="96.000000" stroke="#AAAAAA" /><text style="font-size:10px;fill:#000000;" text-anchor="middle" x="1146.843478" y="106.000000">862</text></g>
</svg>
