<?xml version='1.0'?>
<svg xmlns="http://www.w3.org/2000/svg" xmlns:xlink="http://www.w3.org/1999/xlink" width="823.571429" height="111.000000">
<defs>
  <filter id="ds" x="0" y="0">
    <feOffset in="SourceAlpha" dx="2" dy="2" />
    <feComponentTransfer><feFuncA type="linear" slope="0.2"/></feComponentTransfer>
    <feGaussianBlur result="blurOut" stdDeviation="1" />
    <feBlend in="SourceGraphic" in2="blurOut" mode="normal" />
  </filter>
  <pattern id="disordered-hatch" patternUnits="userSpaceOnUse" width="4" height="4">
    <path d="M-1,1 l2,-2 M0,4 l4,-4 M3,5 l2,-2" stroke="#000000" opacity="0.3" />
  </pattern>
</defs>
<line x1="263.285714" x2="263.285714" y1="34.000000" y2="62.000000" stroke="#BABDB6" stroke-width="2"/><a xlink:title="p.S158Vfs"><circle cx="263.285714" cy="34.000000" r="4.000000" fill="#ff0000" /></a><g transform="translate(263.285714,34.000000) rotate(-30)"><text style="font-size:10px;fill:#555;" text-anchor="middle" x="0" y="-6.000000">p.S158Vfs</text></g><a xlink:title="PPARG_HUMAN, Peroxisome proliferator-activated receptor gamma (505aa)"><rect fill="#BABDB6" x="15.000000" y="62.000000" width="793.571429" height="14.000000"/></a><g transform="translate(63.714286,57.000000)"><a xlink:href="http://pfam.xfam.org/family/PF12577" xlink:title="PPAR gamma N-terminal region"><rect fill="#2dcf00" x="0" y="0" width="121.000000" height="24.000000" filter="url(#ds)"/><text style="font-size:12px;fill:#ffffff;" text-anchor="middle" x="60.500000" y="16.000000">PPARgamma_N</text></a></g>
<g transform="translate(230.285714,57.000000)"><a xlink:href="http://pfam.xfam.org/family/PF00105" xlink:title="Zinc finger, C4 type (two domains)"><rect fill="#ff5353" x="0" y="0" width="106.857143" height="24.000000" filter="url(#ds)"/><text style="font-size:12px;fill:#ffffff;" text-anchor="middle" x="53.428571" y="16.000000">zf-C4</text></a></g>
<g transform="translate(484.857143,57.000000)"><a xlink:href="http://pfam.xfam.org/family/PF00104" xlink:title="Ligand-binding domain of nuclear hormone receptor"><rect fill="#5b5bff" x="0" y="0" width="293.857143" height="24.000000" filter="url(#ds)"/><text style="font-size:12px;fill:#ffffff;" text-anchor="middle" x="146.928571" y="16.000000">Hormone_recep</text></a></g>
<g class="axis">
<line x1="15.000000" x2="808.571429" y1="91.000000" y2="91.000000" stroke="#AAAAAA" /><line x1="15.000000" x2="15.000000" y1="91.000000" y2="96.000000" stroke="#AAAAAA" /><line x1="15.000000" x2="15.000000" y1="91.000000" y2="96.000000" stroke="#AAAAAA" /><text style="font-size:10px;fill:#000000;" text-anchor="middle" x="15.000000" y="106.000000">0</text><line x1="63.714286" x2="63.714286" y1="91.000000" y2="96.000000" stroke="#AAAAAA" /><text style="font-size:10px;fill:#000000;" text-anchor="middle" x="63.714286" y="106.000000">31</text><line x1="184.714286" x2="184.714286" y1="91.000000" y2="96.000000" stroke="#AAAAAA" /><text style="font-size:10px;fill:#000000;" text-anchor="middle" x="184.714286" y="106.000000">108</text><line x1="230.285714" x2="230.285714" y1="91.000000" y2="96.000000" stroke="#AAAAAA" /><text style="font-size:10px;fill:#000000;" text-anchor="middle" x="230.285714" y="106.000000">137</text><line x1="263.285714" x2="263.285714" y1="91.000000" y2="96.000000" stroke="#AAAAAA" /><text style="font-size:10px;fill:#000000;" text-anchor="middle" x="263.285714" y="106.000000">158</text><line x1="337.142857" x2="337.142857" y1="91.000000" y2="96.000000" stroke="#AAAAAA" /><text style="font-size:10px;fill:#000000;" text-anchor="middle" x="337.142857" y="106.000000">205</text><line x1="484.857143" x2="484.857143" y1="91.000000" y2="96.000000" stroke="#AAAAAA" /><text style="font-size:10px;fill:#000000;" text-anchor="middle" x="484.857143" y="106.000000">299</text><line x1="778.714286" x2="778.714286" y1="91.000000" y2="96.000000" stroke="#AAAAAA" /><text style="font-size:10px;fill:#000000;" text-anchor="middle" x="778.714286" y="106.000000">486</text><line x1="808.571429" x2="808.571429" y1="91.000000" y2="96.000000" stroke="#AAAAAA" /><text style="font-size:10px;fill:#000000;" text-anchor="middle" x="808.571429" y="106.000000">505</text></g>
</svg>
