<?xml version='1.0'?>
<svg xmlns="http://www.w3.org/2000/svg" xmlns:xlink="http://www.w3.org/1999/xlink" width="661.663866" height="111.000000">
<defs>
  <filter id="ds" x="0" y="0">
    <feOffset in="SourceAlpha" dx="2" dy="2" />
    <feComponentTransfer><feFuncA type="linear" slope="0.2"/></feComponentTransfer>
    <feGaussianBlur result="blurOut" stdDeviation="1" />
    <feBlend in="SourceGraphic" in2="blurOut" mode="normal" />
  </filter>
  <pattern id="disordered-hatch" patternUnits="userSpaceOnUse" width="4" height="4">
    <path d="M-1,1 l2,-2 M0,4 l4,-4 M3,5 l2,-2" stroke="#000000" opacity="0.3" />
  </pattern>
</defs>
<line x1="341.722689" x2="341.722689" y1="34.000000" y2="62.000000" stroke="#BABDB6" stroke-width="2"/><a xlink:title="p.N480del"><circle cx="341.722689" cy="34.000000" r="4.000000" fill="#ff0000" /></a><g transform="translate(341.722689,34.000000) rotate(-30)"><text style="font-size:10px;fill:#555;" text-anchor="middle" x="0" y="-6.000000">p.N480del</text></g><a xlink:title="RB_HUMAN, Retinoblastoma-associated protein (928aa)"><rect fill="#BABDB6" x="15.000000" y="62.000000" width="631.663866" height="14.000000"/></a><g transform="translate(89.193277,57.000000)"><a xlink:href="http://pfam.xfam.org/family/PF11934" xlink:title="Domain of unknown function (DUF3452)"><rect fill="#2dcf00" x="0" y="0" width="81.000000" height="24.000000" filter="url(#ds)"/><text style="font-size:12px;fill:#ffffff;" text-anchor="middle" x="40.500000" y="16.000000">DUF3452</text></a></g>
<g transform="translate(268.890756,57.000000)"><a xlink:href="http://pfam.xfam.org/family/PF01858" xlink:title="Retinoblastoma-associated protein A domain"><rect fill="#ff5353" x="0" y="0" width="136.134454" height="24.000000" filter="url(#ds)"/><text style="font-size:12px;fill:#ffffff;" text-anchor="middle" x="68.067227" y="16.000000">RB_A</text></a></g>
<g transform="translate(454.714286,57.000000)"><a xlink:href="http://pfam.xfam.org/family/PF01857" xlink:title="Retinoblastoma-associated protein B domain"><rect fill="#5b5bff" x="0" y="0" width="81.000000" height="24.000000" filter="url(#ds)"/><text style="font-size:12px;fill:#ffffff;" text-anchor="middle" x="40.500000" y="16.000000">RB_B</text></a></g>
<g transform="translate(537.756303,57.000000)"><a xlink:href="http://pfam.xfam.org/family/PF08934" xlink:title="Rb C-terminal domain"><rect fill="#ebd61d" x="0" y="0" width="106.865546" height="24.000000" filter="url(#ds)"/><text style="font-size:12px;fill:#ffffff;" text-anchor="middle" x="53.432773" y="16.000000">Rb_C</text></a></g>
<g class="axis">
<line x1="15.000000" x2="646.663866" y1="91.000000" y2="91.000000" stroke="#AAAAAA" /><line x1="15.000000" x2="15.000000" y1="91.000000" y2="96.000000" stroke="#AAAAAA" /><line x1="15.000000" x2="15.000000" y1="91.000000" y2="96.000000" stroke="#AAAAAA" /><text style="font-size:10px;fill:#000000;" text-anchor="middle" x="15.000000" y="106.000000">0</text><line x1="89.193277" x2="89.193277" y1="91.000000" y2="96.000000" stroke="#AAAAAA" /><text style="font-size:10px;fill:#000000;" text-anchor="middle" x="89.193277" y="106.000000">109</text><line x1="170.193277" x2="170.193277" y1="91.000000" y2="96.000000" stroke="#AAAAAA" /><text style="font-size:10px;fill:#000000;" text-anchor="middle" x="170.193277" y="106.000000">228</text><line x1="268.890756" x2="268.890756" y1="91.000000" y2="96.000000" stroke="#AAAAAA" /><text style="font-size:10px;fill:#000000;" text-anchor="middle" x="268.890756" y="106.000000">373</text><line x1="341.722689" x2="341.722689" y1="91.000000" y2="96.000000" stroke="#AAAAAA" /><text style="font-size:10px;fill:#000000;" text-anchor="middle" x="341.722689" y="106.000000">480</text><line x1="405.025210" x2="405.025210" y1="91.000000" y2="96.000000" stroke="#AAAAAA" /><text style="font-size:10px;fill:#000000;" text-anchor="middle" x="405.025210" y="106.000000">573</text><line x1="454.714286" x2="454.714286" y1="91.000000" y2="96.000000" stroke="#AAAAAA" /><text style="font-size:10px;fill:#000000;" text-anchor="middle" x="454.714286" y="106.000000">646</text><line x1="535.714286" x2="535.714286" y1="91.000000" y2="96.000000" stroke="#AAAAAA" /><text style="font-size:10px;fill:#000000;" text-anchor="middle" x="535.714286" y="106.000000">765</text><line x1="646.663866" x2="646.663866" y1="91.000000" y2="96.000000" stroke="#AAAAAA" /><text style="font-size:10px;fill:#000000;" text-anchor="middle" x="646.663866" y="106.000000">928</text></g>
</svg>
