<?xml version='1.0'?>
<svg xmlns="http://www.w3.org/2000/svg" xmlns:xlink="http://www.w3.org/1999/xlink" width="1356.375000" height="111.000000">
<defs>
  <filter id="ds" x="0" y="0">
    <feOffset in="SourceAlpha" dx="2" dy="2" />
    <feComponentTransfer><feFuncA type="linear" slope="0.2"/></feComponentTransfer>
    <feGaussianBlur result="blurOut" stdDeviation="1" />
    <feBlend in="SourceGraphic" in2="blurOut" mode="normal" />
  </filter>
  <pattern id="disordered-hatch" patternUnits="userSpaceOnUse" width="4" height="4">
    <path d="M-1,1 l2,-2 M0,4 l4,-4 M3,5 l2,-2" stroke="#000000" opacity="0.3" />
  </pattern>
</defs>
<line x1="966.750000" x2="966.750000" y1="34.000000" y2="62.000000" stroke="#BABDB6" stroke-width="2"/><a xlink:title="p.R282del"><circle cx="966.750000" cy="34.000000" r="4.000000" fill="#ff0000" /></a><g transform="translate(966.750000,34.000000) rotate(-30)"><text style="font-size:10px;fill:#555;" text-anchor="middle" x="0" y="-6.000000">p.R282del</text></g><a xlink:title="P53_HUMAN, Cellular tumor antigen p53 (393aa)"><rect fill="#BABDB6" x="15.000000" y="62.000000" width="1326.375000" height="14.000000"/></a><g transform="translate(31.875000,57.000000)"><a xlink:href="http://pfam.xfam.org/family/PF08563" xlink:title="P53 transactivation motif"><rect fill="#2dcf00" x="0" y="0" width="81.000000" height="24.000000" filter="url(#ds)"/><text style="font-size:12px;fill:#ffffff;" text-anchor="middle" x="40.500000" y="16.000000">P53_TAD</text></a></g>
<g transform="translate(335.625000,57.000000)"><a xlink:href="http://pfam.xfam.org/family/PF00870" xlink:title="P53 DNA-binding domain"><rect fill="#ff5353" x="0" y="0" width="654.750000" height="24.000000" filter="url(#ds)"/><text style="font-size:12px;fill:#ffffff;" text-anchor="middle" x="327.375000" y="16.000000">P53 DNA-binding domain</text></a></g>
<g transform="translate(1091.625000,57.000000)"><a xlink:href="http://pfam.xfam.org/family/PF07710" xlink:title="P53 tetramerisation motif"><rect fill="#5b5bff" x="0" y="0" width="131.625000" height="24.000000" filter="url(#ds)"/><text style="font-size:12px;fill:#ffffff;" text-anchor="middle" x="65.812500" y="16.000000">P53_tetramer</text></a></g>
<g class="axis">
<line x1="15.000000" x2="1341.375000" y1="91.000000" y2="91.000000" stroke="#AAAAAA" /><line x1="15.000000" x2="15.000000" y1="91.000000" y2="96.000000" stroke="#AAAAAA" /><line x1="31.875000" x2="31.875000" y1="91.000000" y2="96.000000" stroke="#AAAAAA" /><text style="font-size:10px;fill:#000000;" text-anchor="middle" x="31.875000" y="106.000000">5</text><line x1="112.875000" x2="112.875000" y1="91.000000" y2="96.000000" stroke="#AAAAAA" /><text style="font-size:10px;fill:#000000;" text-anchor="middle" x="112.875000" y="106.000000">29</text><line x1="335.625000" x2="335.625000" y1="91.000000" y2="96.000000" stroke="#AAAAAA" /><text style="font-size:10px;fill:#000000;" text-anchor="middle" x="335.625000" y="106.000000">95</text><line x1="966.750000" x2="966.750000" y1="91.000000" y2="96.000000" stroke="#AAAAAA" /><text style="font-size:10px;fill:#000000;" text-anchor="middle" x="966.750000" y="106.000000">282</text><line x1="990.375000" x2="990.375000" y1="91.000000" y2="96.000000" stroke="#AAAAAA" /><text style="font-size:10px;fill:#000000;" text-anchor="middle" x="990.375000" y="106.000000">289</text><line x1="1091.625000" x2="1091.625000" y1="91.000000" y2="96.000000" stroke="#AAAAAA" /><text style="font-size:10px;fill:#000000;" text-anchor="middle" x="1091.625000" y="106.000000">319</text><line x1="1223.250000" x2="1223.250000" y1="91.000000" y2="96.000000" stroke="#AAAAAA" /><text style="font-size:10px;fill:#000000;" text-anchor="middle" x="1223.250000" y="106.000000">358</text><line x1="1341.375000" x2="1341.375000" y1="91.000000" y2="96.000000" stroke="#AAAAAA" /><text style="font-size:10px;fill:#000000;" text-anchor="middle" x="1341.375000" y="106.000000">393</text></g>
</svg>
