<?xml version='1.0'?>
<svg xmlns="http://www.w3.org/2000/svg" xmlns:xlink="http://www.w3.org/1999/xlink" width="12527.625000" height="111.000000">
<defs>
  <filter id="ds" x="0" y="0">
    <feOffset in="SourceAlpha" dx="2" dy="2" />
    <feComponentTransfer><feFuncA type="linear" slope="0.2"/></feComponentTransfer>
    <feGaussianBlur result="blurOut" stdDeviation="1" />
    <feBlend in="SourceGraphic" in2="blurOut" mode="normal" />
  </filter>
  <pattern id="disordered-hatch" patternUnits="userSpaceOnUse" width="4" height="4">
    <path d="M-1,1 l2,-2 M0,4 l4,-4 M3,5 l2,-2" stroke="#000000" opacity="0.3" />
  </pattern>
</defs>
<line x1="11425.875000" x2="11425.875000" y1="34.000000" y2="62.000000" stroke="#BABDB6" stroke-width="2"/><a xlink:title="p.R3381_Q3388del"><circle cx="11425.875000" cy="34.000000" r="4.000000" fill="#0000ff" /></a><g transform="translate(11425.875000,34.000000) rotate(-30)"><text style="font-size:10px;fill:#555;" text-anchor="middle" x="0" y="-6.000000">p.R3381_Q3388del</text></g><a xlink:title="ZFHX3_HUMAN, Zinc finger homeobox protein 3 (3703aa)"><rect fill="#BABDB6" x="15.000000" y="62.000000" width="12497.625000" height="14.000000"/></a><g transform="translate(2465.250000,57.000000)"><a xlink:href="http://pfam.xfam.org/family/PF12874" xlink:title="Zinc-finger of C2H2 type"><rect fill="#2dcf00" x="0" y="0" width="81.000000" height="24.000000" filter="url(#ds)"/><text style="font-size:12px;fill:#ffffff;" text-anchor="middle" x="40.500000" y="16.000000">zf-met</text></a></g>
<g transform="translate(5401.500000,57.000000)"><a xlink:href="http://pfam.xfam.org/family/PF00096" xlink:title="Zinc finger, C2H2 type"><rect fill="#ff5353" x="0" y="0" width="81.000000" height="24.000000" filter="url(#ds)"/><text style="font-size:12px;fill:#ffffff;" text-anchor="middle" x="40.500000" y="16.000000">zf-C2H2</text></a></g>
<g transform="translate(7257.750000,57.000000)"><a xlink:href="http://pfam.xfam.org/family/PF00046" xlink:title="Homeobox domain"><rect fill="#5b5bff" x="0" y="0" width="189.000000" height="24.000000" filter="url(#ds)"/><text style="font-size:12px;fill:#ffffff;" text-anchor="middle" x="94.500000" y="16.000000">Homeobox domain</text></a></g>
<g transform="translate(7585.125000,57.000000)"><a xlink:href="http://pfam.xfam.org/family/PF00046" xlink:title="Homeobox domain"><rect fill="#5b5bff" x="0" y="0" width="189.000000" height="24.000000" filter="url(#ds)"/><text style="font-size:12px;fill:#ffffff;" text-anchor="middle" x="94.500000" y="16.000000">Homeobox domain</text></a></g>
<g transform="translate(8931.750000,57.000000)"><a xlink:href="http://pfam.xfam.org/family/PF00046" xlink:title="Homeobox domain"><rect fill="#5b5bff" x="0" y="0" width="189.000000" height="24.000000" filter="url(#ds)"/><text style="font-size:12px;fill:#ffffff;" text-anchor="middle" x="94.500000" y="16.000000">Homeobox domain</text></a></g>
<g transform="translate(9961.125000,57.000000)"><a xlink:href="http://pfam.xfam.org/family/PF00046" xlink:title="Homeobox domain"><rect fill="#5b5bff" x="0" y="0" width="189.000000" height="24.000000" filter="url(#ds)"/><text style="font-size:12px;fill:#ffffff;" text-anchor="middle" x="94.500000" y="16.000000">Homeobox domain</text></a></g>
<g class="axis">
<line x1="15.000000" x2="12512.625000" y1="91.000000" y2="91.000000" stroke="#AAAAAA" /><line x1="15.000000" x2="15.000000" y1="91.000000" y2="96.000000" stroke="#AAAAAA" /><line x1="15.000000" x2="15.000000" y1="91.000000" y2="96.000000" stroke="#AAAAAA" /><text style="font-size:10px;fill:#000000;" text-anchor="middle" x="15.000000" y="106.000000">0</text><line x1="2465.250000" x2="2465.250000" y1="91.000000" y2="96.000000" stroke="#AAAAAA" /><text style="font-size:10px;fill:#000000;" text-anchor="middle" x="2465.250000" y="106.000000">726</text><line x1="2546.250000" x2="2546.250000" y1="91.000000" y2="96.000000" stroke="#AAAAAA" /><text style="font-size:10px;fill:#000000;" text-anchor="middle" x="2546.250000" y="106.000000">750</text><line x1="5401.500000" x2="5401.500000" y1="91.000000" y2="96.000000" stroke="#AAAAAA" /><text style="font-size:10px;fill:#000000;" text-anchor="middle" x="5401.500000" y="106.000000">1596</text><line x1="5482.500000" x2="5482.500000" y1="91.000000" y2="96.000000" stroke="#AAAAAA" /><text style="font-size:10px;fill:#000000;" text-anchor="middle" x="5482.500000" y="106.000000">1620</text><line x1="7257.750000" x2="7257.750000" y1="91.000000" y2="96.000000" stroke="#AAAAAA" /><text style="font-size:10px;fill:#000000;" text-anchor="middle" x="7257.750000" y="106.000000">2146</text><line x1="7446.750000" x2="7446.750000" y1="91.000000" y2="96.000000" stroke="#AAAAAA" /><text style="font-size:10px;fill:#000000;" text-anchor="middle" x="7446.750000" y="106.000000">2202</text><line x1="7585.125000" x2="7585.125000" y1="91.000000" y2="96.000000" stroke="#AAAAAA" /><text style="font-size:10px;fill:#000000;" text-anchor="middle" x="7585.125000" y="106.000000">2243</text><line x1="7774.125000" x2="7774.125000" y1="91.000000" y2="96.000000" stroke="#AAAAAA" /><text style="font-size:10px;fill:#000000;" text-anchor="middle" x="7774.125000" y="106.000000">2299</text><line x1="8931.750000" x2="8931.750000" y1="91.000000" y2="96.000000" stroke="#AAAAAA" /><text style="font-size:10px;fill:#000000;" text-anchor="middle" x="8931.750000" y="106.000000">2642</text><line x1="9120.750000" x2="9120.750000" y1="91.000000" y2="96.000000" stroke="#AAAAAA" /><text style="font-size:10px;fill:#000000;" text-anchor="middle" x="9120.750000" y="106.000000">2698</text><line x1="9961.125000" x2="9961.125000" y1="91.000000" y2="96.000000" stroke="#AAAAAA" /><text style="font-size:10px;fill:#000000;" text-anchor="middle" x="9961.125000" y="106.000000">2947</text><line x1="10150.125000" x2="10150.125000" y1="91.000000" y2="96.000000" stroke="#AAAAAA" /><text style="font-size:10px;fill:#000000;" text-anchor="middle" x="10150.125000" y="106.000000">3003</text><line x1="11425.875000" x2="11425.875000" y1="91.000000" y2="96.000000" stroke="#AAAAAA" /><text style="font-size:10px;fill:#000000;" text-anchor="middle" x="11425.875000" y="106.000000">3381</text><line x1="12512.625000" x2="12512.625000" y1="91.000000" y2="96.000000" stroke="#AAAAAA" /><text style="font-size:10px;fill:#000000;" text-anchor="middle" x="12512.625000" y="106.000000">3703</text></g>
</svg>
