<?xml version='1.0'?>
<svg xmlns="http://www.w3.org/2000/svg" xmlns:xlink="http://www.w3.org/1999/xlink" width="524.102041" height="111.000000">
<defs>
  <filter id="ds" x="0" y="0">
    <feOffset in="SourceAlpha" dx="2" dy="2" />
    <feComponentTransfer><feFuncA type="linear" slope="0.2"/></feComponentTransfer>
    <feGaussianBlur result="blurOut" stdDeviation="1" />
    <feBlend in="SourceGraphic" in2="blurOut" mode="normal" />
  </filter>
  <pattern id="disordered-hatch" patternUnits="userSpaceOnUse" width="4" height="4">
    <path d="M-1,1 l2,-2 M0,4 l4,-4 M3,5 l2,-2" stroke="#000000" opacity="0.3" />
  </pattern>
</defs>
<line x1="396.564626" x2="396.564626" y1="34.000000" y2="62.000000" stroke="#BABDB6" stroke-width="2"/><a xlink:title="p.T790Tfs*2"><circle cx="396.564626" cy="34.000000" r="4.000000" fill="#ff0000" /></a><g transform="translate(396.564626,34.000000) rotate(-30)"><text style="font-size:10px;fill:#555;" text-anchor="middle" x="0" y="-6.000000">p.T790Tfs*2</text></g><a xlink:title="RHGBA_HUMAN, Rho GTPase-activating protein 11A (1023aa)"><rect fill="#BABDB6" x="15.000000" y="62.000000" width="494.102041" height="14.000000"/></a><g transform="translate(46.877551,57.000000)"><a xlink:href="http://pfam.xfam.org/family/PF00620" xlink:title="RhoGAP domain"><rect fill="#2dcf00" x="0" y="0" width="71.000000" height="24.000000" filter="url(#ds)"/><text style="font-size:12px;fill:#ffffff;" text-anchor="middle" x="35.500000" y="16.000000">RhoGAP</text></a></g>
<g class="axis">
<line x1="15.000000" x2="509.102041" y1="91.000000" y2="91.000000" stroke="#AAAAAA" /><line x1="15.000000" x2="15.000000" y1="91.000000" y2="96.000000" stroke="#AAAAAA" /><line x1="15.000000" x2="15.000000" y1="91.000000" y2="96.000000" stroke="#AAAAAA" /><text style="font-size:10px;fill:#000000;" text-anchor="middle" x="15.000000" y="106.000000">0</text><line x1="46.877551" x2="46.877551" y1="91.000000" y2="96.000000" stroke="#AAAAAA" /><text style="font-size:10px;fill:#000000;" text-anchor="middle" x="46.877551" y="106.000000">66</text><line x1="117.877551" x2="117.877551" y1="91.000000" y2="96.000000" stroke="#AAAAAA" /><text style="font-size:10px;fill:#000000;" text-anchor="middle" x="117.877551" y="106.000000">213</text><line x1="396.564626" x2="396.564626" y1="91.000000" y2="96.000000" stroke="#AAAAAA" /><text style="font-size:10px;fill:#000000;" text-anchor="middle" x="396.564626" y="106.000000">790</text><line x1="509.102041" x2="509.102041" y1="91.000000" y2="96.000000" stroke="#AAAAAA" /><text style="font-size:10px;fill:#000000;" text-anchor="middle" x="509.102041" y="106.000000">1023</text></g>
</svg>
