<?xml version='1.0'?>
<svg xmlns="http://www.w3.org/2000/svg" xmlns:xlink="http://www.w3.org/1999/xlink" width="5057.612903" height="111.000000">
<defs>
  <filter id="ds" x="0" y="0">
    <feOffset in="SourceAlpha" dx="2" dy="2" />
    <feComponentTransfer><feFuncA type="linear" slope="0.2"/></feComponentTransfer>
    <feGaussianBlur result="blurOut" stdDeviation="1" />
    <feBlend in="SourceGraphic" in2="blurOut" mode="normal" />
  </filter>
  <pattern id="disordered-hatch" patternUnits="userSpaceOnUse" width="4" height="4">
    <path d="M-1,1 l2,-2 M0,4 l4,-4 M3,5 l2,-2" stroke="#000000" opacity="0.3" />
  </pattern>
</defs>
<line x1="367.064516" x2="367.064516" y1="34.000000" y2="62.000000" stroke="#BABDB6" stroke-width="2"/><a xlink:title="p.S214Pfs*16"><circle cx="367.064516" cy="34.000000" r="4.000000" fill="#ff0000" /></a><g transform="translate(367.064516,34.000000) rotate(-30)"><text style="font-size:10px;fill:#555;" text-anchor="middle" x="0" y="-6.000000">p.S214Pfs*16</text></g><line x1="873.774194" x2="873.774194" y1="34.000000" y2="62.000000" stroke="#BABDB6" stroke-width="2"/><a xlink:title="p.E522Ifs"><circle cx="873.774194" cy="34.000000" r="4.000000" fill="#ff0000" /></a><g transform="translate(873.774194,34.000000) rotate(-30)"><text style="font-size:10px;fill:#555;" text-anchor="middle" x="0" y="-6.000000">p.E522Ifs</text></g><line x1="2074.741935" x2="2074.741935" y1="34.000000" y2="62.000000" stroke="#BABDB6" stroke-width="2"/><a xlink:title="p.Y1252Qfs*4"><circle cx="2074.741935" cy="34.000000" r="4.000000" fill="#ff0000" /></a><g transform="translate(2074.741935,34.000000) rotate(-30)"><text style="font-size:10px;fill:#555;" text-anchor="middle" x="0" y="-6.000000">p.Y1252Qfs*4</text></g><line x1="2999.322581" x2="2999.322581" y1="34.000000" y2="62.000000" stroke="#BABDB6" stroke-width="2"/><a xlink:title="p.L1814Wfs*14"><circle cx="2999.322581" cy="34.000000" r="4.000000" fill="#ff0000" /></a><g transform="translate(2999.322581,34.000000) rotate(-30)"><text style="font-size:10px;fill:#555;" text-anchor="middle" x="0" y="-6.000000">p.L1814Wfs*14</text></g><line x1="3779.129032" x2="3779.129032" y1="34.000000" y2="62.000000" stroke="#BABDB6" stroke-width="2"/><a xlink:title="p.V2288fs*1"><circle cx="3779.129032" cy="34.000000" r="4.000000" fill="#ff0000" /></a><g transform="translate(3779.129032,34.000000) rotate(-30)"><text style="font-size:10px;fill:#555;" text-anchor="middle" x="0" y="-6.000000">p.V2288fs*1</text></g><line x1="3851.516129" x2="3851.516129" y1="34.000000" y2="62.000000" stroke="#BABDB6" stroke-width="2"/><a xlink:title="p.L2332fs*40"><circle cx="3851.516129" cy="34.000000" r="4.000000" fill="#ff0000" /></a><g transform="translate(3851.516129,34.000000) rotate(-30)"><text style="font-size:10px;fill:#555;" text-anchor="middle" x="0" y="-6.000000">p.L2332fs*40</text></g><line x1="4007.806452" x2="4007.806452" y1="34.000000" y2="62.000000" stroke="#BABDB6" stroke-width="2"/><a xlink:title="p.L2427_R2428del"><circle cx="4007.806452" cy="34.000000" r="4.000000" fill="#0000ff" /></a><g transform="translate(4007.806452,34.000000) rotate(-30)"><text style="font-size:10px;fill:#555;" text-anchor="middle" x="0" y="-6.000000">p.L2427_R2428del</text></g><line x1="4205.225806" x2="4205.225806" y1="34.000000" y2="62.000000" stroke="#BABDB6" stroke-width="2"/><a xlink:title="p.R2547_S2549del3"><circle cx="4205.225806" cy="34.000000" r="4.000000" fill="#0000ff" /></a><g transform="translate(4205.225806,34.000000) rotate(-30)"><text style="font-size:10px;fill:#555;" text-anchor="middle" x="0" y="-6.000000">p.R2547_S2549del3</text></g><line x1="4540.838710" x2="4540.838710" y1="34.000000" y2="62.000000" stroke="#BABDB6" stroke-width="2"/><a xlink:title="p.T2751Sfs*54"><circle cx="4540.838710" cy="34.000000" r="4.000000" fill="#ff0000" /></a><g transform="translate(4540.838710,34.000000) rotate(-30)"><text style="font-size:10px;fill:#555;" text-anchor="middle" x="0" y="-6.000000">p.T2751Sfs*54</text></g><line x1="4547.419355" x2="4547.419355" y1="34.000000" y2="62.000000" stroke="#BABDB6" stroke-width="2"/><a xlink:title="p.Y2755Cfs"><circle cx="4547.419355" cy="34.000000" r="4.000000" fill="#ff0000" /></a><g transform="translate(4547.419355,34.000000) rotate(-30)"><text style="font-size:10px;fill:#555;" text-anchor="middle" x="0" y="-6.000000">p.Y2755Cfs</text></g><line x1="4915.935484" x2="4915.935484" y1="34.000000" y2="62.000000" stroke="#BABDB6" stroke-width="2"/><a xlink:title="p.E2979Afs*9"><circle cx="4915.935484" cy="34.000000" r="4.000000" fill="#ff0000" /></a><g transform="translate(4915.935484,34.000000) rotate(-30)"><text style="font-size:10px;fill:#555;" text-anchor="middle" x="0" y="-6.000000">p.E2979Afs*9</text></g><a xlink:title="ATM_HUMAN, Serine-protein kinase ATM EC=2.7.11.1 (3056aa)"><rect fill="#BABDB6" x="15.000000" y="62.000000" width="5027.612903" height="14.000000"/></a><g transform="translate(28.161290,57.000000)"><a xlink:href="http://pfam.xfam.org/family/PF11640" xlink:title="Telomere-length maintenance and DNA damage repair"><rect fill="#2dcf00" x="0" y="0" width="258.290323" height="24.000000" filter="url(#ds)"/><text style="font-size:12px;fill:#ffffff;" text-anchor="middle" x="129.145161" y="16.000000">TAN</text></a></g>
<g transform="translate(3463.258065,57.000000)"><a xlink:href="http://pfam.xfam.org/family/PF02259" xlink:title="FAT domain"><rect fill="#ff5353" x="0" y="0" width="646.548387" height="24.000000" filter="url(#ds)"/><text style="font-size:12px;fill:#ffffff;" text-anchor="middle" x="323.274194" y="16.000000">FAT domain</text></a></g>
<g transform="translate(4478.322581,57.000000)"><a xlink:href="http://pfam.xfam.org/family/PF00454" xlink:title="Phosphatidylinositol 3- and 4-kinase"><rect fill="#5b5bff" x="0" y="0" width="409.645161" height="24.000000" filter="url(#ds)"/><text style="font-size:12px;fill:#ffffff;" text-anchor="middle" x="204.822581" y="16.000000">Phosphatidylinositol 3- and 4-kinase</text></a></g>
<g transform="translate(4991.612903,57.000000)"><a xlink:href="http://pfam.xfam.org/family/PF02260" xlink:title="FATC domain"><rect fill="#ebd61d" x="0" y="0" width="51.000000" height="24.000000" filter="url(#ds)"/><text style="font-size:12px;fill:#ffffff;" text-anchor="middle" x="25.500000" y="16.000000">FATC</text></a></g>
<g class="axis">
<line x1="15.000000" x2="5042.612903" y1="91.000000" y2="91.000000" stroke="#AAAAAA" /><line x1="15.000000" x2="15.000000" y1="91.000000" y2="96.000000" stroke="#AAAAAA" /><line x1="28.161290" x2="28.161290" y1="91.000000" y2="96.000000" stroke="#AAAAAA" /><text style="font-size:10px;fill:#000000;" text-anchor="middle" x="28.161290" y="106.000000">8</text><line x1="286.451613" x2="286.451613" y1="91.000000" y2="96.000000" stroke="#AAAAAA" /><text style="font-size:10px;fill:#000000;" text-anchor="middle" x="286.451613" y="106.000000">165</text><line x1="367.064516" x2="367.064516" y1="91.000000" y2="96.000000" stroke="#AAAAAA" /><text style="font-size:10px;fill:#000000;" text-anchor="middle" x="367.064516" y="106.000000">214</text><line x1="873.774194" x2="873.774194" y1="91.000000" y2="96.000000" stroke="#AAAAAA" /><text style="font-size:10px;fill:#000000;" text-anchor="middle" x="873.774194" y="106.000000">522</text><line x1="2074.741935" x2="2074.741935" y1="91.000000" y2="96.000000" stroke="#AAAAAA" /><text style="font-size:10px;fill:#000000;" text-anchor="middle" x="2074.741935" y="106.000000">1252</text><line x1="2999.322581" x2="2999.322581" y1="91.000000" y2="96.000000" stroke="#AAAAAA" /><text style="font-size:10px;fill:#000000;" text-anchor="middle" x="2999.322581" y="106.000000">1814</text><line x1="3463.258065" x2="3463.258065" y1="91.000000" y2="96.000000" stroke="#AAAAAA" /><text style="font-size:10px;fill:#000000;" text-anchor="middle" x="3463.258065" y="106.000000">2096</text><line x1="3779.129032" x2="3779.129032" y1="91.000000" y2="96.000000" stroke="#AAAAAA" /><text style="font-size:10px;fill:#000000;" text-anchor="middle" x="3779.129032" y="106.000000">2288</text><line x1="3851.516129" x2="3851.516129" y1="91.000000" y2="96.000000" stroke="#AAAAAA" /><text style="font-size:10px;fill:#000000;" text-anchor="middle" x="3851.516129" y="106.000000">2332</text><line x1="4007.806452" x2="4007.806452" y1="91.000000" y2="96.000000" stroke="#AAAAAA" /><text style="font-size:10px;fill:#000000;" text-anchor="middle" x="4007.806452" y="106.000000">2427</text><line x1="4109.806452" x2="4109.806452" y1="91.000000" y2="96.000000" stroke="#AAAAAA" /><text style="font-size:10px;fill:#000000;" text-anchor="middle" x="4109.806452" y="106.000000">2489</text><line x1="4205.225806" x2="4205.225806" y1="91.000000" y2="96.000000" stroke="#AAAAAA" /><text style="font-size:10px;fill:#000000;" text-anchor="middle" x="4205.225806" y="106.000000">2547</text><line x1="4478.322581" x2="4478.322581" y1="91.000000" y2="96.000000" stroke="#AAAAAA" /><text style="font-size:10px;fill:#000000;" text-anchor="middle" x="4478.322581" y="106.000000">2713</text><line x1="4540.838710" x2="4540.838710" y1="91.000000" y2="96.000000" stroke="#AAAAAA" /><text style="font-size:10px;fill:#000000;" text-anchor="middle" x="4540.838710" y="106.000000">2751</text><line x1="4887.967742" x2="4887.967742" y1="91.000000" y2="96.000000" stroke="#AAAAAA" /><text style="font-size:10px;fill:#000000;" text-anchor="middle" x="4887.967742" y="106.000000">2962</text><line x1="4915.935484" x2="4915.935484" y1="91.000000" y2="96.000000" stroke="#AAAAAA" /><text style="font-size:10px;fill:#000000;" text-anchor="middle" x="4915.935484" y="106.000000">2979</text><line x1="4991.612903" x2="4991.612903" y1="91.000000" y2="96.000000" stroke="#AAAAAA" /><text style="font-size:10px;fill:#000000;" text-anchor="middle" x="4991.612903" y="106.000000">3025</text><line x1="5042.612903" x2="5042.612903" y1="91.000000" y2="96.000000" stroke="#AAAAAA" /><text style="font-size:10px;fill:#000000;" text-anchor="middle" x="5042.612903" y="106.000000">3056</text></g>
</svg>
