<?xml version='1.0'?>
<svg xmlns="http://www.w3.org/2000/svg" xmlns:xlink="http://www.w3.org/1999/xlink" width="1256.203125" height="111.000000">
<defs>
  <filter id="ds" x="0" y="0">
    <feOffset in="SourceAlpha" dx="2" dy="2" />
    <feComponentTransfer><feFuncA type="linear" slope="0.2"/></feComponentTransfer>
    <feGaussianBlur result="blurOut" stdDeviation="1" />
    <feBlend in="SourceGraphic" in2="blurOut" mode="normal" />
  </filter>
  <pattern id="disordered-hatch" patternUnits="userSpaceOnUse" width="4" height="4">
    <path d="M-1,1 l2,-2 M0,4 l4,-4 M3,5 l2,-2" stroke="#000000" opacity="0.3" />
  </pattern>
</defs>
<line x1="581.546875" x2="581.546875" y1="34.000000" y2="62.000000" stroke="#BABDB6" stroke-width="2"/><a xlink:title="p.L359_P365del"><circle cx="581.546875" cy="34.000000" r="4.000000" fill="#0000ff" /></a><g transform="translate(581.546875,34.000000) rotate(-30)"><text style="font-size:10px;fill:#555;" text-anchor="middle" x="0" y="-6.000000">p.L359_P365del</text></g><a xlink:title="BARD1_HUMAN, BRCA1-associated RING domain protein 1 (777aa)"><rect fill="#BABDB6" x="15.000000" y="62.000000" width="1226.203125" height="14.000000"/></a><g transform="translate(79.703125,57.000000)"><a xlink:href="http://pfam.xfam.org/family/PF14835" xlink:title="zf-RING of BARD1-type protein"><rect fill="#2dcf00" x="0" y="0" width="101.000000" height="24.000000" filter="url(#ds)"/><text style="font-size:12px;fill:#ffffff;" text-anchor="middle" x="50.500000" y="16.000000">zf-RING_6</text></a></g>
<g transform="translate(688.859375,57.000000)"><a xlink:href="http://pfam.xfam.org/family/PF00023" xlink:title="Ankyrin repeat"><rect fill="#ff5353" x="0" y="0" width="50.500000" height="24.000000" filter="url(#ds)"/><text style="font-size:12px;fill:#ffffff;" text-anchor="middle" x="25.250000" y="16.000000">Ank</text></a></g>
<g transform="translate(740.937500,57.000000)"><a xlink:href="http://pfam.xfam.org/family/PF00023" xlink:title="Ankyrin repeat"><rect fill="#ff5353" x="0" y="0" width="48.921875" height="24.000000" filter="url(#ds)"/><text style="font-size:12px;fill:#ffffff;" text-anchor="middle" x="24.460938" y="16.000000">Ank</text></a></g>
<g transform="translate(794.593750,57.000000)"><a xlink:href="http://pfam.xfam.org/family/PF00023" xlink:title="Ankyrin repeat"><rect fill="#ff5353" x="0" y="0" width="48.921875" height="24.000000" filter="url(#ds)"/><text style="font-size:12px;fill:#ffffff;" text-anchor="middle" x="24.460938" y="16.000000">Ank</text></a></g>
<g class="axis">
<line x1="15.000000" x2="1241.203125" y1="91.000000" y2="91.000000" stroke="#AAAAAA" /><line x1="15.000000" x2="15.000000" y1="91.000000" y2="96.000000" stroke="#AAAAAA" /><line x1="15.000000" x2="15.000000" y1="91.000000" y2="96.000000" stroke="#AAAAAA" /><text style="font-size:10px;fill:#000000;" text-anchor="middle" x="15.000000" y="106.000000">0</text><line x1="79.703125" x2="79.703125" y1="91.000000" y2="96.000000" stroke="#AAAAAA" /><text style="font-size:10px;fill:#000000;" text-anchor="middle" x="79.703125" y="106.000000">41</text><line x1="180.703125" x2="180.703125" y1="91.000000" y2="96.000000" stroke="#AAAAAA" /><text style="font-size:10px;fill:#000000;" text-anchor="middle" x="180.703125" y="106.000000">105</text><line x1="581.546875" x2="581.546875" y1="91.000000" y2="96.000000" stroke="#AAAAAA" /><text style="font-size:10px;fill:#000000;" text-anchor="middle" x="581.546875" y="106.000000">359</text><line x1="688.859375" x2="688.859375" y1="91.000000" y2="96.000000" stroke="#AAAAAA" /><text style="font-size:10px;fill:#000000;" text-anchor="middle" x="688.859375" y="106.000000">427</text><line x1="739.359375" x2="739.359375" y1="91.000000" y2="96.000000" stroke="#AAAAAA" /><text style="font-size:10px;fill:#000000;" text-anchor="middle" x="739.359375" y="106.000000">459</text><line x1="789.859375" x2="789.859375" y1="91.000000" y2="96.000000" stroke="#AAAAAA" /><text style="font-size:10px;fill:#000000;" text-anchor="middle" x="789.859375" y="106.000000">491</text><line x1="843.515625" x2="843.515625" y1="91.000000" y2="96.000000" stroke="#AAAAAA" /><text style="font-size:10px;fill:#000000;" text-anchor="middle" x="843.515625" y="106.000000">525</text><line x1="1241.203125" x2="1241.203125" y1="91.000000" y2="96.000000" stroke="#AAAAAA" /><text style="font-size:10px;fill:#000000;" text-anchor="middle" x="1241.203125" y="106.000000">777</text></g>
</svg>
