<?xml version='1.0'?>
<svg xmlns="http://www.w3.org/2000/svg" xmlns:xlink="http://www.w3.org/1999/xlink" width="430.000000" height="123.500000">
<defs>
  <filter id="ds" x="0" y="0">
    <feOffset in="SourceAlpha" dx="2" dy="2" />
    <feComponentTransfer><feFuncA type="linear" slope="0.2"/></feComponentTransfer>
    <feGaussianBlur result="blurOut" stdDeviation="1" />
    <feBlend in="SourceGraphic" in2="blurOut" mode="normal" />
  </filter>
  <pattern id="disordered-hatch" patternUnits="userSpaceOnUse" width="4" height="4">
    <path d="M-1,1 l2,-2 M0,4 l4,-4 M3,5 l2,-2" stroke="#000000" opacity="0.3" />
  </pattern>
</defs>
<line x1="93.969957" x2="93.969957" y1="34.000000" y2="74.500000" stroke="#BABDB6" stroke-width="2"/><a xlink:title="p.I46Yfs"><circle cx="93.969957" cy="34.000000" r="4.000000" fill="#ff0000" /></a><g transform="translate(93.969957,34.000000) rotate(-30)"><text style="font-size:10px;fill:#555;" text-anchor="middle" x="0" y="-6.000000">p.I46Yfs</text></g><line x1="93.969957" x2="93.969957" y1="46.500000" y2="74.500000" stroke="#BABDB6" stroke-width="2"/><a xlink:title="p.I46Nfs"><circle cx="93.969957" cy="46.500000" r="4.000000" fill="#ff0000" /></a><g transform="translate(93.969957,46.500000) rotate(-30)"><text style="font-size:10px;fill:#555;" text-anchor="middle" x="0" y="-6.000000">p.I46Nfs</text></g><line x1="109.420601" x2="109.420601" y1="46.500000" y2="74.500000" stroke="#BABDB6" stroke-width="2"/><a xlink:title="p.I55Nfs"><circle cx="109.420601" cy="46.500000" r="4.000000" fill="#ff0000" /></a><g transform="translate(109.420601,46.500000) rotate(-30)"><text style="font-size:10px;fill:#555;" text-anchor="middle" x="0" y="-6.000000">p.I55Nfs</text></g><line x1="148.905579" x2="148.905579" y1="46.500000" y2="74.500000" stroke="#BABDB6" stroke-width="2"/><a xlink:title="p.G78Rfs"><circle cx="148.905579" cy="46.500000" r="4.000000" fill="#ff0000" /></a><g transform="translate(148.905579,46.500000) rotate(-30)"><text style="font-size:10px;fill:#555;" text-anchor="middle" x="0" y="-6.000000">p.G78Rfs</text></g><line x1="214.141631" x2="214.141631" y1="46.500000" y2="74.500000" stroke="#BABDB6" stroke-width="2"/><a xlink:title="p.G116Dfs"><circle cx="214.141631" cy="46.500000" r="4.000000" fill="#ff0000" /></a><g transform="translate(214.141631,46.500000) rotate(-30)"><text style="font-size:10px;fill:#555;" text-anchor="middle" x="0" y="-6.000000">p.G116Dfs</text></g><line x1="245.042918" x2="245.042918" y1="34.000000" y2="74.500000" stroke="#BABDB6" stroke-width="2"/><a xlink:title="p.S134Lfs"><circle cx="245.042918" cy="34.000000" r="4.000000" fill="#ff0000" /></a><g transform="translate(245.042918,34.000000) rotate(-30)"><text style="font-size:10px;fill:#555;" text-anchor="middle" x="0" y="-6.000000">p.S134Lfs</text></g><line x1="250.193133" x2="250.193133" y1="46.500000" y2="74.500000" stroke="#BABDB6" stroke-width="2"/><a xlink:title="p.N137Ifs"><circle cx="250.193133" cy="46.500000" r="4.000000" fill="#ff0000" /></a><g transform="translate(250.193133,46.500000) rotate(-30)"><text style="font-size:10px;fill:#555;" text-anchor="middle" x="0" y="-6.000000">p.N137Ifs</text></g><line x1="263.927039" x2="263.927039" y1="46.500000" y2="74.500000" stroke="#BABDB6" stroke-width="2"/><a xlink:title="p.E145Lfs"><circle cx="263.927039" cy="46.500000" r="4.000000" fill="#ff0000" /></a><g transform="translate(263.927039,46.500000) rotate(-30)"><text style="font-size:10px;fill:#555;" text-anchor="middle" x="0" y="-6.000000">p.E145Lfs</text></g><line x1="301.695279" x2="301.695279" y1="46.500000" y2="74.500000" stroke="#BABDB6" stroke-width="2"/><a xlink:title="p.S167Pfs"><circle cx="301.695279" cy="46.500000" r="4.000000" fill="#ff0000" /></a><g transform="translate(301.695279,46.500000) rotate(-30)"><text style="font-size:10px;fill:#555;" text-anchor="middle" x="0" y="-6.000000">p.S167Pfs</text></g><line x1="317.145923" x2="317.145923" y1="46.500000" y2="74.500000" stroke="#BABDB6" stroke-width="2"/><a xlink:title="p.V176Nfs"><circle cx="317.145923" cy="46.500000" r="4.000000" fill="#ff0000" /></a><g transform="translate(317.145923,46.500000) rotate(-30)"><text style="font-size:10px;fill:#555;" text-anchor="middle" x="0" y="-6.000000">p.V176Nfs</text></g><line x1="378.948498" x2="378.948498" y1="46.500000" y2="74.500000" stroke="#BABDB6" stroke-width="2"/><a xlink:title="p.E212del"><circle cx="378.948498" cy="46.500000" r="4.000000" fill="#ff0000" /></a><g transform="translate(378.948498,46.500000) rotate(-30)"><text style="font-size:10px;fill:#555;" text-anchor="middle" x="0" y="-6.000000">p.E212del</text></g><a xlink:title="BCL10_HUMAN, B-cell lymphoma/leukemia 10 (233aa)"><rect fill="#BABDB6" x="15.000000" y="74.500000" width="400.000000" height="14.000000"/></a><g transform="translate(45.901288,69.500000)"><a xlink:href="http://pfam.xfam.org/family/PF00619" xlink:title="Caspase recruitment domain"><rect fill="#2dcf00" x="0" y="0" width="144.206009" height="24.000000" filter="url(#ds)"/><text style="font-size:12px;fill:#ffffff;" text-anchor="middle" x="72.103004" y="16.000000">CARD</text></a></g>
<g class="axis">
<line x1="15.000000" x2="415.000000" y1="103.500000" y2="103.500000" stroke="#AAAAAA" /><line x1="15.000000" x2="15.000000" y1="103.500000" y2="108.500000" stroke="#AAAAAA" /><line x1="15.000000" x2="15.000000" y1="103.500000" y2="108.500000" stroke="#AAAAAA" /><text style="font-size:10px;fill:#000000;" text-anchor="middle" x="15.000000" y="118.500000">0</text><line x1="45.901288" x2="45.901288" y1="103.500000" y2="108.500000" stroke="#AAAAAA" /><text style="font-size:10px;fill:#000000;" text-anchor="middle" x="45.901288" y="118.500000">18</text><line x1="93.969957" x2="93.969957" y1="103.500000" y2="108.500000" stroke="#AAAAAA" /><text style="font-size:10px;fill:#000000;" text-anchor="middle" x="93.969957" y="118.500000">46</text><line x1="148.905579" x2="148.905579" y1="103.500000" y2="108.500000" stroke="#AAAAAA" /><text style="font-size:10px;fill:#000000;" text-anchor="middle" x="148.905579" y="118.500000">78</text><line x1="190.107296" x2="190.107296" y1="103.500000" y2="108.500000" stroke="#AAAAAA" /><text style="font-size:10px;fill:#000000;" text-anchor="middle" x="190.107296" y="118.500000">102</text><line x1="214.141631" x2="214.141631" y1="103.500000" y2="108.500000" stroke="#AAAAAA" /><text style="font-size:10px;fill:#000000;" text-anchor="middle" x="214.141631" y="118.500000">116</text><line x1="245.042918" x2="245.042918" y1="103.500000" y2="108.500000" stroke="#AAAAAA" /><text style="font-size:10px;fill:#000000;" text-anchor="middle" x="245.042918" y="118.500000">134</text><line x1="263.927039" x2="263.927039" y1="103.500000" y2="108.500000" stroke="#AAAAAA" /><text style="font-size:10px;fill:#000000;" text-anchor="middle" x="263.927039" y="118.500000">145</text><line x1="301.695279" x2="301.695279" y1="103.500000" y2="108.500000" stroke="#AAAAAA" /><text style="font-size:10px;fill:#000000;" text-anchor="middle" x="301.695279" y="118.500000">167</text><line x1="378.948498" x2="378.948498" y1="103.500000" y2="108.500000" stroke="#AAAAAA" /><text style="font-size:10px;fill:#000000;" text-anchor="middle" x="378.948498" y="118.500000">212</text><line x1="415.000000" x2="415.000000" y1="103.500000" y2="108.500000" stroke="#AAAAAA" /><text style="font-size:10px;fill:#000000;" text-anchor="middle" x="415.000000" y="118.500000">233</text></g>
</svg>
