<?xml version='1.0'?>
<svg xmlns="http://www.w3.org/2000/svg" xmlns:xlink="http://www.w3.org/1999/xlink" width="2414.148148" height="111.000000">
<defs>
  <filter id="ds" x="0" y="0">
    <feOffset in="SourceAlpha" dx="2" dy="2" />
    <feComponentTransfer><feFuncA type="linear" slope="0.2"/></feComponentTransfer>
    <feGaussianBlur result="blurOut" stdDeviation="1" />
    <feBlend in="SourceGraphic" in2="blurOut" mode="normal" />
  </filter>
  <pattern id="disordered-hatch" patternUnits="userSpaceOnUse" width="4" height="4">
    <path d="M-1,1 l2,-2 M0,4 l4,-4 M3,5 l2,-2" stroke="#000000" opacity="0.3" />
  </pattern>
</defs>
<line x1="673.777778" x2="673.777778" y1="34.000000" y2="62.000000" stroke="#BABDB6" stroke-width="2"/><a xlink:title="p.P147Lfs*18"><circle cx="673.777778" cy="34.000000" r="4.000000" fill="#ff0000" /></a><g transform="translate(673.777778,34.000000) rotate(-30)"><text style="font-size:10px;fill:#555;" text-anchor="middle" x="0" y="-6.000000">p.P147Lfs*18</text></g><line x1="1462.518519" x2="1462.518519" y1="34.000000" y2="62.000000" stroke="#BABDB6" stroke-width="2"/><a xlink:title="p.C323Wfs*41"><circle cx="1462.518519" cy="34.000000" r="4.000000" fill="#ff0000" /></a><g transform="translate(1462.518519,34.000000) rotate(-30)"><text style="font-size:10px;fill:#555;" text-anchor="middle" x="0" y="-6.000000">p.C323Wfs*41</text></g><a xlink:title="BMR1A_HUMAN, Bone morphogenetic protein receptor type-1A EC=2.7.11.30 (532aa)"><rect fill="#BABDB6" x="15.000000" y="62.000000" width="2384.148148" height="14.000000"/></a><g transform="translate(279.407407,57.000000)"><a xlink:href="http://pfam.xfam.org/family/PF01064" xlink:title="Activin types I and II receptor domain"><rect fill="#2dcf00" x="0" y="0" width="336.111111" height="24.000000" filter="url(#ds)"/><text style="font-size:12px;fill:#ffffff;" text-anchor="middle" x="168.055556" y="16.000000">Activin_recp</text></a></g>
<g transform="translate(933.703704,57.000000)"><a xlink:href="http://pfam.xfam.org/family/PF08515" xlink:title="Transforming growth factor beta type I GS-motif"><rect fill="#ff5353" x="0" y="0" width="121.000000" height="24.000000" filter="url(#ds)"/><text style="font-size:12px;fill:#ffffff;" text-anchor="middle" x="60.500000" y="16.000000">TGF_beta_GS</text></a></g>
<g transform="translate(1063.666667,57.000000)"><a xlink:href="http://pfam.xfam.org/family/PF07714" xlink:title="Protein tyrosine kinase"><rect fill="#5b5bff" x="0" y="0" width="1286.185185" height="24.000000" filter="url(#ds)"/><text style="font-size:12px;fill:#ffffff;" text-anchor="middle" x="643.092593" y="16.000000">Protein tyrosine kinase</text></a></g>
<g class="axis">
<line x1="15.000000" x2="2399.148148" y1="91.000000" y2="91.000000" stroke="#AAAAAA" /><line x1="15.000000" x2="15.000000" y1="91.000000" y2="96.000000" stroke="#AAAAAA" /><line x1="15.000000" x2="15.000000" y1="91.000000" y2="96.000000" stroke="#AAAAAA" /><text style="font-size:10px;fill:#000000;" text-anchor="middle" x="15.000000" y="106.000000">0</text><line x1="279.407407" x2="279.407407" y1="91.000000" y2="96.000000" stroke="#AAAAAA" /><text style="font-size:10px;fill:#000000;" text-anchor="middle" x="279.407407" y="106.000000">59</text><line x1="615.518519" x2="615.518519" y1="91.000000" y2="96.000000" stroke="#AAAAAA" /><text style="font-size:10px;fill:#000000;" text-anchor="middle" x="615.518519" y="106.000000">134</text><line x1="673.777778" x2="673.777778" y1="91.000000" y2="96.000000" stroke="#AAAAAA" /><text style="font-size:10px;fill:#000000;" text-anchor="middle" x="673.777778" y="106.000000">147</text><line x1="933.703704" x2="933.703704" y1="91.000000" y2="96.000000" stroke="#AAAAAA" /><text style="font-size:10px;fill:#000000;" text-anchor="middle" x="933.703704" y="106.000000">205</text><line x1="1054.703704" x2="1054.703704" y1="91.000000" y2="96.000000" stroke="#AAAAAA" /><text style="font-size:10px;fill:#000000;" text-anchor="middle" x="1054.703704" y="106.000000">232</text><line x1="1462.518519" x2="1462.518519" y1="91.000000" y2="96.000000" stroke="#AAAAAA" /><text style="font-size:10px;fill:#000000;" text-anchor="middle" x="1462.518519" y="106.000000">323</text><line x1="2349.851852" x2="2349.851852" y1="91.000000" y2="96.000000" stroke="#AAAAAA" /><text style="font-size:10px;fill:#000000;" text-anchor="middle" x="2349.851852" y="106.000000">521</text><line x1="2399.148148" x2="2399.148148" y1="91.000000" y2="96.000000" stroke="#AAAAAA" /><text style="font-size:10px;fill:#000000;" text-anchor="middle" x="2399.148148" y="106.000000">532</text></g>
</svg>
