<?xml version='1.0'?>
<svg xmlns="http://www.w3.org/2000/svg" xmlns:xlink="http://www.w3.org/1999/xlink" width="861.191489" height="173.500000">
<defs>
  <filter id="ds" x="0" y="0">
    <feOffset in="SourceAlpha" dx="2" dy="2" />
    <feComponentTransfer><feFuncA type="linear" slope="0.2"/></feComponentTransfer>
    <feGaussianBlur result="blurOut" stdDeviation="1" />
    <feBlend in="SourceGraphic" in2="blurOut" mode="normal" />
  </filter>
  <pattern id="disordered-hatch" patternUnits="userSpaceOnUse" width="4" height="4">
    <path d="M-1,1 l2,-2 M0,4 l4,-4 M3,5 l2,-2" stroke="#000000" opacity="0.3" />
  </pattern>
</defs>
<line x1="523.914894" x2="523.914894" y1="96.500000" y2="124.500000" stroke="#BABDB6" stroke-width="2"/><a xlink:title="p.G469del"><circle cx="523.914894" cy="96.500000" r="4.000000" fill="#ff0000" /></a><g transform="translate(523.914894,96.500000) rotate(-30)"><text style="font-size:10px;fill:#555;" text-anchor="middle" x="0" y="-6.000000">p.G469del</text></g><line x1="541.276596" x2="541.276596" y1="46.500000" y2="124.500000" stroke="#BABDB6" stroke-width="2"/><a xlink:title="p.L485_P490del"><circle cx="541.276596" cy="46.500000" r="4.000000" fill="#0000ff" /></a><g transform="translate(541.276596,46.500000) rotate(-30)"><text style="font-size:10px;fill:#555;" text-anchor="middle" x="0" y="-6.000000">p.L485_P490del</text></g><line x1="542.361702" x2="542.361702" y1="59.000000" y2="124.500000" stroke="#BABDB6" stroke-width="2"/><a xlink:title="p.N486_P490del"><circle cx="542.361702" cy="59.000000" r="4.000000" fill="#0000ff" /></a><g transform="translate(542.361702,59.000000) rotate(-30)"><text style="font-size:10px;fill:#555;" text-anchor="middle" x="0" y="-6.000000">p.N486_P490del</text></g><line x1="544.531915" x2="544.531915" y1="71.500000" y2="124.500000" stroke="#BABDB6" stroke-width="2"/><a xlink:title="p.T488_P492del"><circle cx="544.531915" cy="71.500000" r="4.000000" fill="#0000ff" /></a><g transform="translate(544.531915,71.500000) rotate(-30)"><text style="font-size:10px;fill:#555;" text-anchor="middle" x="0" y="-6.000000">p.T488_P492del</text></g><line x1="544.531915" x2="544.531915" y1="84.000000" y2="124.500000" stroke="#BABDB6" stroke-width="2"/><a xlink:title="p.T488_Q493delinsK"><circle cx="544.531915" cy="84.000000" r="4.000000" fill="#0000ff" /></a><g transform="translate(544.531915,84.000000) rotate(-30)"><text style="font-size:10px;fill:#555;" text-anchor="middle" x="0" y="-6.000000">p.T488_Q493delinsK</text></g><line x1="546.702128" x2="546.702128" y1="96.500000" y2="124.500000" stroke="#BABDB6" stroke-width="2"/><a xlink:title="p.P490_Q494del"><circle cx="546.702128" cy="96.500000" r="4.000000" fill="#0000ff" /></a><g transform="translate(546.702128,96.500000) rotate(-30)"><text style="font-size:10px;fill:#555;" text-anchor="middle" x="0" y="-6.000000">p.P490_Q494del</text></g><line x1="564.063830" x2="564.063830" y1="96.500000" y2="124.500000" stroke="#BABDB6" stroke-width="2"/><a xlink:title="p.R506_K507insVLR"><circle cx="564.063830" cy="96.500000" r="4.000000" fill="#0000ff" /></a><g transform="translate(564.063830,96.500000) rotate(-30)"><text style="font-size:10px;fill:#555;" text-anchor="middle" x="0" y="-6.000000">p.R506_K507insVLR</text></g><line x1="663.893617" x2="663.893617" y1="34.000000" y2="124.500000" stroke="#BABDB6" stroke-width="2"/><a xlink:title="p.A598_T599insV"><circle cx="663.893617" cy="34.000000" r="4.000000" fill="#0000ff" /></a><g transform="translate(663.893617,34.000000) rotate(-30)"><text style="font-size:10px;fill:#555;" text-anchor="middle" x="0" y="-6.000000">p.A598_T599insV</text></g><line x1="664.978723" x2="664.978723" y1="46.500000" y2="124.500000" stroke="#BABDB6" stroke-width="2"/><a xlink:title="p.T599_R603delinsI"><circle cx="664.978723" cy="46.500000" r="4.000000" fill="#0000ff" /></a><g transform="translate(664.978723,46.500000) rotate(-30)"><text style="font-size:10px;fill:#555;" text-anchor="middle" x="0" y="-6.000000">p.T599_R603delinsI</text></g><line x1="664.978723" x2="664.978723" y1="34.000000" y2="124.500000" stroke="#BABDB6" stroke-width="2"/><a xlink:title="p.T599_V600insT"><circle cx="664.978723" cy="34.000000" r="4.000000" fill="#0000ff" /></a><g transform="translate(664.978723,34.000000) rotate(-30)"><text style="font-size:10px;fill:#555;" text-anchor="middle" x="0" y="-6.000000">p.T599_V600insT</text></g><line x1="666.063830" x2="666.063830" y1="84.000000" y2="124.500000" stroke="#BABDB6" stroke-width="2"/><a xlink:title="p.V600_K601delinsE"><circle cx="666.063830" cy="84.000000" r="4.000000" fill="#0000ff" /></a><g transform="translate(666.063830,84.000000) rotate(-30)"><text style="font-size:10px;fill:#555;" text-anchor="middle" x="0" y="-6.000000">p.V600_K601delinsE</text></g><line x1="666.063830" x2="666.063830" y1="71.500000" y2="124.500000" stroke="#BABDB6" stroke-width="2"/><a xlink:title="p.V600delinsYM"><circle cx="666.063830" cy="71.500000" r="4.000000" fill="#ff0000" /></a><g transform="translate(666.063830,71.500000) rotate(-30)"><text style="font-size:10px;fill:#555;" text-anchor="middle" x="0" y="-6.000000">p.V600delinsYM</text></g><line x1="666.063830" x2="666.063830" y1="59.000000" y2="124.500000" stroke="#BABDB6" stroke-width="2"/><a xlink:title="p.V600delinsDFGLAT"><circle cx="666.063830" cy="59.000000" r="4.000000" fill="#ff0000" /></a><g transform="translate(666.063830,59.000000) rotate(-30)"><text style="font-size:10px;fill:#555;" text-anchor="middle" x="0" y="-6.000000">p.V600delinsDFGLAT</text></g><line x1="670.404255" x2="670.404255" y1="96.500000" y2="124.500000" stroke="#BABDB6" stroke-width="2"/><a xlink:title="p.W604del"><circle cx="670.404255" cy="96.500000" r="4.000000" fill="#ff0000" /></a><g transform="translate(670.404255,96.500000) rotate(-30)"><text style="font-size:10px;fill:#555;" text-anchor="middle" x="0" y="-6.000000">p.W604del</text></g><a xlink:title="BRAF_HUMAN, Serine/threonine-protein kinase B-raf EC=2.7.11.1 (766aa)"><rect fill="#BABDB6" x="15.000000" y="124.500000" width="831.191489" height="14.000000"/></a><g transform="translate(184.276596,119.500000)"><a xlink:href="http://pfam.xfam.org/family/PF02196" xlink:title="Raf-like Ras-binding domain"><rect fill="#2dcf00" x="0" y="0" width="74.872340" height="24.000000" filter="url(#ds)"/><text style="font-size:12px;fill:#ffffff;" text-anchor="middle" x="37.436170" y="16.000000">RBD</text></a></g>
<g transform="translate(270.000000,119.500000)"><a xlink:href="http://pfam.xfam.org/family/PF00130" xlink:title="Phorbol esters/diacylglycerol binding domain (C1 domain)"><rect fill="#ff5353" x="0" y="0" width="51.000000" height="24.000000" filter="url(#ds)"/><text style="font-size:12px;fill:#ffffff;" text-anchor="middle" x="25.500000" y="16.000000">C1_1</text></a></g>
<g transform="translate(510.893617,119.500000)"><a xlink:href="http://pfam.xfam.org/family/PF07714" xlink:title="Protein tyrosine kinase"><rect fill="#5b5bff" x="0" y="0" width="278.872340" height="24.000000" filter="url(#ds)"/><text style="font-size:12px;fill:#ffffff;" text-anchor="middle" x="139.436170" y="16.000000">Protein tyrosine kinase</text></a></g>
<g class="axis">
<line x1="15.000000" x2="846.191489" y1="153.500000" y2="153.500000" stroke="#AAAAAA" /><line x1="15.000000" x2="15.000000" y1="153.500000" y2="158.500000" stroke="#AAAAAA" /><line x1="15.000000" x2="15.000000" y1="153.500000" y2="158.500000" stroke="#AAAAAA" /><text style="font-size:10px;fill:#000000;" text-anchor="middle" x="15.000000" y="168.500000">0</text><line x1="184.276596" x2="184.276596" y1="153.500000" y2="158.500000" stroke="#AAAAAA" /><text style="font-size:10px;fill:#000000;" text-anchor="middle" x="184.276596" y="168.500000">156</text><line x1="259.148936" x2="259.148936" y1="153.500000" y2="158.500000" stroke="#AAAAAA" /><text style="font-size:10px;fill:#000000;" text-anchor="middle" x="259.148936" y="168.500000">225</text><line x1="321.000000" x2="321.000000" y1="153.500000" y2="158.500000" stroke="#AAAAAA" /><text style="font-size:10px;fill:#000000;" text-anchor="middle" x="321.000000" y="168.500000">282</text><line x1="523.914894" x2="523.914894" y1="153.500000" y2="158.500000" stroke="#AAAAAA" /><text style="font-size:10px;fill:#000000;" text-anchor="middle" x="523.914894" y="168.500000">469</text><line x1="544.531915" x2="544.531915" y1="153.500000" y2="158.500000" stroke="#AAAAAA" /><text style="font-size:10px;fill:#000000;" text-anchor="middle" x="544.531915" y="168.500000">488</text><line x1="564.063830" x2="564.063830" y1="153.500000" y2="158.500000" stroke="#AAAAAA" /><text style="font-size:10px;fill:#000000;" text-anchor="middle" x="564.063830" y="168.500000">506</text><line x1="663.893617" x2="663.893617" y1="153.500000" y2="158.500000" stroke="#AAAAAA" /><text style="font-size:10px;fill:#000000;" text-anchor="middle" x="663.893617" y="168.500000">598</text><line x1="789.765957" x2="789.765957" y1="153.500000" y2="158.500000" stroke="#AAAAAA" /><text style="font-size:10px;fill:#000000;" text-anchor="middle" x="789.765957" y="168.500000">714</text><line x1="846.191489" x2="846.191489" y1="153.500000" y2="158.500000" stroke="#AAAAAA" /><text style="font-size:10px;fill:#000000;" text-anchor="middle" x="846.191489" y="168.500000">766</text></g>
</svg>
