<?xml version='1.0'?>
<svg xmlns="http://www.w3.org/2000/svg" xmlns:xlink="http://www.w3.org/1999/xlink" width="430.000000" height="111.000000">
<defs>
  <filter id="ds" x="0" y="0">
    <feOffset in="SourceAlpha" dx="2" dy="2" />
    <feComponentTransfer><feFuncA type="linear" slope="0.2"/></feComponentTransfer>
    <feGaussianBlur result="blurOut" stdDeviation="1" />
    <feBlend in="SourceGraphic" in2="blurOut" mode="normal" />
  </filter>
  <pattern id="disordered-hatch" patternUnits="userSpaceOnUse" width="4" height="4">
    <path d="M-1,1 l2,-2 M0,4 l4,-4 M3,5 l2,-2" stroke="#000000" opacity="0.3" />
  </pattern>
</defs>
<line x1="282.178503" x2="282.178503" y1="34.000000" y2="62.000000" stroke="#BABDB6" stroke-width="2"/><a xlink:title="p.G348Efs"><circle cx="282.178503" cy="34.000000" r="4.000000" fill="#ff0000" /></a><g transform="translate(282.178503,34.000000) rotate(-30)"><text style="font-size:10px;fill:#555;" text-anchor="middle" x="0" y="-6.000000">p.G348Efs</text></g><a xlink:title="CASPA_HUMAN, Caspase-10 EC=3.4.22.63 (521aa)"><rect fill="#BABDB6" x="15.000000" y="62.000000" width="400.000000" height="14.000000"/></a><g transform="translate(30.355086,57.000000)"><a xlink:href="http://pfam.xfam.org/family/PF01335" xlink:title="Death effector domain"><rect fill="#2dcf00" x="0" y="0" width="62.188100" height="24.000000" filter="url(#ds)"/><text style="font-size:12px;fill:#ffffff;" text-anchor="middle" x="31.094050" y="16.000000">DED</text></a></g>
<g transform="translate(103.291747,57.000000)"><a xlink:href="http://pfam.xfam.org/family/PF01335" xlink:title="Death effector domain"><rect fill="#2dcf00" x="0" y="0" width="58.349328" height="24.000000" filter="url(#ds)"/><text style="font-size:12px;fill:#ffffff;" text-anchor="middle" x="29.174664" y="16.000000">DED</text></a></g>
<g transform="translate(233.042226,57.000000)"><a xlink:href="http://pfam.xfam.org/family/PF00656" xlink:title="Caspase domain"><rect fill="#ff5353" x="0" y="0" width="165.067179" height="24.000000" filter="url(#ds)"/><text style="font-size:12px;fill:#ffffff;" text-anchor="middle" x="82.533589" y="16.000000">Caspase domain</text></a></g>
<g class="axis">
<line x1="15.000000" x2="415.000000" y1="91.000000" y2="91.000000" stroke="#AAAAAA" /><line x1="15.000000" x2="15.000000" y1="91.000000" y2="96.000000" stroke="#AAAAAA" /><line x1="30.355086" x2="30.355086" y1="91.000000" y2="96.000000" stroke="#AAAAAA" /><text style="font-size:10px;fill:#000000;" text-anchor="middle" x="30.355086" y="106.000000">20</text><line x1="92.543186" x2="92.543186" y1="91.000000" y2="96.000000" stroke="#AAAAAA" /><text style="font-size:10px;fill:#000000;" text-anchor="middle" x="92.543186" y="106.000000">101</text><line x1="161.641075" x2="161.641075" y1="91.000000" y2="96.000000" stroke="#AAAAAA" /><text style="font-size:10px;fill:#000000;" text-anchor="middle" x="161.641075" y="106.000000">191</text><line x1="233.042226" x2="233.042226" y1="91.000000" y2="96.000000" stroke="#AAAAAA" /><text style="font-size:10px;fill:#000000;" text-anchor="middle" x="233.042226" y="106.000000">284</text><line x1="282.178503" x2="282.178503" y1="91.000000" y2="96.000000" stroke="#AAAAAA" /><text style="font-size:10px;fill:#000000;" text-anchor="middle" x="282.178503" y="106.000000">348</text><line x1="415.000000" x2="415.000000" y1="91.000000" y2="96.000000" stroke="#AAAAAA" /><text style="font-size:10px;fill:#000000;" text-anchor="middle" x="415.000000" y="106.000000">521</text></g>
</svg>
