<?xml version='1.0'?>
<svg xmlns="http://www.w3.org/2000/svg" xmlns:xlink="http://www.w3.org/1999/xlink" width="430.000000" height="136.000000">
<defs>
  <filter id="ds" x="0" y="0">
    <feOffset in="SourceAlpha" dx="2" dy="2" />
    <feComponentTransfer><feFuncA type="linear" slope="0.2"/></feComponentTransfer>
    <feGaussianBlur result="blurOut" stdDeviation="1" />
    <feBlend in="SourceGraphic" in2="blurOut" mode="normal" />
  </filter>
  <pattern id="disordered-hatch" patternUnits="userSpaceOnUse" width="4" height="4">
    <path d="M-1,1 l2,-2 M0,4 l4,-4 M3,5 l2,-2" stroke="#000000" opacity="0.3" />
  </pattern>
</defs>
<line x1="18.766478" x2="18.766478" y1="34.000000" y2="87.000000" stroke="#BABDB6" stroke-width="2"/><a xlink:title="p.L5_Q10del"><circle cx="18.766478" cy="34.000000" r="4.000000" fill="#0000ff" /></a><g transform="translate(18.766478,34.000000) rotate(-30)"><text style="font-size:10px;fill:#555;" text-anchor="middle" x="0" y="-6.000000">p.L5_Q10del</text></g><line x1="22.532957" x2="22.532957" y1="34.000000" y2="87.000000" stroke="#BABDB6" stroke-width="2"/><a xlink:title="p.Q10Hfs*11"><circle cx="22.532957" cy="34.000000" r="4.000000" fill="#ff0000" /></a><g transform="translate(22.532957,34.000000) rotate(-30)"><text style="font-size:10px;fill:#555;" text-anchor="middle" x="0" y="-6.000000">p.Q10Hfs*11</text></g><line x1="24.039548" x2="24.039548" y1="34.000000" y2="87.000000" stroke="#BABDB6" stroke-width="2"/><a xlink:title="p.N12Rfs*7"><circle cx="24.039548" cy="34.000000" r="4.000000" fill="#ff0000" /></a><g transform="translate(24.039548,34.000000) rotate(-30)"><text style="font-size:10px;fill:#555;" text-anchor="middle" x="0" y="-6.000000">p.N12Rfs*7</text></g><line x1="25.546139" x2="25.546139" y1="46.500000" y2="87.000000" stroke="#BABDB6" stroke-width="2"/><a xlink:title="p.Q14Rfs*7"><circle cx="25.546139" cy="46.500000" r="4.000000" fill="#ff0000" /></a><g transform="translate(25.546139,46.500000) rotate(-30)"><text style="font-size:10px;fill:#555;" text-anchor="middle" x="0" y="-6.000000">p.Q14Rfs*7</text></g><line x1="28.559322" x2="28.559322" y1="59.000000" y2="87.000000" stroke="#BABDB6" stroke-width="2"/><a xlink:title="p.I18Mfs"><circle cx="28.559322" cy="59.000000" r="4.000000" fill="#ff0000" /></a><g transform="translate(28.559322,59.000000) rotate(-30)"><text style="font-size:10px;fill:#555;" text-anchor="middle" x="0" y="-6.000000">p.I18Mfs</text></g><line x1="36.845574" x2="36.845574" y1="59.000000" y2="87.000000" stroke="#BABDB6" stroke-width="2"/><a xlink:title="p.E29Sfs"><circle cx="36.845574" cy="59.000000" r="4.000000" fill="#ff0000" /></a><g transform="translate(36.845574,59.000000) rotate(-30)"><text style="font-size:10px;fill:#555;" text-anchor="middle" x="0" y="-6.000000">p.E29Sfs</text></g><line x1="104.642185" x2="104.642185" y1="59.000000" y2="87.000000" stroke="#BABDB6" stroke-width="2"/><a xlink:title="p.Q119Rfs*14"><circle cx="104.642185" cy="59.000000" r="4.000000" fill="#ff0000" /></a><g transform="translate(104.642185,59.000000) rotate(-30)"><text style="font-size:10px;fill:#555;" text-anchor="middle" x="0" y="-6.000000">p.Q119Rfs*14</text></g><line x1="175.451977" x2="175.451977" y1="59.000000" y2="87.000000" stroke="#BABDB6" stroke-width="2"/><a xlink:title="p.F213Lfs*6"><circle cx="175.451977" cy="59.000000" r="4.000000" fill="#ff0000" /></a><g transform="translate(175.451977,59.000000) rotate(-30)"><text style="font-size:10px;fill:#555;" text-anchor="middle" x="0" y="-6.000000">p.F213Lfs*6</text></g><line x1="185.998117" x2="185.998117" y1="59.000000" y2="87.000000" stroke="#BABDB6" stroke-width="2"/><a xlink:title="p.R227Kfs"><circle cx="185.998117" cy="59.000000" r="4.000000" fill="#ff0000" /></a><g transform="translate(185.998117,59.000000) rotate(-30)"><text style="font-size:10px;fill:#555;" text-anchor="middle" x="0" y="-6.000000">p.R227Kfs</text></g><line x1="207.843691" x2="207.843691" y1="59.000000" y2="87.000000" stroke="#BABDB6" stroke-width="2"/><a xlink:title="p.V256Kfs"><circle cx="207.843691" cy="59.000000" r="4.000000" fill="#ff0000" /></a><g transform="translate(207.843691,59.000000) rotate(-30)"><text style="font-size:10px;fill:#555;" text-anchor="middle" x="0" y="-6.000000">p.V256Kfs</text></g><line x1="326.111111" x2="326.111111" y1="59.000000" y2="87.000000" stroke="#BABDB6" stroke-width="2"/><a xlink:title="p.Q413Hfs*15"><circle cx="326.111111" cy="59.000000" r="4.000000" fill="#ff0000" /></a><g transform="translate(326.111111,59.000000) rotate(-30)"><text style="font-size:10px;fill:#555;" text-anchor="middle" x="0" y="-6.000000">p.Q413Hfs*15</text></g><a xlink:title="CDC73_HUMAN, Parafibromin (531aa)"><rect fill="#BABDB6" x="15.000000" y="87.000000" width="400.000000" height="14.000000"/></a><g transform="translate(15.753296,82.000000)"><a xlink:href="http://pfam.xfam.org/family/PF16050" xlink:title="Paf1 complex subunit CDC73 N-terminal"><rect fill="#2dcf00" x="0" y="0" width="222.975518" height="24.000000" filter="url(#ds)"/><text style="font-size:12px;fill:#ffffff;" text-anchor="middle" x="111.487759" y="16.000000">CDC73_N</text></a></g>
<g transform="translate(283.173258,82.000000)"><a xlink:href="http://pfam.xfam.org/family/PF05179" xlink:title="RNA pol II accessory factor, Cdc73 family, C-terminal"><rect fill="#ff5353" x="0" y="0" width="124.293785" height="24.000000" filter="url(#ds)"/><text style="font-size:12px;fill:#ffffff;" text-anchor="middle" x="62.146893" y="16.000000">CDC73_C</text></a></g>
<g class="axis">
<line x1="15.000000" x2="415.000000" y1="116.000000" y2="116.000000" stroke="#AAAAAA" /><line x1="15.000000" x2="15.000000" y1="116.000000" y2="121.000000" stroke="#AAAAAA" /><line x1="18.766478" x2="18.766478" y1="116.000000" y2="121.000000" stroke="#AAAAAA" /><text style="font-size:10px;fill:#000000;" text-anchor="middle" x="18.766478" y="131.000000">5</text><line x1="104.642185" x2="104.642185" y1="116.000000" y2="121.000000" stroke="#AAAAAA" /><text style="font-size:10px;fill:#000000;" text-anchor="middle" x="104.642185" y="131.000000">119</text><line x1="175.451977" x2="175.451977" y1="116.000000" y2="121.000000" stroke="#AAAAAA" /><text style="font-size:10px;fill:#000000;" text-anchor="middle" x="175.451977" y="131.000000">213</text><line x1="207.843691" x2="207.843691" y1="116.000000" y2="121.000000" stroke="#AAAAAA" /><text style="font-size:10px;fill:#000000;" text-anchor="middle" x="207.843691" y="131.000000">256</text><line x1="238.728814" x2="238.728814" y1="116.000000" y2="121.000000" stroke="#AAAAAA" /><text style="font-size:10px;fill:#000000;" text-anchor="middle" x="238.728814" y="131.000000">297</text><line x1="283.173258" x2="283.173258" y1="116.000000" y2="121.000000" stroke="#AAAAAA" /><text style="font-size:10px;fill:#000000;" text-anchor="middle" x="283.173258" y="131.000000">356</text><line x1="326.111111" x2="326.111111" y1="116.000000" y2="121.000000" stroke="#AAAAAA" /><text style="font-size:10px;fill:#000000;" text-anchor="middle" x="326.111111" y="131.000000">413</text><line x1="415.000000" x2="415.000000" y1="116.000000" y2="121.000000" stroke="#AAAAAA" /><text style="font-size:10px;fill:#000000;" text-anchor="middle" x="415.000000" y="131.000000">531</text></g>
</svg>
