<?xml version='1.0'?>
<svg xmlns="http://www.w3.org/2000/svg" xmlns:xlink="http://www.w3.org/1999/xlink" width="509.584906" height="136.000000">
<defs>
  <filter id="ds" x="0" y="0">
    <feOffset in="SourceAlpha" dx="2" dy="2" />
    <feComponentTransfer><feFuncA type="linear" slope="0.2"/></feComponentTransfer>
    <feGaussianBlur result="blurOut" stdDeviation="1" />
    <feBlend in="SourceGraphic" in2="blurOut" mode="normal" />
  </filter>
  <pattern id="disordered-hatch" patternUnits="userSpaceOnUse" width="4" height="4">
    <path d="M-1,1 l2,-2 M0,4 l4,-4 M3,5 l2,-2" stroke="#000000" opacity="0.3" />
  </pattern>
</defs>
<line x1="43.132075" x2="43.132075" y1="34.000000" y2="87.000000" stroke="#BABDB6" stroke-width="2"/><a xlink:title="p.S21fs*159"><circle cx="43.132075" cy="34.000000" r="4.000000" fill="#ff0000" /></a><g transform="translate(43.132075,34.000000) rotate(-30)"><text style="font-size:10px;fill:#555;" text-anchor="middle" x="0" y="-6.000000">p.S21fs*159</text></g><line x1="45.811321" x2="45.811321" y1="46.500000" y2="87.000000" stroke="#BABDB6" stroke-width="2"/><a xlink:title="p.P23Rfs*137"><circle cx="45.811321" cy="46.500000" r="4.000000" fill="#ff0000" /></a><g transform="translate(45.811321,46.500000) rotate(-30)"><text style="font-size:10px;fill:#555;" text-anchor="middle" x="0" y="-6.000000">p.P23Rfs*137</text></g><line x1="47.150943" x2="47.150943" y1="59.000000" y2="87.000000" stroke="#BABDB6" stroke-width="2"/><a xlink:title="p.H24Afs*84"><circle cx="47.150943" cy="59.000000" r="4.000000" fill="#ff0000" /></a><g transform="translate(47.150943,59.000000) rotate(-30)"><text style="font-size:10px;fill:#555;" text-anchor="middle" x="0" y="-6.000000">p.H24Afs*84</text></g><line x1="60.547170" x2="60.547170" y1="59.000000" y2="87.000000" stroke="#BABDB6" stroke-width="2"/><a xlink:title="p.P34fs*156"><circle cx="60.547170" cy="59.000000" r="4.000000" fill="#ff0000" /></a><g transform="translate(60.547170,59.000000) rotate(-30)"><text style="font-size:10px;fill:#555;" text-anchor="middle" x="0" y="-6.000000">p.P34fs*156</text></g><line x1="79.301887" x2="79.301887" y1="46.500000" y2="87.000000" stroke="#BABDB6" stroke-width="2"/><a xlink:title="p.A48Pfs*112"><circle cx="79.301887" cy="46.500000" r="4.000000" fill="#ff0000" /></a><g transform="translate(79.301887,46.500000) rotate(-30)"><text style="font-size:10px;fill:#555;" text-anchor="middle" x="0" y="-6.000000">p.A48Pfs*112</text></g><line x1="83.320755" x2="83.320755" y1="59.000000" y2="87.000000" stroke="#BABDB6" stroke-width="2"/><a xlink:title="p.P51fs*154"><circle cx="83.320755" cy="59.000000" r="4.000000" fill="#ff0000" /></a><g transform="translate(83.320755,59.000000) rotate(-30)"><text style="font-size:10px;fill:#555;" text-anchor="middle" x="0" y="-6.000000">p.P51fs*154</text></g><line x1="96.716981" x2="96.716981" y1="46.500000" y2="87.000000" stroke="#BABDB6" stroke-width="2"/><a xlink:title="p.S61fs*159"><circle cx="96.716981" cy="46.500000" r="4.000000" fill="#ff0000" /></a><g transform="translate(96.716981,46.500000) rotate(-30)"><text style="font-size:10px;fill:#555;" text-anchor="middle" x="0" y="-6.000000">p.S61fs*159</text></g><line x1="102.075472" x2="102.075472" y1="46.500000" y2="87.000000" stroke="#BABDB6" stroke-width="2"/><a xlink:title="p.K65fs*107"><circle cx="102.075472" cy="46.500000" r="4.000000" fill="#ff0000" /></a><g transform="translate(102.075472,46.500000) rotate(-30)"><text style="font-size:10px;fill:#555;" text-anchor="middle" x="0" y="-6.000000">p.K65fs*107</text></g><line x1="106.094340" x2="106.094340" y1="46.500000" y2="87.000000" stroke="#BABDB6" stroke-width="2"/><a xlink:title="p.I68Lfs*41"><circle cx="106.094340" cy="46.500000" r="4.000000" fill="#ff0000" /></a><g transform="translate(106.094340,46.500000) rotate(-30)"><text style="font-size:10px;fill:#555;" text-anchor="middle" x="0" y="-6.000000">p.I68Lfs*41</text></g><line x1="108.773585" x2="108.773585" y1="46.500000" y2="87.000000" stroke="#BABDB6" stroke-width="2"/><a xlink:title="p.R70fs*159"><circle cx="108.773585" cy="46.500000" r="4.000000" fill="#ff0000" /></a><g transform="translate(108.773585,46.500000) rotate(-30)"><text style="font-size:10px;fill:#555;" text-anchor="middle" x="0" y="-6.000000">p.R70fs*159</text></g><line x1="112.792453" x2="112.792453" y1="59.000000" y2="87.000000" stroke="#BABDB6" stroke-width="2"/><a xlink:title="p.P73Sfs*35"><circle cx="112.792453" cy="59.000000" r="4.000000" fill="#ff0000" /></a><g transform="translate(112.792453,59.000000) rotate(-30)"><text style="font-size:10px;fill:#555;" text-anchor="middle" x="0" y="-6.000000">p.P73Sfs*35</text></g><line x1="124.849057" x2="124.849057" y1="46.500000" y2="87.000000" stroke="#BABDB6" stroke-width="2"/><a xlink:title="p.L82fs*159"><circle cx="124.849057" cy="46.500000" r="4.000000" fill="#ff0000" /></a><g transform="translate(124.849057,46.500000) rotate(-30)"><text style="font-size:10px;fill:#555;" text-anchor="middle" x="0" y="-6.000000">p.L82fs*159</text></g><line x1="124.849057" x2="124.849057" y1="59.000000" y2="87.000000" stroke="#BABDB6" stroke-width="2"/><a xlink:title="p.L82fs*108"><circle cx="124.849057" cy="59.000000" r="4.000000" fill="#ff0000" /></a><g transform="translate(124.849057,59.000000) rotate(-30)"><text style="font-size:10px;fill:#555;" text-anchor="middle" x="0" y="-6.000000">p.L82fs*108</text></g><line x1="138.245283" x2="138.245283" y1="46.500000" y2="87.000000" stroke="#BABDB6" stroke-width="2"/><a xlink:title="p.K92fs*107"><circle cx="138.245283" cy="46.500000" r="4.000000" fill="#ff0000" /></a><g transform="translate(138.245283,46.500000) rotate(-30)"><text style="font-size:10px;fill:#555;" text-anchor="middle" x="0" y="-6.000000">p.K92fs*107</text></g><line x1="143.603774" x2="143.603774" y1="59.000000" y2="87.000000" stroke="#BABDB6" stroke-width="2"/><a xlink:title="p.A96fs*159"><circle cx="143.603774" cy="59.000000" r="4.000000" fill="#ff0000" /></a><g transform="translate(143.603774,59.000000) rotate(-30)"><text style="font-size:10px;fill:#555;" text-anchor="middle" x="0" y="-6.000000">p.A96fs*159</text></g><line x1="158.339623" x2="158.339623" y1="59.000000" y2="87.000000" stroke="#BABDB6" stroke-width="2"/><a xlink:title="p.D107Vfs*54"><circle cx="158.339623" cy="59.000000" r="4.000000" fill="#ff0000" /></a><g transform="translate(158.339623,59.000000) rotate(-30)"><text style="font-size:10px;fill:#555;" text-anchor="middle" x="0" y="-6.000000">p.D107Vfs*54</text></g><a xlink:title="CEBPA_HUMAN, CCAAT/enhancer-binding protein alpha {ECO:0000312|HGNC:HGNC:1833} (358aa)"><rect fill="#BABDB6" x="15.000000" y="87.000000" width="479.584906" height="14.000000"/></a><g transform="translate(391.433962,82.000000)"><a xlink:href="http://pfam.xfam.org/family/PF07716" xlink:title="Basic region leucine zipper"><rect fill="#2dcf00" x="0" y="0" width="71.000000" height="24.000000" filter="url(#ds)"/><text style="font-size:12px;fill:#ffffff;" text-anchor="middle" x="35.500000" y="16.000000">bZIP_2</text></a></g>
<g class="axis">
<line x1="15.000000" x2="494.584906" y1="116.000000" y2="116.000000" stroke="#AAAAAA" /><line x1="15.000000" x2="15.000000" y1="116.000000" y2="121.000000" stroke="#AAAAAA" /><line x1="15.000000" x2="15.000000" y1="116.000000" y2="121.000000" stroke="#AAAAAA" /><text style="font-size:10px;fill:#000000;" text-anchor="middle" x="15.000000" y="131.000000">0</text><line x1="43.132075" x2="43.132075" y1="116.000000" y2="121.000000" stroke="#AAAAAA" /><text style="font-size:10px;fill:#000000;" text-anchor="middle" x="43.132075" y="131.000000">21</text><line x1="79.301887" x2="79.301887" y1="116.000000" y2="121.000000" stroke="#AAAAAA" /><text style="font-size:10px;fill:#000000;" text-anchor="middle" x="79.301887" y="131.000000">48</text><line x1="102.075472" x2="102.075472" y1="116.000000" y2="121.000000" stroke="#AAAAAA" /><text style="font-size:10px;fill:#000000;" text-anchor="middle" x="102.075472" y="131.000000">65</text><line x1="124.849057" x2="124.849057" y1="116.000000" y2="121.000000" stroke="#AAAAAA" /><text style="font-size:10px;fill:#000000;" text-anchor="middle" x="124.849057" y="131.000000">82</text><line x1="143.603774" x2="143.603774" y1="116.000000" y2="121.000000" stroke="#AAAAAA" /><text style="font-size:10px;fill:#000000;" text-anchor="middle" x="143.603774" y="131.000000">96</text><line x1="391.433962" x2="391.433962" y1="116.000000" y2="121.000000" stroke="#AAAAAA" /><text style="font-size:10px;fill:#000000;" text-anchor="middle" x="391.433962" y="131.000000">281</text><line x1="462.433962" x2="462.433962" y1="116.000000" y2="121.000000" stroke="#AAAAAA" /><text style="font-size:10px;fill:#000000;" text-anchor="middle" x="462.433962" y="131.000000">334</text><line x1="494.584906" x2="494.584906" y1="116.000000" y2="121.000000" stroke="#AAAAAA" /><text style="font-size:10px;fill:#000000;" text-anchor="middle" x="494.584906" y="131.000000">358</text></g>
</svg>
