<?xml version='1.0'?>
<svg xmlns="http://www.w3.org/2000/svg" xmlns:xlink="http://www.w3.org/1999/xlink" width="851.051282" height="123.500000">
<defs>
  <filter id="ds" x="0" y="0">
    <feOffset in="SourceAlpha" dx="2" dy="2" />
    <feComponentTransfer><feFuncA type="linear" slope="0.2"/></feComponentTransfer>
    <feGaussianBlur result="blurOut" stdDeviation="1" />
    <feBlend in="SourceGraphic" in2="blurOut" mode="normal" />
  </filter>
  <pattern id="disordered-hatch" patternUnits="userSpaceOnUse" width="4" height="4">
    <path d="M-1,1 l2,-2 M0,4 l4,-4 M3,5 l2,-2" stroke="#000000" opacity="0.3" />
  </pattern>
</defs>
<line x1="41.282051" x2="41.282051" y1="46.500000" y2="74.500000" stroke="#BABDB6" stroke-width="2"/><a xlink:title="p.W25_D32del"><circle cx="41.282051" cy="46.500000" r="4.000000" fill="#0000ff" /></a><g transform="translate(41.282051,46.500000) rotate(-30)"><text style="font-size:10px;fill:#555;" text-anchor="middle" x="0" y="-6.000000">p.W25_D32del</text></g><line x1="61.256410" x2="61.256410" y1="34.000000" y2="74.500000" stroke="#BABDB6" stroke-width="2"/><a xlink:title="p.P44_S45del"><circle cx="61.256410" cy="34.000000" r="4.000000" fill="#0000ff" /></a><g transform="translate(61.256410,34.000000) rotate(-30)"><text style="font-size:10px;fill:#555;" text-anchor="middle" x="0" y="-6.000000">p.P44_S45del</text></g><line x1="62.307692" x2="62.307692" y1="46.500000" y2="74.500000" stroke="#BABDB6" stroke-width="2"/><a xlink:title="p.S45del"><circle cx="62.307692" cy="46.500000" r="4.000000" fill="#ff0000" /></a><g transform="translate(62.307692,46.500000) rotate(-30)"><text style="font-size:10px;fill:#555;" text-anchor="middle" x="0" y="-6.000000">p.S45del</text></g><a xlink:title="CTNB1_HUMAN, Catenin beta-1 (781aa)"><rect fill="#BABDB6" x="15.000000" y="74.500000" width="821.051282" height="14.000000"/></a><g transform="translate(250.487179,69.500000)"><a xlink:href="http://pfam.xfam.org/family/PF00514" xlink:title="Armadillo/beta-catenin-like repeat"><rect fill="#2dcf00" x="0" y="0" width="41.000000" height="24.000000" filter="url(#ds)"/><text style="font-size:12px;fill:#ffffff;" text-anchor="middle" x="20.500000" y="16.000000">Arm</text></a></g>
<g transform="translate(382.948718,69.500000)"><a xlink:href="http://pfam.xfam.org/family/PF00514" xlink:title="Armadillo/beta-catenin-like repeat"><rect fill="#2dcf00" x="0" y="0" width="42.051282" height="24.000000" filter="url(#ds)"/><text style="font-size:12px;fill:#ffffff;" text-anchor="middle" x="21.025641" y="16.000000">Arm</text></a></g>
<g transform="translate(468.102564,69.500000)"><a xlink:href="http://pfam.xfam.org/family/PF00514" xlink:title="Armadillo/beta-catenin-like repeat"><rect fill="#2dcf00" x="0" y="0" width="44.153846" height="24.000000" filter="url(#ds)"/><text style="font-size:12px;fill:#ffffff;" text-anchor="middle" x="22.076923" y="16.000000">Arm</text></a></g>
<g transform="translate(627.897436,69.500000)"><a xlink:href="http://pfam.xfam.org/family/PF00514" xlink:title="Armadillo/beta-catenin-like repeat"><rect fill="#2dcf00" x="0" y="0" width="42.051282" height="24.000000" filter="url(#ds)"/><text style="font-size:12px;fill:#ffffff;" text-anchor="middle" x="21.025641" y="16.000000">Arm</text></a></g>
<g class="axis">
<line x1="15.000000" x2="836.051282" y1="103.500000" y2="103.500000" stroke="#AAAAAA" /><line x1="15.000000" x2="15.000000" y1="103.500000" y2="108.500000" stroke="#AAAAAA" /><line x1="15.000000" x2="15.000000" y1="103.500000" y2="108.500000" stroke="#AAAAAA" /><text style="font-size:10px;fill:#000000;" text-anchor="middle" x="15.000000" y="118.500000">0</text><line x1="41.282051" x2="41.282051" y1="103.500000" y2="108.500000" stroke="#AAAAAA" /><text style="font-size:10px;fill:#000000;" text-anchor="middle" x="41.282051" y="118.500000">25</text><line x1="61.256410" x2="61.256410" y1="103.500000" y2="108.500000" stroke="#AAAAAA" /><text style="font-size:10px;fill:#000000;" text-anchor="middle" x="61.256410" y="118.500000">44</text><line x1="250.487179" x2="250.487179" y1="103.500000" y2="108.500000" stroke="#AAAAAA" /><text style="font-size:10px;fill:#000000;" text-anchor="middle" x="250.487179" y="118.500000">224</text><line x1="291.487179" x2="291.487179" y1="103.500000" y2="108.500000" stroke="#AAAAAA" /><text style="font-size:10px;fill:#000000;" text-anchor="middle" x="291.487179" y="118.500000">263</text><line x1="382.948718" x2="382.948718" y1="103.500000" y2="108.500000" stroke="#AAAAAA" /><text style="font-size:10px;fill:#000000;" text-anchor="middle" x="382.948718" y="118.500000">350</text><line x1="425.000000" x2="425.000000" y1="103.500000" y2="108.500000" stroke="#AAAAAA" /><text style="font-size:10px;fill:#000000;" text-anchor="middle" x="425.000000" y="118.500000">390</text><line x1="468.102564" x2="468.102564" y1="103.500000" y2="108.500000" stroke="#AAAAAA" /><text style="font-size:10px;fill:#000000;" text-anchor="middle" x="468.102564" y="118.500000">431</text><line x1="512.256410" x2="512.256410" y1="103.500000" y2="108.500000" stroke="#AAAAAA" /><text style="font-size:10px;fill:#000000;" text-anchor="middle" x="512.256410" y="118.500000">473</text><line x1="627.897436" x2="627.897436" y1="103.500000" y2="108.500000" stroke="#AAAAAA" /><text style="font-size:10px;fill:#000000;" text-anchor="middle" x="627.897436" y="118.500000">583</text><line x1="669.948718" x2="669.948718" y1="103.500000" y2="108.500000" stroke="#AAAAAA" /><text style="font-size:10px;fill:#000000;" text-anchor="middle" x="669.948718" y="118.500000">623</text><line x1="836.051282" x2="836.051282" y1="103.500000" y2="108.500000" stroke="#AAAAAA" /><text style="font-size:10px;fill:#000000;" text-anchor="middle" x="836.051282" y="118.500000">781</text></g>
</svg>
