<?xml version='1.0'?>
<svg xmlns="http://www.w3.org/2000/svg" xmlns:xlink="http://www.w3.org/1999/xlink" width="2643.056180" height="123.500000">
<defs>
  <filter id="ds" x="0" y="0">
    <feOffset in="SourceAlpha" dx="2" dy="2" />
    <feComponentTransfer><feFuncA type="linear" slope="0.2"/></feComponentTransfer>
    <feGaussianBlur result="blurOut" stdDeviation="1" />
    <feBlend in="SourceGraphic" in2="blurOut" mode="normal" />
  </filter>
  <pattern id="disordered-hatch" patternUnits="userSpaceOnUse" width="4" height="4">
    <path d="M-1,1 l2,-2 M0,4 l4,-4 M3,5 l2,-2" stroke="#000000" opacity="0.3" />
  </pattern>
</defs>
<line x1="413.348315" x2="413.348315" y1="46.500000" y2="74.500000" stroke="#BABDB6" stroke-width="2"/><a xlink:title="p.R293Ifs*4"><circle cx="413.348315" cy="46.500000" r="4.000000" fill="#ff0000" /></a><g transform="translate(413.348315,46.500000) rotate(-30)"><text style="font-size:10px;fill:#555;" text-anchor="middle" x="0" y="-6.000000">p.R293Ifs*4</text></g><line x1="547.943820" x2="547.943820" y1="34.000000" y2="74.500000" stroke="#BABDB6" stroke-width="2"/><a xlink:title="p.R392Pfs*3"><circle cx="547.943820" cy="34.000000" r="4.000000" fill="#ff0000" /></a><g transform="translate(547.943820,34.000000) rotate(-30)"><text style="font-size:10px;fill:#555;" text-anchor="middle" x="0" y="-6.000000">p.R392Pfs*3</text></g><line x1="553.382022" x2="553.382022" y1="46.500000" y2="74.500000" stroke="#BABDB6" stroke-width="2"/><a xlink:title="p.E396Kfs*3"><circle cx="553.382022" cy="46.500000" r="4.000000" fill="#ff0000" /></a><g transform="translate(553.382022,46.500000) rotate(-30)"><text style="font-size:10px;fill:#555;" text-anchor="middle" x="0" y="-6.000000">p.E396Kfs*3</text></g><line x1="560.179775" x2="560.179775" y1="46.500000" y2="74.500000" stroke="#BABDB6" stroke-width="2"/><a xlink:title="p.Y401Terfs"><circle cx="560.179775" cy="46.500000" r="4.000000" fill="#ff0000" /></a><g transform="translate(560.179775,46.500000) rotate(-30)"><text style="font-size:10px;fill:#555;" text-anchor="middle" x="0" y="-6.000000">p.Y401Terfs</text></g><line x1="779.067416" x2="779.067416" y1="34.000000" y2="74.500000" stroke="#BABDB6" stroke-width="2"/><a xlink:title="p.M562Vfs*11"><circle cx="779.067416" cy="34.000000" r="4.000000" fill="#ff0000" /></a><g transform="translate(779.067416,34.000000) rotate(-30)"><text style="font-size:10px;fill:#555;" text-anchor="middle" x="0" y="-6.000000">p.M562Vfs*11</text></g><line x1="784.505618" x2="784.505618" y1="46.500000" y2="74.500000" stroke="#BABDB6" stroke-width="2"/><a xlink:title="p.T566Rfs*7"><circle cx="784.505618" cy="46.500000" r="4.000000" fill="#ff0000" /></a><g transform="translate(784.505618,46.500000) rotate(-30)"><text style="font-size:10px;fill:#555;" text-anchor="middle" x="0" y="-6.000000">p.T566Rfs*7</text></g><line x1="792.662921" x2="792.662921" y1="46.500000" y2="74.500000" stroke="#BABDB6" stroke-width="2"/><a xlink:title="p.F572Lfs*14"><circle cx="792.662921" cy="46.500000" r="4.000000" fill="#ff0000" /></a><g transform="translate(792.662921,46.500000) rotate(-30)"><text style="font-size:10px;fill:#555;" text-anchor="middle" x="0" y="-6.000000">p.F572Lfs*14</text></g><line x1="825.292135" x2="825.292135" y1="46.500000" y2="74.500000" stroke="#BABDB6" stroke-width="2"/><a xlink:title="p.T596Mfs*21"><circle cx="825.292135" cy="46.500000" r="4.000000" fill="#ff0000" /></a><g transform="translate(825.292135,46.500000) rotate(-30)"><text style="font-size:10px;fill:#555;" text-anchor="middle" x="0" y="-6.000000">p.T596Mfs*21</text></g><line x1="844.325843" x2="844.325843" y1="46.500000" y2="74.500000" stroke="#BABDB6" stroke-width="2"/><a xlink:title="p.V610Rfs*8"><circle cx="844.325843" cy="46.500000" r="4.000000" fill="#ff0000" /></a><g transform="translate(844.325843,46.500000) rotate(-30)"><text style="font-size:10px;fill:#555;" text-anchor="middle" x="0" y="-6.000000">p.V610Rfs*8</text></g><line x1="867.438202" x2="867.438202" y1="46.500000" y2="74.500000" stroke="#BABDB6" stroke-width="2"/><a xlink:title="p.I627Tfs*22"><circle cx="867.438202" cy="46.500000" r="4.000000" fill="#ff0000" /></a><g transform="translate(867.438202,46.500000) rotate(-30)"><text style="font-size:10px;fill:#555;" text-anchor="middle" x="0" y="-6.000000">p.I627Tfs*22</text></g><line x1="881.033708" x2="881.033708" y1="46.500000" y2="74.500000" stroke="#BABDB6" stroke-width="2"/><a xlink:title="p.Y637Terfs"><circle cx="881.033708" cy="46.500000" r="4.000000" fill="#ff0000" /></a><g transform="translate(881.033708,46.500000) rotate(-30)"><text style="font-size:10px;fill:#555;" text-anchor="middle" x="0" y="-6.000000">p.Y637Terfs</text></g><line x1="993.876404" x2="993.876404" y1="46.500000" y2="74.500000" stroke="#BABDB6" stroke-width="2"/><a xlink:title="p.V720Terfs"><circle cx="993.876404" cy="46.500000" r="4.000000" fill="#ff0000" /></a><g transform="translate(993.876404,46.500000) rotate(-30)"><text style="font-size:10px;fill:#555;" text-anchor="middle" x="0" y="-6.000000">p.V720Terfs</text></g><line x1="1031.943820" x2="1031.943820" y1="34.000000" y2="74.500000" stroke="#BABDB6" stroke-width="2"/><a xlink:title="p.C748Terfs"><circle cx="1031.943820" cy="34.000000" r="4.000000" fill="#ff0000" /></a><g transform="translate(1031.943820,34.000000) rotate(-30)"><text style="font-size:10px;fill:#555;" text-anchor="middle" x="0" y="-6.000000">p.C748Terfs</text></g><line x1="1033.303371" x2="1033.303371" y1="46.500000" y2="74.500000" stroke="#BABDB6" stroke-width="2"/><a xlink:title="p.Y749Terfs"><circle cx="1033.303371" cy="46.500000" r="4.000000" fill="#ff0000" /></a><g transform="translate(1033.303371,46.500000) rotate(-30)"><text style="font-size:10px;fill:#555;" text-anchor="middle" x="0" y="-6.000000">p.Y749Terfs</text></g><line x1="1099.921348" x2="1099.921348" y1="46.500000" y2="74.500000" stroke="#BABDB6" stroke-width="2"/><a xlink:title="p.T798Nfs*33"><circle cx="1099.921348" cy="46.500000" r="4.000000" fill="#ff0000" /></a><g transform="translate(1099.921348,46.500000) rotate(-30)"><text style="font-size:10px;fill:#555;" text-anchor="middle" x="0" y="-6.000000">p.T798Nfs*33</text></g><line x1="1313.370787" x2="1313.370787" y1="34.000000" y2="74.500000" stroke="#BABDB6" stroke-width="2"/><a xlink:title="p.T955Pfs*26"><circle cx="1313.370787" cy="34.000000" r="4.000000" fill="#ff0000" /></a><g transform="translate(1313.370787,34.000000) rotate(-30)"><text style="font-size:10px;fill:#555;" text-anchor="middle" x="0" y="-6.000000">p.T955Pfs*26</text></g><line x1="1314.730337" x2="1314.730337" y1="46.500000" y2="74.500000" stroke="#BABDB6" stroke-width="2"/><a xlink:title="p.P956Qfs*25"><circle cx="1314.730337" cy="46.500000" r="4.000000" fill="#ff0000" /></a><g transform="translate(1314.730337,46.500000) rotate(-30)"><text style="font-size:10px;fill:#555;" text-anchor="middle" x="0" y="-6.000000">p.P956Qfs*25</text></g><line x1="1324.247191" x2="1324.247191" y1="46.500000" y2="74.500000" stroke="#BABDB6" stroke-width="2"/><a xlink:title="p.P963Rfs*3"><circle cx="1324.247191" cy="46.500000" r="4.000000" fill="#ff0000" /></a><g transform="translate(1324.247191,46.500000) rotate(-30)"><text style="font-size:10px;fill:#555;" text-anchor="middle" x="0" y="-6.000000">p.P963Rfs*3</text></g><line x1="1437.089888" x2="1437.089888" y1="46.500000" y2="74.500000" stroke="#BABDB6" stroke-width="2"/><a xlink:title="p.S1046Efs*47"><circle cx="1437.089888" cy="46.500000" r="4.000000" fill="#ff0000" /></a><g transform="translate(1437.089888,46.500000) rotate(-30)"><text style="font-size:10px;fill:#555;" text-anchor="middle" x="0" y="-6.000000">p.S1046Efs*47</text></g><line x1="1454.764045" x2="1454.764045" y1="46.500000" y2="74.500000" stroke="#BABDB6" stroke-width="2"/><a xlink:title="p.Y1059Lfs*32"><circle cx="1454.764045" cy="46.500000" r="4.000000" fill="#ff0000" /></a><g transform="translate(1454.764045,46.500000) rotate(-30)"><text style="font-size:10px;fill:#555;" text-anchor="middle" x="0" y="-6.000000">p.Y1059Lfs*32</text></g><line x1="1500.988764" x2="1500.988764" y1="46.500000" y2="74.500000" stroke="#BABDB6" stroke-width="2"/><a xlink:title="p.N1093Terfs"><circle cx="1500.988764" cy="46.500000" r="4.000000" fill="#ff0000" /></a><g transform="translate(1500.988764,46.500000) rotate(-30)"><text style="font-size:10px;fill:#555;" text-anchor="middle" x="0" y="-6.000000">p.N1093Terfs</text></g><line x1="1510.505618" x2="1510.505618" y1="46.500000" y2="74.500000" stroke="#BABDB6" stroke-width="2"/><a xlink:title="p.K1100Nfs*44"><circle cx="1510.505618" cy="46.500000" r="4.000000" fill="#ff0000" /></a><g transform="translate(1510.505618,46.500000) rotate(-30)"><text style="font-size:10px;fill:#555;" text-anchor="middle" x="0" y="-6.000000">p.K1100Nfs*44</text></g><line x1="1608.393258" x2="1608.393258" y1="46.500000" y2="74.500000" stroke="#BABDB6" stroke-width="2"/><a xlink:title="p.L1172Qfs*17"><circle cx="1608.393258" cy="46.500000" r="4.000000" fill="#ff0000" /></a><g transform="translate(1608.393258,46.500000) rotate(-30)"><text style="font-size:10px;fill:#555;" text-anchor="middle" x="0" y="-6.000000">p.L1172Qfs*17</text></g><line x1="1617.910112" x2="1617.910112" y1="34.000000" y2="74.500000" stroke="#BABDB6" stroke-width="2"/><a xlink:title="p.S1179Nfs*14"><circle cx="1617.910112" cy="34.000000" r="4.000000" fill="#ff0000" /></a><g transform="translate(1617.910112,34.000000) rotate(-30)"><text style="font-size:10px;fill:#555;" text-anchor="middle" x="0" y="-6.000000">p.S1179Nfs*14</text></g><line x1="1619.269663" x2="1619.269663" y1="46.500000" y2="74.500000" stroke="#BABDB6" stroke-width="2"/><a xlink:title="p.Y1180Qfs*10"><circle cx="1619.269663" cy="46.500000" r="4.000000" fill="#ff0000" /></a><g transform="translate(1619.269663,46.500000) rotate(-30)"><text style="font-size:10px;fill:#555;" text-anchor="middle" x="0" y="-6.000000">p.Y1180Qfs*10</text></g><line x1="1636.943820" x2="1636.943820" y1="34.000000" y2="74.500000" stroke="#BABDB6" stroke-width="2"/><a xlink:title="p.N1193Kfs*41"><circle cx="1636.943820" cy="34.000000" r="4.000000" fill="#ff0000" /></a><g transform="translate(1636.943820,34.000000) rotate(-30)"><text style="font-size:10px;fill:#555;" text-anchor="middle" x="0" y="-6.000000">p.N1193Kfs*41</text></g><line x1="1642.382022" x2="1642.382022" y1="46.500000" y2="74.500000" stroke="#BABDB6" stroke-width="2"/><a xlink:title="p.C1197Afs*6"><circle cx="1642.382022" cy="46.500000" r="4.000000" fill="#ff0000" /></a><g transform="translate(1642.382022,46.500000) rotate(-30)"><text style="font-size:10px;fill:#555;" text-anchor="middle" x="0" y="-6.000000">p.C1197Afs*6</text></g><line x1="1651.898876" x2="1651.898876" y1="46.500000" y2="74.500000" stroke="#BABDB6" stroke-width="2"/><a xlink:title="p.Y1204Lfs"><circle cx="1651.898876" cy="46.500000" r="4.000000" fill="#ff0000" /></a><g transform="translate(1651.898876,46.500000) rotate(-30)"><text style="font-size:10px;fill:#555;" text-anchor="middle" x="0" y="-6.000000">p.Y1204Lfs</text></g><line x1="1728.033708" x2="1728.033708" y1="46.500000" y2="74.500000" stroke="#BABDB6" stroke-width="2"/><a xlink:title="p.V1260Rfs*19"><circle cx="1728.033708" cy="46.500000" r="4.000000" fill="#ff0000" /></a><g transform="translate(1728.033708,46.500000) rotate(-30)"><text style="font-size:10px;fill:#555;" text-anchor="middle" x="0" y="-6.000000">p.V1260Rfs*19</text></g><line x1="1771.539326" x2="1771.539326" y1="46.500000" y2="74.500000" stroke="#BABDB6" stroke-width="2"/><a xlink:title="p.P1292Lfs*9"><circle cx="1771.539326" cy="46.500000" r="4.000000" fill="#ff0000" /></a><g transform="translate(1771.539326,46.500000) rotate(-30)"><text style="font-size:10px;fill:#555;" text-anchor="middle" x="0" y="-6.000000">p.P1292Lfs*9</text></g><line x1="1786.494382" x2="1786.494382" y1="46.500000" y2="74.500000" stroke="#BABDB6" stroke-width="2"/><a xlink:title="p.L1303Vfs"><circle cx="1786.494382" cy="46.500000" r="4.000000" fill="#ff0000" /></a><g transform="translate(1786.494382,46.500000) rotate(-30)"><text style="font-size:10px;fill:#555;" text-anchor="middle" x="0" y="-6.000000">p.L1303Vfs</text></g><line x1="1968.674157" x2="1968.674157" y1="46.500000" y2="74.500000" stroke="#BABDB6" stroke-width="2"/><a xlink:title="p.D1437Mfs*16"><circle cx="1968.674157" cy="46.500000" r="4.000000" fill="#ff0000" /></a><g transform="translate(1968.674157,46.500000) rotate(-30)"><text style="font-size:10px;fill:#555;" text-anchor="middle" x="0" y="-6.000000">p.D1437Mfs*16</text></g><line x1="2013.539326" x2="2013.539326" y1="34.000000" y2="74.500000" stroke="#BABDB6" stroke-width="2"/><a xlink:title="p.S1470Lfs*19"><circle cx="2013.539326" cy="34.000000" r="4.000000" fill="#ff0000" /></a><g transform="translate(2013.539326,34.000000) rotate(-30)"><text style="font-size:10px;fill:#555;" text-anchor="middle" x="0" y="-6.000000">p.S1470Lfs*19</text></g><line x1="2014.898876" x2="2014.898876" y1="46.500000" y2="74.500000" stroke="#BABDB6" stroke-width="2"/><a xlink:title="p.P1471Ffs*5"><circle cx="2014.898876" cy="46.500000" r="4.000000" fill="#ff0000" /></a><g transform="translate(2014.898876,46.500000) rotate(-30)"><text style="font-size:10px;fill:#555;" text-anchor="middle" x="0" y="-6.000000">p.P1471Ffs*5</text></g><line x1="2021.696629" x2="2021.696629" y1="46.500000" y2="74.500000" stroke="#BABDB6" stroke-width="2"/><a xlink:title="p.D1476Vfs*5"><circle cx="2021.696629" cy="46.500000" r="4.000000" fill="#ff0000" /></a><g transform="translate(2021.696629,46.500000) rotate(-30)"><text style="font-size:10px;fill:#555;" text-anchor="middle" x="0" y="-6.000000">p.D1476Vfs*5</text></g><line x1="2059.764045" x2="2059.764045" y1="46.500000" y2="74.500000" stroke="#BABDB6" stroke-width="2"/><a xlink:title="p.S1504Tfs*56"><circle cx="2059.764045" cy="46.500000" r="4.000000" fill="#ff0000" /></a><g transform="translate(2059.764045,46.500000) rotate(-30)"><text style="font-size:10px;fill:#555;" text-anchor="middle" x="0" y="-6.000000">p.S1504Tfs*56</text></g><line x1="2101.910112" x2="2101.910112" y1="46.500000" y2="74.500000" stroke="#BABDB6" stroke-width="2"/><a xlink:title="p.C1535Wfs*3"><circle cx="2101.910112" cy="46.500000" r="4.000000" fill="#ff0000" /></a><g transform="translate(2101.910112,46.500000) rotate(-30)"><text style="font-size:10px;fill:#555;" text-anchor="middle" x="0" y="-6.000000">p.C1535Wfs*3</text></g><line x1="2115.505618" x2="2115.505618" y1="46.500000" y2="74.500000" stroke="#BABDB6" stroke-width="2"/><a xlink:title="p.S1545Pfs"><circle cx="2115.505618" cy="46.500000" r="4.000000" fill="#ff0000" /></a><g transform="translate(2115.505618,46.500000) rotate(-30)"><text style="font-size:10px;fill:#555;" text-anchor="middle" x="0" y="-6.000000">p.S1545Pfs</text></g><line x1="2263.696629" x2="2263.696629" y1="46.500000" y2="74.500000" stroke="#BABDB6" stroke-width="2"/><a xlink:title="p.D1654Efs*7"><circle cx="2263.696629" cy="46.500000" r="4.000000" fill="#ff0000" /></a><g transform="translate(2263.696629,46.500000) rotate(-30)"><text style="font-size:10px;fill:#555;" text-anchor="middle" x="0" y="-6.000000">p.D1654Efs*7</text></g><line x1="2369.741573" x2="2369.741573" y1="46.500000" y2="74.500000" stroke="#BABDB6" stroke-width="2"/><a xlink:title="p.L1732Pfs*33"><circle cx="2369.741573" cy="46.500000" r="4.000000" fill="#ff0000" /></a><g transform="translate(2369.741573,46.500000) rotate(-30)"><text style="font-size:10px;fill:#555;" text-anchor="middle" x="0" y="-6.000000">p.L1732Pfs*33</text></g><line x1="2395.573034" x2="2395.573034" y1="46.500000" y2="74.500000" stroke="#BABDB6" stroke-width="2"/><a xlink:title="p.K1751Rfs*12"><circle cx="2395.573034" cy="46.500000" r="4.000000" fill="#ff0000" /></a><g transform="translate(2395.573034,46.500000) rotate(-30)"><text style="font-size:10px;fill:#555;" text-anchor="middle" x="0" y="-6.000000">p.K1751Rfs*12</text></g><line x1="2417.325843" x2="2417.325843" y1="46.500000" y2="74.500000" stroke="#BABDB6" stroke-width="2"/><a xlink:title="p.H1767Mfs*71"><circle cx="2417.325843" cy="46.500000" r="4.000000" fill="#ff0000" /></a><g transform="translate(2417.325843,46.500000) rotate(-30)"><text style="font-size:10px;fill:#555;" text-anchor="middle" x="0" y="-6.000000">p.H1767Mfs*71</text></g><line x1="2424.123596" x2="2424.123596" y1="46.500000" y2="74.500000" stroke="#BABDB6" stroke-width="2"/><a xlink:title="p.F1772Cfs*6"><circle cx="2424.123596" cy="46.500000" r="4.000000" fill="#ff0000" /></a><g transform="translate(2424.123596,46.500000) rotate(-30)"><text style="font-size:10px;fill:#555;" text-anchor="middle" x="0" y="-6.000000">p.F1772Cfs*6</text></g><line x1="2460.831461" x2="2460.831461" y1="46.500000" y2="74.500000" stroke="#BABDB6" stroke-width="2"/><a xlink:title="p.E1799Kfs*39"><circle cx="2460.831461" cy="46.500000" r="4.000000" fill="#ff0000" /></a><g transform="translate(2460.831461,46.500000) rotate(-30)"><text style="font-size:10px;fill:#555;" text-anchor="middle" x="0" y="-6.000000">p.E1799Kfs*39</text></g><a xlink:title="DICER_HUMAN, Endoribonuclease Dicer EC=3.1.26.3 (1922aa)"><rect fill="#BABDB6" x="15.000000" y="74.500000" width="2613.056180" height="14.000000"/></a><g transform="translate(54.426966,69.500000)"><a xlink:href="http://pfam.xfam.org/family/PF04851" xlink:title="Type III restriction enzyme, res subunit"><rect fill="#2dcf00" x="0" y="0" width="246.078652" height="24.000000" filter="url(#ds)"/><text style="font-size:12px;fill:#ffffff;" text-anchor="middle" x="123.039326" y="16.000000">ResIII</text></a></g>
<g transform="translate(606.404494,69.500000)"><a xlink:href="http://pfam.xfam.org/family/PF00271" xlink:title="Helicase conserved C-terminal domain"><rect fill="#ff5353" x="0" y="0" width="164.505618" height="24.000000" filter="url(#ds)"/><text style="font-size:12px;fill:#ffffff;" text-anchor="middle" x="82.252809" y="16.000000">Helicase_C</text></a></g>
<g transform="translate(871.516854,69.500000)"><a xlink:href="http://pfam.xfam.org/family/PF03368" xlink:title="Dicer dimerisation domain"><rect fill="#5b5bff" x="0" y="0" width="121.000000" height="24.000000" filter="url(#ds)"/><text style="font-size:12px;fill:#ffffff;" text-anchor="middle" x="60.500000" y="16.000000">Dicer_dimer</text></a></g>
<g transform="translate(1230.438202,69.500000)"><a xlink:href="http://pfam.xfam.org/family/PF02170" xlink:title="PAZ domain"><rect fill="#ebd61d" x="0" y="0" width="231.123596" height="24.000000" filter="url(#ds)"/><text style="font-size:12px;fill:#ffffff;" text-anchor="middle" x="115.561798" y="16.000000">PAZ domain</text></a></g>
<g transform="translate(1800.089888,69.500000)"><a xlink:href="http://pfam.xfam.org/family/PF00636" xlink:title="Ribonuclease III domain"><rect fill="#ba21e0" x="0" y="0" width="356.202247" height="24.000000" filter="url(#ds)"/><text style="font-size:12px;fill:#ffffff;" text-anchor="middle" x="178.101124" y="16.000000">Ribonuclease III domain</text></a></g>
<g transform="translate(2328.955056,69.500000)"><a xlink:href="http://pfam.xfam.org/family/PF00636" xlink:title="Ribonuclease III domain"><rect fill="#ba21e0" x="0" y="0" width="165.865169" height="24.000000" filter="url(#ds)"/><text style="font-size:12px;fill:#ffffff;" text-anchor="middle" x="82.932584" y="16.000000">Ribonuclease_3</text></a></g>
<g class="axis">
<line x1="15.000000" x2="2628.056180" y1="103.500000" y2="103.500000" stroke="#AAAAAA" /><line x1="15.000000" x2="15.000000" y1="103.500000" y2="108.500000" stroke="#AAAAAA" /><line x1="15.000000" x2="15.000000" y1="103.500000" y2="108.500000" stroke="#AAAAAA" /><text style="font-size:10px;fill:#000000;" text-anchor="middle" x="15.000000" y="118.500000">0</text><line x1="54.426966" x2="54.426966" y1="103.500000" y2="108.500000" stroke="#AAAAAA" /><text style="font-size:10px;fill:#000000;" text-anchor="middle" x="54.426966" y="118.500000">29</text><line x1="300.505618" x2="300.505618" y1="103.500000" y2="108.500000" stroke="#AAAAAA" /><text style="font-size:10px;fill:#000000;" text-anchor="middle" x="300.505618" y="118.500000">210</text><line x1="413.348315" x2="413.348315" y1="103.500000" y2="108.500000" stroke="#AAAAAA" /><text style="font-size:10px;fill:#000000;" text-anchor="middle" x="413.348315" y="118.500000">293</text><line x1="547.943820" x2="547.943820" y1="103.500000" y2="108.500000" stroke="#AAAAAA" /><text style="font-size:10px;fill:#000000;" text-anchor="middle" x="547.943820" y="118.500000">392</text><line x1="606.404494" x2="606.404494" y1="103.500000" y2="108.500000" stroke="#AAAAAA" /><text style="font-size:10px;fill:#000000;" text-anchor="middle" x="606.404494" y="118.500000">435</text><line x1="779.067416" x2="779.067416" y1="103.500000" y2="108.500000" stroke="#AAAAAA" /><text style="font-size:10px;fill:#000000;" text-anchor="middle" x="779.067416" y="118.500000">562</text><line x1="825.292135" x2="825.292135" y1="103.500000" y2="108.500000" stroke="#AAAAAA" /><text style="font-size:10px;fill:#000000;" text-anchor="middle" x="825.292135" y="118.500000">596</text><line x1="844.325843" x2="844.325843" y1="103.500000" y2="108.500000" stroke="#AAAAAA" /><text style="font-size:10px;fill:#000000;" text-anchor="middle" x="844.325843" y="118.500000">610</text><line x1="867.438202" x2="867.438202" y1="103.500000" y2="108.500000" stroke="#AAAAAA" /><text style="font-size:10px;fill:#000000;" text-anchor="middle" x="867.438202" y="118.500000">627</text><line x1="993.876404" x2="993.876404" y1="103.500000" y2="108.500000" stroke="#AAAAAA" /><text style="font-size:10px;fill:#000000;" text-anchor="middle" x="993.876404" y="118.500000">720</text><line x1="1031.943820" x2="1031.943820" y1="103.500000" y2="108.500000" stroke="#AAAAAA" /><text style="font-size:10px;fill:#000000;" text-anchor="middle" x="1031.943820" y="118.500000">748</text><line x1="1099.921348" x2="1099.921348" y1="103.500000" y2="108.500000" stroke="#AAAAAA" /><text style="font-size:10px;fill:#000000;" text-anchor="middle" x="1099.921348" y="118.500000">798</text><line x1="1230.438202" x2="1230.438202" y1="103.500000" y2="108.500000" stroke="#AAAAAA" /><text style="font-size:10px;fill:#000000;" text-anchor="middle" x="1230.438202" y="118.500000">894</text><line x1="1313.370787" x2="1313.370787" y1="103.500000" y2="108.500000" stroke="#AAAAAA" /><text style="font-size:10px;fill:#000000;" text-anchor="middle" x="1313.370787" y="118.500000">955</text><line x1="1437.089888" x2="1437.089888" y1="103.500000" y2="108.500000" stroke="#AAAAAA" /><text style="font-size:10px;fill:#000000;" text-anchor="middle" x="1437.089888" y="118.500000">1046</text><line x1="1461.561798" x2="1461.561798" y1="103.500000" y2="108.500000" stroke="#AAAAAA" /><text style="font-size:10px;fill:#000000;" text-anchor="middle" x="1461.561798" y="118.500000">1064</text><line x1="1500.988764" x2="1500.988764" y1="103.500000" y2="108.500000" stroke="#AAAAAA" /><text style="font-size:10px;fill:#000000;" text-anchor="middle" x="1500.988764" y="118.500000">1093</text><line x1="1608.393258" x2="1608.393258" y1="103.500000" y2="108.500000" stroke="#AAAAAA" /><text style="font-size:10px;fill:#000000;" text-anchor="middle" x="1608.393258" y="118.500000">1172</text><line x1="1636.943820" x2="1636.943820" y1="103.500000" y2="108.500000" stroke="#AAAAAA" /><text style="font-size:10px;fill:#000000;" text-anchor="middle" x="1636.943820" y="118.500000">1193</text><line x1="1728.033708" x2="1728.033708" y1="103.500000" y2="108.500000" stroke="#AAAAAA" /><text style="font-size:10px;fill:#000000;" text-anchor="middle" x="1728.033708" y="118.500000">1260</text><line x1="1771.539326" x2="1771.539326" y1="103.500000" y2="108.500000" stroke="#AAAAAA" /><text style="font-size:10px;fill:#000000;" text-anchor="middle" x="1771.539326" y="118.500000">1292</text><line x1="1800.089888" x2="1800.089888" y1="103.500000" y2="108.500000" stroke="#AAAAAA" /><text style="font-size:10px;fill:#000000;" text-anchor="middle" x="1800.089888" y="118.500000">1313</text><line x1="1968.674157" x2="1968.674157" y1="103.500000" y2="108.500000" stroke="#AAAAAA" /><text style="font-size:10px;fill:#000000;" text-anchor="middle" x="1968.674157" y="118.500000">1437</text><line x1="2013.539326" x2="2013.539326" y1="103.500000" y2="108.500000" stroke="#AAAAAA" /><text style="font-size:10px;fill:#000000;" text-anchor="middle" x="2013.539326" y="118.500000">1470</text><line x1="2059.764045" x2="2059.764045" y1="103.500000" y2="108.500000" stroke="#AAAAAA" /><text style="font-size:10px;fill:#000000;" text-anchor="middle" x="2059.764045" y="118.500000">1504</text><line x1="2101.910112" x2="2101.910112" y1="103.500000" y2="108.500000" stroke="#AAAAAA" /><text style="font-size:10px;fill:#000000;" text-anchor="middle" x="2101.910112" y="118.500000">1535</text><line x1="2156.292135" x2="2156.292135" y1="103.500000" y2="108.500000" stroke="#AAAAAA" /><text style="font-size:10px;fill:#000000;" text-anchor="middle" x="2156.292135" y="118.500000">1575</text><line x1="2263.696629" x2="2263.696629" y1="103.500000" y2="108.500000" stroke="#AAAAAA" /><text style="font-size:10px;fill:#000000;" text-anchor="middle" x="2263.696629" y="118.500000">1654</text><line x1="2328.955056" x2="2328.955056" y1="103.500000" y2="108.500000" stroke="#AAAAAA" /><text style="font-size:10px;fill:#000000;" text-anchor="middle" x="2328.955056" y="118.500000">1702</text><line x1="2369.741573" x2="2369.741573" y1="103.500000" y2="108.500000" stroke="#AAAAAA" /><text style="font-size:10px;fill:#000000;" text-anchor="middle" x="2369.741573" y="118.500000">1732</text><line x1="2395.573034" x2="2395.573034" y1="103.500000" y2="108.500000" stroke="#AAAAAA" /><text style="font-size:10px;fill:#000000;" text-anchor="middle" x="2395.573034" y="118.500000">1751</text><line x1="2417.325843" x2="2417.325843" y1="103.500000" y2="108.500000" stroke="#AAAAAA" /><text style="font-size:10px;fill:#000000;" text-anchor="middle" x="2417.325843" y="118.500000">1767</text><line x1="2460.831461" x2="2460.831461" y1="103.500000" y2="108.500000" stroke="#AAAAAA" /><text style="font-size:10px;fill:#000000;" text-anchor="middle" x="2460.831461" y="118.500000">1799</text><line x1="2494.820225" x2="2494.820225" y1="103.500000" y2="108.500000" stroke="#AAAAAA" /><text style="font-size:10px;fill:#000000;" text-anchor="middle" x="2494.820225" y="118.500000">1824</text><line x1="2628.056180" x2="2628.056180" y1="103.500000" y2="108.500000" stroke="#AAAAAA" /><text style="font-size:10px;fill:#000000;" text-anchor="middle" x="2628.056180" y="118.500000">1922</text></g>
</svg>
