<?xml version='1.0'?>
<svg xmlns="http://www.w3.org/2000/svg" xmlns:xlink="http://www.w3.org/1999/xlink" width="1676.036036" height="198.500000">
<defs>
  <filter id="ds" x="0" y="0">
    <feOffset in="SourceAlpha" dx="2" dy="2" />
    <feComponentTransfer><feFuncA type="linear" slope="0.2"/></feComponentTransfer>
    <feGaussianBlur result="blurOut" stdDeviation="1" />
    <feBlend in="SourceGraphic" in2="blurOut" mode="normal" />
  </filter>
  <pattern id="disordered-hatch" patternUnits="userSpaceOnUse" width="4" height="4">
    <path d="M-1,1 l2,-2 M0,4 l4,-4 M3,5 l2,-2" stroke="#000000" opacity="0.3" />
  </pattern>
</defs>
<line x1="979.495495" x2="979.495495" y1="121.500000" y2="149.500000" stroke="#BABDB6" stroke-width="2"/><a xlink:title="p.E709_T710delinsD"><circle cx="979.495495" cy="121.500000" r="4.000000" fill="#0000ff" /></a><g transform="translate(979.495495,121.500000) rotate(-30)"><text style="font-size:10px;fill:#555;" text-anchor="middle" x="0" y="-6.000000">p.E709_T710delinsD</text></g><line x1="1029.828829" x2="1029.828829" y1="71.500000" y2="149.500000" stroke="#BABDB6" stroke-width="2"/><a xlink:title="p.E746_S752delinsV"><circle cx="1029.828829" cy="71.500000" r="4.000000" fill="#0000ff" /></a><g transform="translate(1029.828829,71.500000) rotate(-30)"><text style="font-size:10px;fill:#555;" text-anchor="middle" x="0" y="-6.000000">p.E746_S752delinsV</text></g><line x1="1029.828829" x2="1029.828829" y1="59.000000" y2="149.500000" stroke="#BABDB6" stroke-width="2"/><a xlink:title="p.E746_S752del"><circle cx="1029.828829" cy="59.000000" r="4.000000" fill="#0000ff" /></a><g transform="translate(1029.828829,59.000000) rotate(-30)"><text style="font-size:10px;fill:#555;" text-anchor="middle" x="0" y="-6.000000">p.E746_S752del</text></g><line x1="1029.828829" x2="1029.828829" y1="46.500000" y2="149.500000" stroke="#BABDB6" stroke-width="2"/><a xlink:title="p.E746_T751delinsA"><circle cx="1029.828829" cy="46.500000" r="4.000000" fill="#0000ff" /></a><g transform="translate(1029.828829,46.500000) rotate(-30)"><text style="font-size:10px;fill:#555;" text-anchor="middle" x="0" y="-6.000000">p.E746_T751delinsA</text></g><line x1="1029.828829" x2="1029.828829" y1="34.000000" y2="149.500000" stroke="#BABDB6" stroke-width="2"/><a xlink:title="p.E746_A750del"><circle cx="1029.828829" cy="34.000000" r="4.000000" fill="#0000ff" /></a><g transform="translate(1029.828829,34.000000) rotate(-30)"><text style="font-size:10px;fill:#555;" text-anchor="middle" x="0" y="-6.000000">p.E746_A750del</text></g><line x1="1031.189189" x2="1031.189189" y1="121.500000" y2="149.500000" stroke="#BABDB6" stroke-width="2"/><a xlink:title="p.L747_P753delinsS"><circle cx="1031.189189" cy="121.500000" r="4.000000" fill="#0000ff" /></a><g transform="translate(1031.189189,121.500000) rotate(-30)"><text style="font-size:10px;fill:#555;" text-anchor="middle" x="0" y="-6.000000">p.L747_P753delinsS</text></g><line x1="1031.189189" x2="1031.189189" y1="109.000000" y2="149.500000" stroke="#BABDB6" stroke-width="2"/><a xlink:title="p.L747_S752del"><circle cx="1031.189189" cy="109.000000" r="4.000000" fill="#0000ff" /></a><g transform="translate(1031.189189,109.000000) rotate(-30)"><text style="font-size:10px;fill:#555;" text-anchor="middle" x="0" y="-6.000000">p.L747_S752del</text></g><line x1="1031.189189" x2="1031.189189" y1="96.500000" y2="149.500000" stroke="#BABDB6" stroke-width="2"/><a xlink:title="p.L747_T751del"><circle cx="1031.189189" cy="96.500000" r="4.000000" fill="#0000ff" /></a><g transform="translate(1031.189189,96.500000) rotate(-30)"><text style="font-size:10px;fill:#555;" text-anchor="middle" x="0" y="-6.000000">p.L747_T751del</text></g><line x1="1031.189189" x2="1031.189189" y1="84.000000" y2="149.500000" stroke="#BABDB6" stroke-width="2"/><a xlink:title="p.L747_A750delinsP"><circle cx="1031.189189" cy="84.000000" r="4.000000" fill="#0000ff" /></a><g transform="translate(1031.189189,84.000000) rotate(-30)"><text style="font-size:10px;fill:#555;" text-anchor="middle" x="0" y="-6.000000">p.L747_A750delinsP</text></g><line x1="1052.954955" x2="1052.954955" y1="96.500000" y2="149.500000" stroke="#BABDB6" stroke-width="2"/><a xlink:title="p.A763_Y764insPQEA"><circle cx="1052.954955" cy="96.500000" r="4.000000" fill="#0000ff" /></a><g transform="translate(1052.954955,96.500000) rotate(-30)"><text style="font-size:10px;fill:#555;" text-anchor="middle" x="0" y="-6.000000">p.A763_Y764insPQEA</text></g><line x1="1054.315315" x2="1054.315315" y1="96.500000" y2="149.500000" stroke="#BABDB6" stroke-width="2"/><a xlink:title="p.Y764_V765insHH"><circle cx="1054.315315" cy="96.500000" r="4.000000" fill="#0000ff" /></a><g transform="translate(1054.315315,96.500000) rotate(-30)"><text style="font-size:10px;fill:#555;" text-anchor="middle" x="0" y="-6.000000">p.Y764_V765insHH</text></g><line x1="1057.036036" x2="1057.036036" y1="96.500000" y2="149.500000" stroke="#BABDB6" stroke-width="2"/><a xlink:title="p.M766_A767insAI"><circle cx="1057.036036" cy="96.500000" r="4.000000" fill="#0000ff" /></a><g transform="translate(1057.036036,96.500000) rotate(-30)"><text style="font-size:10px;fill:#555;" text-anchor="middle" x="0" y="-6.000000">p.M766_A767insAI</text></g><line x1="1059.756757" x2="1059.756757" y1="96.500000" y2="149.500000" stroke="#BABDB6" stroke-width="2"/><a xlink:title="p.S768_D770dupSVD"><circle cx="1059.756757" cy="96.500000" r="4.000000" fill="#0000ff" /></a><g transform="translate(1059.756757,96.500000) rotate(-30)"><text style="font-size:10px;fill:#555;" text-anchor="middle" x="0" y="-6.000000">p.S768_D770dupSVD</text></g><line x1="1062.477477" x2="1062.477477" y1="96.500000" y2="149.500000" stroke="#BABDB6" stroke-width="2"/><a xlink:title="p.D770_N771insNPG"><circle cx="1062.477477" cy="96.500000" r="4.000000" fill="#0000ff" /></a><g transform="translate(1062.477477,96.500000) rotate(-30)"><text style="font-size:10px;fill:#555;" text-anchor="middle" x="0" y="-6.000000">p.D770_N771insNPG</text></g><line x1="1063.837838" x2="1063.837838" y1="109.000000" y2="149.500000" stroke="#BABDB6" stroke-width="2"/><a xlink:title="p.N771_P772insH"><circle cx="1063.837838" cy="109.000000" r="4.000000" fill="#0000ff" /></a><g transform="translate(1063.837838,109.000000) rotate(-30)"><text style="font-size:10px;fill:#555;" text-anchor="middle" x="0" y="-6.000000">p.N771_P772insH</text></g><line x1="1066.558559" x2="1066.558559" y1="121.500000" y2="149.500000" stroke="#BABDB6" stroke-width="2"/><a xlink:title="p.H773_V774insH"><circle cx="1066.558559" cy="121.500000" r="4.000000" fill="#0000ff" /></a><g transform="translate(1066.558559,121.500000) rotate(-30)"><text style="font-size:10px;fill:#555;" text-anchor="middle" x="0" y="-6.000000">p.H773_V774insH</text></g><a xlink:title="EGFR_HUMAN, Epidermal growth factor receptor EC=2.7.10.1 (1210aa)"><rect fill="#BABDB6" x="15.000000" y="149.500000" width="1646.036036" height="14.000000"/></a><g transform="translate(92.540541,144.500000)"><a xlink:href="http://pfam.xfam.org/family/PF01030" xlink:title="Receptor L domain"><rect fill="#2dcf00" x="0" y="0" width="151.000000" height="24.000000" filter="url(#ds)"/><text style="font-size:12px;fill:#ffffff;" text-anchor="middle" x="75.500000" y="16.000000">Recep_L_domain</text></a></g>
<g transform="translate(255.783784,144.500000)"><a xlink:href="http://pfam.xfam.org/family/PF00757" xlink:title="Furin-like cysteine rich region"><rect fill="#ff5353" x="0" y="0" width="219.018018" height="24.000000" filter="url(#ds)"/><text style="font-size:12px;fill:#ffffff;" text-anchor="middle" x="109.509009" y="16.000000">Furin-like</text></a></g>
<g transform="translate(506.090090,144.500000)"><a xlink:href="http://pfam.xfam.org/family/PF01030" xlink:title="Receptor L domain"><rect fill="#2dcf00" x="0" y="0" width="163.243243" height="24.000000" filter="url(#ds)"/><text style="font-size:12px;fill:#ffffff;" text-anchor="middle" x="81.621622" y="16.000000">Recep_L_domain</text></a></g>
<g transform="translate(701.981982,144.500000)"><a xlink:href="http://pfam.xfam.org/family/PF14843" xlink:title="Growth factor receptor domain IV"><rect fill="#5b5bff" x="0" y="0" width="179.567568" height="24.000000" filter="url(#ds)"/><text style="font-size:12px;fill:#ffffff;" text-anchor="middle" x="89.783784" y="16.000000">GF_recep_IV</text></a></g>
<g transform="translate(983.576577,144.500000)"><a xlink:href="http://pfam.xfam.org/family/PF07714" xlink:title="Protein tyrosine kinase"><rect fill="#ebd61d" x="0" y="0" width="348.252252" height="24.000000" filter="url(#ds)"/><text style="font-size:12px;fill:#ffffff;" text-anchor="middle" x="174.126126" y="16.000000">Protein tyrosine kinase</text></a></g>
<g class="axis">
<line x1="15.000000" x2="1661.036036" y1="178.500000" y2="178.500000" stroke="#AAAAAA" /><line x1="15.000000" x2="15.000000" y1="178.500000" y2="183.500000" stroke="#AAAAAA" /><line x1="15.000000" x2="15.000000" y1="178.500000" y2="183.500000" stroke="#AAAAAA" /><text style="font-size:10px;fill:#000000;" text-anchor="middle" x="15.000000" y="193.500000">0</text><line x1="92.540541" x2="92.540541" y1="178.500000" y2="183.500000" stroke="#AAAAAA" /><text style="font-size:10px;fill:#000000;" text-anchor="middle" x="92.540541" y="193.500000">57</text><line x1="243.540541" x2="243.540541" y1="178.500000" y2="183.500000" stroke="#AAAAAA" /><text style="font-size:10px;fill:#000000;" text-anchor="middle" x="243.540541" y="193.500000">168</text><line x1="474.801802" x2="474.801802" y1="178.500000" y2="183.500000" stroke="#AAAAAA" /><text style="font-size:10px;fill:#000000;" text-anchor="middle" x="474.801802" y="193.500000">338</text><line x1="506.090090" x2="506.090090" y1="178.500000" y2="183.500000" stroke="#AAAAAA" /><text style="font-size:10px;fill:#000000;" text-anchor="middle" x="506.090090" y="193.500000">361</text><line x1="669.333333" x2="669.333333" y1="178.500000" y2="183.500000" stroke="#AAAAAA" /><text style="font-size:10px;fill:#000000;" text-anchor="middle" x="669.333333" y="193.500000">481</text><line x1="701.981982" x2="701.981982" y1="178.500000" y2="183.500000" stroke="#AAAAAA" /><text style="font-size:10px;fill:#000000;" text-anchor="middle" x="701.981982" y="193.500000">505</text><line x1="881.549550" x2="881.549550" y1="178.500000" y2="183.500000" stroke="#AAAAAA" /><text style="font-size:10px;fill:#000000;" text-anchor="middle" x="881.549550" y="193.500000">637</text><line x1="979.495495" x2="979.495495" y1="178.500000" y2="183.500000" stroke="#AAAAAA" /><text style="font-size:10px;fill:#000000;" text-anchor="middle" x="979.495495" y="193.500000">709</text><line x1="1029.828829" x2="1029.828829" y1="178.500000" y2="183.500000" stroke="#AAAAAA" /><text style="font-size:10px;fill:#000000;" text-anchor="middle" x="1029.828829" y="193.500000">746</text><line x1="1052.954955" x2="1052.954955" y1="178.500000" y2="183.500000" stroke="#AAAAAA" /><text style="font-size:10px;fill:#000000;" text-anchor="middle" x="1052.954955" y="193.500000">763</text><line x1="1331.828829" x2="1331.828829" y1="178.500000" y2="183.500000" stroke="#AAAAAA" /><text style="font-size:10px;fill:#000000;" text-anchor="middle" x="1331.828829" y="193.500000">968</text><line x1="1661.036036" x2="1661.036036" y1="178.500000" y2="183.500000" stroke="#AAAAAA" /><text style="font-size:10px;fill:#000000;" text-anchor="middle" x="1661.036036" y="193.500000">1210</text></g>
</svg>
