<?xml version='1.0'?>
<svg xmlns="http://www.w3.org/2000/svg" xmlns:xlink="http://www.w3.org/1999/xlink" width="1012.441860" height="111.000000">
<defs>
  <filter id="ds" x="0" y="0">
    <feOffset in="SourceAlpha" dx="2" dy="2" />
    <feComponentTransfer><feFuncA type="linear" slope="0.2"/></feComponentTransfer>
    <feGaussianBlur result="blurOut" stdDeviation="1" />
    <feBlend in="SourceGraphic" in2="blurOut" mode="normal" />
  </filter>
  <pattern id="disordered-hatch" patternUnits="userSpaceOnUse" width="4" height="4">
    <path d="M-1,1 l2,-2 M0,4 l4,-4 M3,5 l2,-2" stroke="#000000" opacity="0.3" />
  </pattern>
</defs>
<line x1="900.023256" x2="900.023256" y1="34.000000" y2="62.000000" stroke="#BABDB6" stroke-width="2"/><a xlink:title="p.L536_D538delinsP"><circle cx="900.023256" cy="34.000000" r="4.000000" fill="#0000ff" /></a><g transform="translate(900.023256,34.000000) rotate(-30)"><text style="font-size:10px;fill:#555;" text-anchor="middle" x="0" y="-6.000000">p.L536_D538delinsP</text></g><a xlink:title="ESR1_HUMAN, Estrogen receptor (595aa)"><rect fill="#BABDB6" x="15.000000" y="62.000000" width="982.441860" height="14.000000"/></a><g transform="translate(84.348837,57.000000)"><a xlink:href="http://pfam.xfam.org/family/PF02159" xlink:title="Oestrogen receptor"><rect fill="#2dcf00" x="0" y="0" width="229.511628" height="24.000000" filter="url(#ds)"/><text style="font-size:12px;fill:#ffffff;" text-anchor="middle" x="114.755814" y="16.000000">Oestrogen receptor</text></a></g>
<g transform="translate(317.162791,57.000000)"><a xlink:href="http://pfam.xfam.org/family/PF00105" xlink:title="Zinc finger, C4 type (two domains)"><rect fill="#ff5353" x="0" y="0" width="113.930233" height="24.000000" filter="url(#ds)"/><text style="font-size:12px;fill:#ffffff;" text-anchor="middle" x="56.965116" y="16.000000">zf-C4</text></a></g>
<g transform="translate(563.186047,57.000000)"><a xlink:href="http://pfam.xfam.org/family/PF00104" xlink:title="Ligand-binding domain of nuclear hormone receptor"><rect fill="#5b5bff" x="0" y="0" width="328.581395" height="24.000000" filter="url(#ds)"/><text style="font-size:12px;fill:#ffffff;" text-anchor="middle" x="164.290698" y="16.000000">Hormone_recep</text></a></g>
<g transform="translate(926.441860,57.000000)"><a xlink:href="http://pfam.xfam.org/family/PF12743" xlink:title="Oestrogen-type nuclear receptor final C-terminal "><rect fill="#ebd61d" x="0" y="0" width="71.000000" height="24.000000" filter="url(#ds)"/><text style="font-size:12px;fill:#ffffff;" text-anchor="middle" x="35.500000" y="16.000000">ESR1_C</text></a></g>
<g class="axis">
<line x1="15.000000" x2="997.441860" y1="91.000000" y2="91.000000" stroke="#AAAAAA" /><line x1="15.000000" x2="15.000000" y1="91.000000" y2="96.000000" stroke="#AAAAAA" /><line x1="15.000000" x2="15.000000" y1="91.000000" y2="96.000000" stroke="#AAAAAA" /><text style="font-size:10px;fill:#000000;" text-anchor="middle" x="15.000000" y="106.000000">0</text><line x1="84.348837" x2="84.348837" y1="91.000000" y2="96.000000" stroke="#AAAAAA" /><text style="font-size:10px;fill:#000000;" text-anchor="middle" x="84.348837" y="106.000000">42</text><line x1="313.860465" x2="313.860465" y1="91.000000" y2="96.000000" stroke="#AAAAAA" /><text style="font-size:10px;fill:#000000;" text-anchor="middle" x="313.860465" y="106.000000">181</text><line x1="431.093023" x2="431.093023" y1="91.000000" y2="96.000000" stroke="#AAAAAA" /><text style="font-size:10px;fill:#000000;" text-anchor="middle" x="431.093023" y="106.000000">252</text><line x1="563.186047" x2="563.186047" y1="91.000000" y2="96.000000" stroke="#AAAAAA" /><text style="font-size:10px;fill:#000000;" text-anchor="middle" x="563.186047" y="106.000000">332</text><line x1="900.023256" x2="900.023256" y1="91.000000" y2="96.000000" stroke="#AAAAAA" /><text style="font-size:10px;fill:#000000;" text-anchor="middle" x="900.023256" y="106.000000">536</text><line x1="926.441860" x2="926.441860" y1="91.000000" y2="96.000000" stroke="#AAAAAA" /><text style="font-size:10px;fill:#000000;" text-anchor="middle" x="926.441860" y="106.000000">552</text><line x1="997.441860" x2="997.441860" y1="91.000000" y2="96.000000" stroke="#AAAAAA" /><text style="font-size:10px;fill:#000000;" text-anchor="middle" x="997.441860" y="106.000000">595</text></g>
</svg>
