<?xml version='1.0'?>
<svg xmlns="http://www.w3.org/2000/svg" xmlns:xlink="http://www.w3.org/1999/xlink" width="612.337209" height="111.000000">
<defs>
  <filter id="ds" x="0" y="0">
    <feOffset in="SourceAlpha" dx="2" dy="2" />
    <feComponentTransfer><feFuncA type="linear" slope="0.2"/></feComponentTransfer>
    <feGaussianBlur result="blurOut" stdDeviation="1" />
    <feBlend in="SourceGraphic" in2="blurOut" mode="normal" />
  </filter>
  <pattern id="disordered-hatch" patternUnits="userSpaceOnUse" width="4" height="4">
    <path d="M-1,1 l2,-2 M0,4 l4,-4 M3,5 l2,-2" stroke="#000000" opacity="0.3" />
  </pattern>
</defs>
<line x1="204.383721" x2="204.383721" y1="34.000000" y2="62.000000" stroke="#BABDB6" stroke-width="2"/><a xlink:title="p.S267_D273dup"><circle cx="204.383721" cy="34.000000" r="4.000000" fill="#0000ff" /></a><g transform="translate(204.383721,34.000000) rotate(-30)"><text style="font-size:10px;fill:#555;" text-anchor="middle" x="0" y="-6.000000">p.S267_D273dup</text></g><line x1="220.697674" x2="220.697674" y1="34.000000" y2="62.000000" stroke="#BABDB6" stroke-width="2"/><a xlink:title="p.W290_I291delinsC"><circle cx="220.697674" cy="34.000000" r="4.000000" fill="#0000ff" /></a><g transform="translate(220.697674,34.000000) rotate(-30)"><text style="font-size:10px;fill:#555;" text-anchor="middle" x="0" y="-6.000000">p.W290_I291delinsC</text></g><a xlink:title="FGFR2_HUMAN, Fibroblast growth factor receptor 2 (821aa)"><rect fill="#BABDB6" x="15.000000" y="62.000000" width="582.337209" height="14.000000"/></a><g transform="translate(129.906977,57.000000)"><a xlink:href="http://pfam.xfam.org/family/PF07679" xlink:title="Immunoglobulin I-set domain"><rect fill="#2dcf00" x="0" y="0" width="61.000000" height="24.000000" filter="url(#ds)"/><text style="font-size:12px;fill:#ffffff;" text-anchor="middle" x="30.500000" y="16.000000">I-set</text></a></g>
<g transform="translate(199.418605,57.000000)"><a xlink:href="http://pfam.xfam.org/family/PF07679" xlink:title="Immunoglobulin I-set domain"><rect fill="#2dcf00" x="0" y="0" width="70.220930" height="24.000000" filter="url(#ds)"/><text style="font-size:12px;fill:#ffffff;" text-anchor="middle" x="35.110465" y="16.000000">I-set</text></a></g>
<g transform="translate(356.174419,57.000000)"><a xlink:href="http://pfam.xfam.org/family/PF07714" xlink:title="Protein tyrosine kinase"><rect fill="#ff5353" x="0" y="0" width="195.767442" height="24.000000" filter="url(#ds)"/><text style="font-size:12px;fill:#ffffff;" text-anchor="middle" x="97.883721" y="16.000000">Pkinase_Tyr</text></a></g>
<g class="axis">
<line x1="15.000000" x2="597.337209" y1="91.000000" y2="91.000000" stroke="#AAAAAA" /><line x1="15.000000" x2="15.000000" y1="91.000000" y2="96.000000" stroke="#AAAAAA" /><line x1="15.000000" x2="15.000000" y1="91.000000" y2="96.000000" stroke="#AAAAAA" /><text style="font-size:10px;fill:#000000;" text-anchor="middle" x="15.000000" y="106.000000">0</text><line x1="129.906977" x2="129.906977" y1="91.000000" y2="96.000000" stroke="#AAAAAA" /><text style="font-size:10px;fill:#000000;" text-anchor="middle" x="129.906977" y="106.000000">162</text><line x1="204.383721" x2="204.383721" y1="91.000000" y2="96.000000" stroke="#AAAAAA" /><text style="font-size:10px;fill:#000000;" text-anchor="middle" x="204.383721" y="106.000000">267</text><line x1="269.639535" x2="269.639535" y1="91.000000" y2="96.000000" stroke="#AAAAAA" /><text style="font-size:10px;fill:#000000;" text-anchor="middle" x="269.639535" y="106.000000">359</text><line x1="356.174419" x2="356.174419" y1="91.000000" y2="96.000000" stroke="#AAAAAA" /><text style="font-size:10px;fill:#000000;" text-anchor="middle" x="356.174419" y="106.000000">481</text><line x1="551.941860" x2="551.941860" y1="91.000000" y2="96.000000" stroke="#AAAAAA" /><text style="font-size:10px;fill:#000000;" text-anchor="middle" x="551.941860" y="106.000000">757</text><line x1="597.337209" x2="597.337209" y1="91.000000" y2="96.000000" stroke="#AAAAAA" /><text style="font-size:10px;fill:#000000;" text-anchor="middle" x="597.337209" y="106.000000">821</text></g>
</svg>
