<?xml version='1.0'?>
<svg xmlns="http://www.w3.org/2000/svg" xmlns:xlink="http://www.w3.org/1999/xlink" width="430.000000" height="161.000000">
<defs>
  <filter id="ds" x="0" y="0">
    <feOffset in="SourceAlpha" dx="2" dy="2" />
    <feComponentTransfer><feFuncA type="linear" slope="0.2"/></feComponentTransfer>
    <feGaussianBlur result="blurOut" stdDeviation="1" />
    <feBlend in="SourceGraphic" in2="blurOut" mode="normal" />
  </filter>
  <pattern id="disordered-hatch" patternUnits="userSpaceOnUse" width="4" height="4">
    <path d="M-1,1 l2,-2 M0,4 l4,-4 M3,5 l2,-2" stroke="#000000" opacity="0.3" />
  </pattern>
</defs>
<line x1="253.872105" x2="253.872105" y1="46.500000" y2="112.000000" stroke="#BABDB6" stroke-width="2"/><a xlink:title="p.D593del"><circle cx="253.872105" cy="46.500000" r="4.000000" fill="#ff0000" /></a><g transform="translate(253.872105,46.500000) rotate(-30)"><text style="font-size:10px;fill:#555;" text-anchor="middle" x="0" y="-6.000000">p.D593del</text></g><line x1="255.886203" x2="255.886203" y1="34.000000" y2="112.000000" stroke="#BABDB6" stroke-width="2"/><a xlink:title="p.E598_Y599insGLVQVTGSSDNEYFYVDFREYE"><circle cx="255.886203" cy="34.000000" r="4.000000" fill="#0000ff" /></a><g transform="translate(255.886203,34.000000) rotate(-30)"><text style="font-size:10px;fill:#555;" text-anchor="middle" x="0" y="-6.000000">p.E598_Y599insGLVQVTGSSDNEYFYVDFREYE</text></g><line x1="256.289023" x2="256.289023" y1="46.500000" y2="112.000000" stroke="#BABDB6" stroke-width="2"/><a xlink:title="p.Y599_D600insGLYVDFREYEY"><circle cx="256.289023" cy="46.500000" r="4.000000" fill="#0000ff" /></a><g transform="translate(256.289023,46.500000) rotate(-30)"><text style="font-size:10px;fill:#555;" text-anchor="middle" x="0" y="-6.000000">p.Y599_D600insGLYVDFREYEY</text></g><line x1="257.094663" x2="257.094663" y1="59.000000" y2="112.000000" stroke="#BABDB6" stroke-width="2"/><a xlink:title="p.L601_K602insREYEYDL"><circle cx="257.094663" cy="59.000000" r="4.000000" fill="#0000ff" /></a><g transform="translate(257.094663,59.000000) rotate(-30)"><text style="font-size:10px;fill:#555;" text-anchor="middle" x="0" y="-6.000000">p.L601_K602insREYEYDL</text></g><line x1="260.720040" x2="260.720040" y1="71.500000" y2="112.000000" stroke="#BABDB6" stroke-width="2"/><a xlink:title="p.L610_E611insCSSDNEYFYVDFREYEYDLKWEFPRENL"><circle cx="260.720040" cy="71.500000" r="4.000000" fill="#0000ff" /></a><g transform="translate(260.720040,71.500000) rotate(-30)"><text style="font-size:10px;fill:#555;" text-anchor="middle" x="0" y="-6.000000">p.L610_E611insCSSDNEYFYVDFREYEYDLKWEFPRENL</text></g><line x1="261.122860" x2="261.122860" y1="84.000000" y2="112.000000" stroke="#BABDB6" stroke-width="2"/><a xlink:title="p.E611_F612insGYVDFREYEYDLKWEFRPRENLEF"><circle cx="261.122860" cy="84.000000" r="4.000000" fill="#0000ff" /></a><g transform="translate(261.122860,84.000000) rotate(-30)"><text style="font-size:10px;fill:#555;" text-anchor="middle" x="0" y="-6.000000">p.E611_F612insGYVDFREYEYDLKWEFRPRENLEF</text></g><line x1="351.354481" x2="351.354481" y1="46.500000" y2="112.000000" stroke="#BABDB6" stroke-width="2"/><a xlink:title="p.D835del"><circle cx="351.354481" cy="46.500000" r="4.000000" fill="#ff0000" /></a><g transform="translate(351.354481,46.500000) rotate(-30)"><text style="font-size:10px;fill:#555;" text-anchor="middle" x="0" y="-6.000000">p.D835del</text></g><line x1="351.757301" x2="351.757301" y1="71.500000" y2="112.000000" stroke="#BABDB6" stroke-width="2"/><a xlink:title="p.I836delinsMN"><circle cx="351.757301" cy="71.500000" r="4.000000" fill="#ff0000" /></a><g transform="translate(351.757301,71.500000) rotate(-30)"><text style="font-size:10px;fill:#555;" text-anchor="middle" x="0" y="-6.000000">p.I836delinsMN</text></g><line x1="351.757301" x2="351.757301" y1="59.000000" y2="112.000000" stroke="#BABDB6" stroke-width="2"/><a xlink:title="p.I836del"><circle cx="351.757301" cy="59.000000" r="4.000000" fill="#ff0000" /></a><g transform="translate(351.757301,59.000000) rotate(-30)"><text style="font-size:10px;fill:#555;" text-anchor="middle" x="0" y="-6.000000">p.I836del</text></g><line x1="353.368580" x2="353.368580" y1="84.000000" y2="112.000000" stroke="#BABDB6" stroke-width="2"/><a xlink:title="p.S840_N841insGS"><circle cx="353.368580" cy="84.000000" r="4.000000" fill="#0000ff" /></a><g transform="translate(353.368580,84.000000) rotate(-30)"><text style="font-size:10px;fill:#555;" text-anchor="middle" x="0" y="-6.000000">p.S840_N841insGS</text></g><a xlink:title="FLT3_HUMAN, Receptor-type tyrosine-protein kinase FLT3 EC=2.7.10.1 (993aa)"><rect fill="#BABDB6" x="15.000000" y="112.000000" width="400.000000" height="14.000000"/></a><g transform="translate(117.719033,107.000000)"><a xlink:href="http://pfam.xfam.org/family/PF00047" xlink:title="Immunoglobulin domain"><rect fill="#2dcf00" x="0" y="0" width="36.253776" height="24.000000" filter="url(#ds)"/><text style="font-size:12px;fill:#ffffff;" text-anchor="middle" x="18.126888" y="16.000000">ig</text></a></g>
<g transform="translate(260.720040,107.000000)"><a xlink:href="http://pfam.xfam.org/family/PF07714" xlink:title="Protein tyrosine kinase"><rect fill="#ff5353" x="0" y="0" width="134.138973" height="24.000000" filter="url(#ds)"/><text style="font-size:12px;fill:#ffffff;" text-anchor="middle" x="67.069486" y="16.000000">Pkinase_Tyr</text></a></g>
<g class="axis">
<line x1="15.000000" x2="415.000000" y1="141.000000" y2="141.000000" stroke="#AAAAAA" /><line x1="15.000000" x2="15.000000" y1="141.000000" y2="146.000000" stroke="#AAAAAA" /><line x1="15.000000" x2="15.000000" y1="141.000000" y2="146.000000" stroke="#AAAAAA" /><text style="font-size:10px;fill:#000000;" text-anchor="middle" x="15.000000" y="156.000000">0</text><line x1="117.719033" x2="117.719033" y1="141.000000" y2="146.000000" stroke="#AAAAAA" /><text style="font-size:10px;fill:#000000;" text-anchor="middle" x="117.719033" y="156.000000">255</text><line x1="153.972810" x2="153.972810" y1="141.000000" y2="146.000000" stroke="#AAAAAA" /><text style="font-size:10px;fill:#000000;" text-anchor="middle" x="153.972810" y="156.000000">345</text><line x1="253.872105" x2="253.872105" y1="141.000000" y2="146.000000" stroke="#AAAAAA" /><text style="font-size:10px;fill:#000000;" text-anchor="middle" x="253.872105" y="156.000000">593</text><line x1="351.354481" x2="351.354481" y1="141.000000" y2="146.000000" stroke="#AAAAAA" /><text style="font-size:10px;fill:#000000;" text-anchor="middle" x="351.354481" y="156.000000">835</text><line x1="394.859013" x2="394.859013" y1="141.000000" y2="146.000000" stroke="#AAAAAA" /><text style="font-size:10px;fill:#000000;" text-anchor="middle" x="394.859013" y="156.000000">943</text><line x1="415.000000" x2="415.000000" y1="141.000000" y2="146.000000" stroke="#AAAAAA" /><text style="font-size:10px;fill:#000000;" text-anchor="middle" x="415.000000" y="156.000000">993</text></g>
</svg>
