<?xml version='1.0'?>
<svg xmlns="http://www.w3.org/2000/svg" xmlns:xlink="http://www.w3.org/1999/xlink" width="705.826667" height="111.000000">
<defs>
  <filter id="ds" x="0" y="0">
    <feOffset in="SourceAlpha" dx="2" dy="2" />
    <feComponentTransfer><feFuncA type="linear" slope="0.2"/></feComponentTransfer>
    <feGaussianBlur result="blurOut" stdDeviation="1" />
    <feBlend in="SourceGraphic" in2="blurOut" mode="normal" />
  </filter>
  <pattern id="disordered-hatch" patternUnits="userSpaceOnUse" width="4" height="4">
    <path d="M-1,1 l2,-2 M0,4 l4,-4 M3,5 l2,-2" stroke="#000000" opacity="0.3" />
  </pattern>
</defs>
<line x1="34.413333" x2="34.413333" y1="34.000000" y2="62.000000" stroke="#BABDB6" stroke-width="2"/><a xlink:title="p.L16Cfs"><circle cx="34.413333" cy="34.000000" r="4.000000" fill="#ff0000" /></a><g transform="translate(34.413333,34.000000) rotate(-30)"><text style="font-size:10px;fill:#555;" text-anchor="middle" x="0" y="-6.000000">p.L16Cfs</text></g><a xlink:title="HNF1B_HUMAN, Hepatocyte nuclear factor 1-beta (557aa)"><rect fill="#BABDB6" x="15.000000" y="62.000000" width="675.826667" height="14.000000"/></a><g transform="translate(24.706667,57.000000)"><a xlink:href="http://pfam.xfam.org/family/PF04814" xlink:title="Hepatocyte nuclear factor 1 (HNF-1), N terminus"><rect fill="#2dcf00" x="0" y="0" width="201.413333" height="24.000000" filter="url(#ds)"/><text style="font-size:12px;fill:#ffffff;" text-anchor="middle" x="100.706667" y="16.000000">HNF-1_N</text></a></g>
<g transform="translate(296.493333,57.000000)"><a xlink:href="http://pfam.xfam.org/family/PF00046" xlink:title="Homeobox domain"><rect fill="#ff5353" x="0" y="0" width="91.000000" height="24.000000" filter="url(#ds)"/><text style="font-size:12px;fill:#ffffff;" text-anchor="middle" x="45.500000" y="16.000000">Homeobox</text></a></g>
<g transform="translate(395.986667,57.000000)"><a xlink:href="http://pfam.xfam.org/family/PF04812" xlink:title="Hepatocyte nuclear factor 1 (HNF-1), beta isoform C terminus"><rect fill="#5b5bff" x="0" y="0" width="286.346667" height="24.000000" filter="url(#ds)"/><text style="font-size:12px;fill:#ffffff;" text-anchor="middle" x="143.173333" y="16.000000">HNF-1B_C</text></a></g>
<g class="axis">
<line x1="15.000000" x2="690.826667" y1="91.000000" y2="91.000000" stroke="#AAAAAA" /><line x1="15.000000" x2="15.000000" y1="91.000000" y2="96.000000" stroke="#AAAAAA" /><line x1="34.413333" x2="34.413333" y1="91.000000" y2="96.000000" stroke="#AAAAAA" /><text style="font-size:10px;fill:#000000;" text-anchor="middle" x="34.413333" y="106.000000">16</text><line x1="226.120000" x2="226.120000" y1="91.000000" y2="96.000000" stroke="#AAAAAA" /><text style="font-size:10px;fill:#000000;" text-anchor="middle" x="226.120000" y="106.000000">174</text><line x1="296.493333" x2="296.493333" y1="91.000000" y2="96.000000" stroke="#AAAAAA" /><text style="font-size:10px;fill:#000000;" text-anchor="middle" x="296.493333" y="106.000000">232</text><line x1="387.493333" x2="387.493333" y1="91.000000" y2="96.000000" stroke="#AAAAAA" /><text style="font-size:10px;fill:#000000;" text-anchor="middle" x="387.493333" y="106.000000">307</text><line x1="690.826667" x2="690.826667" y1="91.000000" y2="96.000000" stroke="#AAAAAA" /><text style="font-size:10px;fill:#000000;" text-anchor="middle" x="690.826667" y="106.000000">557</text></g>
</svg>
