<?xml version='1.0'?>
<svg xmlns="http://www.w3.org/2000/svg" xmlns:xlink="http://www.w3.org/1999/xlink" width="795.613333" height="111.000000">
<defs>
  <filter id="ds" x="0" y="0">
    <feOffset in="SourceAlpha" dx="2" dy="2" />
    <feComponentTransfer><feFuncA type="linear" slope="0.2"/></feComponentTransfer>
    <feGaussianBlur result="blurOut" stdDeviation="1" />
    <feBlend in="SourceGraphic" in2="blurOut" mode="normal" />
  </filter>
  <pattern id="disordered-hatch" patternUnits="userSpaceOnUse" width="4" height="4">
    <path d="M-1,1 l2,-2 M0,4 l4,-4 M3,5 l2,-2" stroke="#000000" opacity="0.3" />
  </pattern>
</defs>
<line x1="369.293333" x2="369.293333" y1="34.000000" y2="62.000000" stroke="#BABDB6" stroke-width="2"/><a xlink:title="p.G292Rfs"><circle cx="369.293333" cy="34.000000" r="4.000000" fill="#ff0000" /></a><g transform="translate(369.293333,34.000000) rotate(-30)"><text style="font-size:10px;fill:#555;" text-anchor="middle" x="0" y="-6.000000">p.G292Rfs</text></g><a xlink:title="HNF1A_HUMAN, Hepatocyte nuclear factor 1-alpha (631aa)"><rect fill="#BABDB6" x="15.000000" y="62.000000" width="765.613333" height="14.000000"/></a><g transform="translate(24.706667,57.000000)"><a xlink:href="http://pfam.xfam.org/family/PF04814" xlink:title="Hepatocyte nuclear factor 1 (HNF-1), N terminus"><rect fill="#2dcf00" x="0" y="0" width="194.133333" height="24.000000" filter="url(#ds)"/><text style="font-size:12px;fill:#ffffff;" text-anchor="middle" x="97.066667" y="16.000000">HNF-1_N</text></a></g>
<g transform="translate(257.666667,57.000000)"><a xlink:href="http://pfam.xfam.org/family/PF00046" xlink:title="Homeobox domain"><rect fill="#ff5353" x="0" y="0" width="91.000000" height="24.000000" filter="url(#ds)"/><text style="font-size:12px;fill:#ffffff;" text-anchor="middle" x="45.500000" y="16.000000">Homeobox</text></a></g>
<g transform="translate(357.160000,57.000000)"><a xlink:href="http://pfam.xfam.org/family/PF04812" xlink:title="Hepatocyte nuclear factor 1 (HNF-1), beta isoform C terminus"><rect fill="#5b5bff" x="0" y="0" width="313.040000" height="24.000000" filter="url(#ds)"/><text style="font-size:12px;fill:#ffffff;" text-anchor="middle" x="156.520000" y="16.000000">HNF-1B_C</text></a></g>
<g transform="translate(672.626667,57.000000)"><a xlink:href="http://pfam.xfam.org/family/PF04813" xlink:title="Hepatocyte nuclear factor 1 (HNF-1), alpha isoform C terminus"><rect fill="#ebd61d" x="0" y="0" width="106.773333" height="24.000000" filter="url(#ds)"/><text style="font-size:12px;fill:#ffffff;" text-anchor="middle" x="53.386667" y="16.000000">HNF-1A_C</text></a></g>
<g class="axis">
<line x1="15.000000" x2="780.613333" y1="91.000000" y2="91.000000" stroke="#AAAAAA" /><line x1="15.000000" x2="15.000000" y1="91.000000" y2="96.000000" stroke="#AAAAAA" /><line x1="24.706667" x2="24.706667" y1="91.000000" y2="96.000000" stroke="#AAAAAA" /><text style="font-size:10px;fill:#000000;" text-anchor="middle" x="24.706667" y="106.000000">8</text><line x1="218.840000" x2="218.840000" y1="91.000000" y2="96.000000" stroke="#AAAAAA" /><text style="font-size:10px;fill:#000000;" text-anchor="middle" x="218.840000" y="106.000000">168</text><line x1="257.666667" x2="257.666667" y1="91.000000" y2="96.000000" stroke="#AAAAAA" /><text style="font-size:10px;fill:#000000;" text-anchor="middle" x="257.666667" y="106.000000">200</text><line x1="348.666667" x2="348.666667" y1="91.000000" y2="96.000000" stroke="#AAAAAA" /><text style="font-size:10px;fill:#000000;" text-anchor="middle" x="348.666667" y="106.000000">275</text><line x1="369.293333" x2="369.293333" y1="91.000000" y2="96.000000" stroke="#AAAAAA" /><text style="font-size:10px;fill:#000000;" text-anchor="middle" x="369.293333" y="106.000000">292</text><line x1="670.200000" x2="670.200000" y1="91.000000" y2="96.000000" stroke="#AAAAAA" /><text style="font-size:10px;fill:#000000;" text-anchor="middle" x="670.200000" y="106.000000">540</text><line x1="780.613333" x2="780.613333" y1="91.000000" y2="96.000000" stroke="#AAAAAA" /><text style="font-size:10px;fill:#000000;" text-anchor="middle" x="780.613333" y="106.000000">631</text></g>
</svg>
