<?xml version='1.0'?>
<svg xmlns="http://www.w3.org/2000/svg" xmlns:xlink="http://www.w3.org/1999/xlink" width="430.000000" height="248.500000">
<defs>
  <filter id="ds" x="0" y="0">
    <feOffset in="SourceAlpha" dx="2" dy="2" />
    <feComponentTransfer><feFuncA type="linear" slope="0.2"/></feComponentTransfer>
    <feGaussianBlur result="blurOut" stdDeviation="1" />
    <feBlend in="SourceGraphic" in2="blurOut" mode="normal" />
  </filter>
  <pattern id="disordered-hatch" patternUnits="userSpaceOnUse" width="4" height="4">
    <path d="M-1,1 l2,-2 M0,4 l4,-4 M3,5 l2,-2" stroke="#000000" opacity="0.3" />
  </pattern>
</defs>
<line x1="185.901639" x2="185.901639" y1="121.500000" y2="199.500000" stroke="#BABDB6" stroke-width="2"/><a xlink:title="p.T417_D419del"><circle cx="185.901639" cy="121.500000" r="4.000000" fill="#0000ff" /></a><g transform="translate(185.901639,121.500000) rotate(-30)"><text style="font-size:10px;fill:#555;" text-anchor="middle" x="0" y="-6.000000">p.T417_D419del</text></g><line x1="185.901639" x2="185.901639" y1="134.000000" y2="199.500000" stroke="#BABDB6" stroke-width="2"/><a xlink:title="p.T417_D419delinsRG"><circle cx="185.901639" cy="134.000000" r="4.000000" fill="#0000ff" /></a><g transform="translate(185.901639,134.000000) rotate(-30)"><text style="font-size:10px;fill:#555;" text-anchor="middle" x="0" y="-6.000000">p.T417_D419delinsRG</text></g><line x1="185.901639" x2="185.901639" y1="146.500000" y2="199.500000" stroke="#BABDB6" stroke-width="2"/><a xlink:title="p.T417_D419delinsI"><circle cx="185.901639" cy="146.500000" r="4.000000" fill="#0000ff" /></a><g transform="translate(185.901639,146.500000) rotate(-30)"><text style="font-size:10px;fill:#555;" text-anchor="middle" x="0" y="-6.000000">p.T417_D419delinsI</text></g><line x1="186.311475" x2="186.311475" y1="159.000000" y2="199.500000" stroke="#BABDB6" stroke-width="2"/><a xlink:title="p.Y418_D419del"><circle cx="186.311475" cy="159.000000" r="4.000000" fill="#0000ff" /></a><g transform="translate(186.311475,159.000000) rotate(-30)"><text style="font-size:10px;fill:#555;" text-anchor="middle" x="0" y="-6.000000">p.Y418_D419del</text></g><line x1="186.721311" x2="186.721311" y1="171.500000" y2="199.500000" stroke="#BABDB6" stroke-width="2"/><a xlink:title="p.D419del"><circle cx="186.721311" cy="171.500000" r="4.000000" fill="#ff0000" /></a><g transform="translate(186.721311,171.500000) rotate(-30)"><text style="font-size:10px;fill:#555;" text-anchor="middle" x="0" y="-6.000000">p.D419del</text></g><line x1="220.737705" x2="220.737705" y1="159.000000" y2="199.500000" stroke="#BABDB6" stroke-width="2"/><a xlink:title="p.A502_Y503insSA"><circle cx="220.737705" cy="159.000000" r="4.000000" fill="#0000ff" /></a><g transform="translate(220.737705,159.000000) rotate(-30)"><text style="font-size:10px;fill:#555;" text-anchor="middle" x="0" y="-6.000000">p.A502_Y503insSA</text></g><line x1="220.737705" x2="220.737705" y1="146.500000" y2="199.500000" stroke="#BABDB6" stroke-width="2"/><a xlink:title="p.A502_Y503dup"><circle cx="220.737705" cy="146.500000" r="4.000000" fill="#0000ff" /></a><g transform="translate(220.737705,146.500000) rotate(-30)"><text style="font-size:10px;fill:#555;" text-anchor="middle" x="0" y="-6.000000">p.A502_Y503dup</text></g><line x1="221.147541" x2="221.147541" y1="171.500000" y2="199.500000" stroke="#BABDB6" stroke-width="2"/><a xlink:title="p.Y503_F504insAY"><circle cx="221.147541" cy="171.500000" r="4.000000" fill="#0000ff" /></a><g transform="translate(221.147541,171.500000) rotate(-30)"><text style="font-size:10px;fill:#555;" text-anchor="middle" x="0" y="-6.000000">p.Y503_F504insAY</text></g><line x1="240.409836" x2="240.409836" y1="34.000000" y2="199.500000" stroke="#BABDB6" stroke-width="2"/><a xlink:title="p.K550_V555delinsI"><circle cx="240.409836" cy="34.000000" r="4.000000" fill="#0000ff" /></a><g transform="translate(240.409836,34.000000) rotate(-30)"><text style="font-size:10px;fill:#555;" text-anchor="middle" x="0" y="-6.000000">p.K550_V555delinsI</text></g><line x1="240.409836" x2="240.409836" y1="46.500000" y2="199.500000" stroke="#BABDB6" stroke-width="2"/><a xlink:title="p.K550_K558del"><circle cx="240.409836" cy="46.500000" r="4.000000" fill="#0000ff" /></a><g transform="translate(240.409836,46.500000) rotate(-30)"><text style="font-size:10px;fill:#555;" text-anchor="middle" x="0" y="-6.000000">p.K550_K558del</text></g><line x1="240.819672" x2="240.819672" y1="59.000000" y2="199.500000" stroke="#BABDB6" stroke-width="2"/><a xlink:title="p.P551_V555del"><circle cx="240.819672" cy="59.000000" r="4.000000" fill="#0000ff" /></a><g transform="translate(240.819672,59.000000) rotate(-30)"><text style="font-size:10px;fill:#555;" text-anchor="middle" x="0" y="-6.000000">p.P551_V555del</text></g><line x1="241.639344" x2="241.639344" y1="71.500000" y2="199.500000" stroke="#BABDB6" stroke-width="2"/><a xlink:title="p.Y553_Q556del"><circle cx="241.639344" cy="71.500000" r="4.000000" fill="#0000ff" /></a><g transform="translate(241.639344,71.500000) rotate(-30)"><text style="font-size:10px;fill:#555;" text-anchor="middle" x="0" y="-6.000000">p.Y553_Q556del</text></g><line x1="242.459016" x2="242.459016" y1="71.500000" y2="199.500000" stroke="#BABDB6" stroke-width="2"/><a xlink:title="p.V555_P573del"><circle cx="242.459016" cy="71.500000" r="4.000000" fill="#0000ff" /></a><g transform="translate(242.459016,71.500000) rotate(-30)"><text style="font-size:10px;fill:#555;" text-anchor="middle" x="0" y="-6.000000">p.V555_P573del</text></g><line x1="243.278689" x2="243.278689" y1="84.000000" y2="199.500000" stroke="#BABDB6" stroke-width="2"/><a xlink:title="p.W557del"><circle cx="243.278689" cy="84.000000" r="4.000000" fill="#ff0000" /></a><g transform="translate(243.278689,84.000000) rotate(-30)"><text style="font-size:10px;fill:#555;" text-anchor="middle" x="0" y="-6.000000">p.W557del</text></g><line x1="243.278689" x2="243.278689" y1="96.500000" y2="199.500000" stroke="#BABDB6" stroke-width="2"/><a xlink:title="p.W557_K558del"><circle cx="243.278689" cy="96.500000" r="4.000000" fill="#0000ff" /></a><g transform="translate(243.278689,96.500000) rotate(-30)"><text style="font-size:10px;fill:#555;" text-anchor="middle" x="0" y="-6.000000">p.W557_K558del</text></g><line x1="243.688525" x2="243.688525" y1="109.000000" y2="199.500000" stroke="#BABDB6" stroke-width="2"/><a xlink:title="p.K558del"><circle cx="243.688525" cy="109.000000" r="4.000000" fill="#ff0000" /></a><g transform="translate(243.688525,109.000000) rotate(-30)"><text style="font-size:10px;fill:#555;" text-anchor="middle" x="0" y="-6.000000">p.K558del</text></g><line x1="243.688525" x2="243.688525" y1="121.500000" y2="199.500000" stroke="#BABDB6" stroke-width="2"/><a xlink:title="p.K558delinsNP"><circle cx="243.688525" cy="121.500000" r="4.000000" fill="#ff0000" /></a><g transform="translate(243.688525,121.500000) rotate(-30)"><text style="font-size:10px;fill:#555;" text-anchor="middle" x="0" y="-6.000000">p.K558delinsNP</text></g><line x1="244.098361" x2="244.098361" y1="134.000000" y2="199.500000" stroke="#BABDB6" stroke-width="2"/><a xlink:title="p.V559del"><circle cx="244.098361" cy="134.000000" r="4.000000" fill="#ff0000" /></a><g transform="translate(244.098361,134.000000) rotate(-30)"><text style="font-size:10px;fill:#555;" text-anchor="middle" x="0" y="-6.000000">p.V559del</text></g><line x1="244.098361" x2="244.098361" y1="146.500000" y2="199.500000" stroke="#BABDB6" stroke-width="2"/><a xlink:title="p.V559_V560del"><circle cx="244.098361" cy="146.500000" r="4.000000" fill="#0000ff" /></a><g transform="translate(244.098361,146.500000) rotate(-30)"><text style="font-size:10px;fill:#555;" text-anchor="middle" x="0" y="-6.000000">p.V559_V560del</text></g><line x1="244.508197" x2="244.508197" y1="159.000000" y2="199.500000" stroke="#BABDB6" stroke-width="2"/><a xlink:title="p.V560del"><circle cx="244.508197" cy="159.000000" r="4.000000" fill="#ff0000" /></a><g transform="translate(244.508197,159.000000) rotate(-30)"><text style="font-size:10px;fill:#555;" text-anchor="middle" x="0" y="-6.000000">p.V560del</text></g><line x1="248.196721" x2="248.196721" y1="146.500000" y2="199.500000" stroke="#BABDB6" stroke-width="2"/><a xlink:title="p.V569_Y578del"><circle cx="248.196721" cy="146.500000" r="4.000000" fill="#0000ff" /></a><g transform="translate(248.196721,146.500000) rotate(-30)"><text style="font-size:10px;fill:#555;" text-anchor="middle" x="0" y="-6.000000">p.V569_Y578del</text></g><line x1="251.475410" x2="251.475410" y1="159.000000" y2="199.500000" stroke="#BABDB6" stroke-width="2"/><a xlink:title="p.P577_D579del"><circle cx="251.475410" cy="159.000000" r="4.000000" fill="#0000ff" /></a><g transform="translate(251.475410,159.000000) rotate(-30)"><text style="font-size:10px;fill:#555;" text-anchor="middle" x="0" y="-6.000000">p.P577_D579del</text></g><line x1="252.295082" x2="252.295082" y1="171.500000" y2="199.500000" stroke="#BABDB6" stroke-width="2"/><a xlink:title="p.D579del"><circle cx="252.295082" cy="171.500000" r="4.000000" fill="#ff0000" /></a><g transform="translate(252.295082,171.500000) rotate(-30)"><text style="font-size:10px;fill:#555;" text-anchor="middle" x="0" y="-6.000000">p.D579del</text></g><line x1="350.245902" x2="350.245902" y1="171.500000" y2="199.500000" stroke="#BABDB6" stroke-width="2"/><a xlink:title="p.K818_D820delinsN"><circle cx="350.245902" cy="171.500000" r="4.000000" fill="#0000ff" /></a><g transform="translate(350.245902,171.500000) rotate(-30)"><text style="font-size:10px;fill:#555;" text-anchor="middle" x="0" y="-6.000000">p.K818_D820delinsN</text></g><a xlink:title="KIT_HUMAN, Mast/stem cell growth factor receptor Kit EC=2.7.10.1 (976aa)"><rect fill="#BABDB6" x="15.000000" y="199.500000" width="400.000000" height="14.000000"/></a><g transform="translate(103.524590,194.500000)"><a xlink:href="http://pfam.xfam.org/family/PF00047" xlink:title="Immunoglobulin domain"><rect fill="#2dcf00" x="0" y="0" width="36.475410" height="24.000000" filter="url(#ds)"/><text style="font-size:12px;fill:#ffffff;" text-anchor="middle" x="18.237705" y="16.000000">ig</text></a></g>
<g transform="translate(256.393443,194.500000)"><a xlink:href="http://pfam.xfam.org/family/PF07714" xlink:title="Protein tyrosine kinase"><rect fill="#ff5353" x="0" y="0" width="137.295082" height="24.000000" filter="url(#ds)"/><text style="font-size:12px;fill:#ffffff;" text-anchor="middle" x="68.647541" y="16.000000">Pkinase_Tyr</text></a></g>
<g class="axis">
<line x1="15.000000" x2="415.000000" y1="228.500000" y2="228.500000" stroke="#AAAAAA" /><line x1="15.000000" x2="15.000000" y1="228.500000" y2="233.500000" stroke="#AAAAAA" /><line x1="15.000000" x2="15.000000" y1="228.500000" y2="233.500000" stroke="#AAAAAA" /><text style="font-size:10px;fill:#000000;" text-anchor="middle" x="15.000000" y="243.500000">0</text><line x1="103.524590" x2="103.524590" y1="228.500000" y2="233.500000" stroke="#AAAAAA" /><text style="font-size:10px;fill:#000000;" text-anchor="middle" x="103.524590" y="243.500000">216</text><line x1="140.000000" x2="140.000000" y1="228.500000" y2="233.500000" stroke="#AAAAAA" /><text style="font-size:10px;fill:#000000;" text-anchor="middle" x="140.000000" y="243.500000">305</text><line x1="185.901639" x2="185.901639" y1="228.500000" y2="233.500000" stroke="#AAAAAA" /><text style="font-size:10px;fill:#000000;" text-anchor="middle" x="185.901639" y="243.500000">417</text><line x1="220.737705" x2="220.737705" y1="228.500000" y2="233.500000" stroke="#AAAAAA" /><text style="font-size:10px;fill:#000000;" text-anchor="middle" x="220.737705" y="243.500000">502</text><line x1="240.409836" x2="240.409836" y1="228.500000" y2="233.500000" stroke="#AAAAAA" /><text style="font-size:10px;fill:#000000;" text-anchor="middle" x="240.409836" y="243.500000">550</text><line x1="350.245902" x2="350.245902" y1="228.500000" y2="233.500000" stroke="#AAAAAA" /><text style="font-size:10px;fill:#000000;" text-anchor="middle" x="350.245902" y="243.500000">818</text><line x1="393.688525" x2="393.688525" y1="228.500000" y2="233.500000" stroke="#AAAAAA" /><text style="font-size:10px;fill:#000000;" text-anchor="middle" x="393.688525" y="243.500000">924</text><line x1="415.000000" x2="415.000000" y1="228.500000" y2="233.500000" stroke="#AAAAAA" /><text style="font-size:10px;fill:#000000;" text-anchor="middle" x="415.000000" y="243.500000">976</text></g>
</svg>
