<?xml version='1.0'?>
<svg xmlns="http://www.w3.org/2000/svg" xmlns:xlink="http://www.w3.org/1999/xlink" width="989.294118" height="123.500000">
<defs>
  <filter id="ds" x="0" y="0">
    <feOffset in="SourceAlpha" dx="2" dy="2" />
    <feComponentTransfer><feFuncA type="linear" slope="0.2"/></feComponentTransfer>
    <feGaussianBlur result="blurOut" stdDeviation="1" />
    <feBlend in="SourceGraphic" in2="blurOut" mode="normal" />
  </filter>
  <pattern id="disordered-hatch" patternUnits="userSpaceOnUse" width="4" height="4">
    <path d="M-1,1 l2,-2 M0,4 l4,-4 M3,5 l2,-2" stroke="#000000" opacity="0.3" />
  </pattern>
</defs>
<line x1="60.680672" x2="60.680672" y1="46.500000" y2="74.500000" stroke="#BABDB6" stroke-width="2"/><a xlink:title="p.E36Kfs*21"><circle cx="60.680672" cy="46.500000" r="4.000000" fill="#ff0000" /></a><g transform="translate(60.680672,46.500000) rotate(-30)"><text style="font-size:10px;fill:#555;" text-anchor="middle" x="0" y="-6.000000">p.E36Kfs*21</text></g><line x1="103.823529" x2="103.823529" y1="46.500000" y2="74.500000" stroke="#BABDB6" stroke-width="2"/><a xlink:title="p.K70_E102del"><circle cx="103.823529" cy="46.500000" r="4.000000" fill="#0000ff" /></a><g transform="translate(103.823529,46.500000) rotate(-30)"><text style="font-size:10px;fill:#555;" text-anchor="middle" x="0" y="-6.000000">p.K70_E102del</text></g><line x1="139.352941" x2="139.352941" y1="46.500000" y2="74.500000" stroke="#BABDB6" stroke-width="2"/><a xlink:title="p.G98_G101del"><circle cx="139.352941" cy="46.500000" r="4.000000" fill="#0000ff" /></a><g transform="translate(139.352941,46.500000) rotate(-30)"><text style="font-size:10px;fill:#555;" text-anchor="middle" x="0" y="-6.000000">p.G98_G101del</text></g><line x1="215.487395" x2="215.487395" y1="46.500000" y2="74.500000" stroke="#BABDB6" stroke-width="2"/><a xlink:title="p.N158Tfs*2"><circle cx="215.487395" cy="46.500000" r="4.000000" fill="#ff0000" /></a><g transform="translate(215.487395,46.500000) rotate(-30)"><text style="font-size:10px;fill:#555;" text-anchor="middle" x="0" y="-6.000000">p.N158Tfs*2</text></g><line x1="586.008403" x2="586.008403" y1="46.500000" y2="74.500000" stroke="#BABDB6" stroke-width="2"/><a xlink:title="p.D450Vfs*41"><circle cx="586.008403" cy="46.500000" r="4.000000" fill="#ff0000" /></a><g transform="translate(586.008403,46.500000) rotate(-30)"><text style="font-size:10px;fill:#555;" text-anchor="middle" x="0" y="-6.000000">p.D450Vfs*41</text></g><line x1="645.647059" x2="645.647059" y1="46.500000" y2="74.500000" stroke="#BABDB6" stroke-width="2"/><a xlink:title="p.R497Efs*11"><circle cx="645.647059" cy="46.500000" r="4.000000" fill="#ff0000" /></a><g transform="translate(645.647059,46.500000) rotate(-30)"><text style="font-size:10px;fill:#555;" text-anchor="middle" x="0" y="-6.000000">p.R497Efs*11</text></g><line x1="687.521008" x2="687.521008" y1="46.500000" y2="74.500000" stroke="#BABDB6" stroke-width="2"/><a xlink:title="p.P530del"><circle cx="687.521008" cy="46.500000" r="4.000000" fill="#ff0000" /></a><g transform="translate(687.521008,46.500000) rotate(-30)"><text style="font-size:10px;fill:#555;" text-anchor="middle" x="0" y="-6.000000">p.P530del</text></g><line x1="761.117647" x2="761.117647" y1="34.000000" y2="74.500000" stroke="#BABDB6" stroke-width="2"/><a xlink:title="p.L588Afs*5"><circle cx="761.117647" cy="34.000000" r="4.000000" fill="#ff0000" /></a><g transform="translate(761.117647,34.000000) rotate(-30)"><text style="font-size:10px;fill:#555;" text-anchor="middle" x="0" y="-6.000000">p.L588Afs*5</text></g><line x1="764.924370" x2="764.924370" y1="34.000000" y2="74.500000" stroke="#BABDB6" stroke-width="2"/><a xlink:title="p.D591Ifs*25"><circle cx="764.924370" cy="34.000000" r="4.000000" fill="#ff0000" /></a><g transform="translate(764.924370,34.000000) rotate(-30)"><text style="font-size:10px;fill:#555;" text-anchor="middle" x="0" y="-6.000000">p.D591Ifs*25</text></g><line x1="767.462185" x2="767.462185" y1="46.500000" y2="74.500000" stroke="#BABDB6" stroke-width="2"/><a xlink:title="p.P593Rfs*16"><circle cx="767.462185" cy="46.500000" r="4.000000" fill="#ff0000" /></a><g transform="translate(767.462185,46.500000) rotate(-30)"><text style="font-size:10px;fill:#555;" text-anchor="middle" x="0" y="-6.000000">p.P593Rfs*16</text></g><line x1="791.571429" x2="791.571429" y1="34.000000" y2="74.500000" stroke="#BABDB6" stroke-width="2"/><a xlink:title="p.V612del"><circle cx="791.571429" cy="34.000000" r="4.000000" fill="#ff0000" /></a><g transform="translate(791.571429,34.000000) rotate(-30)"><text style="font-size:10px;fill:#555;" text-anchor="middle" x="0" y="-6.000000">p.V612del</text></g><line x1="796.647059" x2="796.647059" y1="34.000000" y2="74.500000" stroke="#BABDB6" stroke-width="2"/><a xlink:title="p.K616del"><circle cx="796.647059" cy="34.000000" r="4.000000" fill="#ff0000" /></a><g transform="translate(796.647059,34.000000) rotate(-30)"><text style="font-size:10px;fill:#555;" text-anchor="middle" x="0" y="-6.000000">p.K616del</text></g><line x1="799.184874" x2="799.184874" y1="46.500000" y2="74.500000" stroke="#BABDB6" stroke-width="2"/><a xlink:title="p.K618del"><circle cx="799.184874" cy="46.500000" r="4.000000" fill="#ff0000" /></a><g transform="translate(799.184874,46.500000) rotate(-30)"><text style="font-size:10px;fill:#555;" text-anchor="middle" x="0" y="-6.000000">p.K618del</text></g><line x1="905.773109" x2="905.773109" y1="34.000000" y2="74.500000" stroke="#BABDB6" stroke-width="2"/><a xlink:title="p.S702Mfs*78"><circle cx="905.773109" cy="34.000000" r="4.000000" fill="#ff0000" /></a><g transform="translate(905.773109,34.000000) rotate(-30)"><text style="font-size:10px;fill:#555;" text-anchor="middle" x="0" y="-6.000000">p.S702Mfs*78</text></g><line x1="908.310924" x2="908.310924" y1="46.500000" y2="74.500000" stroke="#BABDB6" stroke-width="2"/><a xlink:title="p.V704Afs*77"><circle cx="908.310924" cy="46.500000" r="4.000000" fill="#ff0000" /></a><g transform="translate(908.310924,46.500000) rotate(-30)"><text style="font-size:10px;fill:#555;" text-anchor="middle" x="0" y="-6.000000">p.V704Afs*77</text></g><line x1="927.344538" x2="927.344538" y1="46.500000" y2="74.500000" stroke="#BABDB6" stroke-width="2"/><a xlink:title="p.I719Tfs*65"><circle cx="927.344538" cy="46.500000" r="4.000000" fill="#ff0000" /></a><g transform="translate(927.344538,46.500000) rotate(-30)"><text style="font-size:10px;fill:#555;" text-anchor="middle" x="0" y="-6.000000">p.I719Tfs*65</text></g><line x1="934.957983" x2="934.957983" y1="34.000000" y2="74.500000" stroke="#BABDB6" stroke-width="2"/><a xlink:title="p.R725Afs*8"><circle cx="934.957983" cy="34.000000" r="4.000000" fill="#ff0000" /></a><g transform="translate(934.957983,34.000000) rotate(-30)"><text style="font-size:10px;fill:#555;" text-anchor="middle" x="0" y="-6.000000">p.R725Afs*8</text></g><line x1="937.495798" x2="937.495798" y1="46.500000" y2="74.500000" stroke="#BABDB6" stroke-width="2"/><a xlink:title="p.H727Pfs*55"><circle cx="937.495798" cy="46.500000" r="4.000000" fill="#ff0000" /></a><g transform="translate(937.495798,46.500000) rotate(-30)"><text style="font-size:10px;fill:#555;" text-anchor="middle" x="0" y="-6.000000">p.H727Pfs*55</text></g><line x1="945.109244" x2="945.109244" y1="46.500000" y2="74.500000" stroke="#BABDB6" stroke-width="2"/><a xlink:title="p.H733Nfs*66"><circle cx="945.109244" cy="46.500000" r="4.000000" fill="#ff0000" /></a><g transform="translate(945.109244,46.500000) rotate(-30)"><text style="font-size:10px;fill:#555;" text-anchor="middle" x="0" y="-6.000000">p.H733Nfs*66</text></g><line x1="956.529412" x2="956.529412" y1="46.500000" y2="74.500000" stroke="#BABDB6" stroke-width="2"/><a xlink:title="p.Q742Sfs*41"><circle cx="956.529412" cy="46.500000" r="4.000000" fill="#ff0000" /></a><g transform="translate(956.529412,46.500000) rotate(-30)"><text style="font-size:10px;fill:#555;" text-anchor="middle" x="0" y="-6.000000">p.Q742Sfs*41</text></g><a xlink:title="MLH1_HUMAN, DNA mismatch repair protein Mlh1 (756aa)"><rect fill="#BABDB6" x="15.000000" y="74.500000" width="959.294118" height="14.000000"/></a><g transform="translate(46.722689,69.500000)"><a xlink:href="http://pfam.xfam.org/family/PF13589" xlink:title="Histidine kinase-, DNA gyrase B-, and HSP90-like ATPase"><rect fill="#2dcf00" x="0" y="0" width="143.386555" height="24.000000" filter="url(#ds)"/><text style="font-size:12px;fill:#ffffff;" text-anchor="middle" x="71.693277" y="16.000000">HATPase_c_3</text></a></g>
<g transform="translate(289.084034,69.500000)"><a xlink:href="http://pfam.xfam.org/family/PF01119" xlink:title="DNA mismatch repair protein, C-terminal domain"><rect fill="#ff5353" x="0" y="0" width="151.000000" height="24.000000" filter="url(#ds)"/><text style="font-size:12px;fill:#ffffff;" text-anchor="middle" x="75.500000" y="16.000000">DNA_mis_repair</text></a></g>
<g transform="translate(651.991597,69.500000)"><a xlink:href="http://pfam.xfam.org/family/PF16413" xlink:title="DNA mismatch repair protein Mlh1 C-terminus"><rect fill="#5b5bff" x="0" y="0" width="322.302521" height="24.000000" filter="url(#ds)"/><text style="font-size:12px;fill:#ffffff;" text-anchor="middle" x="161.151261" y="16.000000">Mlh1_C</text></a></g>
<g class="axis">
<line x1="15.000000" x2="974.294118" y1="103.500000" y2="103.500000" stroke="#AAAAAA" /><line x1="15.000000" x2="15.000000" y1="103.500000" y2="108.500000" stroke="#AAAAAA" /><line x1="15.000000" x2="15.000000" y1="103.500000" y2="108.500000" stroke="#AAAAAA" /><text style="font-size:10px;fill:#000000;" text-anchor="middle" x="15.000000" y="118.500000">0</text><line x1="60.680672" x2="60.680672" y1="103.500000" y2="108.500000" stroke="#AAAAAA" /><text style="font-size:10px;fill:#000000;" text-anchor="middle" x="60.680672" y="118.500000">36</text><line x1="103.823529" x2="103.823529" y1="103.500000" y2="108.500000" stroke="#AAAAAA" /><text style="font-size:10px;fill:#000000;" text-anchor="middle" x="103.823529" y="118.500000">70</text><line x1="139.352941" x2="139.352941" y1="103.500000" y2="108.500000" stroke="#AAAAAA" /><text style="font-size:10px;fill:#000000;" text-anchor="middle" x="139.352941" y="118.500000">98</text><line x1="190.109244" x2="190.109244" y1="103.500000" y2="108.500000" stroke="#AAAAAA" /><text style="font-size:10px;fill:#000000;" text-anchor="middle" x="190.109244" y="118.500000">138</text><line x1="215.487395" x2="215.487395" y1="103.500000" y2="108.500000" stroke="#AAAAAA" /><text style="font-size:10px;fill:#000000;" text-anchor="middle" x="215.487395" y="118.500000">158</text><line x1="289.084034" x2="289.084034" y1="103.500000" y2="108.500000" stroke="#AAAAAA" /><text style="font-size:10px;fill:#000000;" text-anchor="middle" x="289.084034" y="118.500000">216</text><line x1="440.084034" x2="440.084034" y1="103.500000" y2="108.500000" stroke="#AAAAAA" /><text style="font-size:10px;fill:#000000;" text-anchor="middle" x="440.084034" y="118.500000">335</text><line x1="586.008403" x2="586.008403" y1="103.500000" y2="108.500000" stroke="#AAAAAA" /><text style="font-size:10px;fill:#000000;" text-anchor="middle" x="586.008403" y="118.500000">450</text><line x1="645.647059" x2="645.647059" y1="103.500000" y2="108.500000" stroke="#AAAAAA" /><text style="font-size:10px;fill:#000000;" text-anchor="middle" x="645.647059" y="118.500000">497</text><line x1="687.521008" x2="687.521008" y1="103.500000" y2="108.500000" stroke="#AAAAAA" /><text style="font-size:10px;fill:#000000;" text-anchor="middle" x="687.521008" y="118.500000">530</text><line x1="761.117647" x2="761.117647" y1="103.500000" y2="108.500000" stroke="#AAAAAA" /><text style="font-size:10px;fill:#000000;" text-anchor="middle" x="761.117647" y="118.500000">588</text><line x1="791.571429" x2="791.571429" y1="103.500000" y2="108.500000" stroke="#AAAAAA" /><text style="font-size:10px;fill:#000000;" text-anchor="middle" x="791.571429" y="118.500000">612</text><line x1="905.773109" x2="905.773109" y1="103.500000" y2="108.500000" stroke="#AAAAAA" /><text style="font-size:10px;fill:#000000;" text-anchor="middle" x="905.773109" y="118.500000">702</text><line x1="927.344538" x2="927.344538" y1="103.500000" y2="108.500000" stroke="#AAAAAA" /><text style="font-size:10px;fill:#000000;" text-anchor="middle" x="927.344538" y="118.500000">719</text><line x1="974.294118" x2="974.294118" y1="103.500000" y2="108.500000" stroke="#AAAAAA" /><text style="font-size:10px;fill:#000000;" text-anchor="middle" x="974.294118" y="118.500000">756</text></g>
</svg>
