<?xml version='1.0'?>
<svg xmlns="http://www.w3.org/2000/svg" xmlns:xlink="http://www.w3.org/1999/xlink" width="899.271845" height="111.000000">
<defs>
  <filter id="ds" x="0" y="0">
    <feOffset in="SourceAlpha" dx="2" dy="2" />
    <feComponentTransfer><feFuncA type="linear" slope="0.2"/></feComponentTransfer>
    <feGaussianBlur result="blurOut" stdDeviation="1" />
    <feBlend in="SourceGraphic" in2="blurOut" mode="normal" />
  </filter>
  <pattern id="disordered-hatch" patternUnits="userSpaceOnUse" width="4" height="4">
    <path d="M-1,1 l2,-2 M0,4 l4,-4 M3,5 l2,-2" stroke="#000000" opacity="0.3" />
  </pattern>
</defs>
<line x1="720.000000" x2="720.000000" y1="34.000000" y2="62.000000" stroke="#BABDB6" stroke-width="2"/><a xlink:title="p.W515_P518del"><circle cx="720.000000" cy="34.000000" r="4.000000" fill="#0000ff" /></a><g transform="translate(720.000000,34.000000) rotate(-30)"><text style="font-size:10px;fill:#555;" text-anchor="middle" x="0" y="-6.000000">p.W515_P518del</text></g><a xlink:title="TPOR_HUMAN, Thrombopoietin receptor (635aa)"><rect fill="#BABDB6" x="15.000000" y="62.000000" width="869.271845" height="14.000000"/></a><g transform="translate(49.223301,57.000000)"><a xlink:href="http://pfam.xfam.org/family/PF09067" xlink:title="Erythropoietin receptor, ligand binding"><rect fill="#2dcf00" x="0" y="0" width="141.000000" height="24.000000" filter="url(#ds)"/><text style="font-size:12px;fill:#ffffff;" text-anchor="middle" x="70.500000" y="16.000000">EpoR_lig-bind</text></a></g>
<g transform="translate(550.252427,57.000000)"><a xlink:href="http://pfam.xfam.org/family/PF00041" xlink:title="Fibronectin type III domain"><rect fill="#ff5353" x="0" y="0" width="114.990291" height="24.000000" filter="url(#ds)"/><text style="font-size:12px;fill:#ffffff;" text-anchor="middle" x="57.495146" y="16.000000">fn3</text></a></g>
<g class="axis">
<line x1="15.000000" x2="884.271845" y1="91.000000" y2="91.000000" stroke="#AAAAAA" /><line x1="15.000000" x2="15.000000" y1="91.000000" y2="96.000000" stroke="#AAAAAA" /><line x1="15.000000" x2="15.000000" y1="91.000000" y2="96.000000" stroke="#AAAAAA" /><text style="font-size:10px;fill:#000000;" text-anchor="middle" x="15.000000" y="106.000000">0</text><line x1="49.223301" x2="49.223301" y1="91.000000" y2="96.000000" stroke="#AAAAAA" /><text style="font-size:10px;fill:#000000;" text-anchor="middle" x="49.223301" y="106.000000">25</text><line x1="190.223301" x2="190.223301" y1="91.000000" y2="96.000000" stroke="#AAAAAA" /><text style="font-size:10px;fill:#000000;" text-anchor="middle" x="190.223301" y="106.000000">128</text><line x1="550.252427" x2="550.252427" y1="91.000000" y2="96.000000" stroke="#AAAAAA" /><text style="font-size:10px;fill:#000000;" text-anchor="middle" x="550.252427" y="106.000000">391</text><line x1="665.242718" x2="665.242718" y1="91.000000" y2="96.000000" stroke="#AAAAAA" /><text style="font-size:10px;fill:#000000;" text-anchor="middle" x="665.242718" y="106.000000">475</text><line x1="720.000000" x2="720.000000" y1="91.000000" y2="96.000000" stroke="#AAAAAA" /><text style="font-size:10px;fill:#000000;" text-anchor="middle" x="720.000000" y="106.000000">515</text><line x1="884.271845" x2="884.271845" y1="91.000000" y2="96.000000" stroke="#AAAAAA" /><text style="font-size:10px;fill:#000000;" text-anchor="middle" x="884.271845" y="106.000000">635</text></g>
</svg>
