<?xml version='1.0'?>
<svg xmlns="http://www.w3.org/2000/svg" xmlns:xlink="http://www.w3.org/1999/xlink" width="3203.333333" height="123.500000">
<defs>
  <filter id="ds" x="0" y="0">
    <feOffset in="SourceAlpha" dx="2" dy="2" />
    <feComponentTransfer><feFuncA type="linear" slope="0.2"/></feComponentTransfer>
    <feGaussianBlur result="blurOut" stdDeviation="1" />
    <feBlend in="SourceGraphic" in2="blurOut" mode="normal" />
  </filter>
  <pattern id="disordered-hatch" patternUnits="userSpaceOnUse" width="4" height="4">
    <path d="M-1,1 l2,-2 M0,4 l4,-4 M3,5 l2,-2" stroke="#000000" opacity="0.3" />
  </pattern>
</defs>
<line x1="899.333333" x2="899.333333" y1="46.500000" y2="74.500000" stroke="#BABDB6" stroke-width="2"/><a xlink:title="p.R379Terfs"><circle cx="899.333333" cy="46.500000" r="4.000000" fill="#ff0000" /></a><g transform="translate(899.333333,46.500000) rotate(-30)"><text style="font-size:10px;fill:#555;" text-anchor="middle" x="0" y="-6.000000">p.R379Terfs</text></g><line x1="1634.333333" x2="1634.333333" y1="46.500000" y2="74.500000" stroke="#BABDB6" stroke-width="2"/><a xlink:title="p.C694Mfs"><circle cx="1634.333333" cy="46.500000" r="4.000000" fill="#ff0000" /></a><g transform="translate(1634.333333,46.500000) rotate(-30)"><text style="font-size:10px;fill:#555;" text-anchor="middle" x="0" y="-6.000000">p.C694Mfs</text></g><line x1="1688.000000" x2="1688.000000" y1="46.500000" y2="74.500000" stroke="#BABDB6" stroke-width="2"/><a xlink:title="p.V717Afs"><circle cx="1688.000000" cy="46.500000" r="4.000000" fill="#ff0000" /></a><g transform="translate(1688.000000,46.500000) rotate(-30)"><text style="font-size:10px;fill:#555;" text-anchor="middle" x="0" y="-6.000000">p.V717Afs</text></g><line x1="1751.000000" x2="1751.000000" y1="46.500000" y2="74.500000" stroke="#BABDB6" stroke-width="2"/><a xlink:title="p.E744Gfs"><circle cx="1751.000000" cy="46.500000" r="4.000000" fill="#ff0000" /></a><g transform="translate(1751.000000,46.500000) rotate(-30)"><text style="font-size:10px;fill:#555;" text-anchor="middle" x="0" y="-6.000000">p.E744Gfs</text></g><line x1="2231.666667" x2="2231.666667" y1="46.500000" y2="74.500000" stroke="#BABDB6" stroke-width="2"/><a xlink:title="p.S950Pfs"><circle cx="2231.666667" cy="46.500000" r="4.000000" fill="#ff0000" /></a><g transform="translate(2231.666667,46.500000) rotate(-30)"><text style="font-size:10px;fill:#555;" text-anchor="middle" x="0" y="-6.000000">p.S950Pfs</text></g><line x1="2390.333333" x2="2390.333333" y1="46.500000" y2="74.500000" stroke="#BABDB6" stroke-width="2"/><a xlink:title="p.L1018Hfs"><circle cx="2390.333333" cy="46.500000" r="4.000000" fill="#ff0000" /></a><g transform="translate(2390.333333,46.500000) rotate(-30)"><text style="font-size:10px;fill:#555;" text-anchor="middle" x="0" y="-6.000000">p.L1018Hfs</text></g><line x1="2469.666667" x2="2469.666667" y1="46.500000" y2="74.500000" stroke="#BABDB6" stroke-width="2"/><a xlink:title="p.E1052Vfs*13"><circle cx="2469.666667" cy="46.500000" r="4.000000" fill="#ff0000" /></a><g transform="translate(2469.666667,46.500000) rotate(-30)"><text style="font-size:10px;fill:#555;" text-anchor="middle" x="0" y="-6.000000">p.E1052Vfs*13</text></g><line x1="2553.666667" x2="2553.666667" y1="46.500000" y2="74.500000" stroke="#BABDB6" stroke-width="2"/><a xlink:title="p.P1088Lfs"><circle cx="2553.666667" cy="46.500000" r="4.000000" fill="#ff0000" /></a><g transform="translate(2553.666667,46.500000) rotate(-30)"><text style="font-size:10px;fill:#555;" text-anchor="middle" x="0" y="-6.000000">p.P1088Lfs</text></g><line x1="2553.666667" x2="2553.666667" y1="34.000000" y2="74.500000" stroke="#BABDB6" stroke-width="2"/><a xlink:title="p.P1088Sfs*2"><circle cx="2553.666667" cy="34.000000" r="4.000000" fill="#ff0000" /></a><g transform="translate(2553.666667,34.000000) rotate(-30)"><text style="font-size:10px;fill:#555;" text-anchor="middle" x="0" y="-6.000000">p.P1088Sfs*2</text></g><line x1="2591.000000" x2="2591.000000" y1="46.500000" y2="74.500000" stroke="#BABDB6" stroke-width="2"/><a xlink:title="p.P1104Wfs"><circle cx="2591.000000" cy="46.500000" r="4.000000" fill="#ff0000" /></a><g transform="translate(2591.000000,46.500000) rotate(-30)"><text style="font-size:10px;fill:#555;" text-anchor="middle" x="0" y="-6.000000">p.P1104Wfs</text></g><line x1="2913.000000" x2="2913.000000" y1="46.500000" y2="74.500000" stroke="#BABDB6" stroke-width="2"/><a xlink:title="p.R1242del"><circle cx="2913.000000" cy="46.500000" r="4.000000" fill="#ff0000" /></a><g transform="translate(2913.000000,46.500000) rotate(-30)"><text style="font-size:10px;fill:#555;" text-anchor="middle" x="0" y="-6.000000">p.R1242del</text></g><line x1="3095.000000" x2="3095.000000" y1="46.500000" y2="74.500000" stroke="#BABDB6" stroke-width="2"/><a xlink:title="p.A1320Efs*6"><circle cx="3095.000000" cy="46.500000" r="4.000000" fill="#ff0000" /></a><g transform="translate(3095.000000,46.500000) rotate(-30)"><text style="font-size:10px;fill:#555;" text-anchor="middle" x="0" y="-6.000000">p.A1320Efs*6</text></g><line x1="3095.000000" x2="3095.000000" y1="34.000000" y2="74.500000" stroke="#BABDB6" stroke-width="2"/><a xlink:title="p.A1320Sfs"><circle cx="3095.000000" cy="34.000000" r="4.000000" fill="#ff0000" /></a><g transform="translate(3095.000000,34.000000) rotate(-30)"><text style="font-size:10px;fill:#555;" text-anchor="middle" x="0" y="-6.000000">p.A1320Sfs</text></g><a xlink:title="MSH6_HUMAN, DNA mismatch repair protein Msh6 {ECO:0000250|UniProtKB:P54276} (1360aa)"><rect fill="#BABDB6" x="15.000000" y="74.500000" width="3173.333333" height="14.000000"/></a><g transform="translate(225.000000,69.500000)"><a xlink:href="http://pfam.xfam.org/family/PF00855" xlink:title="PWWP domain"><rect fill="#2dcf00" x="0" y="0" width="219.333333" height="24.000000" filter="url(#ds)"/><text style="font-size:12px;fill:#ffffff;" text-anchor="middle" x="109.666667" y="16.000000">PWWP domain</text></a></g>
<g transform="translate(964.666667,69.500000)"><a xlink:href="http://pfam.xfam.org/family/PF01624" xlink:title="MutS domain I"><rect fill="#ff5353" x="0" y="0" width="277.666667" height="24.000000" filter="url(#ds)"/><text style="font-size:12px;fill:#ffffff;" text-anchor="middle" x="138.833333" y="16.000000">MutS domain I</text></a></g>
<g transform="translate(1268.000000,69.500000)"><a xlink:href="http://pfam.xfam.org/family/PF05188" xlink:title="MutS domain II"><rect fill="#5b5bff" x="0" y="0" width="387.333333" height="24.000000" filter="url(#ds)"/><text style="font-size:12px;fill:#ffffff;" text-anchor="middle" x="193.666667" y="16.000000">MutS domain II</text></a></g>
<g transform="translate(1737.000000,69.500000)"><a xlink:href="http://pfam.xfam.org/family/PF05192" xlink:title="MutS domain III"><rect fill="#ebd61d" x="0" y="0" width="450.333333" height="24.000000" filter="url(#ds)"/><text style="font-size:12px;fill:#ffffff;" text-anchor="middle" x="225.166667" y="16.000000">MutS domain III</text></a></g>
<g transform="translate(2406.666667,69.500000)"><a xlink:href="http://pfam.xfam.org/family/PF05192" xlink:title="MutS domain III"><rect fill="#ebd61d" x="0" y="0" width="91.000000" height="24.000000" filter="url(#ds)"/><text style="font-size:12px;fill:#ffffff;" text-anchor="middle" x="45.500000" y="16.000000">MutS_III</text></a></g>
<g transform="translate(2189.666667,69.500000)"><a xlink:href="http://pfam.xfam.org/family/PF05190" xlink:title="MutS family domain IV"><rect fill="#ba21e0" x="0" y="0" width="214.666667" height="24.000000" filter="url(#ds)"/><text style="font-size:12px;fill:#ffffff;" text-anchor="middle" x="107.333333" y="16.000000">MutS_IV</text></a></g>
<g transform="translate(2651.666667,69.500000)"><a xlink:href="http://pfam.xfam.org/family/PF00488" xlink:title="MutS domain V"><rect fill="#ff9c42" x="0" y="0" width="452.666667" height="24.000000" filter="url(#ds)"/><text style="font-size:12px;fill:#ffffff;" text-anchor="middle" x="226.333333" y="16.000000">MutS domain V</text></a></g>
<g class="axis">
<line x1="15.000000" x2="3188.333333" y1="103.500000" y2="103.500000" stroke="#AAAAAA" /><line x1="15.000000" x2="15.000000" y1="103.500000" y2="108.500000" stroke="#AAAAAA" /><line x1="15.000000" x2="15.000000" y1="103.500000" y2="108.500000" stroke="#AAAAAA" /><text style="font-size:10px;fill:#000000;" text-anchor="middle" x="15.000000" y="118.500000">0</text><line x1="225.000000" x2="225.000000" y1="103.500000" y2="108.500000" stroke="#AAAAAA" /><text style="font-size:10px;fill:#000000;" text-anchor="middle" x="225.000000" y="118.500000">90</text><line x1="444.333333" x2="444.333333" y1="103.500000" y2="108.500000" stroke="#AAAAAA" /><text style="font-size:10px;fill:#000000;" text-anchor="middle" x="444.333333" y="118.500000">184</text><line x1="899.333333" x2="899.333333" y1="103.500000" y2="108.500000" stroke="#AAAAAA" /><text style="font-size:10px;fill:#000000;" text-anchor="middle" x="899.333333" y="118.500000">379</text><line x1="964.666667" x2="964.666667" y1="103.500000" y2="108.500000" stroke="#AAAAAA" /><text style="font-size:10px;fill:#000000;" text-anchor="middle" x="964.666667" y="118.500000">407</text><line x1="1242.333333" x2="1242.333333" y1="103.500000" y2="108.500000" stroke="#AAAAAA" /><text style="font-size:10px;fill:#000000;" text-anchor="middle" x="1242.333333" y="118.500000">526</text><line x1="1268.000000" x2="1268.000000" y1="103.500000" y2="108.500000" stroke="#AAAAAA" /><text style="font-size:10px;fill:#000000;" text-anchor="middle" x="1268.000000" y="118.500000">537</text><line x1="1634.333333" x2="1634.333333" y1="103.500000" y2="108.500000" stroke="#AAAAAA" /><text style="font-size:10px;fill:#000000;" text-anchor="middle" x="1634.333333" y="118.500000">694</text><line x1="1655.333333" x2="1655.333333" y1="103.500000" y2="108.500000" stroke="#AAAAAA" /><text style="font-size:10px;fill:#000000;" text-anchor="middle" x="1655.333333" y="118.500000">703</text><line x1="1688.000000" x2="1688.000000" y1="103.500000" y2="108.500000" stroke="#AAAAAA" /><text style="font-size:10px;fill:#000000;" text-anchor="middle" x="1688.000000" y="118.500000">717</text><line x1="1751.000000" x2="1751.000000" y1="103.500000" y2="108.500000" stroke="#AAAAAA" /><text style="font-size:10px;fill:#000000;" text-anchor="middle" x="1751.000000" y="118.500000">744</text><line x1="2187.333333" x2="2187.333333" y1="103.500000" y2="108.500000" stroke="#AAAAAA" /><text style="font-size:10px;fill:#000000;" text-anchor="middle" x="2187.333333" y="118.500000">931</text><line x1="2231.666667" x2="2231.666667" y1="103.500000" y2="108.500000" stroke="#AAAAAA" /><text style="font-size:10px;fill:#000000;" text-anchor="middle" x="2231.666667" y="118.500000">950</text><line x1="2390.333333" x2="2390.333333" y1="103.500000" y2="108.500000" stroke="#AAAAAA" /><text style="font-size:10px;fill:#000000;" text-anchor="middle" x="2390.333333" y="118.500000">1018</text><line x1="2469.666667" x2="2469.666667" y1="103.500000" y2="108.500000" stroke="#AAAAAA" /><text style="font-size:10px;fill:#000000;" text-anchor="middle" x="2469.666667" y="118.500000">1052</text><line x1="2497.666667" x2="2497.666667" y1="103.500000" y2="108.500000" stroke="#AAAAAA" /><text style="font-size:10px;fill:#000000;" text-anchor="middle" x="2497.666667" y="118.500000">1064</text><line x1="2553.666667" x2="2553.666667" y1="103.500000" y2="108.500000" stroke="#AAAAAA" /><text style="font-size:10px;fill:#000000;" text-anchor="middle" x="2553.666667" y="118.500000">1088</text><line x1="2591.000000" x2="2591.000000" y1="103.500000" y2="108.500000" stroke="#AAAAAA" /><text style="font-size:10px;fill:#000000;" text-anchor="middle" x="2591.000000" y="118.500000">1104</text><line x1="2651.666667" x2="2651.666667" y1="103.500000" y2="108.500000" stroke="#AAAAAA" /><text style="font-size:10px;fill:#000000;" text-anchor="middle" x="2651.666667" y="118.500000">1130</text><line x1="2913.000000" x2="2913.000000" y1="103.500000" y2="108.500000" stroke="#AAAAAA" /><text style="font-size:10px;fill:#000000;" text-anchor="middle" x="2913.000000" y="118.500000">1242</text><line x1="3095.000000" x2="3095.000000" y1="103.500000" y2="108.500000" stroke="#AAAAAA" /><text style="font-size:10px;fill:#000000;" text-anchor="middle" x="3095.000000" y="118.500000">1320</text><line x1="3188.333333" x2="3188.333333" y1="103.500000" y2="108.500000" stroke="#AAAAAA" /><text style="font-size:10px;fill:#000000;" text-anchor="middle" x="3188.333333" y="118.500000">1360</text></g>
</svg>
