<?xml version='1.0'?>
<svg xmlns="http://www.w3.org/2000/svg" xmlns:xlink="http://www.w3.org/1999/xlink" width="430.000000" height="136.000000">
<defs>
  <filter id="ds" x="0" y="0">
    <feOffset in="SourceAlpha" dx="2" dy="2" />
    <feComponentTransfer><feFuncA type="linear" slope="0.2"/></feComponentTransfer>
    <feGaussianBlur result="blurOut" stdDeviation="1" />
    <feBlend in="SourceGraphic" in2="blurOut" mode="normal" />
  </filter>
  <pattern id="disordered-hatch" patternUnits="userSpaceOnUse" width="4" height="4">
    <path d="M-1,1 l2,-2 M0,4 l4,-4 M3,5 l2,-2" stroke="#000000" opacity="0.3" />
  </pattern>
</defs>
<line x1="23.768971" x2="23.768971" y1="59.000000" y2="87.000000" stroke="#BABDB6" stroke-width="2"/><a xlink:title="p.R26Gfs"><circle cx="23.768971" cy="59.000000" r="4.000000" fill="#ff0000" /></a><g transform="translate(23.768971,59.000000) rotate(-30)"><text style="font-size:10px;fill:#555;" text-anchor="middle" x="0" y="-6.000000">p.R26Gfs</text></g><line x1="40.969646" x2="40.969646" y1="59.000000" y2="87.000000" stroke="#BABDB6" stroke-width="2"/><a xlink:title="p.C77Vfs"><circle cx="40.969646" cy="59.000000" r="4.000000" fill="#ff0000" /></a><g transform="translate(40.969646,59.000000) rotate(-30)"><text style="font-size:10px;fill:#555;" text-anchor="middle" x="0" y="-6.000000">p.C77Vfs</text></g><line x1="72.335582" x2="72.335582" y1="46.500000" y2="87.000000" stroke="#BABDB6" stroke-width="2"/><a xlink:title="p.R170fs"><circle cx="72.335582" cy="46.500000" r="4.000000" fill="#ff0000" /></a><g transform="translate(72.335582,46.500000) rotate(-30)"><text style="font-size:10px;fill:#555;" text-anchor="middle" x="0" y="-6.000000">p.R170fs</text></g><line x1="72.335582" x2="72.335582" y1="59.000000" y2="87.000000" stroke="#BABDB6" stroke-width="2"/><a xlink:title="p.R170Ifs"><circle cx="72.335582" cy="59.000000" r="4.000000" fill="#ff0000" /></a><g transform="translate(72.335582,59.000000) rotate(-30)"><text style="font-size:10px;fill:#555;" text-anchor="middle" x="0" y="-6.000000">p.R170Ifs</text></g><line x1="93.583474" x2="93.583474" y1="59.000000" y2="87.000000" stroke="#BABDB6" stroke-width="2"/><a xlink:title="p.V233Lfs"><circle cx="93.583474" cy="59.000000" r="4.000000" fill="#ff0000" /></a><g transform="translate(93.583474,59.000000) rotate(-30)"><text style="font-size:10px;fill:#555;" text-anchor="middle" x="0" y="-6.000000">p.V233Lfs</text></g><line x1="100.328836" x2="100.328836" y1="46.500000" y2="87.000000" stroke="#BABDB6" stroke-width="2"/><a xlink:title="p.L253Ifs"><circle cx="100.328836" cy="46.500000" r="4.000000" fill="#ff0000" /></a><g transform="translate(100.328836,46.500000) rotate(-30)"><text style="font-size:10px;fill:#555;" text-anchor="middle" x="0" y="-6.000000">p.L253Ifs</text></g><line x1="100.666105" x2="100.666105" y1="59.000000" y2="87.000000" stroke="#BABDB6" stroke-width="2"/><a xlink:title="p.S254Ifs*3"><circle cx="100.666105" cy="59.000000" r="4.000000" fill="#ff0000" /></a><g transform="translate(100.666105,59.000000) rotate(-30)"><text style="font-size:10px;fill:#555;" text-anchor="middle" x="0" y="-6.000000">p.S254Ifs*3</text></g><line x1="131.694772" x2="131.694772" y1="34.000000" y2="87.000000" stroke="#BABDB6" stroke-width="2"/><a xlink:title="p.K346Tfs"><circle cx="131.694772" cy="34.000000" r="4.000000" fill="#ff0000" /></a><g transform="translate(131.694772,34.000000) rotate(-30)"><text style="font-size:10px;fill:#555;" text-anchor="middle" x="0" y="-6.000000">p.K346Tfs</text></g><line x1="133.043845" x2="133.043845" y1="46.500000" y2="87.000000" stroke="#BABDB6" stroke-width="2"/><a xlink:title="p.Q350Hfs"><circle cx="133.043845" cy="46.500000" r="4.000000" fill="#ff0000" /></a><g transform="translate(133.043845,46.500000) rotate(-30)"><text style="font-size:10px;fill:#555;" text-anchor="middle" x="0" y="-6.000000">p.Q350Hfs</text></g><line x1="134.055649" x2="134.055649" y1="59.000000" y2="87.000000" stroke="#BABDB6" stroke-width="2"/><a xlink:title="p.K353Ifs"><circle cx="134.055649" cy="59.000000" r="4.000000" fill="#ff0000" /></a><g transform="translate(134.055649,59.000000) rotate(-30)"><text style="font-size:10px;fill:#555;" text-anchor="middle" x="0" y="-6.000000">p.K353Ifs</text></g><line x1="145.860034" x2="145.860034" y1="59.000000" y2="87.000000" stroke="#BABDB6" stroke-width="2"/><a xlink:title="p.P388Lfs"><circle cx="145.860034" cy="59.000000" r="4.000000" fill="#ff0000" /></a><g transform="translate(145.860034,59.000000) rotate(-30)"><text style="font-size:10px;fill:#555;" text-anchor="middle" x="0" y="-6.000000">p.P388Lfs</text></g><line x1="181.610455" x2="181.610455" y1="59.000000" y2="87.000000" stroke="#BABDB6" stroke-width="2"/><a xlink:title="p.T494Lfs"><circle cx="181.610455" cy="59.000000" r="4.000000" fill="#ff0000" /></a><g transform="translate(181.610455,59.000000) rotate(-30)"><text style="font-size:10px;fill:#555;" text-anchor="middle" x="0" y="-6.000000">p.T494Lfs</text></g><line x1="194.089376" x2="194.089376" y1="59.000000" y2="87.000000" stroke="#BABDB6" stroke-width="2"/><a xlink:title="p.L531Cfs*30"><circle cx="194.089376" cy="59.000000" r="4.000000" fill="#ff0000" /></a><g transform="translate(194.089376,59.000000) rotate(-30)"><text style="font-size:10px;fill:#555;" text-anchor="middle" x="0" y="-6.000000">p.L531Cfs*30</text></g><line x1="226.804384" x2="226.804384" y1="59.000000" y2="87.000000" stroke="#BABDB6" stroke-width="2"/><a xlink:title="p.K628_C630del"><circle cx="226.804384" cy="59.000000" r="4.000000" fill="#0000ff" /></a><g transform="translate(226.804384,59.000000) rotate(-30)"><text style="font-size:10px;fill:#555;" text-anchor="middle" x="0" y="-6.000000">p.K628_C630del</text></g><line x1="246.365936" x2="246.365936" y1="59.000000" y2="87.000000" stroke="#BABDB6" stroke-width="2"/><a xlink:title="p.R686Gfs*23"><circle cx="246.365936" cy="59.000000" r="4.000000" fill="#ff0000" /></a><g transform="translate(246.365936,59.000000) rotate(-30)"><text style="font-size:10px;fill:#555;" text-anchor="middle" x="0" y="-6.000000">p.R686Gfs*23</text></g><line x1="256.146712" x2="256.146712" y1="46.500000" y2="87.000000" stroke="#BABDB6" stroke-width="2"/><a xlink:title="p.D715Efs"><circle cx="256.146712" cy="46.500000" r="4.000000" fill="#ff0000" /></a><g transform="translate(256.146712,46.500000) rotate(-30)"><text style="font-size:10px;fill:#555;" text-anchor="middle" x="0" y="-6.000000">p.D715Efs</text></g><line x1="258.844857" x2="258.844857" y1="59.000000" y2="87.000000" stroke="#BABDB6" stroke-width="2"/><a xlink:title="p.M723Vfs"><circle cx="258.844857" cy="59.000000" r="4.000000" fill="#ff0000" /></a><g transform="translate(258.844857,59.000000) rotate(-30)"><text style="font-size:10px;fill:#555;" text-anchor="middle" x="0" y="-6.000000">p.M723Vfs</text></g><line x1="317.192243" x2="317.192243" y1="59.000000" y2="87.000000" stroke="#BABDB6" stroke-width="2"/><a xlink:title="p.S896Pfs"><circle cx="317.192243" cy="59.000000" r="4.000000" fill="#ff0000" /></a><g transform="translate(317.192243,59.000000) rotate(-30)"><text style="font-size:10px;fill:#555;" text-anchor="middle" x="0" y="-6.000000">p.S896Pfs</text></g><line x1="343.499157" x2="343.499157" y1="59.000000" y2="87.000000" stroke="#BABDB6" stroke-width="2"/><a xlink:title="p.K974Efs"><circle cx="343.499157" cy="59.000000" r="4.000000" fill="#ff0000" /></a><g transform="translate(343.499157,59.000000) rotate(-30)"><text style="font-size:10px;fill:#555;" text-anchor="middle" x="0" y="-6.000000">p.K974Efs</text></g><line x1="350.581788" x2="350.581788" y1="46.500000" y2="87.000000" stroke="#BABDB6" stroke-width="2"/><a xlink:title="p.A995Cfs*16"><circle cx="350.581788" cy="46.500000" r="4.000000" fill="#ff0000" /></a><g transform="translate(350.581788,46.500000) rotate(-30)"><text style="font-size:10px;fill:#555;" text-anchor="middle" x="0" y="-6.000000">p.A995Cfs*16</text></g><line x1="355.303541" x2="355.303541" y1="59.000000" y2="87.000000" stroke="#BABDB6" stroke-width="2"/><a xlink:title="p.P1009Lfs"><circle cx="355.303541" cy="59.000000" r="4.000000" fill="#ff0000" /></a><g transform="translate(355.303541,59.000000) rotate(-30)"><text style="font-size:10px;fill:#555;" text-anchor="middle" x="0" y="-6.000000">p.P1009Lfs</text></g><line x1="365.421585" x2="365.421585" y1="59.000000" y2="87.000000" stroke="#BABDB6" stroke-width="2"/><a xlink:title="p.N1039fs"><circle cx="365.421585" cy="59.000000" r="4.000000" fill="#ff0000" /></a><g transform="translate(365.421585,59.000000) rotate(-30)"><text style="font-size:10px;fill:#555;" text-anchor="middle" x="0" y="-6.000000">p.N1039fs</text></g><line x1="373.516020" x2="373.516020" y1="59.000000" y2="87.000000" stroke="#BABDB6" stroke-width="2"/><a xlink:title="p.A1063Pfs"><circle cx="373.516020" cy="59.000000" r="4.000000" fill="#ff0000" /></a><g transform="translate(373.516020,59.000000) rotate(-30)"><text style="font-size:10px;fill:#555;" text-anchor="middle" x="0" y="-6.000000">p.A1063Pfs</text></g><line x1="388.693086" x2="388.693086" y1="59.000000" y2="87.000000" stroke="#BABDB6" stroke-width="2"/><a xlink:title="p.Y1108Sfs"><circle cx="388.693086" cy="59.000000" r="4.000000" fill="#ff0000" /></a><g transform="translate(388.693086,59.000000) rotate(-30)"><text style="font-size:10px;fill:#555;" text-anchor="middle" x="0" y="-6.000000">p.Y1108Sfs</text></g><line x1="400.497470" x2="400.497470" y1="59.000000" y2="87.000000" stroke="#BABDB6" stroke-width="2"/><a xlink:title="p.L1143Tfs"><circle cx="400.497470" cy="59.000000" r="4.000000" fill="#ff0000" /></a><g transform="translate(400.497470,59.000000) rotate(-30)"><text style="font-size:10px;fill:#555;" text-anchor="middle" x="0" y="-6.000000">p.L1143Tfs</text></g><line x1="408.254637" x2="408.254637" y1="59.000000" y2="87.000000" stroke="#BABDB6" stroke-width="2"/><a xlink:title="p.G1166Vfs"><circle cx="408.254637" cy="59.000000" r="4.000000" fill="#ff0000" /></a><g transform="translate(408.254637,59.000000) rotate(-30)"><text style="font-size:10px;fill:#555;" text-anchor="middle" x="0" y="-6.000000">p.G1166Vfs</text></g><a xlink:title="PALB2_HUMAN, Partner and localizer of BRCA2 (1186aa)"><rect fill="#BABDB6" x="15.000000" y="87.000000" width="400.000000" height="14.000000"/></a><g transform="translate(297.293423,82.000000)"><a xlink:href="http://pfam.xfam.org/family/PF16756" xlink:title="Partner and localizer of BRCA2 WD40 domain"><rect fill="#2dcf00" x="0" y="0" width="117.032040" height="24.000000" filter="url(#ds)"/><text style="font-size:12px;fill:#ffffff;" text-anchor="middle" x="58.516020" y="16.000000">PALB2_WD40</text></a></g>
<g class="axis">
<line x1="15.000000" x2="415.000000" y1="116.000000" y2="116.000000" stroke="#AAAAAA" /><line x1="15.000000" x2="15.000000" y1="116.000000" y2="121.000000" stroke="#AAAAAA" /><line x1="23.768971" x2="23.768971" y1="116.000000" y2="121.000000" stroke="#AAAAAA" /><text style="font-size:10px;fill:#000000;" text-anchor="middle" x="23.768971" y="131.000000">26</text><line x1="72.335582" x2="72.335582" y1="116.000000" y2="121.000000" stroke="#AAAAAA" /><text style="font-size:10px;fill:#000000;" text-anchor="middle" x="72.335582" y="131.000000">170</text><line x1="93.583474" x2="93.583474" y1="116.000000" y2="121.000000" stroke="#AAAAAA" /><text style="font-size:10px;fill:#000000;" text-anchor="middle" x="93.583474" y="131.000000">233</text><line x1="131.694772" x2="131.694772" y1="116.000000" y2="121.000000" stroke="#AAAAAA" /><text style="font-size:10px;fill:#000000;" text-anchor="middle" x="131.694772" y="131.000000">346</text><line x1="181.610455" x2="181.610455" y1="116.000000" y2="121.000000" stroke="#AAAAAA" /><text style="font-size:10px;fill:#000000;" text-anchor="middle" x="181.610455" y="131.000000">494</text><line x1="226.804384" x2="226.804384" y1="116.000000" y2="121.000000" stroke="#AAAAAA" /><text style="font-size:10px;fill:#000000;" text-anchor="middle" x="226.804384" y="131.000000">628</text><line x1="256.146712" x2="256.146712" y1="116.000000" y2="121.000000" stroke="#AAAAAA" /><text style="font-size:10px;fill:#000000;" text-anchor="middle" x="256.146712" y="131.000000">715</text><line x1="317.192243" x2="317.192243" y1="116.000000" y2="121.000000" stroke="#AAAAAA" /><text style="font-size:10px;fill:#000000;" text-anchor="middle" x="317.192243" y="131.000000">896</text><line x1="343.499157" x2="343.499157" y1="116.000000" y2="121.000000" stroke="#AAAAAA" /><text style="font-size:10px;fill:#000000;" text-anchor="middle" x="343.499157" y="131.000000">974</text><line x1="365.421585" x2="365.421585" y1="116.000000" y2="121.000000" stroke="#AAAAAA" /><text style="font-size:10px;fill:#000000;" text-anchor="middle" x="365.421585" y="131.000000">1039</text><line x1="388.693086" x2="388.693086" y1="116.000000" y2="121.000000" stroke="#AAAAAA" /><text style="font-size:10px;fill:#000000;" text-anchor="middle" x="388.693086" y="131.000000">1108</text><line x1="415.000000" x2="415.000000" y1="116.000000" y2="121.000000" stroke="#AAAAAA" /><text style="font-size:10px;fill:#000000;" text-anchor="middle" x="415.000000" y="131.000000">1186</text></g>
</svg>
