<?xml version='1.0'?>
<svg xmlns="http://www.w3.org/2000/svg" xmlns:xlink="http://www.w3.org/1999/xlink" width="2719.065789" height="111.000000">
<defs>
  <filter id="ds" x="0" y="0">
    <feOffset in="SourceAlpha" dx="2" dy="2" />
    <feComponentTransfer><feFuncA type="linear" slope="0.2"/></feComponentTransfer>
    <feGaussianBlur result="blurOut" stdDeviation="1" />
    <feBlend in="SourceGraphic" in2="blurOut" mode="normal" />
  </filter>
  <pattern id="disordered-hatch" patternUnits="userSpaceOnUse" width="4" height="4">
    <path d="M-1,1 l2,-2 M0,4 l4,-4 M3,5 l2,-2" stroke="#000000" opacity="0.3" />
  </pattern>
</defs>
<line x1="2137.276316" x2="2137.276316" y1="34.000000" y2="62.000000" stroke="#BABDB6" stroke-width="2"/><a xlink:title="p.D1333Gfs"><circle cx="2137.276316" cy="34.000000" r="4.000000" fill="#ff0000" /></a><g transform="translate(2137.276316,34.000000) rotate(-30)"><text style="font-size:10px;fill:#555;" text-anchor="middle" x="0" y="-6.000000">p.D1333Gfs</text></g><a xlink:title="PB1_HUMAN, Protein polybromo-1 (1689aa)"><rect fill="#BABDB6" x="15.000000" y="62.000000" width="2689.065789" height="14.000000"/></a><g transform="translate(100.973684,57.000000)"><a xlink:href="http://pfam.xfam.org/family/PF00439" xlink:title="Bromodomain"><rect fill="#2dcf00" x="0" y="0" width="135.328947" height="24.000000" filter="url(#ds)"/><text style="font-size:12px;fill:#ffffff;" text-anchor="middle" x="67.664474" y="16.000000">Bromodomain</text></a></g>
<g transform="translate(311.131579,57.000000)"><a xlink:href="http://pfam.xfam.org/family/PF00439" xlink:title="Bromodomain"><rect fill="#2dcf00" x="0" y="0" width="141.697368" height="24.000000" filter="url(#ds)"/><text style="font-size:12px;fill:#ffffff;" text-anchor="middle" x="70.848684" y="16.000000">Bromodomain</text></a></g>
<g transform="translate(640.697368,57.000000)"><a xlink:href="http://pfam.xfam.org/family/PF00439" xlink:title="Bromodomain"><rect fill="#2dcf00" x="0" y="0" width="130.552632" height="24.000000" filter="url(#ds)"/><text style="font-size:12px;fill:#ffffff;" text-anchor="middle" x="65.276316" y="16.000000">Bromodomain</text></a></g>
<g transform="translate(869.960526,57.000000)"><a xlink:href="http://pfam.xfam.org/family/PF00439" xlink:title="Bromodomain"><rect fill="#2dcf00" x="0" y="0" width="121.000000" height="24.000000" filter="url(#ds)"/><text style="font-size:12px;fill:#ffffff;" text-anchor="middle" x="60.500000" y="16.000000">Bromodomain</text></a></g>
<g transform="translate(1076.934211,57.000000)"><a xlink:href="http://pfam.xfam.org/family/PF00439" xlink:title="Bromodomain"><rect fill="#2dcf00" x="0" y="0" width="133.736842" height="24.000000" filter="url(#ds)"/><text style="font-size:12px;fill:#ffffff;" text-anchor="middle" x="66.868421" y="16.000000">Bromodomain</text></a></g>
<g transform="translate(1261.618421,57.000000)"><a xlink:href="http://pfam.xfam.org/family/PF00439" xlink:title="Bromodomain"><rect fill="#2dcf00" x="0" y="0" width="133.736842" height="24.000000" filter="url(#ds)"/><text style="font-size:12px;fill:#ffffff;" text-anchor="middle" x="66.868421" y="16.000000">Bromodomain</text></a></g>
<g transform="translate(1537.052632,57.000000)"><a xlink:href="http://pfam.xfam.org/family/PF01426" xlink:title="BAH domain"><rect fill="#ff5353" x="0" y="0" width="187.868421" height="24.000000" filter="url(#ds)"/><text style="font-size:12px;fill:#ffffff;" text-anchor="middle" x="93.934211" y="16.000000">BAH domain</text></a></g>
<g transform="translate(1855.473684,57.000000)"><a xlink:href="http://pfam.xfam.org/family/PF01426" xlink:title="BAH domain"><rect fill="#ff5353" x="0" y="0" width="184.684211" height="24.000000" filter="url(#ds)"/><text style="font-size:12px;fill:#ffffff;" text-anchor="middle" x="92.342105" y="16.000000">BAH domain</text></a></g>
<g transform="translate(2210.513158,57.000000)"><a xlink:href="http://pfam.xfam.org/family/PF00505" xlink:title="HMG (high mobility group) box"><rect fill="#5b5bff" x="0" y="0" width="106.671053" height="24.000000" filter="url(#ds)"/><text style="font-size:12px;fill:#ffffff;" text-anchor="middle" x="53.335526" y="16.000000">HMG_box</text></a></g>
<g class="axis">
<line x1="15.000000" x2="2704.065789" y1="91.000000" y2="91.000000" stroke="#AAAAAA" /><line x1="15.000000" x2="15.000000" y1="91.000000" y2="96.000000" stroke="#AAAAAA" /><line x1="15.000000" x2="15.000000" y1="91.000000" y2="96.000000" stroke="#AAAAAA" /><text style="font-size:10px;fill:#000000;" text-anchor="middle" x="15.000000" y="106.000000">0</text><line x1="100.973684" x2="100.973684" y1="91.000000" y2="96.000000" stroke="#AAAAAA" /><text style="font-size:10px;fill:#000000;" text-anchor="middle" x="100.973684" y="106.000000">54</text><line x1="236.302632" x2="236.302632" y1="91.000000" y2="96.000000" stroke="#AAAAAA" /><text style="font-size:10px;fill:#000000;" text-anchor="middle" x="236.302632" y="106.000000">139</text><line x1="311.131579" x2="311.131579" y1="91.000000" y2="96.000000" stroke="#AAAAAA" /><text style="font-size:10px;fill:#000000;" text-anchor="middle" x="311.131579" y="106.000000">186</text><line x1="452.828947" x2="452.828947" y1="91.000000" y2="96.000000" stroke="#AAAAAA" /><text style="font-size:10px;fill:#000000;" text-anchor="middle" x="452.828947" y="106.000000">275</text><line x1="640.697368" x2="640.697368" y1="91.000000" y2="96.000000" stroke="#AAAAAA" /><text style="font-size:10px;fill:#000000;" text-anchor="middle" x="640.697368" y="106.000000">393</text><line x1="771.250000" x2="771.250000" y1="91.000000" y2="96.000000" stroke="#AAAAAA" /><text style="font-size:10px;fill:#000000;" text-anchor="middle" x="771.250000" y="106.000000">475</text><line x1="869.960526" x2="869.960526" y1="91.000000" y2="96.000000" stroke="#AAAAAA" /><text style="font-size:10px;fill:#000000;" text-anchor="middle" x="869.960526" y="106.000000">537</text><line x1="990.960526" x2="990.960526" y1="91.000000" y2="96.000000" stroke="#AAAAAA" /><text style="font-size:10px;fill:#000000;" text-anchor="middle" x="990.960526" y="106.000000">613</text><line x1="1076.934211" x2="1076.934211" y1="91.000000" y2="96.000000" stroke="#AAAAAA" /><text style="font-size:10px;fill:#000000;" text-anchor="middle" x="1076.934211" y="106.000000">667</text><line x1="1210.671053" x2="1210.671053" y1="91.000000" y2="96.000000" stroke="#AAAAAA" /><text style="font-size:10px;fill:#000000;" text-anchor="middle" x="1210.671053" y="106.000000">751</text><line x1="1261.618421" x2="1261.618421" y1="91.000000" y2="96.000000" stroke="#AAAAAA" /><text style="font-size:10px;fill:#000000;" text-anchor="middle" x="1261.618421" y="106.000000">783</text><line x1="1395.355263" x2="1395.355263" y1="91.000000" y2="96.000000" stroke="#AAAAAA" /><text style="font-size:10px;fill:#000000;" text-anchor="middle" x="1395.355263" y="106.000000">867</text><line x1="1537.052632" x2="1537.052632" y1="91.000000" y2="96.000000" stroke="#AAAAAA" /><text style="font-size:10px;fill:#000000;" text-anchor="middle" x="1537.052632" y="106.000000">956</text><line x1="1724.921053" x2="1724.921053" y1="91.000000" y2="96.000000" stroke="#AAAAAA" /><text style="font-size:10px;fill:#000000;" text-anchor="middle" x="1724.921053" y="106.000000">1074</text><line x1="1855.473684" x2="1855.473684" y1="91.000000" y2="96.000000" stroke="#AAAAAA" /><text style="font-size:10px;fill:#000000;" text-anchor="middle" x="1855.473684" y="106.000000">1156</text><line x1="2040.157895" x2="2040.157895" y1="91.000000" y2="96.000000" stroke="#AAAAAA" /><text style="font-size:10px;fill:#000000;" text-anchor="middle" x="2040.157895" y="106.000000">1272</text><line x1="2137.276316" x2="2137.276316" y1="91.000000" y2="96.000000" stroke="#AAAAAA" /><text style="font-size:10px;fill:#000000;" text-anchor="middle" x="2137.276316" y="106.000000">1333</text><line x1="2210.513158" x2="2210.513158" y1="91.000000" y2="96.000000" stroke="#AAAAAA" /><text style="font-size:10px;fill:#000000;" text-anchor="middle" x="2210.513158" y="106.000000">1379</text><line x1="2317.184211" x2="2317.184211" y1="91.000000" y2="96.000000" stroke="#AAAAAA" /><text style="font-size:10px;fill:#000000;" text-anchor="middle" x="2317.184211" y="106.000000">1446</text><line x1="2704.065789" x2="2704.065789" y1="91.000000" y2="96.000000" stroke="#AAAAAA" /><text style="font-size:10px;fill:#000000;" text-anchor="middle" x="2704.065789" y="106.000000">1689</text></g>
</svg>
