<?xml version='1.0'?>
<svg xmlns="http://www.w3.org/2000/svg" xmlns:xlink="http://www.w3.org/1999/xlink" width="759.989011" height="223.500000">
<defs>
  <filter id="ds" x="0" y="0">
    <feOffset in="SourceAlpha" dx="2" dy="2" />
    <feComponentTransfer><feFuncA type="linear" slope="0.2"/></feComponentTransfer>
    <feGaussianBlur result="blurOut" stdDeviation="1" />
    <feBlend in="SourceGraphic" in2="blurOut" mode="normal" />
  </filter>
  <pattern id="disordered-hatch" patternUnits="userSpaceOnUse" width="4" height="4">
    <path d="M-1,1 l2,-2 M0,4 l4,-4 M3,5 l2,-2" stroke="#000000" opacity="0.3" />
  </pattern>
</defs>
<line x1="223.472527" x2="223.472527" y1="146.500000" y2="174.500000" stroke="#BABDB6" stroke-width="2"/><a xlink:title="p.E311_K312del"><circle cx="223.472527" cy="146.500000" r="4.000000" fill="#0000ff" /></a><g transform="translate(223.472527,146.500000) rotate(-30)"><text style="font-size:10px;fill:#555;" text-anchor="middle" x="0" y="-6.000000">p.E311_K312del</text></g><line x1="316.648352" x2="316.648352" y1="121.500000" y2="174.500000" stroke="#BABDB6" stroke-width="2"/><a xlink:title="p.C450_K451insMIEWMI"><circle cx="316.648352" cy="121.500000" r="4.000000" fill="#0000ff" /></a><g transform="translate(316.648352,121.500000) rotate(-30)"><text style="font-size:10px;fill:#555;" text-anchor="middle" x="0" y="-6.000000">p.C450_K451insMIEWMI</text></g><line x1="320.670330" x2="320.670330" y1="134.000000" y2="174.500000" stroke="#BABDB6" stroke-width="2"/><a xlink:title="p.C456_N468del"><circle cx="320.670330" cy="134.000000" r="4.000000" fill="#0000ff" /></a><g transform="translate(320.670330,134.000000) rotate(-30)"><text style="font-size:10px;fill:#555;" text-anchor="middle" x="0" y="-6.000000">p.C456_N468del</text></g><line x1="320.670330" x2="320.670330" y1="146.500000" y2="174.500000" stroke="#BABDB6" stroke-width="2"/><a xlink:title="p.C456_R481del"><circle cx="320.670330" cy="146.500000" r="4.000000" fill="#0000ff" /></a><g transform="translate(320.670330,146.500000) rotate(-30)"><text style="font-size:10px;fill:#555;" text-anchor="middle" x="0" y="-6.000000">p.C456_R481del</text></g><line x1="379.659341" x2="379.659341" y1="146.500000" y2="174.500000" stroke="#BABDB6" stroke-width="2"/><a xlink:title="p.V544_L555insAVLVLLVIVIISLI"><circle cx="379.659341" cy="146.500000" r="4.000000" fill="#0000ff" /></a><g transform="translate(379.659341,146.500000) rotate(-30)"><text style="font-size:10px;fill:#555;" text-anchor="middle" x="0" y="-6.000000">p.V544_L555insAVLVLLVIVIISLI</text></g><line x1="390.384615" x2="390.384615" y1="109.000000" y2="174.500000" stroke="#BABDB6" stroke-width="2"/><a xlink:title="p.R560_S564del"><circle cx="390.384615" cy="109.000000" r="4.000000" fill="#0000ff" /></a><g transform="translate(390.384615,109.000000) rotate(-30)"><text style="font-size:10px;fill:#555;" text-anchor="middle" x="0" y="-6.000000">p.R560_S564del</text></g><line x1="391.054945" x2="391.054945" y1="121.500000" y2="174.500000" stroke="#BABDB6" stroke-width="2"/><a xlink:title="p.V561_I562insER"><circle cx="391.054945" cy="121.500000" r="4.000000" fill="#0000ff" /></a><g transform="translate(391.054945,121.500000) rotate(-30)"><text style="font-size:10px;fill:#555;" text-anchor="middle" x="0" y="-6.000000">p.V561_I562insER</text></g><line x1="394.406593" x2="394.406593" y1="146.500000" y2="174.500000" stroke="#BABDB6" stroke-width="2"/><a xlink:title="p.S566_E571delinsR"><circle cx="394.406593" cy="146.500000" r="4.000000" fill="#0000ff" /></a><g transform="translate(394.406593,146.500000) rotate(-30)"><text style="font-size:10px;fill:#555;" text-anchor="middle" x="0" y="-6.000000">p.S566_E571delinsR</text></g><line x1="394.406593" x2="394.406593" y1="134.000000" y2="174.500000" stroke="#BABDB6" stroke-width="2"/><a xlink:title="p.S566_E571del"><circle cx="394.406593" cy="134.000000" r="4.000000" fill="#0000ff" /></a><g transform="translate(394.406593,134.000000) rotate(-30)"><text style="font-size:10px;fill:#555;" text-anchor="middle" x="0" y="-6.000000">p.S566_E571del</text></g><line x1="578.747253" x2="578.747253" y1="34.000000" y2="174.500000" stroke="#BABDB6" stroke-width="2"/><a xlink:title="p.R841_D842delinsKI"><circle cx="578.747253" cy="34.000000" r="4.000000" fill="#0000ff" /></a><g transform="translate(578.747253,34.000000) rotate(-30)"><text style="font-size:10px;fill:#555;" text-anchor="middle" x="0" y="-6.000000">p.R841_D842delinsKI</text></g><line x1="579.417582" x2="579.417582" y1="59.000000" y2="174.500000" stroke="#BABDB6" stroke-width="2"/><a xlink:title="p.D842_H845del"><circle cx="579.417582" cy="59.000000" r="4.000000" fill="#0000ff" /></a><g transform="translate(579.417582,59.000000) rotate(-30)"><text style="font-size:10px;fill:#555;" text-anchor="middle" x="0" y="-6.000000">p.D842_H845del</text></g><line x1="579.417582" x2="579.417582" y1="46.500000" y2="174.500000" stroke="#BABDB6" stroke-width="2"/><a xlink:title="p.D842_I843delinsIM"><circle cx="579.417582" cy="46.500000" r="4.000000" fill="#0000ff" /></a><g transform="translate(579.417582,46.500000) rotate(-30)"><text style="font-size:10px;fill:#555;" text-anchor="middle" x="0" y="-6.000000">p.D842_I843delinsIM</text></g><line x1="579.417582" x2="579.417582" y1="71.500000" y2="174.500000" stroke="#BABDB6" stroke-width="2"/><a xlink:title="p.D842_D846delinsG"><circle cx="579.417582" cy="71.500000" r="4.000000" fill="#0000ff" /></a><g transform="translate(579.417582,71.500000) rotate(-30)"><text style="font-size:10px;fill:#555;" text-anchor="middle" x="0" y="-6.000000">p.D842_D846delinsG</text></g><line x1="579.417582" x2="579.417582" y1="84.000000" y2="174.500000" stroke="#BABDB6" stroke-width="2"/><a xlink:title="p.D842_N848del"><circle cx="579.417582" cy="84.000000" r="4.000000" fill="#0000ff" /></a><g transform="translate(579.417582,84.000000) rotate(-30)"><text style="font-size:10px;fill:#555;" text-anchor="middle" x="0" y="-6.000000">p.D842_N848del</text></g><line x1="580.087912" x2="580.087912" y1="121.500000" y2="174.500000" stroke="#BABDB6" stroke-width="2"/><a xlink:title="p.I843_S847delinsT"><circle cx="580.087912" cy="121.500000" r="4.000000" fill="#0000ff" /></a><g transform="translate(580.087912,121.500000) rotate(-30)"><text style="font-size:10px;fill:#555;" text-anchor="middle" x="0" y="-6.000000">p.I843_S847delinsT</text></g><line x1="580.087912" x2="580.087912" y1="109.000000" y2="174.500000" stroke="#BABDB6" stroke-width="2"/><a xlink:title="p.I843_D846del"><circle cx="580.087912" cy="109.000000" r="4.000000" fill="#0000ff" /></a><g transform="translate(580.087912,109.000000) rotate(-30)"><text style="font-size:10px;fill:#555;" text-anchor="middle" x="0" y="-6.000000">p.I843_D846del</text></g><line x1="580.087912" x2="580.087912" y1="96.500000" y2="174.500000" stroke="#BABDB6" stroke-width="2"/><a xlink:title="p.I843del"><circle cx="580.087912" cy="96.500000" r="4.000000" fill="#ff0000" /></a><g transform="translate(580.087912,96.500000) rotate(-30)"><text style="font-size:10px;fill:#555;" text-anchor="middle" x="0" y="-6.000000">p.I843del</text></g><line x1="581.428571" x2="581.428571" y1="146.500000" y2="174.500000" stroke="#BABDB6" stroke-width="2"/><a xlink:title="p.H845_N848delinsP"><circle cx="581.428571" cy="146.500000" r="4.000000" fill="#0000ff" /></a><g transform="translate(581.428571,146.500000) rotate(-30)"><text style="font-size:10px;fill:#555;" text-anchor="middle" x="0" y="-6.000000">p.H845_N848delinsP</text></g><line x1="581.428571" x2="581.428571" y1="134.000000" y2="174.500000" stroke="#BABDB6" stroke-width="2"/><a xlink:title="p.H845_N848del"><circle cx="581.428571" cy="134.000000" r="4.000000" fill="#0000ff" /></a><g transform="translate(581.428571,134.000000) rotate(-30)"><text style="font-size:10px;fill:#555;" text-anchor="middle" x="0" y="-6.000000">p.H845_N848del</text></g><a xlink:title="PGFRA_HUMAN, Platelet-derived growth factor receptor alpha EC=2.7.10.1 (1089aa)"><rect fill="#BABDB6" x="15.000000" y="174.500000" width="729.989011" height="14.000000"/></a><g transform="translate(159.791209,169.500000)"><a xlink:href="http://pfam.xfam.org/family/PF07679" xlink:title="Immunoglobulin I-set domain"><rect fill="#2dcf00" x="0" y="0" width="61.000000" height="24.000000" filter="url(#ds)"/><text style="font-size:12px;fill:#ffffff;" text-anchor="middle" x="30.500000" y="16.000000">I-set</text></a></g>
<g transform="translate(228.835165,169.500000)"><a xlink:href="http://pfam.xfam.org/family/PF07679" xlink:title="Immunoglobulin I-set domain"><rect fill="#2dcf00" x="0" y="0" width="61.670330" height="24.000000" filter="url(#ds)"/><text style="font-size:12px;fill:#ffffff;" text-anchor="middle" x="30.835165" y="16.000000">I-set</text></a></g>
<g transform="translate(412.505495,169.500000)"><a xlink:href="http://pfam.xfam.org/family/PF07714" xlink:title="Protein tyrosine kinase"><rect fill="#ff5353" x="0" y="0" width="239.307692" height="24.000000" filter="url(#ds)"/><text style="font-size:12px;fill:#ffffff;" text-anchor="middle" x="119.653846" y="16.000000">Protein tyrosine kinase</text></a></g>
<g class="axis">
<line x1="15.000000" x2="744.989011" y1="203.500000" y2="203.500000" stroke="#AAAAAA" /><line x1="15.000000" x2="15.000000" y1="203.500000" y2="208.500000" stroke="#AAAAAA" /><line x1="15.000000" x2="15.000000" y1="203.500000" y2="208.500000" stroke="#AAAAAA" /><text style="font-size:10px;fill:#000000;" text-anchor="middle" x="15.000000" y="218.500000">0</text><line x1="159.791209" x2="159.791209" y1="203.500000" y2="208.500000" stroke="#AAAAAA" /><text style="font-size:10px;fill:#000000;" text-anchor="middle" x="159.791209" y="218.500000">216</text><line x1="223.472527" x2="223.472527" y1="203.500000" y2="208.500000" stroke="#AAAAAA" /><text style="font-size:10px;fill:#000000;" text-anchor="middle" x="223.472527" y="218.500000">311</text><line x1="290.505495" x2="290.505495" y1="203.500000" y2="208.500000" stroke="#AAAAAA" /><text style="font-size:10px;fill:#000000;" text-anchor="middle" x="290.505495" y="218.500000">411</text><line x1="316.648352" x2="316.648352" y1="203.500000" y2="208.500000" stroke="#AAAAAA" /><text style="font-size:10px;fill:#000000;" text-anchor="middle" x="316.648352" y="218.500000">450</text><line x1="379.659341" x2="379.659341" y1="203.500000" y2="208.500000" stroke="#AAAAAA" /><text style="font-size:10px;fill:#000000;" text-anchor="middle" x="379.659341" y="218.500000">544</text><line x1="412.505495" x2="412.505495" y1="203.500000" y2="208.500000" stroke="#AAAAAA" /><text style="font-size:10px;fill:#000000;" text-anchor="middle" x="412.505495" y="218.500000">593</text><line x1="578.747253" x2="578.747253" y1="203.500000" y2="208.500000" stroke="#AAAAAA" /><text style="font-size:10px;fill:#000000;" text-anchor="middle" x="578.747253" y="218.500000">841</text><line x1="651.813187" x2="651.813187" y1="203.500000" y2="208.500000" stroke="#AAAAAA" /><text style="font-size:10px;fill:#000000;" text-anchor="middle" x="651.813187" y="218.500000">950</text><line x1="744.989011" x2="744.989011" y1="203.500000" y2="208.500000" stroke="#AAAAAA" /><text style="font-size:10px;fill:#000000;" text-anchor="middle" x="744.989011" y="218.500000">1089</text></g>
</svg>
