<?xml version='1.0'?>
<svg xmlns="http://www.w3.org/2000/svg" xmlns:xlink="http://www.w3.org/1999/xlink" width="1225.085526" height="111.000000">
<defs>
  <filter id="ds" x="0" y="0">
    <feOffset in="SourceAlpha" dx="2" dy="2" />
    <feComponentTransfer><feFuncA type="linear" slope="0.2"/></feComponentTransfer>
    <feGaussianBlur result="blurOut" stdDeviation="1" />
    <feBlend in="SourceGraphic" in2="blurOut" mode="normal" />
  </filter>
  <pattern id="disordered-hatch" patternUnits="userSpaceOnUse" width="4" height="4">
    <path d="M-1,1 l2,-2 M0,4 l4,-4 M3,5 l2,-2" stroke="#000000" opacity="0.3" />
  </pattern>
</defs>
<line x1="403.427632" x2="403.427632" y1="34.000000" y2="62.000000" stroke="#BABDB6" stroke-width="2"/><a xlink:title="p.S391Terfs"><circle cx="403.427632" cy="34.000000" r="4.000000" fill="#ff0000" /></a><g transform="translate(403.427632,34.000000) rotate(-30)"><text style="font-size:10px;fill:#555;" text-anchor="middle" x="0" y="-6.000000">p.S391Terfs</text></g><a xlink:title="PTC2_HUMAN, Protein patched homolog 2 (1203aa)"><rect fill="#BABDB6" x="15.000000" y="62.000000" width="1195.085526" height="14.000000"/></a><g transform="translate(430.250000,57.000000)"><a xlink:href="http://pfam.xfam.org/family/PF12349" xlink:title="Sterol-sensing domain of SREBP cleavage-activation"><rect fill="#2dcf00" x="0" y="0" width="151.000000" height="24.000000" filter="url(#ds)"/><text style="font-size:12px;fill:#ffffff;" text-anchor="middle" x="75.500000" y="16.000000">Sterol-sensing</text></a></g>
<g transform="translate(912.059211,57.000000)"><a xlink:href="http://pfam.xfam.org/family/PF02460" xlink:title="Patched family"><rect fill="#ff5353" x="0" y="0" width="211.598684" height="24.000000" filter="url(#ds)"/><text style="font-size:12px;fill:#ffffff;" text-anchor="middle" x="105.799342" y="16.000000">Patched family</text></a></g>
<g class="axis">
<line x1="15.000000" x2="1210.085526" y1="91.000000" y2="91.000000" stroke="#AAAAAA" /><line x1="15.000000" x2="15.000000" y1="91.000000" y2="96.000000" stroke="#AAAAAA" /><line x1="15.000000" x2="15.000000" y1="91.000000" y2="96.000000" stroke="#AAAAAA" /><text style="font-size:10px;fill:#000000;" text-anchor="middle" x="15.000000" y="106.000000">0</text><line x1="403.427632" x2="403.427632" y1="91.000000" y2="96.000000" stroke="#AAAAAA" /><text style="font-size:10px;fill:#000000;" text-anchor="middle" x="403.427632" y="106.000000">391</text><line x1="430.250000" x2="430.250000" y1="91.000000" y2="96.000000" stroke="#AAAAAA" /><text style="font-size:10px;fill:#000000;" text-anchor="middle" x="430.250000" y="106.000000">418</text><line x1="581.250000" x2="581.250000" y1="91.000000" y2="96.000000" stroke="#AAAAAA" /><text style="font-size:10px;fill:#000000;" text-anchor="middle" x="581.250000" y="106.000000">570</text><line x1="912.059211" x2="912.059211" y1="91.000000" y2="96.000000" stroke="#AAAAAA" /><text style="font-size:10px;fill:#000000;" text-anchor="middle" x="912.059211" y="106.000000">903</text><line x1="1123.657895" x2="1123.657895" y1="91.000000" y2="96.000000" stroke="#AAAAAA" /><text style="font-size:10px;fill:#000000;" text-anchor="middle" x="1123.657895" y="106.000000">1116</text><line x1="1210.085526" x2="1210.085526" y1="91.000000" y2="96.000000" stroke="#AAAAAA" /><text style="font-size:10px;fill:#000000;" text-anchor="middle" x="1210.085526" y="106.000000">1203</text></g>
</svg>
