<?xml version='1.0'?>
<svg xmlns="http://www.w3.org/2000/svg" xmlns:xlink="http://www.w3.org/1999/xlink" width="430.000000" height="111.000000">
<defs>
  <filter id="ds" x="0" y="0">
    <feOffset in="SourceAlpha" dx="2" dy="2" />
    <feComponentTransfer><feFuncA type="linear" slope="0.2"/></feComponentTransfer>
    <feGaussianBlur result="blurOut" stdDeviation="1" />
    <feBlend in="SourceGraphic" in2="blurOut" mode="normal" />
  </filter>
  <pattern id="disordered-hatch" patternUnits="userSpaceOnUse" width="4" height="4">
    <path d="M-1,1 l2,-2 M0,4 l4,-4 M3,5 l2,-2" stroke="#000000" opacity="0.3" />
  </pattern>
</defs>
<line x1="356.428571" x2="356.428571" y1="34.000000" y2="62.000000" stroke="#BABDB6" stroke-width="2"/><a xlink:title="p.S239Yfs"><circle cx="356.428571" cy="34.000000" r="4.000000" fill="#ff0000" /></a><g transform="translate(356.428571,34.000000) rotate(-30)"><text style="font-size:10px;fill:#555;" text-anchor="middle" x="0" y="-6.000000">p.S239Yfs</text></g><a xlink:title="SDHB_HUMAN, Succinate dehydrogenase [ubiquinone] iron-sulfur subunit, mitochondrial EC=1.3.5.1 (280aa)"><rect fill="#BABDB6" x="15.000000" y="62.000000" width="400.000000" height="14.000000"/></a><g transform="translate(73.571429,57.000000)"><a xlink:href="http://pfam.xfam.org/family/PF13085" xlink:title="2Fe-2S iron-sulfur cluster binding domain"><rect fill="#2dcf00" x="0" y="0" width="152.857143" height="24.000000" filter="url(#ds)"/><text style="font-size:12px;fill:#ffffff;" text-anchor="middle" x="76.428571" y="16.000000">Fer2_3</text></a></g>
<g transform="translate(279.285714,57.000000)"><a xlink:href="http://pfam.xfam.org/family/PF13534" xlink:title="4Fe-4S dicluster domain"><rect fill="#ff5353" x="0" y="0" width="104.285714" height="24.000000" filter="url(#ds)"/><text style="font-size:12px;fill:#ffffff;" text-anchor="middle" x="52.142857" y="16.000000">Fer4_17</text></a></g>
<g class="axis">
<line x1="15.000000" x2="415.000000" y1="91.000000" y2="91.000000" stroke="#AAAAAA" /><line x1="15.000000" x2="15.000000" y1="91.000000" y2="96.000000" stroke="#AAAAAA" /><line x1="15.000000" x2="15.000000" y1="91.000000" y2="96.000000" stroke="#AAAAAA" /><text style="font-size:10px;fill:#000000;" text-anchor="middle" x="15.000000" y="106.000000">0</text><line x1="73.571429" x2="73.571429" y1="91.000000" y2="96.000000" stroke="#AAAAAA" /><text style="font-size:10px;fill:#000000;" text-anchor="middle" x="73.571429" y="106.000000">41</text><line x1="226.428571" x2="226.428571" y1="91.000000" y2="96.000000" stroke="#AAAAAA" /><text style="font-size:10px;fill:#000000;" text-anchor="middle" x="226.428571" y="106.000000">148</text><line x1="279.285714" x2="279.285714" y1="91.000000" y2="96.000000" stroke="#AAAAAA" /><text style="font-size:10px;fill:#000000;" text-anchor="middle" x="279.285714" y="106.000000">185</text><line x1="356.428571" x2="356.428571" y1="91.000000" y2="96.000000" stroke="#AAAAAA" /><text style="font-size:10px;fill:#000000;" text-anchor="middle" x="356.428571" y="106.000000">239</text><line x1="383.571429" x2="383.571429" y1="91.000000" y2="96.000000" stroke="#AAAAAA" /><text style="font-size:10px;fill:#000000;" text-anchor="middle" x="383.571429" y="106.000000">258</text><line x1="415.000000" x2="415.000000" y1="91.000000" y2="96.000000" stroke="#AAAAAA" /><text style="font-size:10px;fill:#000000;" text-anchor="middle" x="415.000000" y="106.000000">280</text></g>
</svg>
