<?xml version='1.0'?>
<svg xmlns="http://www.w3.org/2000/svg" xmlns:xlink="http://www.w3.org/1999/xlink" width="430.000000" height="123.500000">
<defs>
  <filter id="ds" x="0" y="0">
    <feOffset in="SourceAlpha" dx="2" dy="2" />
    <feComponentTransfer><feFuncA type="linear" slope="0.2"/></feComponentTransfer>
    <feGaussianBlur result="blurOut" stdDeviation="1" />
    <feBlend in="SourceGraphic" in2="blurOut" mode="normal" />
  </filter>
  <pattern id="disordered-hatch" patternUnits="userSpaceOnUse" width="4" height="4">
    <path d="M-1,1 l2,-2 M0,4 l4,-4 M3,5 l2,-2" stroke="#000000" opacity="0.3" />
  </pattern>
</defs>
<line x1="119.347826" x2="119.347826" y1="46.500000" y2="74.500000" stroke="#BABDB6" stroke-width="2"/><a xlink:title="p.S144Rfs"><circle cx="119.347826" cy="46.500000" r="4.000000" fill="#ff0000" /></a><g transform="translate(119.347826,46.500000) rotate(-30)"><text style="font-size:10px;fill:#555;" text-anchor="middle" x="0" y="-6.000000">p.S144Rfs</text></g><line x1="162.101449" x2="162.101449" y1="46.500000" y2="74.500000" stroke="#BABDB6" stroke-width="2"/><a xlink:title="p.P203Hfs*38"><circle cx="162.101449" cy="46.500000" r="4.000000" fill="#ff0000" /></a><g transform="translate(162.101449,46.500000) rotate(-30)"><text style="font-size:10px;fill:#555;" text-anchor="middle" x="0" y="-6.000000">p.P203Hfs*38</text></g><line x1="183.115942" x2="183.115942" y1="46.500000" y2="74.500000" stroke="#BABDB6" stroke-width="2"/><a xlink:title="p.S232Qfs"><circle cx="183.115942" cy="46.500000" r="4.000000" fill="#ff0000" /></a><g transform="translate(183.115942,46.500000) rotate(-30)"><text style="font-size:10px;fill:#555;" text-anchor="middle" x="0" y="-6.000000">p.S232Qfs</text></g><line x1="229.492754" x2="229.492754" y1="46.500000" y2="74.500000" stroke="#BABDB6" stroke-width="2"/><a xlink:title="p.P296Dfs"><circle cx="229.492754" cy="46.500000" r="4.000000" fill="#ff0000" /></a><g transform="translate(229.492754,46.500000) rotate(-30)"><text style="font-size:10px;fill:#555;" text-anchor="middle" x="0" y="-6.000000">p.P296Dfs</text></g><line x1="265.724638" x2="265.724638" y1="46.500000" y2="74.500000" stroke="#BABDB6" stroke-width="2"/><a xlink:title="p.P346Lfs*38"><circle cx="265.724638" cy="46.500000" r="4.000000" fill="#ff0000" /></a><g transform="translate(265.724638,46.500000) rotate(-30)"><text style="font-size:10px;fill:#555;" text-anchor="middle" x="0" y="-6.000000">p.P346Lfs*38</text></g><line x1="283.840580" x2="283.840580" y1="46.500000" y2="74.500000" stroke="#BABDB6" stroke-width="2"/><a xlink:title="p.H371Dfs*5"><circle cx="283.840580" cy="46.500000" r="4.000000" fill="#ff0000" /></a><g transform="translate(283.840580,46.500000) rotate(-30)"><text style="font-size:10px;fill:#555;" text-anchor="middle" x="0" y="-6.000000">p.H371Dfs*5</text></g><line x1="315.724638" x2="315.724638" y1="34.000000" y2="74.500000" stroke="#BABDB6" stroke-width="2"/><a xlink:title="p.D415fs"><circle cx="315.724638" cy="34.000000" r="4.000000" fill="#ff0000" /></a><g transform="translate(315.724638,34.000000) rotate(-30)"><text style="font-size:10px;fill:#555;" text-anchor="middle" x="0" y="-6.000000">p.D415fs</text></g><line x1="315.724638" x2="315.724638" y1="46.500000" y2="74.500000" stroke="#BABDB6" stroke-width="2"/><a xlink:title="p.D415Efs*20"><circle cx="315.724638" cy="46.500000" r="4.000000" fill="#ff0000" /></a><g transform="translate(315.724638,46.500000) rotate(-30)"><text style="font-size:10px;fill:#555;" text-anchor="middle" x="0" y="-6.000000">p.D415Efs*20</text></g><line x1="339.637681" x2="339.637681" y1="46.500000" y2="74.500000" stroke="#BABDB6" stroke-width="2"/><a xlink:title="p.Q448Rfs*37"><circle cx="339.637681" cy="46.500000" r="4.000000" fill="#ff0000" /></a><g transform="translate(339.637681,46.500000) rotate(-30)"><text style="font-size:10px;fill:#555;" text-anchor="middle" x="0" y="-6.000000">p.Q448Rfs*37</text></g><line x1="399.057971" x2="399.057971" y1="46.500000" y2="74.500000" stroke="#BABDB6" stroke-width="2"/><a xlink:title="p.R530Tfs*7"><circle cx="399.057971" cy="46.500000" r="4.000000" fill="#ff0000" /></a><g transform="translate(399.057971,46.500000) rotate(-30)"><text style="font-size:10px;fill:#555;" text-anchor="middle" x="0" y="-6.000000">p.R530Tfs*7</text></g><a xlink:title="SMAD4_HUMAN, Mothers against decapentaplegic homolog 4 (552aa)"><rect fill="#BABDB6" x="15.000000" y="74.500000" width="400.000000" height="14.000000"/></a><g transform="translate(41.086957,69.500000)"><a xlink:href="http://pfam.xfam.org/family/PF03165" xlink:title="MH1 domain"><rect fill="#2dcf00" x="0" y="0" width="73.188406" height="24.000000" filter="url(#ds)"/><text style="font-size:12px;fill:#ffffff;" text-anchor="middle" x="36.594203" y="16.000000">MH1</text></a></g>
<g transform="translate(247.608696,69.500000)"><a xlink:href="http://pfam.xfam.org/family/PF03166" xlink:title="MH2 domain"><rect fill="#ff5353" x="0" y="0" width="151.449275" height="24.000000" filter="url(#ds)"/><text style="font-size:12px;fill:#ffffff;" text-anchor="middle" x="75.724638" y="16.000000">MH2 domain</text></a></g>
<g class="axis">
<line x1="15.000000" x2="415.000000" y1="103.500000" y2="103.500000" stroke="#AAAAAA" /><line x1="15.000000" x2="15.000000" y1="103.500000" y2="108.500000" stroke="#AAAAAA" /><line x1="15.000000" x2="15.000000" y1="103.500000" y2="108.500000" stroke="#AAAAAA" /><text style="font-size:10px;fill:#000000;" text-anchor="middle" x="15.000000" y="118.500000">0</text><line x1="41.086957" x2="41.086957" y1="103.500000" y2="108.500000" stroke="#AAAAAA" /><text style="font-size:10px;fill:#000000;" text-anchor="middle" x="41.086957" y="118.500000">36</text><line x1="119.347826" x2="119.347826" y1="103.500000" y2="108.500000" stroke="#AAAAAA" /><text style="font-size:10px;fill:#000000;" text-anchor="middle" x="119.347826" y="118.500000">144</text><line x1="162.101449" x2="162.101449" y1="103.500000" y2="108.500000" stroke="#AAAAAA" /><text style="font-size:10px;fill:#000000;" text-anchor="middle" x="162.101449" y="118.500000">203</text><line x1="183.115942" x2="183.115942" y1="103.500000" y2="108.500000" stroke="#AAAAAA" /><text style="font-size:10px;fill:#000000;" text-anchor="middle" x="183.115942" y="118.500000">232</text><line x1="229.492754" x2="229.492754" y1="103.500000" y2="108.500000" stroke="#AAAAAA" /><text style="font-size:10px;fill:#000000;" text-anchor="middle" x="229.492754" y="118.500000">296</text><line x1="265.724638" x2="265.724638" y1="103.500000" y2="108.500000" stroke="#AAAAAA" /><text style="font-size:10px;fill:#000000;" text-anchor="middle" x="265.724638" y="118.500000">346</text><line x1="315.724638" x2="315.724638" y1="103.500000" y2="108.500000" stroke="#AAAAAA" /><text style="font-size:10px;fill:#000000;" text-anchor="middle" x="315.724638" y="118.500000">415</text><line x1="339.637681" x2="339.637681" y1="103.500000" y2="108.500000" stroke="#AAAAAA" /><text style="font-size:10px;fill:#000000;" text-anchor="middle" x="339.637681" y="118.500000">448</text><line x1="415.000000" x2="415.000000" y1="103.500000" y2="108.500000" stroke="#AAAAAA" /><text style="font-size:10px;fill:#000000;" text-anchor="middle" x="415.000000" y="118.500000">552</text></g>
</svg>
